<svg width="411" height="130" viewBox="0 0 411 130" fill="none" xmlns="http://www.w3.org/2000/svg">
<path d="M219.052 72.3302C221.187 72.8613 222.875 74.0375 224.115 75.8587C225.389 77.642 226.026 79.6908 226.026 82.0053C226.026 85.42 224.959 88.0949 222.823 90.0299C220.688 91.9649 217.692 92.9324 213.835 92.9324H195.806V52.8092H213.266C216.986 52.8092 219.896 53.7198 221.997 55.541C224.132 57.3622 225.2 59.9233 225.2 63.2242C225.2 65.5766 224.631 67.5495 223.495 69.1431C222.393 70.6987 220.912 71.761 219.052 72.3302ZM205.931 68.7447H211.045C213.594 68.7447 214.868 67.5875 214.868 65.273C214.868 62.8827 213.594 61.6876 211.045 61.6876H205.931V68.7447ZM211.82 83.9403C214.368 83.9403 215.643 82.7641 215.643 80.4117C215.643 79.1976 215.298 78.268 214.61 77.623C213.955 76.978 213.008 76.6555 211.768 76.6555H205.931V83.9403H211.82Z" fill="black"/>
<path d="M238.006 66.6389C239.142 64.8177 240.52 63.3759 242.138 62.3136C243.757 61.2512 245.496 60.72 247.356 60.72V72.6147H244.515C242.311 72.6147 240.675 73.089 239.607 74.0375C238.54 74.9861 238.006 76.6365 238.006 78.9889V92.9324H227.881V61.0046H238.006V66.6389Z" fill="black"/>
<path d="M253.517 58.0452C251.726 58.0452 250.28 57.514 249.178 56.4516C248.11 55.3513 247.576 53.9854 247.576 52.3539C247.576 50.6845 248.11 49.2996 249.178 48.1993C250.28 47.099 251.726 46.5489 253.517 46.5489C255.274 46.5489 256.686 47.099 257.753 48.1993C258.855 49.2996 259.406 50.6845 259.406 52.3539C259.406 53.9854 258.855 55.3513 257.753 56.4516C256.686 57.514 255.274 58.0452 253.517 58.0452ZM258.528 61.0046V92.9324H248.403V61.0046H258.528Z" fill="black"/>
<path d="M272.405 60.6062C274.368 60.6062 276.072 61.0425 277.519 61.9152C279 62.7879 280.136 63.964 280.928 65.4438V61.0046H291.053V92.591C291.053 95.5884 290.537 98.2822 289.504 100.673C288.47 103.101 286.852 105.036 284.648 106.478C282.478 107.919 279.723 108.64 276.382 108.64C271.905 108.64 268.323 107.483 265.637 105.169C262.951 102.854 261.418 99.705 261.04 95.7212H271.01C271.216 96.7456 271.733 97.5423 272.56 98.1115C273.386 98.6806 274.454 98.9652 275.762 98.9652C279.206 98.9652 280.928 96.8404 280.928 92.591V88.4933C280.136 89.973 279 91.1492 277.519 92.0218C276.072 92.8945 274.368 93.3308 272.405 93.3308C270.097 93.3308 267.996 92.6669 266.102 91.3389C264.242 90.0109 262.762 88.1139 261.659 85.6477C260.592 83.1435 260.058 80.241 260.058 76.9401C260.058 73.6391 260.592 70.7556 261.659 68.2894C262.762 65.8232 264.242 63.9261 266.102 62.5981C267.996 61.2702 270.097 60.6062 272.405 60.6062ZM280.928 76.9401C280.928 74.8912 280.412 73.2787 279.379 72.1025C278.38 70.9263 277.14 70.3382 275.659 70.3382C274.144 70.3382 272.887 70.9263 271.888 72.1025C270.889 73.2408 270.39 74.8533 270.39 76.9401C270.39 78.9889 270.889 80.6204 271.888 81.8345C272.887 83.0107 274.144 83.5988 275.659 83.5988C277.14 83.5988 278.38 83.0107 279.379 81.8345C280.412 80.6583 280.928 79.0269 280.928 76.9401Z" fill="black"/>
<path d="M313.302 60.72C316.608 60.72 319.226 61.9531 321.154 64.4193C323.117 66.8476 324.099 70.1485 324.099 74.3221V92.9324H313.974V75.8018C313.974 73.9806 313.543 72.5578 312.682 71.5334C311.821 70.471 310.668 69.9398 309.221 69.9398C307.706 69.9398 306.518 70.471 305.657 71.5334C304.796 72.5578 304.365 73.9806 304.365 75.8018V92.9324H294.24V50.8173H304.365V65.5576C305.261 64.1158 306.466 62.9586 307.981 62.0859C309.531 61.1753 311.305 60.72 313.302 60.72Z" fill="black"/>
<path d="M344.171 83.4281V92.9324H339.78C332.375 92.9324 328.673 88.8917 328.673 80.8101V70.2813H325.109V61.0046H328.673V53.2645H338.85V61.0046H344.119V70.2813H338.85V80.9808C338.85 81.8535 339.022 82.4795 339.367 82.859C339.745 83.2384 340.365 83.4281 341.226 83.4281H344.171Z" fill="black"/>
<path d="M351.14 93.3877C349.349 93.3877 347.902 92.8566 346.8 91.7942C345.733 90.6939 345.199 89.309 345.199 87.6396C345.199 85.9702 345.733 84.5853 346.8 83.485C347.902 82.3847 349.349 81.8345 351.14 81.8345C352.896 81.8345 354.308 82.3847 355.376 83.485C356.478 84.5853 357.029 85.9702 357.029 87.6396C357.029 89.2711 356.478 90.637 355.376 91.7373C354.308 92.8376 352.896 93.3877 351.14 93.3877Z" fill="black"/>
<circle cx="113.444" cy="65.4437" r="58.4437" fill="#FE5C00"/>
<path d="M76.9163 64.0968C76.9163 46.0121 91.5769 31.3515 109.662 31.3515V66.7905C109.662 84.8753 95.001 99.5358 76.9163 99.5358V64.0968Z" fill="#FFB62A"/>
<path d="M112.097 31.3515H128.469C137.512 31.3515 144.842 38.6818 144.842 47.7242C144.842 56.7665 137.512 64.0968 128.469 64.0968H112.097V31.3515Z" fill="#4D7659"/>
<path d="M112.097 66.5322H128.469C137.512 66.5322 144.842 73.8625 144.842 82.9049C144.842 91.9472 137.512 99.2775 128.469 99.2775C119.427 99.2775 112.097 91.9472 112.097 82.9049V66.5322Z" fill="white"/>
</svg>
