<svg width="240" height="210" viewBox="0 0 240 210" fill="none" xmlns="http://www.w3.org/2000/svg">
<path d="M28.3224 199.587C28.3224 199.587 -38.5563 72.6332 33.2264 32.8649C105.009 -6.90334 119.934 60.5929 152.681 65.9928C185.429 71.3928 231.444 53.9976 238.905 121.104C246.366 188.21 213.254 199.587 213.254 199.587H30.6535H28.3224Z" fill="#ECE8E8"/>
<path d="M76.6848 186.938C76.6848 186.938 69.5787 199.107 50.2112 199.58C30.8437 200.054 61.0928 170.19 61.0928 170.19L76.6848 186.938Z" fill="#F3915A"/>
<path d="M108.755 11.4319C108.755 11.4319 86.3883 16.5309 78.4899 36.9053C78.4899 36.9053 74.2877 50.9267 77.4973 66.3439C80.7101 81.7605 77.0834 93.1499 74.8332 99.3461C72.583 105.542 70.8092 121.721 84.8861 134.326L182.708 119.287C182.708 119.287 192.225 98.5481 181.253 82.1521C181.253 82.1521 179.099 79.176 175.556 75.1153C172.013 71.0547 166.005 58.426 162.507 42.0101C159.008 25.5941 146.718 15.0914 134.175 11.7427C121.633 8.39407 108.755 11.4319 108.755 11.4319Z" fill="#2D2D2D"/>
<path d="M84.2918 58.4806C84.2918 58.4806 86.0635 97.9423 122.988 99.4683C122.988 99.4683 140.95 100.952 153.79 79.369C166.63 57.7859 148.272 31.4303 148.272 31.4303C148.272 31.4303 129.452 26.9421 110.787 33.7941C92.1224 40.6462 82.1765 47.1906 84.2918 58.4806Z" fill="#F3915A"/>
<path d="M98.1828 67.8685C98.1828 67.8685 102.634 59.5289 110.289 66.997C110.289 66.997 112.284 66.4493 110.445 63.7665C108.603 61.0647 104.142 59.0628 100.608 60.7762C97.0698 62.4971 94.9784 68.2847 98.1828 67.8685Z" fill="#474747"/>
<path d="M118.731 83.2091C118.731 83.2091 127.881 81.8085 130.506 81.304C133.129 80.7868 133.843 82.3077 133.715 84.4036C133.586 86.4995 130.632 91.5395 125.232 91.4494C119.833 91.3592 117.506 86.6659 117.506 86.6659C117.506 86.6659 115.525 83.4553 118.731 83.2091Z" fill="#E17E46"/>
<path d="M118.012 87.5107C118.012 87.5107 124.254 84.8291 129.707 86.4453L132.413 87.4944C132.413 87.4944 129.933 92.4224 123.875 91.3153C123.887 91.313 120.966 91.6124 118.012 87.5107Z" fill="#FF77AD"/>
<path d="M121.333 90.613C121.333 90.613 122.975 88.9308 126.718 88.453C130.465 87.9746 131.319 89.0152 131.319 89.0152C131.16 89.3157 127.037 93.4377 121.333 90.613Z" fill="#F9EEF0"/>
<path d="M118.159 83.2898C118.159 83.2898 121.592 86.4339 125.568 85.3378C129.547 84.2411 131.203 81.0273 131.203 81.0273C131.203 81.0273 121.098 82.9085 118.159 83.2898Z" fill="#F9EEF0"/>
<path d="M107.943 16.6279C107.943 16.6279 87.0055 21.8775 81.6696 38.1799C81.6696 38.1799 78.4988 48.1967 79.2751 54.4411C79.2751 54.4411 75.4379 61.9525 81.693 75.5678C81.693 75.5678 86.4146 82.267 88.6314 79.7605C88.6314 79.7605 89.7332 78.8604 88.7534 73.8447C87.7735 68.829 85.5137 54.7854 85.5137 54.7854C85.5137 54.7854 84.9553 52.0804 83.4169 51.7269C83.4169 51.7269 82.2781 51.4091 81.314 52.4185L88.4427 32.154C88.4427 32.154 100.377 21.6806 110.611 23.5121C120.844 25.3437 118.896 25.0642 118.896 25.0642C118.896 25.0642 125.094 18.576 134.366 22.8605C143.637 27.1449 149.118 27.5576 154.372 39.5172L156.593 48.6565L158.079 42.5462C158.079 42.5462 154.997 18.5306 127.128 15.2578C127.128 15.261 118.001 14.0184 107.943 16.6279Z" fill="#559BE9"/>
<path d="M108.607 20.2992C108.607 20.2992 97.7844 20.1526 88.8036 29.4954C79.8228 38.8382 81.3106 59.4785 81.3106 59.4785C81.3106 59.4785 92.4116 63.0815 111.29 45.353C111.29 45.353 122.929 67.5679 158.344 61.6986C158.344 61.6986 162.373 38.3541 145.721 24.3187C129.068 10.2833 113.068 22.2291 113.068 22.2291C113.068 22.2291 111.148 20.4681 108.607 20.2992Z" fill="#2D2D2D"/>
<path d="M87.3074 64.1998C87.3074 64.1998 84.6495 61.928 84.0178 61.0469C83.7271 60.2053 81.3604 58.8003 80.914 57.8856C80.4223 56.878 80.4975 53.6728 82.2321 52.9568C83.9667 52.2408 85.1738 53.5126 85.5256 54.3544C85.8769 55.1934 86.7171 60.5555 86.7171 60.5555L87.3074 64.1998Z" fill="#559BE9"/>
<path d="M80.2189 55.3426C83.7775 53.3694 88.0507 77.8368 84.254 77.6379C82.0929 76.9346 76.7955 77.2519 74.7049 68.8816C74.7049 68.8816 72.0785 59.4378 80.2189 55.3426Z" fill="#6AABF3"/>
<path d="M133.651 18.0816C133.651 18.0816 124.398 15.0545 113.072 22.2285C109.513 18.2428 101.551 21.5567 101.551 21.5567C101.551 21.5567 95.9753 22.939 89.0786 29.223C82.1786 35.5076 81.3844 51.3777 81.3844 51.3777C81.3844 51.3777 86.2024 35.6536 94.8349 29.0391C96.5355 27.7359 98.2751 26.6844 99.9692 25.8342C100.278 25.7128 109.811 22.0067 113.223 23.0459C113.223 23.0459 125.565 18.4253 138.704 23.1361C151.843 27.8437 156.753 41.339 156.753 41.339C156.753 41.339 151.34 21.8969 133.651 18.0816Z" fill="#1C1C1C"/>
<path d="M120.872 69.4365C120.872 69.4365 119.353 71.8167 120.26 73.915C121.168 76.0133 124.322 73.6743 124.322 73.6743C124.322 73.6743 121.562 76.456 119.748 75.1602C117.935 73.8644 119.224 70.5238 120.872 69.4365Z" fill="#E17E46"/>
<path d="M172.481 119C172.481 119 178.746 96.2694 174.864 88.7469C169.715 78.7623 164.136 64.0818 164.136 64.0818L168.059 60.8145C168.059 60.8145 171.658 70.4314 175.557 75.1185C179.455 79.8056 184.21 84.1873 186.08 94.6866C188.387 107.635 181.506 122.008 181.506 122.008L172.481 119Z" fill="#1C1C1C"/>
<path d="M161.134 67.012C159.437 67.3192 157.811 66.1925 157.504 64.4963L153.977 45.0077C153.67 43.3115 154.797 41.6864 156.495 41.3792C158.192 41.072 159.818 42.1987 160.125 43.8949L163.652 63.3835C163.959 65.0797 162.831 66.7049 161.134 67.012Z" fill="#559BE9"/>
<path d="M159.573 42.6556C157.23 44.3895 159.173 65.409 163.569 64.7345C163.897 64.2102 170.679 61.7287 169.738 53.2352C169.738 53.2352 168.934 43.558 159.573 42.6556Z" fill="#6AABF3"/>
<path d="M80.5879 55.4673C80.5879 55.4673 73.4314 58.8679 74.4327 66.7905C75.4341 74.713 80.4537 76.3421 80.4537 76.3421L81.8811 76.9515" stroke="black" stroke-miterlimit="10" stroke-linecap="round" stroke-linejoin="round"/>
<path d="M159.573 42.6556C159.573 42.6556 166.886 42.6549 169.407 51.4779C171.928 60.301 163.569 64.7344 163.569 64.7344" stroke="black" stroke-miterlimit="10" stroke-linecap="round" stroke-linejoin="round"/>
<path d="M102.099 21.4391C108.75 19.1483 112.264 21.2978 113.16 22.4944C114.286 21.2038 117.936 19.4787 119.651 18.9419C118.894 18.5128 116.315 17.7791 112.058 18.278C106.735 18.9015 104.163 19.7067 102.099 21.4391Z" fill="#457FBF"/>
<path d="M107.891 95.5476V110.662L123.022 121.984L140.539 110.662L140.384 94.1783L107.891 95.5476Z" fill="#F3915A"/>
<path d="M107.891 95.5476C107.891 95.5476 123.229 104.44 140.471 94.1751C140.471 94.1751 137.631 100.848 124.376 102.32C111.122 103.796 107.956 103.47 107.956 103.47L107.891 95.5476Z" fill="#E17E46"/>
<path d="M107.892 110.662L64.4718 125.608C64.4718 125.608 59.2068 127.451 57.1336 133.321C54.335 141.399 37.0407 152.479 48.8572 160.869C60.6705 169.259 67.6766 195.05 67.6766 195.05L189.163 199.584C189.163 199.584 192.687 189.451 194.428 177.182C199.556 151.423 194.428 133.995 194.428 133.995C194.428 133.995 191.007 125.917 185.1 123.121C179.194 120.324 140.539 110.658 140.539 110.658L138.882 109.969L123.545 119.599L107.892 110.662Z" fill="#559BE9"/>
<path d="M147.239 108.384C142.397 103.869 141.749 103.816 140.507 104.585C135.043 107.969 123.541 119.606 123.541 119.606C123.541 119.606 111.979 108.384 105.841 105.397C104.739 104.861 103.623 104.158 99.6114 108.972C97.9401 110.977 96.2688 113.652 96.2688 113.652L100.727 113.017L123.167 121.571L147.294 112.376L150.419 112.649C150.419 112.649 149.082 110.643 147.239 108.384Z" fill="#F9FCF8"/>
<path d="M181.954 131.063V186.873C181.954 190.511 179 193.459 175.357 193.459H70.346C67.0735 193.459 64.3555 191.075 63.8397 187.949C63.7784 187.598 63.7494 187.241 63.7494 186.87V131.063C63.7494 127.425 66.7027 124.477 70.346 124.477H175.36C179 124.474 181.954 127.422 181.954 131.063Z" fill="#71D6EB"/>
<path d="M181.953 131.063V186.873C181.953 190.511 179 193.459 175.357 193.459H70.3459C67.0734 193.459 64.3555 191.075 63.8396 187.949C80.5246 188.268 103.922 184.702 103.922 184.702C170.94 166.797 173.268 124.474 173.268 124.474H175.36C179 124.474 181.953 127.422 181.953 131.063Z" fill="#4FCBE3"/>
<path d="M179.081 199.587H65.8611C64.7456 199.587 63.8396 198.682 63.8396 197.567V197.071C63.8396 195.956 64.7456 195.05 65.8611 195.05H179.081C180.196 195.05 181.102 195.956 181.102 197.071V197.567C181.099 198.682 180.196 199.587 179.081 199.587Z" fill="#71D6EB"/>
<path d="M213.257 209.585H30.6535C28.1935 209.585 26.1978 207.59 26.1978 205.132V204.04C26.1978 201.581 28.1935 199.587 30.6535 199.587H213.257C215.717 199.587 217.713 201.581 217.713 204.04V205.132C217.713 207.59 215.717 209.585 213.257 209.585Z" fill="#2D2D2D"/>
<path d="M117.948 167.967C125.159 167.967 131.005 162.125 131.005 154.918C131.005 147.711 125.159 141.869 117.948 141.869C110.736 141.869 104.89 147.711 104.89 154.918C104.89 162.125 110.736 167.967 117.948 167.967Z" fill="#A9F2FC"/>
<path d="M101.849 124.474H70.346C70.346 124.474 65.0745 124.184 63.8397 129.971C63.8397 129.971 63.7494 130.39 63.7494 130.94C63.7494 131.491 63.7494 149.737 63.7494 149.737L63.8397 187.949" stroke="black" stroke-width="2" stroke-miterlimit="10" stroke-linecap="round" stroke-linejoin="round"/>
<path d="M64.3169 176.818C59.4743 146.889 34.1259 106.493 33.8905 105.519C33.2683 103.557 33.1296 101.383 33.2328 100.77C33.5714 98.7857 35.2253 92.5383 34.8223 88.2435C34.9094 86.9612 34.8223 85.6144 34.4064 84.5157C33.4746 82.051 20.2814 78.7968 18.2405 78.4907C14.5778 77.943 8.45515 81.1649 7.31379 85.5467C6.17244 89.9286 9.65131 100.097 9.65131 100.097C9.65131 100.097 9.65776 100.094 9.66098 100.094C9.67388 100.319 9.69967 100.487 9.74159 100.59C9.65131 103.751 12.782 120.914 12.782 120.914C14.4972 131.131 23.4152 186.061 33.8841 196.768C41.1159 204.172 69.1596 206.746 64.3169 176.818Z" fill="#F3915A"/>
<path d="M7.08803 86.4553C7.08803 86.4553 6.88168 77.0956 12.0855 74.4923C12.0855 74.4923 15.3387 73.4387 17.1893 73.6514C19.0432 73.864 18.163 58.0218 18.2307 55.6311C18.2984 53.2405 19.5236 50.882 22.0642 54.0943C24.6081 57.3065 26.0332 74.3602 26.0332 74.3602C26.0332 74.3602 33.7228 58.7757 36.0668 56.5461C38.4107 54.3134 40.4581 56.0274 40.0422 58.5663C39.6456 60.9892 32.201 77.3405 32.201 77.3405C32.201 77.3405 37.1372 80.1758 34.4902 91.3945" fill="#F3915A"/>
<path d="M7.08803 86.4553C7.08803 86.4553 6.88168 77.0956 12.0855 74.4923C12.0855 74.4923 15.3387 73.4387 17.1893 73.6514C19.0432 73.864 18.163 58.0218 18.2307 55.6311C18.2984 53.2405 19.5236 50.882 22.0642 54.0943C24.6081 57.3065 26.0332 74.3602 26.0332 74.3602C26.0332 74.3602 33.7228 58.7757 36.0668 56.5461C38.4107 54.3134 40.4581 56.0274 40.0422 58.5663C39.6456 60.9892 32.201 77.3405 32.201 77.3405C32.201 77.3405 37.1372 80.1758 34.4902 91.3945" stroke="black" stroke-width="1.5" stroke-miterlimit="10" stroke-linecap="round" stroke-linejoin="round"/>
<path d="M13.3816 75.5684C13.3816 75.5684 22.2932 75.8777 24.7823 83.6458C25.1111 84.4932 23.2282 86.5101 19.7719 84.3707C16.3189 82.2314 12.2758 82.0574 12.2758 82.0574" fill="#F3915A"/>
<path d="M13.3816 75.5684C13.3816 75.5684 22.2932 75.8777 24.7823 83.6458C25.1111 84.4932 23.2282 86.5101 19.7719 84.3707C16.3189 82.2314 12.2758 82.0574 12.2758 82.0574" stroke="black" stroke-width="1.5" stroke-miterlimit="10" stroke-linecap="round"/>
<path d="M13.1237 82.8049C13.1237 82.8049 19.9622 83.0788 21.8709 89.9189C22.1223 90.6632 20.6779 92.4417 18.0277 90.5569C15.3774 88.672 12.2758 88.5206 12.2758 88.5206" fill="#F3915A"/>
<path d="M13.1237 82.8049C13.1237 82.8049 19.9622 83.0788 21.8709 89.9189C22.1223 90.6632 20.6779 92.4417 18.0277 90.5569C15.3774 88.672 12.2758 88.5206 12.2758 88.5206" stroke="black" stroke-width="1.5" stroke-miterlimit="10" stroke-linecap="round"/>
<path d="M30.6632 80.4593C29.2091 79.2124 25.2434 77.5886 23.8248 79.1576C22.5738 80.5399 22.0741 81.8576 23.6249 83.5524C25.237 85.3115 28.2483 85.492 28.2709 86.0977" fill="#F3915A"/>
<path d="M30.6632 80.4593C29.2091 79.2124 25.2434 77.5886 23.8248 79.1576C22.5738 80.5399 22.0741 81.8576 23.6249 83.5524C25.237 85.3115 28.2483 85.492 28.2709 86.0977" stroke="black" stroke-width="1.5" stroke-miterlimit="10" stroke-linecap="round" stroke-linejoin="round"/>
<path d="M33.2296 80.9716C33.2296 80.9716 36.4763 82.7855 37.6499 85.6853C39.5683 90.8114 33.4005 99.6652 33.2328 100.774" fill="#F3915A"/>
<path d="M33.2296 80.9716C33.2296 80.9716 36.4763 82.7855 37.6499 85.6853C39.5683 90.8114 33.4005 99.6652 33.2328 100.774" stroke="black" stroke-width="2" stroke-miterlimit="10" stroke-linecap="round" stroke-linejoin="round"/>
<path d="M123.167 121.571C123.167 121.571 103.078 114.924 101.559 114.576C100.041 114.232 98.2061 113.951 98.2061 113.951C98.2061 113.951 100.34 112.833 100.905 113.065C101.469 113.3 123.167 121.571 123.167 121.571Z" fill="#498AD2"/>
<path d="M123.167 121.571C123.167 121.571 143.257 114.924 144.776 114.576C146.294 114.232 149.022 112.814 149.022 112.814C149.022 112.814 147.826 112.447 147.291 112.376C146.73 112.608 123.167 121.571 123.167 121.571Z" fill="#498AD2"/>
<path d="M9.74487 100.596C9.74487 100.596 10.7766 108.329 11.3021 112.376C11.3021 112.376 21.9354 188.049 33.8874 196.777C45.8393 205.506 58.1589 198.649 58.1589 198.649C58.1589 198.649 65.2165 194.013 64.8715 183.793" fill="#F3915A"/>
<path d="M9.74487 100.596C9.74487 100.596 10.7766 108.329 11.3021 112.376C11.3021 112.376 21.9354 188.049 33.8874 196.777C45.8393 205.506 58.1589 198.649 58.1589 198.649C58.1589 198.649 65.2165 194.013 64.8715 183.793" stroke="black" stroke-width="2" stroke-miterlimit="10" stroke-linecap="round" stroke-linejoin="round"/>
<path d="M120.032 98.6705C122.445 98.2339 124.047 95.9253 123.611 93.5142C123.174 91.1031 120.864 89.5025 118.452 89.9392C116.039 90.3758 114.437 92.6844 114.873 95.0955C115.309 97.5066 117.619 99.1072 120.032 98.6705Z" fill="#559BE9"/>
<path d="M81.8787 76.9553C81.8787 76.9553 82.4064 91.1323 96.8603 95.3564C111.314 99.5804 120.73 93.9832 120.73 93.9832L115.105 94.5101C115.105 94.5101 104.592 97.3262 94.0764 92.1767C83.5606 87.0271 83.8731 77.4751 83.8731 77.4751L81.8787 76.9553Z" fill="#559BE9"/>
<path d="M83.873 77.4751C83.873 77.4751 83.6484 87.0602 93.4773 91.8725C103.306 96.6847 111.433 95.1125 111.433 95.1125L114.785 94.5909C114.785 94.5909 114.809 93.8007 114.881 93.4898" stroke="black" stroke-width="1.5" stroke-miterlimit="10" stroke-linecap="round" stroke-linejoin="round"/>
<path d="M114.911 93.3305C114.911 93.3305 115.543 90.0171 119.35 89.8684C119.35 89.8684 122.551 89.7245 123.524 93.1272" stroke="black" stroke-width="1.5" stroke-miterlimit="10" stroke-linecap="round" stroke-linejoin="round"/>
</svg>
