<svg width="226" height="66" viewBox="0 0 226 66" fill="none" xmlns="http://www.w3.org/2000/svg">
<path d="M83.5483 22.9033C83.5483 22.6237 83.5053 22.3728 83.4193 22.1506C83.3404 21.9212 83.1899 21.7133 82.9676 21.5269C82.7454 21.3334 82.4336 21.1434 82.0322 20.9571C81.6307 20.7707 81.111 20.5771 80.4731 20.3764C79.7634 20.147 79.0896 19.889 78.4516 19.6022C77.8207 19.3155 77.2616 18.9822 76.7742 18.6022C76.2939 18.2151 75.914 17.7671 75.6344 17.2582C75.362 16.7492 75.2258 16.1578 75.2258 15.484C75.2258 14.8317 75.3692 14.2403 75.6559 13.7098C75.9426 13.1722 76.3441 12.7134 76.8602 12.3335C77.3763 11.9464 77.9856 11.6489 78.6881 11.441C79.3978 11.2331 80.1756 11.1292 81.0214 11.1292C82.1755 11.1292 83.1827 11.3371 84.0429 11.7528C84.9031 12.1686 85.5698 12.7385 86.0429 13.4625C86.5232 14.1865 86.7633 15.0145 86.7633 15.9464H83.559C83.559 15.4876 83.4623 15.0861 83.2687 14.7421C83.0823 14.3908 82.7956 14.1148 82.4085 13.9141C82.0286 13.7134 81.5483 13.613 80.9677 13.613C80.4085 13.613 79.9426 13.6991 79.5698 13.8711C79.1971 14.036 78.9175 14.2618 78.7311 14.5485C78.5448 14.8281 78.4516 15.1435 78.4516 15.4947C78.4516 15.76 78.5161 16.0001 78.6451 16.2152C78.7813 16.4302 78.982 16.6309 79.2473 16.8173C79.5125 17.0037 79.8386 17.1793 80.2257 17.3442C80.6128 17.5091 81.0609 17.6703 81.5698 17.8281C82.4229 18.0861 83.1719 18.3764 83.8171 18.699C84.4694 19.0216 85.0142 19.3836 85.4515 19.785C85.8888 20.1865 86.2185 20.6416 86.4407 21.1506C86.663 21.6596 86.7741 22.2366 86.7741 22.8818C86.7741 23.5628 86.6414 24.1721 86.3762 24.7097C86.111 25.2473 85.7275 25.7025 85.2257 26.0753C84.7239 26.448 84.1253 26.7312 83.43 26.9247C82.7347 27.1183 81.9569 27.2151 81.0967 27.2151C80.3225 27.2151 79.5591 27.1147 78.8064 26.914C78.0537 26.7061 77.3691 26.3943 76.7527 25.9785C76.1433 25.5627 75.6559 25.0323 75.2903 24.3871C74.9247 23.742 74.7419 22.9785 74.7419 22.0968H77.9785C77.9785 22.5843 78.0537 22.9965 78.2043 23.3334C78.3548 23.6703 78.5663 23.9427 78.8387 24.1506C79.1182 24.3585 79.448 24.509 79.8279 24.6022C80.215 24.6954 80.6379 24.742 81.0967 24.742C81.6558 24.742 82.1146 24.6631 82.473 24.5054C82.8386 24.3477 83.1074 24.1291 83.2795 23.8495C83.4587 23.5699 83.5483 23.2545 83.5483 22.9033ZM90.4407 11.3442H93.1718L97.1933 22.8388L101.215 11.3442H103.946L98.2901 27H96.0965L90.4407 11.3442ZM88.9676 11.3442H91.688L92.1826 22.5484V27H88.9676V11.3442ZM102.699 11.3442H105.43V27H102.204V22.5484L102.699 11.3442ZM111.483 11.3442V27H108.258V11.3442H111.483ZM120.86 11.3442L114.655 19.0754L111.075 22.9248L110.494 19.871L112.914 16.5592L116.903 11.3442H120.86ZM117.193 27L112.58 19.7635L114.967 17.7635L121.01 27H117.193ZM140.483 11.3442V27H137.257L130.967 16.5055V27H127.741V11.3442H130.967L137.268 21.8495V11.3442H140.483ZM153.795 24.4839V27H145.462V24.4839H153.795ZM146.515 11.3442V27H143.29V11.3442H146.515ZM152.709 17.7205V20.1721H145.462V17.7205H152.709ZM153.784 11.3442V13.8711H145.462V11.3442H153.784ZM168.085 18.8173V25.0215C167.841 25.3154 167.465 25.6344 166.956 25.9785C166.447 26.3154 165.791 26.6057 164.988 26.8495C164.185 27.0932 163.214 27.2151 162.074 27.2151C161.064 27.2151 160.142 27.0502 159.311 26.7204C158.479 26.3835 157.763 25.8925 157.16 25.2473C156.565 24.6022 156.107 23.8137 155.784 22.8818C155.462 21.9427 155.3 20.871 155.3 19.6667V18.6883C155.3 17.484 155.454 16.4123 155.763 15.4732C156.078 14.5342 156.526 13.7421 157.107 13.0969C157.687 12.4518 158.379 11.9607 159.182 11.6238C159.985 11.2869 160.877 11.1184 161.859 11.1184C163.221 11.1184 164.34 11.3407 165.214 11.7851C166.089 12.2224 166.755 12.8317 167.214 13.613C167.68 14.3872 167.967 15.2761 168.074 16.2797H164.945C164.866 15.7492 164.716 15.2869 164.494 14.8926C164.271 14.4983 163.952 14.1901 163.537 13.9679C163.128 13.7457 162.598 13.6345 161.945 13.6345C161.408 13.6345 160.927 13.7457 160.504 13.9679C160.089 14.1829 159.737 14.5019 159.451 14.9249C159.164 15.3478 158.945 15.8711 158.795 16.4947C158.644 17.1184 158.569 17.8424 158.569 18.6668V19.6667C158.569 20.4839 158.648 21.2079 158.806 21.8388C158.963 22.4624 159.196 22.9893 159.504 23.4194C159.82 23.8423 160.207 24.1613 160.666 24.3764C161.125 24.5914 161.659 24.6989 162.268 24.6989C162.777 24.6989 163.2 24.6559 163.537 24.5699C163.881 24.4839 164.157 24.38 164.365 24.2581C164.58 24.1291 164.745 24.0072 164.859 23.8925V21.1183H161.913V18.8173H168.085ZM181.192 24.4839V27H172.859V24.4839H181.192ZM173.913 11.3442V27H170.687V11.3442H173.913ZM180.106 17.7205V20.1721H172.859V17.7205H180.106ZM181.182 11.3442V13.8711H172.859V11.3442H181.182ZM183.074 11.3442H188.913C190.11 11.3442 191.139 11.5235 191.999 11.8819C192.866 12.2403 193.533 12.7708 193.999 13.4733C194.465 14.1758 194.698 15.0396 194.698 16.0646C194.698 16.9033 194.554 17.6238 194.268 18.2259C193.988 18.8209 193.59 19.3191 193.074 19.7205C192.565 20.1148 191.967 20.4302 191.278 20.6667L190.257 21.2044H185.182L185.16 18.6883H188.934C189.501 18.6883 189.97 18.5879 190.343 18.3872C190.716 18.1865 190.995 17.9069 191.182 17.5485C191.375 17.1901 191.472 16.7743 191.472 16.3012C191.472 15.7994 191.379 15.3657 191.192 15.0001C191.006 14.6345 190.723 14.355 190.343 14.1614C189.963 13.9679 189.486 13.8711 188.913 13.8711H186.3V27H183.074V11.3442ZM191.827 27L188.257 20.0216L191.665 20.0001L195.278 26.8495V27H191.827ZM200.612 11.3442V27H197.397V11.3442H200.612ZM216.343 11.312V27H213.246V14.8818L209.525 16.0646V13.6238L216.009 11.312H216.343ZM80.2042 53H76.7957L76.8172 50.4839H80.2042C81.0501 50.4839 81.7634 50.2939 82.344 49.914C82.9246 49.5269 83.3619 48.9642 83.6558 48.2259C83.9569 47.4875 84.1074 46.595 84.1074 45.5485V44.785C84.1074 43.9822 84.0214 43.2761 83.8494 42.6668C83.6845 42.0575 83.4372 41.5449 83.1074 41.1292C82.7777 40.7134 82.3727 40.4016 81.8924 40.1937C81.4121 39.9786 80.8601 39.8711 80.2365 39.8711H76.7312V37.3442H80.2365C81.2831 37.3442 82.2401 37.5235 83.1074 37.8819C83.982 38.2331 84.7382 38.7385 85.3762 39.398C86.0142 40.0575 86.5052 40.846 86.8493 41.7636C87.2006 42.6739 87.3762 43.6883 87.3762 44.8065V45.5485C87.3762 46.6596 87.2006 47.6739 86.8493 48.5914C86.5052 49.509 86.0142 50.2975 85.3762 50.957C84.7454 51.6093 83.9891 52.1147 83.1074 52.4731C82.2329 52.8244 81.2652 53 80.2042 53ZM78.6236 37.3442V53H75.3978V37.3442H78.6236ZM100.226 50.4839V53H91.8923V50.4839H100.226ZM92.946 37.3442V53H89.7203V37.3442H92.946ZM99.1395 43.7205V46.1721H91.8923V43.7205H99.1395ZM100.215 37.3442V39.8711H91.8923V37.3442H100.215ZM114.849 37.3442V53H111.623L105.333 42.5055V53H102.107V37.3442H105.333L111.634 47.8495V37.3442H114.849ZM123.752 47.4194H119.763V44.9033H123.752C124.369 44.9033 124.87 44.803 125.258 44.6022C125.645 44.3944 125.928 44.1076 126.107 43.742C126.286 43.3764 126.376 42.9643 126.376 42.5055C126.376 42.0395 126.286 41.6059 126.107 41.2044C125.928 40.803 125.645 40.4804 125.258 40.2367C124.87 39.993 124.369 39.8711 123.752 39.8711H120.881V53H117.655V37.3442H123.752C124.978 37.3442 126.028 37.5665 126.903 38.0109C127.784 38.4482 128.458 39.0539 128.924 39.8281C129.39 40.6023 129.623 41.4876 129.623 42.484C129.623 43.4947 129.39 44.3693 128.924 45.1076C128.458 45.846 127.784 46.4158 126.903 46.8173C126.028 47.2187 124.978 47.4194 123.752 47.4194ZM136.429 40.0216L132.171 53H128.741L134.559 37.3442H136.741L136.429 40.0216ZM139.967 53L135.698 40.0216L135.354 37.3442H137.558L143.408 53H139.967ZM139.774 47.1721V49.699H131.505V47.1721H139.774ZM153.01 48.9033C153.01 48.6237 152.967 48.3728 152.881 48.1506C152.802 47.9212 152.652 47.7133 152.429 47.5269C152.207 47.3334 151.895 47.1434 151.494 46.9571C151.092 46.7707 150.573 46.5771 149.935 46.3764C149.225 46.147 148.551 45.889 147.913 45.6022C147.282 45.3155 146.723 44.9822 146.236 44.6022C145.756 44.2151 145.376 43.7671 145.096 43.2582C144.824 42.7492 144.687 42.1578 144.687 41.484C144.687 40.8317 144.831 40.2403 145.118 39.7098C145.404 39.1722 145.806 38.7134 146.322 38.3335C146.838 37.9464 147.447 37.6489 148.15 37.441C148.859 37.2331 149.637 37.1292 150.483 37.1292C151.637 37.1292 152.644 37.3371 153.505 37.7528C154.365 38.1686 155.031 38.7385 155.505 39.4625C155.985 40.1865 156.225 41.0145 156.225 41.9464H153.021C153.021 41.4876 152.924 41.0861 152.73 40.7421C152.544 40.3908 152.257 40.1148 151.87 39.9141C151.49 39.7134 151.01 39.613 150.429 39.613C149.87 39.613 149.404 39.6991 149.031 39.8711C148.659 40.036 148.379 40.2618 148.193 40.5485C148.006 40.8281 147.913 41.1435 147.913 41.4947C147.913 41.76 147.978 42.0001 148.107 42.2152C148.243 42.4302 148.444 42.6309 148.709 42.8173C148.974 43.0037 149.3 43.1793 149.687 43.3442C150.074 43.5091 150.522 43.6703 151.031 43.8281C151.884 44.0861 152.634 44.3764 153.279 44.699C153.931 45.0216 154.476 45.3836 154.913 45.785C155.35 46.1865 155.68 46.6416 155.902 47.1506C156.125 47.6596 156.236 48.2366 156.236 48.8818C156.236 49.5628 156.103 50.1721 155.838 50.7097C155.573 51.2473 155.189 51.7025 154.687 52.0753C154.186 52.448 153.587 52.7312 152.892 52.9247C152.196 53.1183 151.419 53.2151 150.558 53.2151C149.784 53.2151 149.021 53.1147 148.268 52.914C147.515 52.7061 146.831 52.3943 146.214 51.9785C145.605 51.5627 145.118 51.0323 144.752 50.3871C144.386 49.742 144.204 48.9785 144.204 48.0968H147.44C147.44 48.5843 147.515 48.9965 147.666 49.3334C147.816 49.6703 148.028 49.9427 148.3 50.1506C148.58 50.3585 148.91 50.509 149.29 50.6022C149.677 50.6954 150.1 50.742 150.558 50.742C151.117 50.742 151.576 50.6631 151.935 50.5054C152.3 50.3477 152.569 50.1291 152.741 49.8495C152.92 49.5699 153.01 49.2545 153.01 48.9033ZM164.795 40.0216L160.537 53H157.107L162.924 37.3442H165.107L164.795 40.0216ZM168.332 53L164.064 40.0216L163.719 37.3442H165.924L171.773 53H168.332ZM168.139 47.1721V49.699H159.87V47.1721H168.139ZM173.225 37.3442H179.063C180.261 37.3442 181.289 37.5235 182.149 37.8819C183.017 38.2403 183.683 38.7708 184.149 39.4733C184.615 40.1758 184.848 41.0396 184.848 42.0646C184.848 42.9033 184.705 43.6238 184.418 44.2259C184.139 44.8209 183.741 45.3191 183.225 45.7205C182.716 46.1148 182.117 46.4302 181.429 46.6667L180.407 47.2044H175.332L175.311 44.6883H179.085C179.651 44.6883 180.121 44.5879 180.494 44.3872C180.866 44.1865 181.146 43.9069 181.332 43.5485C181.526 43.1901 181.623 42.7743 181.623 42.3012C181.623 41.7994 181.529 41.3657 181.343 41.0001C181.157 40.6345 180.873 40.355 180.494 40.1614C180.114 39.9679 179.637 39.8711 179.063 39.8711H176.451V53H173.225V37.3442ZM181.977 53L178.408 46.0216L181.816 46.0001L185.429 52.8495V53H181.977Z" fill="#2E4F74"/>
<g clip-path="url(#clip0_1_1681)">
<path d="M28.264 65.9942C27.798 65.851 27.3164 65.7754 26.8413 65.6706C25.9491 65.4739 25.0552 65.2816 24.1604 65.0974C24.0108 65.0666 23.9591 64.9996 23.958 64.8564C23.9559 64.6208 23.9387 64.3858 23.9343 64.1508C23.9074 62.7564 23.8935 61.3615 23.8515 59.9676C23.8353 59.4241 23.8262 58.8812 23.824 58.3377C23.8235 58.1815 23.7681 58.0994 23.6201 58.0448C23.089 57.8503 22.5654 57.6359 22.0552 57.39C21.918 57.3236 21.8309 57.3717 21.7367 57.4597C21.2039 57.9573 20.6712 58.4544 20.1363 58.9503C19.2576 59.7656 18.3772 60.5786 17.4974 61.3934C17.2983 61.5776 17.0965 61.7586 16.9028 61.9482C16.8242 62.0255 16.7623 62.033 16.6692 61.972C15.6323 61.2912 14.5948 60.6127 13.5535 59.9384C13.4438 59.8671 13.4341 59.7974 13.4701 59.684C13.9663 58.1005 14.4597 56.5159 14.9532 54.9313C15.1184 54.4013 15.2787 53.8697 15.4504 53.3419C15.494 53.2068 15.4692 53.1161 15.3654 53.0237C14.9247 52.6309 14.4909 52.2301 14.0809 51.8049C13.9921 51.7125 13.9141 51.7449 13.8221 51.7822C12.6436 52.2544 11.4646 52.7249 10.2856 53.196C9.42511 53.5396 8.56359 53.8811 7.70475 54.2295C7.58099 54.2798 7.51157 54.2571 7.43516 54.1512C6.68179 53.1042 5.92628 52.0583 5.1643 51.0172C5.05776 50.8718 5.07121 50.7849 5.18744 50.6493C5.94027 49.7708 6.68126 48.8826 7.42601 47.9977C8.0626 47.2419 8.69596 46.4833 9.33848 45.7329C9.46439 45.586 9.49561 45.4736 9.39283 45.2904C9.13022 44.822 8.91336 44.3293 8.70404 43.835C8.63946 43.6826 8.55659 43.6313 8.39354 43.6335C6.30027 43.6659 4.20753 43.6745 2.11426 43.6713C1.59013 43.6702 1.68161 43.748 1.54547 43.2407C1.2409 42.104 0.937937 40.9668 0.633363 39.8301C0.555336 39.5394 0.551569 39.5367 0.810942 39.3962C2.64269 38.4049 4.47336 37.4119 6.30996 36.4297C6.5478 36.3027 6.6678 36.1866 6.6183 35.8802C6.53489 35.3638 6.50583 34.837 6.4983 34.3119C6.49614 34.1736 6.41381 34.1282 6.30726 34.085C5.48179 33.7511 4.6574 33.4145 3.83247 33.079C2.61148 32.5831 1.39049 32.0871 0.169507 31.5917C0.114081 31.569 0.0565022 31.5506 0 31.5301C0 31.4577 0 31.3853 0 31.3129C0.0801794 30.9223 0.0957847 30.5241 0.140448 30.1292C0.234619 29.2961 0.314798 28.462 0.398744 27.6278C0.408969 27.5246 0.458475 27.4846 0.558565 27.4711C2.33274 27.2313 4.10691 26.9892 5.88108 26.7472C6.40466 26.6759 6.92825 26.6002 7.45291 26.5338C7.56753 26.5192 7.6235 26.4668 7.6504 26.3609C7.77417 25.8752 7.91677 25.3955 8.0739 24.9195C8.10619 24.8212 8.09381 24.7558 8.00987 24.6845C7.04233 23.8617 6.07803 23.034 5.11318 22.2085C4.30816 21.5197 3.50368 20.8303 2.69704 20.1431C2.62493 20.082 2.61202 20.0275 2.65614 19.941C3.25345 18.7698 3.84915 17.5974 4.44054 16.4229C4.49973 16.3051 4.56484 16.2743 4.69561 16.3029C6.45148 16.6881 8.20843 17.0674 9.96538 17.4483C10.3587 17.5336 10.7537 17.6147 11.146 17.706C11.2746 17.7357 11.3618 17.7087 11.4393 17.599C11.7842 17.1122 12.1442 16.6357 12.5295 16.1803C12.6038 16.0922 12.5623 16.0269 12.5225 15.9518C11.9451 14.8718 11.3683 13.7924 10.7909 12.7124C10.3302 11.8507 9.87336 10.9868 9.40682 10.1283C9.33525 9.99652 9.35031 9.92575 9.4617 9.8258C10.2554 9.11482 11.0422 8.3952 11.8316 7.67882C12.0409 7.48865 12.0414 7.49189 12.2917 7.63235C14.2219 8.71881 16.1526 9.80419 18.0813 10.8933C18.1948 10.9576 18.2766 10.9641 18.3896 10.8874C18.8723 10.5589 19.3695 10.2521 19.8791 9.96627C20.0034 9.89657 20.0432 9.81067 20.0309 9.67399C19.9232 8.49677 19.8178 7.31955 19.7144 6.14233C19.6278 5.1569 19.5439 4.17147 19.4599 3.18604C19.433 2.87107 19.4346 2.86891 19.7317 2.75437C20.7864 2.34648 21.8438 1.94453 22.8952 1.52853C23.0685 1.45992 23.1595 1.48531 23.2644 1.63496C24.077 2.79543 24.896 3.95104 25.7139 5.10773C26.1595 5.73767 26.6077 6.36599 27.05 6.99809C27.1135 7.08886 27.176 7.12992 27.2884 7.10398C27.875 6.97108 28.4664 6.86249 29.0615 6.77929C29.1912 6.76092 29.2052 6.66854 29.2278 6.57561C29.3526 6.05318 29.4759 5.53075 29.5991 5.00779C29.9742 3.41619 30.3492 1.82459 30.7232 0.232991C30.741 0.157355 30.7453 0.0784775 30.7555 0.0012207C32.2353 0.0012207 33.7157 0.0012207 35.1955 0.0012207C35.3952 0.84024 35.5932 1.6798 35.7944 2.51882C36.1141 3.85055 36.4386 5.18121 36.7528 6.51456C36.7943 6.69123 36.8637 6.76794 37.0547 6.79658C37.595 6.87762 38.1315 6.98837 38.6674 7.09534C38.7961 7.12127 38.8746 7.09912 38.9526 6.98297C40.1645 5.17472 41.3822 3.37135 42.5935 1.5631C42.6823 1.43074 42.7523 1.38968 42.9105 1.45181C44.1482 1.93696 45.3885 2.41563 46.631 2.88836C46.7984 2.95211 46.8554 3.0218 46.8296 3.21629C46.5912 4.99752 46.3674 6.78091 46.1392 8.56322C46.0918 8.93383 46.0472 9.30553 45.995 9.67561C45.9745 9.81986 46.0154 9.90738 46.1494 9.98085C46.6294 10.245 47.0987 10.5292 47.5464 10.8447C47.7073 10.9576 47.8192 10.9274 47.9656 10.8318C49.786 9.64427 51.6102 8.46381 53.4291 7.2747C53.57 7.18286 53.647 7.20501 53.7643 7.31252C54.663 8.13209 55.5681 8.94464 56.4732 9.75719C56.7062 9.96627 56.7089 9.96302 56.5577 10.244C55.5482 12.1181 54.5403 13.9933 53.5254 15.8648C53.4344 16.0328 53.4377 16.1474 53.5663 16.2954C53.9214 16.7049 54.2432 17.1425 54.5553 17.5861C54.6377 17.7033 54.7227 17.7335 54.8599 17.7033C56.4274 17.3597 57.9966 17.0204 59.5652 16.6806C60.1469 16.5547 60.7297 16.4337 61.3098 16.3013C61.4432 16.2711 61.5057 16.3132 61.5638 16.4277C62.2138 17.7146 62.8655 19.0005 63.5241 20.2825C63.5984 20.4273 63.5715 20.4975 63.4461 20.591C61.6687 21.9232 59.8951 23.2604 58.122 24.5986C57.8405 24.8109 57.8868 24.7428 57.9756 25.0535C58.0999 25.4884 58.2328 25.9211 58.3528 26.3571C58.3851 26.4754 58.4416 26.5192 58.5622 26.5338C60.184 26.7315 61.8054 26.9363 63.4267 27.1373C64.0644 27.2161 64.7026 27.2929 65.3413 27.3663C65.4931 27.3836 65.5862 27.4214 65.6034 27.6089C65.6723 28.3777 65.7595 29.1443 65.8423 29.912C65.8875 30.3307 65.9381 30.7494 65.986 31.1681C65.986 31.2891 65.986 31.4096 65.986 31.5306C65.6228 31.6398 65.2789 31.8013 64.9286 31.9439C63.2013 32.6479 61.4771 33.3594 59.7482 34.0601C59.5851 34.126 59.5114 34.2103 59.5049 34.3854C59.4845 34.964 59.4382 35.5415 59.372 36.1169C59.3586 36.2341 59.4188 36.2763 59.5039 36.3222C60.5317 36.8759 61.5589 37.4313 62.5862 37.9867C63.4757 38.4675 64.3636 38.9516 65.2563 39.426C65.407 39.5059 65.4398 39.5832 65.3941 39.7506C65.0346 41.0662 64.6827 42.3839 64.3383 43.7037C64.292 43.8804 64.2161 43.943 64.0386 43.9171C63.6447 43.8598 63.2465 43.8809 62.8499 43.8609C61.7392 43.8058 60.6269 43.7799 59.5157 43.7399C58.8549 43.7161 58.1941 43.6907 57.5338 43.6583C57.4144 43.6524 57.3632 43.6978 57.3186 43.7993C57.0823 44.3412 56.8369 44.8793 56.5566 45.4007C56.5087 45.4898 56.5211 45.5546 56.5851 45.6281C57.403 46.5698 58.2194 47.512 59.0357 48.4553C59.6664 49.1841 60.2943 49.9156 60.9277 50.6422C61.0117 50.7384 60.9874 50.8076 60.9239 50.8956C60.0952 52.0372 59.2671 53.1787 58.4438 54.3246C58.3528 54.451 58.2683 54.4111 58.1656 54.3668C57.381 54.028 56.5964 53.6904 55.8108 53.3532C54.5887 52.8292 53.3656 52.3073 52.1446 51.7795C52.0391 51.7341 51.9718 51.7438 51.8917 51.8259C51.4703 52.2565 51.0414 52.6806 50.5835 53.0723C50.492 53.1507 50.5168 53.2279 50.5442 53.3154C50.7977 54.1274 51.0511 54.94 51.3046 55.7525C51.7082 57.0491 52.1101 58.3458 52.5175 59.6413C52.5643 59.7899 52.546 59.8823 52.4066 59.9725C51.3998 60.6219 50.3962 61.2761 49.3959 61.9352C49.2576 62.026 49.1715 62.0287 49.0429 61.9077C47.6981 60.6467 46.3469 59.3933 44.9968 58.1383C44.7363 57.8963 44.4716 57.6596 44.2133 57.4154C44.1406 57.3468 44.0766 57.336 43.9878 57.3776C43.4475 57.6294 42.8981 57.8601 42.3379 58.0638C42.2029 58.1129 42.1969 58.2037 42.1969 58.3187C42.1964 59.2912 42.1953 60.2637 42.19 61.2361C42.183 62.4377 42.1695 63.6392 42.1641 64.8407C42.1636 64.9796 42.1232 65.0428 41.9817 65.0725C40.7516 65.3291 39.5225 65.5895 38.2951 65.8591C38.1358 65.8942 38.0787 65.8218 38.0169 65.7084C37.3404 64.4626 36.663 63.2178 35.9844 61.973C35.5426 61.1627 35.0976 60.3544 34.6579 59.543C34.6009 59.4376 34.532 59.4068 34.412 59.4139C33.4752 59.4711 32.5378 59.4749 31.6009 59.4128C31.4739 59.4047 31.4023 59.4344 31.3469 59.5532C30.4025 61.5695 29.4543 63.5836 28.5089 65.5993C28.4475 65.7295 28.3657 65.8516 28.3361 65.9958C28.3119 65.9942 28.2882 65.9942 28.264 65.9942Z" fill="#0B2644"/>
<path d="M28.2787 66C27.8127 65.8569 27.3311 65.7812 26.8559 65.6764C25.9637 65.4798 25.0699 65.2875 24.175 65.1032C24.0254 65.0724 23.9737 65.0054 23.9727 64.8623C23.9705 64.6267 23.9533 64.3917 23.949 64.1567C23.9221 62.7623 23.9081 61.3673 23.8661 59.9735C23.85 59.43 23.8408 58.887 23.8387 58.3435C23.8381 58.1874 23.7827 58.1053 23.6347 58.0507C23.1036 57.8562 22.58 57.6417 22.0699 57.3959C21.9327 57.3295 21.8455 57.3775 21.7513 57.4656C21.2186 57.9632 20.6859 58.4602 20.151 58.9562C19.2722 59.7714 18.3919 60.5845 17.512 61.3992C17.3129 61.5834 17.1112 61.7644 16.9174 61.9541C16.8389 62.0313 16.777 62.0389 16.6839 61.9778C15.6469 61.2971 14.6094 60.6185 13.5682 59.9443C13.4584 59.873 13.4487 59.8033 13.4848 59.6898C13.9809 58.1063 14.4744 56.5218 14.9678 54.9372C15.133 54.4072 15.2934 53.8756 15.4651 53.3478C15.5086 53.2127 15.4839 53.1219 15.38 53.0295C14.9393 52.6368 14.5056 52.2359 14.0955 51.8107C14.0068 51.7183 13.9287 51.7508 13.8367 51.788C12.6582 52.2602 11.4792 52.7308 10.3002 53.2019C9.43976 53.5455 8.57823 53.8869 7.7194 54.2354C7.59563 54.2856 7.52622 54.263 7.4498 54.1571C6.69644 53.11 5.94093 52.0641 5.17895 51.023C5.07241 50.8777 5.08586 50.7907 5.20209 50.6551C5.95492 49.7767 6.6959 48.8885 7.44066 48.0035C8.07725 47.2477 8.71061 46.4892 9.35312 45.7388C9.47904 45.5918 9.51025 45.4795 9.40747 45.2963C9.14487 44.8279 8.92801 44.3352 8.71868 43.8409C8.65411 43.6885 8.57124 43.6372 8.40819 43.6393C6.31492 43.6718 4.22218 43.6804 2.12891 43.6772C1.60478 43.6761 1.69626 43.7539 1.56012 43.2466C1.25555 42.1099 0.952586 40.9726 0.648012 39.8359C0.569985 39.5453 0.566218 39.5426 0.82559 39.4021C2.65734 38.4107 4.48801 37.4177 6.3246 36.4355C6.56245 36.3086 6.68245 36.1924 6.63294 35.8861C6.54954 35.3696 6.52048 34.8429 6.51294 34.3177C6.51079 34.1794 6.42846 34.1341 6.32191 34.0908C5.49644 33.757 4.67205 33.4204 3.84711 33.0849C2.62613 32.5889 1.40514 32.093 0.184155 31.5975C0.128729 31.5749 0.0711507 31.5565 0.0146484 31.536C0.0146484 31.4636 0.0146484 31.3912 0.0146484 31.3188C0.0948278 30.9282 0.110433 30.53 0.155097 30.1351C0.249267 29.302 0.329447 28.4678 0.413393 27.6337C0.423617 27.5305 0.473124 27.4905 0.573213 27.477C2.34738 27.2371 4.12155 26.9951 5.89572 26.7531C6.41931 26.6817 6.9429 26.6061 7.46756 26.5397C7.58218 26.5251 7.63815 26.4727 7.66505 26.3668C7.78882 25.8811 7.93142 25.4013 8.08855 24.9254C8.12084 24.827 8.10846 24.7617 8.02451 24.6904C7.05698 23.8675 6.09268 23.0399 5.12783 22.2144C4.32281 21.5255 3.51833 20.8362 2.71169 20.149C2.63958 20.0879 2.62667 20.0333 2.67079 19.9469C3.2681 18.7756 3.8638 17.6033 4.45519 16.4287C4.51438 16.311 4.57949 16.2802 4.71025 16.3088C6.46613 16.694 8.22308 17.0733 9.98003 17.4541C10.3734 17.5395 10.7684 17.6205 11.1607 17.7119C11.2893 17.7416 11.3764 17.7146 11.4539 17.6049C11.7989 17.1181 12.1589 16.6416 12.5442 16.1862C12.6184 16.0981 12.577 16.0327 12.5372 15.9576C11.9598 14.8777 11.3829 13.7982 10.8055 12.7183C10.3449 11.8565 9.88801 10.9927 9.42146 10.1342C9.34989 10.0024 9.36496 9.93161 9.47635 9.83166C10.2701 9.12068 11.0568 8.40106 11.8462 7.68468C12.0555 7.49451 12.0561 7.49775 12.3063 7.63821C14.2365 8.72467 16.1673 9.81005 18.0959 10.8992C18.2094 10.9635 18.2912 10.97 18.4042 10.8933C18.8869 10.5648 19.3842 10.2579 19.8938 9.97213C20.0181 9.90243 20.0579 9.81653 20.0455 9.67985C19.9379 8.50263 19.8324 7.32541 19.7291 6.14818C19.6425 5.16276 19.5585 4.17733 19.4746 3.1919C19.4477 2.87693 19.4493 2.87477 19.7463 2.76023C20.801 2.35234 21.8584 1.95039 22.9099 1.53439C23.0832 1.46577 23.1741 1.49117 23.279 1.64082C24.0916 2.80129 24.9106 3.9569 25.7285 5.11359C26.1741 5.74353 26.6224 6.37185 27.0647 7.00395C27.1282 7.09472 27.1906 7.13578 27.3031 7.10984C27.8896 6.97694 28.481 6.86835 29.0762 6.78515C29.2059 6.76678 29.2198 6.6744 29.2424 6.58147C29.3673 6.05904 29.4905 5.53661 29.6137 5.01364C29.9888 3.42205 30.3639 1.83045 30.7379 0.23885C30.7556 0.163214 30.7599 0.0843369 30.7702 0.00708008C32.25 0.00708008 33.7303 0.00708008 35.2102 0.00708008C35.4098 0.8461 35.6078 1.68566 35.8091 2.52468C36.1287 3.85641 36.4532 5.18707 36.7675 6.52042C36.8089 6.69709 36.8783 6.7738 37.0694 6.80244C37.6096 6.88348 38.1461 6.99423 38.6821 7.1012C38.8107 7.12713 38.8893 7.10498 38.9673 6.98882C40.1781 5.17896 41.3964 3.37558 42.6071 1.5668C42.6959 1.43444 42.7659 1.39338 42.9241 1.45551C44.1617 1.94066 45.4021 2.41933 46.6446 2.89205C46.812 2.9558 46.869 3.0255 46.8432 3.21999C46.6048 5.00122 46.3809 6.78461 46.1528 8.56692C46.1054 8.93753 46.0607 9.30923 46.0085 9.67931C45.9881 9.82355 46.029 9.91108 46.163 9.98455C46.643 10.2487 47.1122 10.5329 47.5599 10.8484C47.7208 10.9613 47.8328 10.9311 47.9791 10.8355C49.7996 9.64797 51.6238 8.46751 53.4426 7.2784C53.5836 7.18656 53.6606 7.20871 53.7779 7.31622C54.6765 8.13579 55.5816 8.94834 56.4867 9.76088C56.7198 9.96996 56.7224 9.96672 56.5712 10.2477C55.5617 12.1218 54.5538 13.997 53.5389 15.8685C53.448 16.0365 53.4512 16.151 53.5798 16.2991C53.935 16.7086 54.2568 17.1462 54.5689 17.5898C54.6512 17.707 54.7363 17.7372 54.8735 17.707C56.441 17.3634 58.0102 17.0241 59.5788 16.6843C60.1605 16.5584 60.7433 16.4374 61.3233 16.305C61.4568 16.2748 61.5192 16.3169 61.5773 16.4314C62.2274 17.7183 62.879 19.0041 63.5377 20.2862C63.6119 20.431 63.585 20.5012 63.4597 20.5947C61.6823 21.9269 59.9086 23.2641 58.1355 24.6023C57.8541 24.8146 57.9004 24.7465 57.9892 25.0572C58.1135 25.4921 58.2464 25.9248 58.3664 26.3608C58.3987 26.4791 58.4552 26.5229 58.5757 26.5375C60.1976 26.7352 61.819 26.94 63.4403 27.141C64.078 27.2198 64.7162 27.2966 65.3549 27.37C65.5067 27.3873 65.5998 27.4251 65.617 27.6126C65.6859 28.3814 65.773 29.148 65.8559 29.9157C65.9011 30.3344 65.9517 30.7531 65.9996 31.1718C65.9996 31.2928 65.9996 31.4133 65.9996 31.5343C65.6363 31.6435 65.2925 31.805 64.9422 31.9476C63.2148 32.6516 61.4907 33.3631 59.7617 34.0638C59.5987 34.1297 59.525 34.214 59.5185 34.3891C59.4981 34.9677 59.4518 35.5452 59.3856 36.1206C59.3721 36.2378 59.4324 36.28 59.5174 36.3259C60.5452 36.8796 61.5725 37.435 62.5998 37.9904C63.4893 38.4712 64.3772 38.9553 65.2699 39.4297C65.4206 39.5096 65.4534 39.5869 65.4076 39.7543C65.0482 41.0699 64.6963 42.3876 64.3519 43.7074C64.3056 43.8841 64.2297 43.9467 64.0521 43.9208C63.6582 43.8635 63.26 43.8846 62.8634 43.8646C61.7528 43.8095 60.6405 43.7836 59.5293 43.7436C58.8685 43.7198 58.2076 43.6944 57.5474 43.662C57.4279 43.6561 57.3768 43.7015 57.3321 43.803C57.0959 44.3449 56.8505 44.883 56.5702 45.4044C56.5223 45.4935 56.5346 45.5583 56.5987 45.6318C57.4166 46.5735 58.2329 47.5157 59.0493 48.459C59.6799 49.1878 60.3079 49.9193 60.9413 50.6459C61.0252 50.7421 61.001 50.8113 60.9375 50.8993C60.1088 52.0409 59.2801 53.1824 58.4573 54.3283C58.3664 54.4547 58.2819 54.4148 58.1791 54.3705C57.3946 54.0317 56.61 53.6941 55.8243 53.3569C54.6023 52.8329 53.3791 52.311 52.1581 51.7832C52.0527 51.7378 51.9854 51.7475 51.9052 51.8296C51.4839 52.2602 51.055 52.6843 50.5971 53.076C50.5056 53.1544 50.5303 53.2316 50.5578 53.3191C50.8112 54.1311 51.0647 54.9437 51.3181 55.7562C51.7217 57.0528 52.1237 58.3495 52.5311 59.645C52.5779 59.7936 52.5596 59.886 52.4202 59.9762C51.4134 60.6256 50.4098 61.2798 49.4094 61.9389C49.2711 62.0297 49.185 62.0324 49.0564 61.9114C47.7117 60.6504 46.3605 59.397 45.0103 58.142C44.7499 57.9 44.4851 57.6633 44.2268 57.4191C44.1542 57.3505 44.0902 57.3397 44.0014 57.3813C43.4611 57.6331 42.9117 57.8638 42.3515 58.0675C42.2164 58.1166 42.2105 58.2074 42.2105 58.3225C42.21 59.2949 42.2089 60.2674 42.2035 61.2398C42.1965 62.4414 42.1831 63.6429 42.1777 64.8444C42.1772 64.9833 42.1368 65.0465 41.9953 65.0762C40.7651 65.3328 39.5361 65.5932 38.3086 65.8628C38.1494 65.8979 38.0923 65.8255 38.0304 65.7121C37.354 64.4663 36.6765 63.2215 35.998 61.9768C35.5562 61.1664 35.1111 60.3581 34.6715 59.5467C34.6145 59.4413 34.5456 59.4105 34.4256 59.4176C33.4887 59.4748 32.5513 59.4786 31.6145 59.4165C31.4875 59.4084 31.4159 59.4381 31.3605 59.5569C30.4161 61.5732 29.4679 63.5873 28.5224 65.603C28.4611 65.7332 28.3793 65.8553 28.3497 65.9995C28.3266 66 28.3029 66 28.2787 66Z" fill="black"/>
<path d="M8.22706 47.7544C8.74043 47.1396 9.25217 46.5231 9.76823 45.9105C10.0443 45.5825 10.0464 45.5863 9.85325 45.213C9.54276 44.6133 9.2511 44.0045 8.99442 43.3794C8.93845 43.2427 8.87011 43.187 8.71782 43.1881C7.10617 43.1989 5.49397 43.1919 3.88285 43.2124C3.31783 43.22 2.75281 43.2108 2.18778 43.2324C2.04195 43.2378 1.98976 43.186 1.95478 43.0547C1.68034 42.012 1.40267 40.9698 1.11855 39.9293C1.0798 39.7872 1.12931 39.7299 1.24608 39.6667C2.97774 38.7348 4.70724 37.798 6.43675 36.8628C6.60626 36.7715 6.772 36.6726 6.94635 36.5916C7.08195 36.5284 7.12877 36.4398 7.10778 36.2928C7.05182 35.899 7.01307 35.5024 6.99155 35.1048C6.97218 34.7434 6.94097 34.3825 6.93182 34.021C6.92859 33.8903 6.88339 33.832 6.76662 33.7849C4.74491 32.9665 2.7259 32.1415 0.70312 31.3257C0.530385 31.256 0.472806 31.1842 0.495407 30.9886C0.607873 30.0188 0.701506 29.0464 0.799443 28.0744C0.813434 27.9356 0.861864 27.8762 1.01792 27.8556C2.48213 27.6633 3.94473 27.458 5.40787 27.2576C6.12141 27.1598 6.83549 27.0642 7.54904 26.9647C7.65666 26.9496 7.75029 26.9874 7.84662 27.0188C8.73289 27.304 9.61863 27.5898 10.5049 27.8751C10.5506 27.8897 10.5969 27.901 10.6432 27.914C10.7637 27.9604 10.7115 28.055 10.6943 28.1295C10.5555 28.7422 10.4543 29.3613 10.3645 29.9821C10.2784 30.5785 10.2315 31.1793 10.1901 31.7817C10.1476 32.3976 10.1659 33.0124 10.1632 33.6272C10.1594 34.4484 10.2348 35.2647 10.3424 36.0783C10.4963 37.241 10.7266 38.3869 11.0533 39.5133C11.3713 40.6111 11.7689 41.6776 12.2419 42.7176C12.9523 44.2784 13.8375 45.7327 14.8766 47.0936C15.5944 48.0337 16.3758 48.9197 17.2335 49.7328C18.7047 51.1277 20.325 52.3179 22.1051 53.2904C23.7732 54.2018 25.5291 54.8831 27.3652 55.3574C28.4376 55.6346 29.5268 55.8258 30.6283 55.9398C30.7128 55.9485 30.7951 55.9636 30.8613 56.0236C30.9447 56.2078 30.935 56.4066 30.9087 56.5941C30.8592 56.9425 30.8791 57.2932 30.8565 57.6416C30.8328 58.0133 30.7908 58.3883 30.8113 58.7616C30.8301 59.1057 30.6859 59.3969 30.5449 59.6892C30.0611 60.6946 29.593 61.7076 29.1167 62.7168C28.7691 63.4532 28.4167 64.1868 28.0798 64.9286C27.9716 65.1669 27.906 65.2068 27.6418 65.1517C26.7119 64.9567 25.7826 64.7584 24.8543 64.5564C24.6595 64.5142 24.5993 64.4456 24.6046 64.2419C24.6219 63.5234 24.5594 62.807 24.5616 62.0885C24.5637 61.3645 24.5406 60.6406 24.518 59.9172C24.5019 59.3921 24.5029 58.8675 24.4943 58.3429C24.4916 58.1613 24.4529 57.9836 24.4507 57.8021C24.4491 57.6676 24.3544 57.6049 24.2393 57.5617C23.699 57.358 23.1587 57.1527 22.6314 56.9161C22.4118 56.8177 22.1885 56.727 21.9754 56.6146C21.8263 56.5363 21.7053 56.5627 21.5842 56.6783C20.8943 57.3331 20.1937 57.9766 19.4974 58.6243C18.6999 59.3667 17.8927 60.0987 17.1028 60.8497C17.0457 60.9037 16.9806 60.948 16.9219 60.9993C16.7121 61.1835 16.6986 61.1852 16.4721 61.0366C15.8027 60.5968 15.1316 60.1603 14.4601 59.7248C14.2249 59.5725 14.2195 59.5455 14.3029 59.2802C14.9341 57.2645 15.5546 55.2456 16.1912 53.232C16.2515 53.0408 16.2439 52.8874 16.0776 52.7458C15.49 52.2461 14.9341 51.7128 14.3944 51.1612C14.1625 50.9246 14.1469 50.923 13.8455 51.0445C11.9379 51.816 10.0228 52.5686 8.1146 53.339C7.79388 53.4687 7.77989 53.4676 7.57702 53.1899C7.0615 52.4843 6.54922 51.7755 6.03854 51.0667C5.91747 50.8992 5.92285 50.8322 6.05953 50.6691C6.71603 49.883 7.37307 49.0969 8.04249 48.3222C8.19155 48.1493 8.25612 47.9743 8.22706 47.7544Z" fill="black"/>
<path d="M30.827 56.0647C30.2443 55.9799 29.6588 55.9205 29.0782 55.8189C27.0468 55.465 25.0983 54.8497 23.2337 53.9674C20.8272 52.8291 18.6828 51.3153 16.8005 49.4298C15.1146 47.742 13.7219 45.836 12.6252 43.7128C11.4435 41.4259 10.6703 39.0066 10.2984 36.4588C10.0746 34.925 10.0148 33.3831 10.0988 31.8347C10.1677 30.5721 10.3329 29.3247 10.6132 28.0918C10.6267 28.0335 10.6331 27.9729 10.6428 27.9135C10.6805 27.7655 10.7182 27.6175 10.7553 27.4694C10.681 27.4084 10.6993 27.329 10.7182 27.2539C10.8177 26.866 10.9221 26.4791 11.0507 26.0999C11.0755 26.0275 11.0965 25.9459 11.1987 25.9454C11.2557 25.7779 11.3128 25.6099 11.3698 25.4424C11.2595 25.3511 11.3343 25.2641 11.3757 25.176C11.4925 24.7757 11.6599 24.3932 11.8229 24.0112C12.4251 22.6033 13.158 21.2667 14.0265 20.0063C14.6222 19.1414 15.2755 18.3223 15.982 17.5444C16.9452 16.4838 17.9935 15.5179 19.1332 14.6534C19.998 13.9981 20.9031 13.4022 21.8539 12.8787C23.1336 12.1742 24.4627 11.5837 25.8505 11.1288C26.9843 10.7571 28.1402 10.4686 29.3192 10.2882C30.0193 10.1812 30.7216 10.0818 31.4319 10.0494C32.0378 10.0218 32.6437 9.96509 33.2502 9.98616C34.3969 10.0261 35.5404 10.098 36.6758 10.2876C38.0147 10.5113 39.3255 10.8365 40.6057 11.286C41.8573 11.7252 43.0622 12.2687 44.2208 12.9187C45.5165 13.6459 46.7316 14.4892 47.8638 15.4514C48.6855 16.15 49.4556 16.9031 50.1739 17.7108C50.9408 18.573 51.6446 19.4828 52.2742 20.4488C53.2294 21.9145 54.0236 23.4629 54.6107 25.115C54.6419 25.2247 54.7086 25.3257 54.6871 25.4472C54.6505 25.612 54.7625 25.7379 54.8007 25.8832C54.8744 25.921 54.9115 25.9832 54.9384 26.0615C55.066 26.437 55.1747 26.8184 55.2764 27.202C55.3027 27.3019 55.3146 27.3997 55.2683 27.497C55.2979 27.6391 55.2844 27.7957 55.4087 27.9043C55.4728 27.9892 55.4819 28.0913 55.4959 28.1917C55.6353 28.6807 55.7042 29.1831 55.7838 29.6834C55.8871 30.3328 55.9587 30.987 55.9926 31.6429C56.0335 32.4371 56.0749 33.2323 56.0147 34.0292C55.984 34.4317 55.9711 34.8353 55.9393 35.2383C55.8909 35.8467 55.7999 36.448 55.7004 37.0493C55.3684 39.0504 54.7635 40.9656 53.9203 42.8079C53.062 44.6847 51.9616 46.4049 50.6437 47.9895C50.2154 48.5043 49.7639 48.9987 49.292 49.4698C47.775 50.9836 46.0907 52.2786 44.2175 53.3245C42.8991 54.0603 41.5248 54.6633 40.0913 55.1306C38.9687 55.4969 37.8242 55.7784 36.657 55.9572C36.1705 56.0317 35.6846 56.1203 35.1906 56.1366C35.0911 56.1484 34.9926 56.1517 34.9017 56.0987C34.7461 56.0998 34.5901 56.1009 34.4346 56.102C34.3517 56.2009 34.2419 56.2225 34.1198 56.2252C33.8529 56.2306 33.5849 56.209 33.3185 56.2462C33.0904 56.2587 32.8617 56.2565 32.633 56.2468C32.3671 56.2079 32.0997 56.2327 31.8333 56.2241C31.7343 56.2208 31.6434 56.2073 31.5944 56.1058C31.4464 56.1036 31.2984 56.1014 31.151 56.0993C31.0342 56.1652 30.9244 56.1701 30.827 56.0647Z" fill="#0D3837"/>
<path d="M11.4462 25.1895C11.4209 25.2744 11.3956 25.3592 11.3698 25.4435C11.2197 25.4537 11.0921 25.3775 10.9581 25.3305C10.1569 25.0507 9.35833 24.7644 8.55707 24.4845C8.28586 24.3894 8.10721 24.1706 7.89788 23.9966C7.26129 23.4667 6.63384 22.9259 6.00479 22.3867C5.48066 21.9377 4.95976 21.4845 4.43564 21.0344C4.06218 20.7135 3.68873 20.3926 3.30936 20.0787C3.20066 19.989 3.16945 19.9188 3.24156 19.7789C3.73178 18.828 4.21393 17.8728 4.6907 16.9155C4.74828 16.7999 4.81878 16.7977 4.91725 16.8188C5.59151 16.9647 6.26631 17.1105 6.94057 17.2559C7.72568 17.4255 8.5108 17.593 9.29537 17.7642C9.96371 17.9106 10.631 18.0603 11.2988 18.211C11.436 18.2418 11.5388 18.2353 11.634 18.097C12.0694 17.4644 12.5348 16.8534 13.0374 16.272C13.1165 16.1807 13.1192 16.1062 13.0638 16.003C12.2098 14.4168 11.3585 12.8295 10.5072 11.2423C10.3199 10.8932 10.1402 10.5399 9.94757 10.1936C9.88891 10.0883 9.90506 10.0261 9.99062 9.94942C10.5465 9.45292 11.0991 8.95264 11.6523 8.45399C11.7772 8.34107 11.9047 8.23086 12.0258 8.11416C12.0769 8.065 12.1232 8.05257 12.1829 8.08661C12.6947 8.37943 13.2042 8.67549 13.7181 8.96507C14.2735 9.27842 14.8326 9.5842 15.3885 9.89593C15.8147 10.1347 16.2381 10.3778 16.6633 10.6193C17.1707 10.9078 17.6782 11.1953 18.1851 11.4848C18.2502 11.5221 18.2975 11.4902 18.3465 11.4551C18.9804 11.0024 19.6487 10.6037 20.3278 10.2255C20.4866 10.1369 20.5156 10.0407 20.5 9.88405C20.4608 9.49614 20.4285 9.1077 20.3946 8.71925C20.3289 7.96397 20.2649 7.20923 20.1998 6.45395C20.133 5.67868 20.0652 4.90395 19.998 4.12869C19.9738 3.85207 19.9522 3.57546 19.9248 3.29939C19.9146 3.1989 19.9501 3.15028 20.0459 3.11354C20.9671 2.76075 21.8868 2.40364 22.8064 2.04653C22.8957 2.01196 22.9603 1.99629 23.0324 2.09948C24.0349 3.52846 25.0434 4.95312 26.0496 6.3794C26.3311 6.77811 26.6136 7.17682 26.8929 7.57769C26.9246 7.62307 26.9564 7.649 27.0102 7.6355C27.7931 7.43938 28.5863 7.29621 29.3865 7.19519C29.5296 7.17736 29.5689 7.09686 29.5964 6.97854C29.8369 5.94071 30.078 4.90341 30.3223 3.86666C30.586 2.74833 30.8529 1.63054 31.1187 0.512743C31.1225 0.495995 31.1348 0.481408 31.1434 0.465741C31.1833 0.446832 31.2258 0.453315 31.2677 0.453315C32.4075 0.452775 33.5472 0.452775 34.6869 0.453855C34.7338 0.453855 34.7833 0.440889 34.8263 0.473304C35.0093 1.22858 35.1928 1.98332 35.3757 2.7386C35.5958 3.64624 35.817 4.55333 36.0355 5.46096C36.1571 5.96718 36.2771 6.4734 36.3912 6.98124C36.4186 7.1028 36.4643 7.1914 36.5967 7.20545C37.3721 7.28649 38.133 7.45235 38.8934 7.61551C39.0338 7.64576 39.0871 7.58525 39.1501 7.49125C39.6199 6.78945 40.0912 6.0882 40.5621 5.38694C41.3009 4.28752 42.0408 3.18918 42.777 2.08759C42.8529 1.97414 42.9282 1.95253 43.053 2.00169C43.956 2.35664 44.8611 2.70727 45.7662 3.05736C45.9217 3.11732 46.0783 3.17405 46.2371 3.22429C46.3286 3.25347 46.3538 3.29669 46.3399 3.3961C46.2785 3.83262 46.2301 4.27131 46.172 4.70838C46.1165 5.12816 46.052 5.54686 45.9981 5.96664C45.9443 6.38696 45.9034 6.80836 45.8496 7.22868C45.7829 7.74949 45.707 8.26922 45.6387 8.78949C45.5967 9.10878 45.5849 9.43455 45.5144 9.74736C45.4417 10.071 45.58 10.1974 45.848 10.34C46.4351 10.6528 47.0028 11.0045 47.5415 11.3984C47.6722 11.494 47.7696 11.4919 47.909 11.3995C48.636 10.9165 49.3716 10.4465 50.104 9.97157C50.3467 10.0812 50.3585 10.1628 50.1481 10.3146C49.8134 10.5567 49.4539 10.7614 49.1138 10.9954C48.7878 11.2201 48.4369 11.4065 48.1248 11.6529C47.852 11.8679 47.7373 11.8684 47.4484 11.6869C46.9915 11.3995 46.5454 11.0953 46.0799 10.8219C45.8475 10.6852 45.6091 10.5599 45.3809 10.4151C45.2518 10.333 45.1587 10.2368 45.121 10.0883C45.1173 10.0623 45.1167 10.0359 45.1183 10.0099C45.1302 9.93321 45.1598 9.85865 45.1506 9.7787C45.1501 9.75385 45.1533 9.72953 45.1581 9.70522C45.1904 9.63823 45.2211 9.5707 45.1904 9.49398C45.1883 9.46913 45.1888 9.44482 45.1921 9.42051C45.212 9.34811 45.2362 9.27572 45.2233 9.19846C45.2227 9.17361 45.2249 9.1493 45.2292 9.12553C45.2572 9.05529 45.276 8.98344 45.2609 8.90618C45.2609 8.88133 45.2631 8.85702 45.2679 8.83271C45.3131 8.76788 45.3282 8.69818 45.3008 8.62201C45.2997 8.60526 45.3008 8.58905 45.3024 8.57284C45.3234 8.50693 45.3363 8.43994 45.3298 8.36971C45.3293 8.34485 45.3314 8.32054 45.3347 8.29623C45.3546 8.2233 45.3766 8.1509 45.3675 8.0731C45.3669 8.04825 45.3702 8.02394 45.375 7.99963C45.4116 7.9321 45.4342 7.8624 45.4078 7.78515C45.4068 7.75976 45.4084 7.7349 45.4121 7.71005C45.4547 7.64198 45.4616 7.56904 45.4423 7.49179C45.4417 7.46694 45.4434 7.44208 45.4477 7.41723C45.4902 7.35078 45.4988 7.27893 45.4773 7.20329C45.4756 7.17898 45.4767 7.15467 45.4799 7.13035C45.488 7.07039 45.5036 7.01204 45.5074 6.95099C45.5085 6.92614 45.5112 6.90183 45.5149 6.87751C45.5348 6.80674 45.5542 6.73597 45.5477 6.66087C45.5472 6.63548 45.5504 6.61063 45.5553 6.58578C45.5913 6.51824 45.6156 6.44909 45.5881 6.37129C45.587 6.3459 45.5886 6.32105 45.5924 6.29674C45.6338 6.22975 45.6446 6.15789 45.622 6.08172C45.6204 6.05686 45.622 6.03255 45.6263 6.00824C45.6532 5.93693 45.6726 5.86507 45.6575 5.78782C45.6564 5.76296 45.6591 5.73865 45.6634 5.71434C45.6791 5.65761 45.7027 5.60251 45.6887 5.54092C45.6898 5.51607 45.6925 5.49121 45.6963 5.46636C45.7146 5.39559 45.7372 5.3259 45.728 5.2508C45.7275 5.22541 45.7291 5.20002 45.7329 5.17462C45.7512 5.10331 45.7721 5.03254 45.7646 4.95744C45.7641 4.93205 45.7668 4.9072 45.7716 4.88288C45.806 4.81589 45.8335 4.74782 45.8039 4.6711C45.8017 4.64625 45.8034 4.6214 45.8066 4.59655C45.8324 4.52415 45.8523 4.45122 45.8378 4.37288C45.8378 4.34803 45.8399 4.32318 45.8448 4.29833C45.8889 4.23133 45.8948 4.15948 45.8744 4.0833C45.8728 4.05845 45.8738 4.0336 45.8765 4.00929C45.8825 3.94608 45.9002 3.88503 45.9045 3.82128C45.9056 3.79535 45.9088 3.76995 45.9131 3.7451C45.9594 3.529 45.9298 3.45012 45.7221 3.36422C45.2464 3.16703 44.7621 2.99198 44.2826 2.80397C43.9764 2.68404 43.6654 2.57491 43.3635 2.44362C43.2688 2.40202 43.1816 2.395 43.0891 2.43714C43.0563 2.44632 43.0267 2.46307 42.9992 2.48306C42.777 2.58679 42.6737 2.79803 42.5558 2.9909C42.3616 3.30966 42.142 3.61112 41.9348 3.92069C41.5431 4.50524 41.139 5.0817 40.758 5.67382C40.4034 6.22488 40.0181 6.75434 39.6538 7.29892C39.5402 7.4691 39.4315 7.64198 39.3094 7.80676C39.2136 7.93534 39.1017 7.97478 38.9504 7.94236C38.5582 7.85754 38.1675 7.76462 37.7704 7.70465C37.5772 7.67548 37.3851 7.62199 37.1865 7.65981C37.1687 7.65819 37.151 7.65441 37.1338 7.65008C36.9992 7.58579 36.8631 7.52961 36.7092 7.57931C36.6834 7.58039 36.6581 7.57823 36.6328 7.57391C36.5666 7.54851 36.4988 7.53339 36.4267 7.54041C36.3982 7.53771 36.3712 7.53069 36.3486 7.51232C36.093 7.28109 36.0694 6.94991 35.9967 6.64682C35.8154 5.89209 35.6297 5.13789 35.4516 4.38207C35.2778 3.64353 35.0964 2.90716 34.9194 2.16917C34.8425 1.84718 34.7655 1.52519 34.6886 1.20319C34.66 1.0838 34.5825 1.00384 34.5137 0.914695C34.4394 0.847703 34.3474 0.850944 34.2575 0.850944C33.4154 0.850404 32.5732 0.849324 31.7311 0.851485C31.4997 0.852025 31.4486 0.889303 31.3942 1.11891C31.1499 2.14648 30.9083 3.17459 30.6661 4.2027C30.4261 5.21892 30.1845 6.23461 29.9488 7.25191C29.902 7.45343 29.7998 7.53717 29.5947 7.56418C28.7477 7.67439 27.9072 7.82459 27.078 8.03204C26.8692 8.08445 26.7309 8.03637 26.6039 7.85376C25.5379 6.32591 24.4541 4.81049 23.3822 3.28696C23.2401 3.08491 23.0943 2.88501 22.9528 2.68242C22.8608 2.55113 22.7467 2.50953 22.5933 2.5695C21.9099 2.83693 21.2206 3.09031 20.5393 3.3626C20.4037 3.41663 20.3504 3.50631 20.3628 3.65758C20.4495 4.72729 20.5474 5.79592 20.6356 6.86509C20.7164 7.84404 20.8057 8.82298 20.8886 9.80193C20.9445 10.4648 20.9601 10.3244 20.4365 10.6269C19.7693 11.0126 19.1138 11.4173 18.4794 11.8565C18.3357 11.9559 18.2211 11.9549 18.071 11.8695C16.6208 11.0478 15.1678 10.2298 13.7149 9.41294C13.2742 9.1655 12.8356 8.91374 12.3928 8.67009C12.1937 8.56042 12.1291 8.56906 11.9601 8.72141C11.5167 9.11958 11.0798 9.52478 10.6315 9.91754C10.4184 10.1045 10.4098 10.1715 10.5449 10.4286C11.1153 11.5118 11.6964 12.5891 12.2733 13.6691C12.671 14.4141 13.0622 15.1624 13.4695 15.9014C13.6175 16.1705 13.6186 16.1926 13.427 16.4271C12.8857 17.0905 12.3438 17.7534 11.8767 18.4725C11.7309 18.6973 11.5576 18.6746 11.3483 18.6276C10.2457 18.3785 9.13878 18.1462 8.03456 17.9042C7.13591 17.707 6.23671 17.5119 5.33698 17.3185C4.99313 17.2445 4.97053 17.2564 4.8177 17.5665C4.4873 18.2375 4.14559 18.9031 3.80335 19.5682C3.67905 19.8102 3.68443 19.8534 3.89322 20.0339C4.48138 20.5417 5.07223 21.0452 5.66254 21.5498C6.53214 22.2932 7.40443 23.0334 8.27026 23.7811C8.49734 23.9777 8.74326 24.1231 9.029 24.2182C9.75922 24.4613 10.4825 24.7271 11.2084 24.9837C11.309 25.0204 11.4408 25.0356 11.4462 25.1895Z" fill="black"/>
<path d="M34.9019 56.0998C34.9944 56.0431 35.0967 56.0663 35.1957 56.0625C35.2877 56.136 35.3232 56.2343 35.3189 56.3499C35.2968 56.9296 35.3684 57.5072 35.3593 58.0868C35.3544 58.3878 35.4039 58.6882 35.3969 58.9902C35.3942 59.109 35.4529 59.2117 35.5078 59.3121C35.8791 59.9956 36.2509 60.679 36.6244 61.3619C37.148 62.3198 37.6694 63.2787 38.193 64.2371C38.2796 64.396 38.3727 64.5516 38.4523 64.7142C38.5196 64.8514 38.6256 64.9022 38.7784 64.8714C39.5393 64.7185 40.2959 64.5472 41.0552 64.3873C41.2715 64.3419 41.3087 64.2841 41.3141 64.0621C41.3146 64.0502 41.3141 64.0378 41.3141 64.0259C41.313 61.9853 41.3754 59.9448 41.3506 57.9042C41.3501 57.8497 41.3544 57.7951 41.3512 57.7411C41.3426 57.5882 41.4066 57.4947 41.5535 57.4407C42.0335 57.2651 42.5114 57.0825 42.9828 56.8832C43.3487 56.7281 43.7092 56.5617 44.0703 56.3975C44.2097 56.3343 44.313 56.3494 44.4281 56.4536C45.062 57.0274 45.6798 57.6184 46.3099 58.1965C47.0111 58.8394 47.7036 59.4915 48.4059 60.1333C48.641 60.3484 48.8789 60.5618 49.106 60.7865C49.261 60.9394 49.3331 60.9443 49.5182 60.8243C50.1343 60.4245 50.7499 60.0231 51.3639 59.6201C51.5307 59.5104 51.5576 59.4321 51.4898 59.2176C51.2321 58.4002 50.9797 57.5812 50.7252 56.7627C50.3469 55.5466 49.9659 54.3315 49.5854 53.1165C49.5306 52.942 49.5666 52.8145 49.7044 52.7005C50.3749 52.1478 50.9845 51.5303 51.5894 50.9079C51.7325 50.7604 51.8531 50.7188 52.0586 50.8063C53.5191 51.4309 54.9752 52.0673 56.4367 52.6886C56.9184 52.8934 57.3994 53.1003 57.881 53.305C57.9483 53.3337 58.0156 53.3591 58.0898 53.3358C58.2184 53.3029 58.3019 53.2197 58.3777 53.1111C58.8055 52.4963 59.2516 51.895 59.6983 51.2936C59.7736 51.1926 59.8339 51.0819 59.9146 50.9846C59.9867 50.8971 59.9463 50.8166 59.8931 50.7388C59.8769 50.7188 59.8613 50.6983 59.8468 50.6772C59.8118 50.5811 59.8134 50.4568 59.6676 50.4476C59.6514 50.439 59.6385 50.4271 59.6267 50.413C59.5923 50.3088 59.5481 50.2137 59.4265 50.1861C59.4061 50.1688 59.3878 50.1488 59.3722 50.1267C59.3194 49.8938 59.1612 49.7518 58.961 49.6453C58.9401 49.6275 58.9218 49.608 58.9056 49.5859C58.8534 49.3509 58.6936 49.2088 58.4923 49.1018C58.4714 49.084 58.4531 49.0645 58.4369 49.0424C58.3831 48.8101 58.2297 48.6637 58.0258 48.5605C58.0054 48.5432 57.9865 48.5243 57.9688 48.5043C57.9182 48.3741 57.8541 48.2552 57.7578 48.1488C57.6992 48.0845 57.6437 48.0348 57.5609 48.0159C57.5383 48.0002 57.5194 47.9813 57.5011 47.9613C57.4495 47.8311 57.3854 47.7123 57.2886 47.6059C57.2299 47.5416 57.1745 47.4919 57.0916 47.4724C57.069 47.4567 57.0502 47.4378 57.0319 47.4178C56.9802 47.2882 56.9162 47.1693 56.8199 47.0629C56.7612 46.9986 56.7069 46.9484 56.6235 46.9295C56.6009 46.9143 56.582 46.8949 56.5637 46.8749C56.5051 46.789 56.4943 46.6631 56.3641 46.6383C56.3437 46.621 56.3248 46.6015 56.3087 46.5799C56.2683 46.5048 56.2726 46.3941 56.151 46.3849C56.1289 46.3692 56.1106 46.3498 56.0929 46.3298C56.038 46.2412 56.0224 46.1196 55.8932 46.0937C55.8723 46.0758 55.8534 46.0564 55.8373 46.0342C55.7996 45.951 55.791 45.8468 55.6775 45.8208C55.6549 45.8014 55.6419 45.7765 55.636 45.7474C55.6263 45.5702 55.6791 45.4146 55.7689 45.2611C56.1569 44.5966 56.4599 43.8905 56.7612 43.1838C56.8172 43.0531 56.8645 42.9159 56.9619 42.8068C57.033 42.7841 57.1045 42.7835 57.1767 42.7986C57.3139 42.9407 57.4613 42.964 57.6254 42.8413C57.6529 42.8208 57.6949 42.8262 57.7304 42.8224C57.8584 42.8181 57.9865 42.8089 58.113 42.8348C58.2486 42.9721 58.3933 43.0083 58.5575 42.8802C58.5844 42.8592 58.6258 42.8646 58.6613 42.8597C58.7474 42.8548 58.833 42.8527 58.9175 42.8727C58.988 42.8899 59.0036 42.9629 59.0504 43.0056C59.1698 43.1136 59.1585 43.1568 59.01 43.2487C58.9271 43.2465 58.8432 43.2654 58.7614 43.2368C58.6064 43.2336 58.4514 43.2303 58.2959 43.2271C58.1399 43.1914 57.979 43.2395 57.8229 43.2001C57.6427 43.199 57.4619 43.2055 57.2816 43.1941C57.1384 43.1849 57.0561 43.2244 56.9969 43.3686C56.7096 44.0672 56.3856 44.749 56.0235 45.4119C55.9562 45.535 55.9605 45.6047 56.0627 45.7187C56.4104 46.1039 56.7327 46.5118 57.0701 46.9062C57.3456 47.2282 57.6319 47.5421 57.909 47.863C58.2556 48.2644 58.5951 48.6718 58.9417 49.0732C59.1445 49.3082 59.3571 49.5351 59.5616 49.769C59.8172 50.0613 60.0696 50.3558 60.3214 50.6513C60.4145 50.7604 60.3881 50.8469 60.3004 50.9652C59.6181 51.8896 58.9449 52.8204 58.2782 53.7561C58.2001 53.8653 58.1383 53.8599 58.0409 53.8183C57.4199 53.5519 56.7984 53.2872 56.1768 53.0214C54.9553 52.4995 53.7338 51.9776 52.5123 51.4552C52.3417 51.3823 52.1689 51.3147 52.0032 51.2331C51.9171 51.191 51.8633 51.2045 51.7987 51.2704C51.6174 51.4557 51.4274 51.6319 51.2466 51.8172C50.8619 52.2121 50.4561 52.5838 50.0288 52.9312C49.9648 52.9836 49.9702 53.0327 49.9923 53.103C50.2156 53.8053 50.4373 54.5076 50.6552 55.2116C50.9802 56.2586 51.2961 57.3083 51.6276 58.3532C51.7524 58.7476 51.88 59.1409 51.9994 59.5364C52.0258 59.6228 52.015 59.6633 51.9408 59.7119C51.2821 60.1398 50.6262 60.5715 49.9691 61.0021C49.77 61.1323 49.5634 61.2528 49.3745 61.3965C49.2766 61.471 49.2141 61.4462 49.1431 61.3819C48.9693 61.2241 48.7976 61.0647 48.626 60.9043C47.9092 60.2349 47.1946 59.5639 46.4767 58.8967C45.7411 58.2133 45.0018 57.5336 44.2645 56.8518C44.2177 56.8081 44.1752 56.774 44.1069 56.8081C43.3454 57.1906 42.5436 57.478 41.7575 57.8032C41.7295 58.2716 41.7537 58.7406 41.7445 59.209C41.7429 59.2868 41.758 59.3651 41.7327 59.4418C41.7289 60.4418 41.7252 61.4418 41.7214 62.4424C41.6934 62.9783 41.7193 63.5148 41.708 64.0507C41.7036 64.2479 41.7343 64.4468 41.6891 64.6429C41.3862 64.7569 41.0649 64.7941 40.7517 64.8644C40.0123 65.0308 39.2697 65.1804 38.5298 65.342C38.4045 65.3695 38.3318 65.3565 38.2629 65.2269C37.8889 64.5218 37.502 63.8244 37.1205 63.1237C36.4602 61.9113 35.8064 60.6952 35.1365 59.4883C35.0084 59.2576 34.9885 59.0231 34.981 58.7762C34.9557 57.8848 34.9288 56.9923 34.9019 56.0998Z" fill="black"/>
<path d="M30.8271 56.0646C30.9364 56.0663 31.0472 56.0501 31.1511 56.1008C31.1032 57.1063 31.0542 58.1117 31.0085 59.1171C30.9999 59.3078 30.8923 59.4569 30.8175 59.619C30.557 60.1852 30.2901 60.7481 30.0237 61.3111C29.8467 61.6849 29.6637 62.0561 29.4867 62.43C29.0869 63.2749 28.6892 64.121 28.291 64.967C28.235 65.0864 28.1801 65.2069 28.1317 65.3295C28.0887 65.4381 28.0149 65.47 27.9062 65.4468C26.9866 65.2474 26.067 65.0486 25.1468 64.8503C24.9434 64.8065 24.7394 64.7639 24.5344 64.7255C24.4451 64.7088 24.3972 64.6704 24.3999 64.571C24.4036 64.4084 24.3977 64.2452 24.3956 64.0826C24.359 63.8152 24.4069 63.545 24.3708 63.2771C24.3671 62.9897 24.3633 62.7028 24.3595 62.4154C24.3235 62.1355 24.3708 61.8535 24.3342 61.5736C24.331 61.2976 24.3283 61.021 24.3251 60.7449C24.2842 60.4667 24.3364 60.1852 24.2976 59.907C24.2944 59.6309 24.2917 59.3543 24.2885 59.0782C24.2476 58.8 24.2998 58.5185 24.261 58.2403C24.3159 57.9102 24.183 57.7519 23.8542 57.6476C23.1993 57.4396 22.5719 57.1495 21.9509 56.8523C21.8481 56.8032 21.7766 56.8064 21.6845 56.8907C21.2201 57.3143 20.7633 57.7459 20.3027 58.1733C19.7979 58.6417 19.2905 59.1068 18.7884 59.5785C18.3477 59.9923 17.8994 60.3975 17.4576 60.8097C17.265 60.9896 17.0723 61.1701 16.8802 61.3505C16.7974 61.4283 16.7167 61.4764 16.5897 61.3927C15.747 60.8335 14.9 60.2819 14.0508 59.7325C13.9545 59.6698 13.9663 59.6098 13.9943 59.5207C14.1848 58.915 14.3688 58.3073 14.5577 57.7016C15.0318 56.1808 15.508 54.6611 15.9821 53.1402C16.0047 53.0678 16.0262 53.0025 15.945 52.9344C15.345 52.4314 14.7843 51.8863 14.244 51.3196C14.1418 51.2121 14.0562 51.1894 13.9163 51.2466C12.9902 51.6243 12.0614 51.9938 11.1326 52.3655C10.0435 52.8015 8.95432 53.2359 7.86571 53.6735C7.73602 53.7259 7.658 53.7059 7.56921 53.5811C6.9649 52.7318 6.35306 51.8885 5.73531 51.0489C5.6336 50.9101 5.62553 50.8144 5.74122 50.6804C6.16203 50.1953 6.57423 49.7015 6.9875 49.2099C7.35827 48.7685 7.72634 48.3249 8.0971 47.883C8.13584 47.8371 8.18212 47.7976 8.22463 47.7555C8.25477 47.7928 8.28113 47.8349 8.31611 47.8668C8.40598 47.9494 8.40114 48.0283 8.32526 48.118C7.90822 48.6091 7.49226 49.1007 7.07683 49.5934C6.75073 49.9803 6.42732 50.3693 6.09907 50.7539C6.02589 50.8398 6.03181 50.9133 6.09261 50.997C6.63557 51.7431 7.17907 52.4881 7.71826 53.2364C7.80382 53.3553 7.89046 53.3309 7.9997 53.2866C9.88203 52.5314 11.7649 51.7788 13.6483 51.0251C13.7882 50.9695 13.9276 50.9138 14.067 50.8566C14.1547 50.8204 14.2193 50.8333 14.2887 50.9106C14.8445 51.5303 15.4553 52.0943 16.0849 52.6362C16.3862 52.8955 16.3932 52.8852 16.2738 53.2667C15.6399 55.2948 15.0087 57.3234 14.3715 59.35C14.329 59.4861 14.3624 59.5596 14.4765 59.633C15.1749 60.0831 15.8707 60.5374 16.5654 60.994C16.6607 61.0566 16.7312 61.0609 16.8194 60.9783C17.293 60.5331 17.7703 60.0917 18.2481 59.6509C19.1145 58.8508 19.983 58.0523 20.8488 57.2516C21.0964 57.0225 21.3434 56.7929 21.5812 56.5541C21.6905 56.4445 21.7868 56.418 21.931 56.4904C22.7183 56.8837 23.534 57.21 24.3617 57.505C24.4984 57.5536 24.5393 57.6271 24.55 57.7681C24.5947 58.3591 24.5635 58.9512 24.5855 59.5417C24.6259 60.6514 24.635 61.7617 24.663 62.8713C24.6743 63.3235 24.6851 63.7757 24.6888 64.2285C24.6899 64.3749 24.7497 64.4462 24.8923 64.4759C25.8221 64.6709 26.752 64.8692 27.6802 65.0718C27.8384 65.1064 27.924 65.0561 27.9907 64.9103C28.3464 64.1377 28.7091 63.3684 29.0707 62.5985C29.5916 61.4899 30.1136 60.3824 30.6345 59.2743C30.6867 59.163 30.7077 59.0431 30.7131 58.9226C30.741 58.2597 30.762 57.5968 30.7911 56.9345C30.8045 56.6433 30.8406 56.3548 30.8271 56.0646Z" fill="black"/>
<path d="M45.1941 10.0747C45.2931 10.3783 45.5805 10.4621 45.8167 10.595C46.4151 10.931 46.986 11.3103 47.5597 11.6857C47.6807 11.7652 47.7846 11.7808 47.9073 11.7003C48.6074 11.2433 49.3064 10.7846 50.0124 10.3373C50.1787 10.2319 50.2503 10.1385 50.1028 9.97205C51.2016 9.25891 52.301 8.54685 53.3972 7.82939C53.4919 7.76726 53.5591 7.76132 53.6495 7.82831C53.804 7.94285 53.9267 8.09142 54.0741 8.2146C54.3857 8.475 54.672 8.76566 54.9738 9.03849C55.266 9.30267 55.5604 9.56524 55.8623 9.81808C56.1055 10.0223 56.1292 10.0596 55.9833 10.3329C55.6131 11.031 55.2332 11.7236 54.8598 12.42C54.5686 12.9635 54.284 13.5102 53.9912 14.0532C53.6479 14.6907 53.3127 15.3341 52.9446 15.957C52.8289 16.1526 52.9312 16.2461 53.0237 16.3536C53.5075 16.9149 53.9433 17.513 54.3712 18.1164C54.4395 18.2131 54.5062 18.2429 54.6095 18.2202C55.7886 17.9625 56.9676 17.7042 58.1471 17.4471C59.1103 17.2369 60.0741 17.0278 61.0384 16.8209C61.1568 16.7955 61.2434 16.8155 61.3102 16.95C61.7073 17.7512 62.1114 18.5492 62.5252 19.3417C62.6754 19.6292 62.8174 19.9209 62.967 20.2083C63.0165 20.3039 63.0004 20.358 62.9202 20.4179C61.5555 21.4406 60.1909 22.4644 58.8278 23.4893C58.4705 23.7578 58.1138 24.0268 57.7624 24.3035C57.6074 24.4256 57.4244 24.4753 57.2463 24.539C56.3939 24.8437 55.5405 25.1463 54.6876 25.4499C54.5643 25.3872 54.5826 25.2576 54.5471 25.1527C54.5799 25.062 54.6607 25.0355 54.7408 25.0063C55.5507 24.7162 56.3627 24.4331 57.1737 24.1457C57.3346 24.0884 57.4809 24.0139 57.6176 23.9112C59.1706 22.741 60.7231 21.5692 62.2734 20.3947C62.4994 20.2234 62.508 20.1862 62.3805 19.9279C61.9774 19.111 61.5453 18.3088 61.1471 17.4897C61.04 17.2693 60.9959 17.2482 60.7462 17.3023C59.6824 17.5313 58.619 17.7642 57.5557 17.9949C56.5742 18.2077 55.5921 18.4157 54.6128 18.6378C54.3771 18.6913 54.2388 18.6313 54.1026 18.4309C53.6205 17.7231 53.1023 17.0424 52.5416 16.3941C52.3914 16.2201 52.386 16.1823 52.4985 15.9765C53.1706 14.7431 53.8298 13.5021 54.4998 12.2676C54.8388 11.642 55.1746 11.0147 55.5114 10.3881C55.619 10.1882 55.6002 10.1341 55.4372 9.98232C54.8904 9.47394 54.3259 8.98554 53.7808 8.47554C53.5527 8.26268 53.4962 8.25782 53.2336 8.42746C51.7979 9.35562 50.3654 10.2881 48.9324 11.22C48.5945 11.4399 48.2555 11.6587 47.9175 11.8786C47.7835 11.9656 47.6824 11.9678 47.5446 11.8716C46.8187 11.3643 46.0664 10.8986 45.2883 10.4761C45.2242 10.4415 45.1613 10.4059 45.1188 10.3448C45.0434 10.2379 45.0714 10.1412 45.1941 10.0747Z" fill="black"/>
<path d="M59.0183 43.2336C59.1259 43.0834 58.9467 43.0418 58.9101 42.9467C58.9429 42.8452 59.0339 42.8533 59.106 42.8597C59.5133 42.8959 59.9229 42.8754 60.3297 42.9127C60.3776 42.917 60.4255 42.9273 60.4733 42.9251C60.9668 42.9057 61.4586 42.9538 61.9505 42.9721C62.3578 42.9878 62.7679 42.9716 63.1736 43.0283C63.2393 43.0375 63.3055 43.0364 63.3716 43.0343C63.5745 43.0272 63.6337 42.984 63.6907 42.783C63.8678 42.1623 64.0265 41.5361 64.1933 40.9121C64.2542 40.6847 64.3176 40.4583 64.3763 40.2303C64.4301 40.0196 64.4021 39.9418 64.2186 39.8424C63.25 39.3189 62.2809 38.7959 61.3128 38.2713C60.4292 37.7927 59.544 37.3178 58.6615 36.837C58.4947 36.7462 58.4452 36.6273 58.4683 36.4539C58.5862 35.5625 58.6583 34.6673 58.676 33.7683C58.6793 33.59 58.788 33.5317 58.9193 33.4766C59.5133 33.2286 60.1107 32.9892 60.7058 32.7434C62.0791 32.1762 63.4588 31.624 64.8294 31.0503C65.0425 30.9611 65.085 30.9017 65.0613 30.6791C64.9806 29.9238 64.9144 29.1664 64.8176 28.4127C64.7896 28.1939 64.7578 28.1626 64.5334 28.1334C63.7946 28.0367 63.0552 27.9427 62.3153 27.8552C61.5754 27.7677 60.8371 27.6677 60.0967 27.5818C59.5774 27.5213 59.0586 27.4548 58.5404 27.3895C58.3984 27.3716 58.2665 27.4138 58.1352 27.4581C57.3431 27.7261 56.5446 27.9735 55.7514 28.2398C55.6416 28.2766 55.5087 28.3603 55.4183 28.1955C55.4048 28.0994 55.329 28.0054 55.4081 27.906C55.9881 27.7212 56.5688 27.538 57.1489 27.3517C57.5067 27.2366 57.8662 27.1242 58.2197 26.9967C58.3607 26.9459 58.4936 26.9897 58.6238 27.0032C59.3094 27.0761 59.9933 27.1669 60.6778 27.2517C61.3623 27.336 62.0473 27.4186 62.7313 27.5056C63.4626 27.5991 64.1912 27.7169 64.9246 27.7817C65.1673 27.8033 65.1797 27.8979 65.198 28.0859C65.2938 29.0643 65.4014 30.0411 65.509 31.0184C65.523 31.147 65.5058 31.2226 65.3648 31.2782C64.3338 31.6861 63.306 32.1021 62.2803 32.5225C61.3155 32.9174 60.3587 33.3323 59.388 33.7116C59.1302 33.8121 59.0533 33.9277 59.0484 34.2059C59.0382 34.7791 59.0016 35.354 58.9193 35.9245C58.9004 36.053 58.8994 36.1865 58.8773 36.3161C58.8525 36.4626 58.9166 36.5355 59.0457 36.6036C59.6161 36.9018 60.1785 37.2146 60.7451 37.5204C61.5474 37.9542 62.3503 38.387 63.1532 38.8192C63.7047 39.1163 64.2563 39.414 64.81 39.7068C64.8891 39.7484 64.9117 39.7873 64.8875 39.8754C64.7352 40.4302 64.5872 40.9861 64.4393 41.5426C64.2913 42.098 64.1481 42.6545 63.9937 43.2077C63.97 43.2925 64.0029 43.4276 63.8549 43.4465C63.6988 43.4108 63.5385 43.4594 63.3824 43.4189C63.2269 43.4162 63.0714 43.413 62.9164 43.4103C62.7711 43.3752 62.621 43.4205 62.4757 43.3854C62.3218 43.3816 62.1679 43.3784 62.0145 43.3746C61.8585 43.3373 61.697 43.3876 61.541 43.3476C61.386 43.3444 61.231 43.3411 61.076 43.3379C60.92 43.3017 60.7596 43.3508 60.6036 43.3103C60.4481 43.3076 60.2925 43.3044 60.1376 43.3017C59.9923 43.2666 59.8421 43.3119 59.6968 43.2768C59.5311 43.273 59.3654 43.2693 59.1991 43.2655C59.142 43.2325 59.0721 43.2784 59.0183 43.2336Z" fill="black"/>
<path d="M33.321 56.1413C33.6923 56.1343 34.0647 56.1575 34.4344 56.1035C34.4887 56.7832 34.4871 57.4655 34.5124 58.1462C34.5205 58.3634 34.5275 58.5806 34.5409 58.7972C34.5479 58.9118 34.507 58.9582 34.3892 58.9647C33.4701 59.0139 32.5515 59.0101 31.6319 58.9653C31.5022 58.9588 31.4683 58.9004 31.4737 58.7827C31.5049 58.1322 31.5323 57.4812 31.5614 56.8302C31.5722 56.5892 31.5829 56.3483 31.5931 56.1073C31.9386 56.1484 32.2852 56.1392 32.6317 56.1397C32.8626 56.1656 33.0918 56.1629 33.321 56.1413Z" fill="white"/>
<path d="M55.2679 27.4991C55.1124 26.961 54.9563 26.4229 54.8008 25.8854C55.6166 25.6001 56.4329 25.3149 57.2487 25.0302C57.4677 24.9534 57.4715 24.9524 57.5366 25.1695C57.6593 25.5791 57.7728 25.9918 57.9003 26.3997C57.9504 26.5602 57.9165 26.6326 57.7497 26.686C56.9199 26.9497 56.0944 27.2268 55.2679 27.4991Z" fill="white"/>
<path d="M11.1986 25.9469C11.0264 26.4478 10.8881 26.9583 10.7551 27.471C10.2251 27.3387 9.71443 27.1431 9.19245 26.9837C8.85936 26.8821 8.53057 26.7671 8.19802 26.6639C8.09416 26.6315 8.04896 26.5899 8.08501 26.4721C8.22331 26.0172 8.35515 25.5601 8.48698 25.1031C8.51819 24.9956 8.5677 24.961 8.6834 25.0026C9.47981 25.2884 10.2789 25.5682 11.0764 25.8513C11.1264 25.8686 11.1824 25.8837 11.1986 25.9469Z" fill="white"/>
<path d="M45.1941 10.0747C45.1349 10.2243 45.1807 10.3205 45.3254 10.3972C46.1078 10.8127 46.8574 11.2827 47.5839 11.7889C47.6996 11.8694 47.7776 11.8613 47.8885 11.7889C49.5776 10.6868 51.2689 9.58845 52.9602 8.48902C53.0964 8.40042 53.2363 8.31668 53.3703 8.22484C53.4693 8.15677 53.5495 8.15623 53.6431 8.24159C53.9493 8.52144 54.2625 8.79427 54.5719 9.07088C54.9034 9.36802 55.23 9.67057 55.5663 9.96231C55.6928 10.072 55.738 10.1644 55.647 10.3302C55.1078 11.3135 54.5778 12.3022 54.0461 13.2892C53.6199 14.0801 53.1954 14.8722 52.7703 15.6636C52.753 15.6955 52.738 15.7285 52.7213 15.7609C52.498 16.1996 52.4964 16.2012 52.8181 16.5832C53.3078 17.1645 53.7636 17.7717 54.1925 18.399C54.2931 18.5459 54.39 18.5908 54.5643 18.5519C55.8268 18.2715 57.0908 17.9997 58.3543 17.7253C59.183 17.5454 60.0122 17.3687 60.8393 17.1818C61.0083 17.1434 61.0987 17.1774 61.1789 17.3406C61.625 18.2439 62.0802 19.1429 62.5408 20.0392C62.6162 20.1856 62.6016 20.2666 62.4677 20.3671C60.8253 21.5994 59.1873 22.8377 57.5482 24.0749C57.3599 24.217 57.129 24.2543 56.9159 24.3326C56.1873 24.6 55.4533 24.8523 54.7209 25.109C54.6644 25.1289 54.6047 25.1381 54.5466 25.1527C54.3066 24.5871 54.0897 24.0117 53.8309 23.4536C52.7498 21.1235 51.3319 19.024 49.5512 17.1764C46.131 13.6274 42.0031 11.3902 37.1697 10.4712C35.6641 10.1849 34.1428 10.0596 32.6119 10.092C28.2198 10.1849 24.1656 11.4091 20.4827 13.8224C17.1136 16.0299 14.501 18.9344 12.6348 22.5146C12.2049 23.3391 11.832 24.1889 11.5048 25.0593C11.4881 25.1041 11.466 25.1468 11.4461 25.1905C11.1475 25.0295 10.8171 24.9512 10.5017 24.8345C9.94856 24.6297 9.39268 24.4326 8.83197 24.2516C8.50748 24.1468 8.28309 23.9096 8.03717 23.7027C7.2273 23.0203 6.42605 22.3283 5.62156 21.6394C4.9726 21.084 4.32416 20.5276 3.67304 19.9744C3.57403 19.8906 3.57995 19.808 3.63269 19.7037C4.04058 18.9025 4.44632 18.1002 4.85044 17.2974C4.90802 17.1828 4.9812 17.1461 5.11143 17.1747C7.19125 17.6302 9.27215 18.0813 11.353 18.5346C11.6721 18.6043 11.6705 18.607 11.8519 18.3406C12.3292 17.6361 12.8592 16.9721 13.4049 16.3206C13.4829 16.2271 13.498 16.151 13.4415 16.0456C12.9706 15.1688 12.503 14.2908 12.0332 13.4135C11.6463 12.6906 11.2573 11.9683 10.8698 11.2454C10.71 10.9477 10.5566 10.6468 10.3887 10.354C10.3053 10.2081 10.2951 10.1028 10.4345 9.97905C10.9699 9.50363 11.4967 9.01848 12.0241 8.53441C12.1242 8.44256 12.2167 8.46579 12.3195 8.5236C12.8485 8.82344 13.378 9.12167 13.9075 9.41989C14.9617 10.0131 16.0158 10.6058 17.07 11.199C17.4214 11.3967 17.7744 11.5917 18.122 11.7959C18.2291 11.8591 18.3125 11.8629 18.4174 11.79C19.1407 11.2892 19.8876 10.8262 20.6587 10.4037C20.79 10.3318 20.8411 10.2438 20.8282 10.1006C20.7851 9.62627 20.7459 9.15192 20.7044 8.67757C20.6619 8.19134 20.6183 7.70511 20.5758 7.21888C20.5199 6.58246 20.4644 5.94603 20.4095 5.30961C20.3681 4.82932 20.3278 4.34849 20.2874 3.8682C20.2847 3.83795 20.2869 3.80769 20.2847 3.77744C20.2556 3.37495 20.2551 3.37279 20.6243 3.23016C21.2921 2.97192 21.9631 2.72178 22.6282 2.45705C22.7869 2.39384 22.879 2.42085 22.9753 2.55862C23.6022 3.45221 24.2356 4.34039 24.8657 5.23127C25.4754 6.09244 26.0851 6.95361 26.691 7.81748C26.7835 7.94985 26.8847 7.98875 27.0434 7.94877C27.8899 7.73536 28.7487 7.58355 29.614 7.47172C29.7599 7.45281 29.8228 7.3842 29.854 7.25021C30.0434 6.43875 30.2366 5.62836 30.4277 4.81798C30.7312 3.53108 31.0368 2.24473 31.3355 0.957297C31.3721 0.799002 31.4544 0.761184 31.6024 0.761724C32.5947 0.766046 33.5875 0.763885 34.5803 0.764426C34.6255 0.808727 34.6395 0.867075 34.654 0.925963C35.0027 2.33982 35.338 3.75691 35.6808 5.17238C35.8449 5.85095 36.0112 6.52897 36.1704 7.20861C36.2 7.33557 36.2668 7.42094 36.3862 7.46686C36.4104 7.4674 36.4347 7.4674 36.4594 7.46794C36.5267 7.44092 36.5853 7.46145 36.6391 7.50305C36.6634 7.50305 36.6876 7.50359 36.7118 7.50359C36.863 7.48361 37.0045 7.52304 37.1439 7.57545C37.1563 7.57545 37.1686 7.57599 37.181 7.57599C37.6777 7.61813 38.1599 7.74455 38.6469 7.83963C39.2872 7.96389 39.0876 8.06762 39.468 7.51494C40.2155 6.42956 40.9419 5.33014 41.6802 4.23828C42.0747 3.65534 42.4707 3.07403 42.8576 2.48569C42.8872 2.44084 42.9184 2.396 42.9588 2.35926C42.9819 2.34684 43.0056 2.33387 43.0287 2.32145C43.1304 2.30416 43.2133 2.35927 43.3016 2.39384C44.1437 2.72016 44.9859 3.04431 45.8286 3.36955C46.0809 3.46679 46.0971 3.50677 45.9895 3.7715C45.9895 3.79581 45.9889 3.82066 45.9889 3.84497C46.0357 3.91683 45.9884 3.96977 45.9539 4.02542C45.9539 4.04973 45.9534 4.07458 45.9534 4.09889C45.9905 4.17939 45.9625 4.24854 45.9179 4.31554C45.9179 4.33985 45.9173 4.3647 45.9173 4.38901C45.9593 4.47005 45.9179 4.53704 45.8818 4.60511C45.8818 4.62943 45.8818 4.65428 45.8813 4.67859C45.934 4.76125 45.8781 4.82608 45.8452 4.89469C45.8452 4.919 45.8447 4.94386 45.8447 4.96817C45.891 5.04975 45.8361 5.11512 45.8092 5.18427C45.8092 5.20858 45.8086 5.23343 45.8086 5.25775C45.8555 5.33986 45.8006 5.4047 45.7731 5.47439C45.7726 5.4987 45.7726 5.52355 45.7721 5.54786C45.799 5.6154 45.7785 5.67428 45.7371 5.72831C45.7371 5.75262 45.7365 5.77747 45.7365 5.80178C45.778 5.88282 45.7371 5.94981 45.701 6.01789C45.701 6.04274 45.7005 6.06705 45.7005 6.0919C45.7382 6.1724 45.7096 6.24155 45.665 6.30855C45.665 6.33286 45.6644 6.35717 45.6644 6.38202C45.7172 6.46468 45.6612 6.52951 45.6289 6.59812C45.6289 6.62244 45.6284 6.64729 45.6284 6.6716C45.6752 6.75372 45.6203 6.81855 45.5929 6.88824C45.5929 6.91255 45.5923 6.93741 45.5923 6.96172C45.6391 7.03357 45.5918 7.08652 45.5573 7.14216C45.5573 7.16647 45.5568 7.19133 45.5568 7.21564C45.5939 7.29614 45.566 7.36529 45.5213 7.43228C45.5213 7.45659 45.5208 7.48144 45.5208 7.50576C45.5584 7.58625 45.5299 7.65541 45.4852 7.7224C45.4852 7.74671 45.4847 7.77102 45.4847 7.79587C45.5374 7.87853 45.4815 7.94336 45.4492 8.01198C45.4492 8.03629 45.4486 8.06114 45.4486 8.08545C45.4949 8.16703 45.44 8.2324 45.4131 8.30155C45.4131 8.32587 45.4126 8.35072 45.4126 8.37503C45.4594 8.45715 45.4045 8.52198 45.3771 8.59167C45.3771 8.6041 45.3771 8.61652 45.3771 8.62949C45.4142 8.70999 45.3862 8.77914 45.3416 8.84613C45.3416 8.87045 45.341 8.8953 45.341 8.91961C45.3825 9.00065 45.3416 9.06764 45.3055 9.13571C45.3055 9.16056 45.305 9.18487 45.305 9.20973C45.3421 9.29023 45.3007 9.35722 45.2695 9.42583C45.2695 9.45014 45.2689 9.47499 45.2689 9.4993C45.3217 9.58196 45.2657 9.6468 45.2334 9.71541C45.2334 9.73972 45.2329 9.76457 45.2329 9.78888C45.2797 9.87046 45.2248 9.93583 45.1973 10.0055C45.1947 10.0261 45.1941 10.0504 45.1941 10.0747Z" fill="black"/>
<path d="M55.4191 28.1966C55.5316 28.2382 55.6327 28.1847 55.7333 28.1518C56.477 27.9092 57.2234 27.6747 57.9606 27.4143C58.2609 27.3084 58.5504 27.2917 58.8609 27.3317C60.6603 27.5629 62.4609 27.7849 64.2609 28.0086C64.4099 28.027 64.5595 28.0389 64.7091 28.0556C64.8254 28.0686 64.8894 28.1253 64.9023 28.2517C64.9911 29.1215 65.082 29.9908 65.1789 30.8595C65.1945 30.9978 65.1186 31.0367 65.0169 31.0783C64.0698 31.4646 63.1238 31.8531 62.1773 32.241C61.1027 32.6813 60.0291 33.1243 58.9534 33.5603C58.8146 33.6165 58.7662 33.6981 58.7629 33.8461C58.7441 34.7208 58.6774 35.5917 58.559 36.4588C58.5407 36.5938 58.5692 36.6851 58.6994 36.7548C59.6277 37.2519 60.5527 37.7548 61.4788 38.2557C62.442 38.7765 63.4053 39.2973 64.3701 39.8154C64.4998 39.8851 64.5509 39.9645 64.5084 40.1196C64.2496 41.0623 63.9972 42.0072 63.7486 42.9527C63.7115 43.0931 63.6329 43.1336 63.5011 43.1272C62.7154 43.091 61.9298 43.0596 61.1441 43.0224C60.8202 43.0072 60.4957 43.0078 60.1717 42.9937C59.752 42.9754 59.3323 42.9402 58.9115 42.9473C58.827 42.9473 58.7425 42.9467 58.658 42.9467C58.4729 43.0088 58.2942 42.9775 58.1172 42.9116C57.9843 42.9111 57.8519 42.9111 57.719 42.9105C57.5344 42.9678 57.3552 42.944 57.1787 42.8749C57.1061 42.8749 57.034 42.8749 56.9613 42.8743C56.815 43.0413 56.7703 43.2579 56.682 43.4529C56.3716 44.1418 56.0568 44.8279 55.6828 45.4854C55.6333 45.5724 55.6392 45.6561 55.6973 45.7371C55.7091 45.749 55.7204 45.7609 55.7323 45.7728C55.8022 45.8376 55.8727 45.9025 55.9142 45.9911C55.926 46.003 55.9373 46.0148 55.9491 46.0267C56.0422 46.0937 56.1025 46.1893 56.1671 46.2812C56.1784 46.2931 56.1902 46.305 56.2021 46.3168C56.272 46.3817 56.3425 46.4465 56.3839 46.5351C56.3958 46.547 56.4071 46.5589 56.4189 46.5708C56.512 46.6378 56.5723 46.7334 56.6368 46.8252C56.6481 46.8371 56.66 46.849 56.6718 46.8609C56.83 47.0192 56.9796 47.184 57.1066 47.3693C57.1185 47.3811 57.1298 47.393 57.1416 47.4049C57.2993 47.5632 57.4494 47.728 57.5764 47.9133C57.5882 47.9252 57.5995 47.9371 57.6114 47.949C57.769 48.1073 57.9192 48.272 58.0462 48.4573C58.058 48.4692 58.0693 48.4811 58.0812 48.493C58.2404 48.6502 58.39 48.815 58.5154 49.0014C58.5273 49.0133 58.5386 49.0252 58.5504 49.037C58.7097 49.1943 58.8593 49.359 58.9846 49.5454C58.9965 49.5573 59.0078 49.5692 59.0196 49.5811C59.1789 49.7383 59.3285 49.9031 59.4539 50.0895C59.4657 50.1013 59.477 50.1132 59.4889 50.1251C59.582 50.1921 59.6422 50.2877 59.7068 50.379H59.7063C59.794 50.4504 59.8682 50.5336 59.9231 50.6335C59.935 50.6454 59.9463 50.6573 59.9581 50.6692C60.0803 50.7432 60.0743 50.8248 59.9942 50.936C59.5766 51.5174 59.1536 52.0949 58.735 52.6757C58.5698 52.9053 58.4067 53.1365 58.2383 53.3634C58.2028 53.4115 58.1721 53.465 58.1167 53.4947C57.6103 53.3197 57.1281 53.0846 56.6358 52.8756C55.0855 52.2175 53.5373 51.553 51.9913 50.8847C51.8659 50.8307 51.7879 50.8404 51.6916 50.9377C51.2132 51.4217 50.7439 51.9155 50.2343 52.3677C50.0858 52.4995 49.9384 52.633 49.7829 52.7562C49.6639 52.8507 49.6284 52.9485 49.6763 53.1009C50.3151 55.1333 50.9484 57.1668 51.5839 59.2004C51.6883 59.5353 51.6829 59.5321 51.3913 59.7201C50.7585 60.1274 50.1278 60.538 49.503 60.9573C49.3513 61.0588 49.2501 61.0572 49.1124 60.9286C48.1949 60.0686 47.2688 59.2182 46.3475 58.3619C45.7836 57.8373 45.2239 57.3078 44.6611 56.7822C44.5556 56.6838 44.4431 56.5925 44.3377 56.4942C44.2596 56.4213 44.1859 56.451 44.1057 56.4883C43.4132 56.8113 42.7125 57.116 41.9963 57.3824C41.8779 57.4267 41.7606 57.4742 41.6395 57.5094C41.4873 57.5537 41.4394 57.6482 41.4399 57.8043C41.4442 59.0302 41.4641 60.2566 41.434 61.4819C41.4119 62.3933 41.4125 63.3042 41.4082 64.2156C41.4076 64.3647 41.3517 64.4273 41.2069 64.4576C40.3647 64.6321 39.5237 64.812 38.6842 64.9984C38.5335 65.0319 38.4738 64.9492 38.4173 64.8455C38.1886 64.4279 37.9621 64.0087 37.7339 63.5905C37.1334 62.4894 36.5317 61.3895 35.9312 60.2884C35.738 59.9335 35.5475 59.5775 35.3543 59.2225C35.3247 59.1679 35.3086 59.1118 35.3065 59.0502C35.2941 58.6585 35.2849 58.2663 35.2682 57.8751C35.243 57.2727 35.25 56.6693 35.1978 56.068C35.6261 56.0101 36.0555 55.9567 36.4833 55.8934C38.4205 55.6055 40.2873 55.0658 42.0835 54.2867C44.519 53.2305 46.7086 51.7934 48.6474 49.9749C50.6083 48.1354 52.2049 46.0197 53.4302 43.6204C54.649 41.2336 55.4229 38.7089 55.7635 36.0509C55.9852 34.3199 56.0073 32.5835 55.8361 30.8466C55.7473 29.9519 55.608 29.0702 55.4191 28.1966Z" fill="black"/>
<path d="M33.2855 55.7783C20.9089 55.9318 10.781 46.0931 10.4425 33.7747C10.0943 21.0938 20.0134 10.8775 32.2211 10.4772C44.9158 10.0607 55.0674 20.0192 55.5528 32.1723C56.0699 45.1196 45.8403 55.6341 33.2855 55.7783Z" fill="white"/>
<path d="M33.3211 56.1414C33.0913 56.1733 32.862 56.1787 32.6328 56.1393C32.8626 56.1398 33.0918 56.1409 33.3211 56.1414Z" fill="#0B2644"/>
<path d="M54.943 33.1329C55.0334 45.1812 45.0847 55.3304 32.6838 55.1694C20.9163 55.0165 10.8406 45.2752 11.0445 32.7115C11.2372 20.8604 20.9335 11.079 33.0121 11.0758C45.1245 11.0726 55.0318 21.0436 54.943 33.1329Z" fill="white"/>
<path d="M32.9988 23.6071C36.7221 23.6071 40.4453 23.6071 44.168 23.6071C44.3988 23.6071 44.3988 23.6071 44.3994 23.8394C44.3994 25.1495 44.3962 26.4602 44.4037 27.7703C44.4048 27.9416 44.3531 27.9756 44.1933 27.9756C36.7291 27.9718 29.2649 27.9718 21.8006 27.9756C21.6457 27.9756 21.5962 27.9416 21.5972 27.7779C21.6042 26.4553 21.6042 25.1328 21.5967 23.8108C21.5956 23.6368 21.6537 23.6038 21.8119 23.6044C25.5406 23.6082 29.2697 23.6071 32.9988 23.6071Z" fill="#2E4F74"/>
<path d="M29.7363 38.3842C29.7363 41.361 29.7363 44.3378 29.7363 47.3152C29.7363 47.3816 29.7336 47.4481 29.7357 47.5145C29.7406 47.6442 29.6824 47.6971 29.5517 47.6966C28.5174 47.6939 27.4826 47.6939 26.4484 47.6961C26.3235 47.6961 26.2729 47.6431 26.2805 47.5216C26.2842 47.4556 26.2805 47.3887 26.2805 47.3222C26.2805 43.1374 26.281 38.9531 26.2799 34.7682C26.2794 33.7374 25.7316 32.9141 24.7872 32.5186C24.5407 32.4154 24.2819 32.3614 24.0145 32.3614C23.2929 32.3625 22.5712 32.3522 21.8502 32.3884C21.6085 32.4003 21.5951 32.3787 21.5946 32.1356C21.5935 31.1998 21.5935 30.2636 21.5946 29.3278C21.5951 29.0945 21.6177 29.0728 21.8572 29.0723C24.3955 29.0718 26.9332 29.0718 29.4715 29.0723C29.7196 29.0723 29.7363 29.0918 29.7363 29.3619C29.7363 32.37 29.7363 35.3771 29.7363 38.3842Z" fill="#2E4F74"/>
<path d="M35.1664 38.3961C35.1664 41.4216 35.1648 44.447 35.1702 47.4725C35.1707 47.6464 35.14 47.7069 34.9485 47.7053C33.6495 47.6956 32.3499 47.6972 31.0509 47.7037C30.8841 47.7048 30.8281 47.6718 30.8281 47.4892C30.8335 41.42 30.833 35.3507 30.8292 29.2815C30.8292 29.1291 30.8577 29.074 31.024 29.0751C32.3413 29.0821 33.6586 29.0827 34.9759 29.0751C35.1454 29.074 35.1696 29.134 35.1696 29.2831C35.1653 32.321 35.1664 35.3588 35.1664 38.3961Z" fill="#2E4F74"/>
<path d="M36.2778 38.3864C36.2778 35.3728 36.2778 32.3587 36.2778 29.3452C36.2778 29.074 36.2784 29.0729 36.5453 29.0729C39.0717 29.0729 41.5987 29.0729 44.1252 29.0729C44.3985 29.0729 44.3991 29.0734 44.3991 29.3387C44.3991 30.2809 44.3959 31.2231 44.4023 32.1653C44.4034 32.336 44.3571 32.4041 44.1795 32.3938C43.459 32.3522 42.7368 32.3587 42.0152 32.3625C40.854 32.3684 39.8429 33.3117 39.7374 34.4744C39.7169 34.6975 39.7099 34.9201 39.7099 35.1432C39.7099 39.2081 39.7099 43.2725 39.7099 47.3374C39.7099 47.4038 39.7067 47.4703 39.7094 47.5367C39.7142 47.6539 39.6572 47.6966 39.5447 47.6966C38.5099 47.695 37.4751 47.695 36.4409 47.6966C36.3284 47.6966 36.2714 47.6545 36.2778 47.5367C36.2811 47.4767 36.2778 47.4157 36.2778 47.3557C36.2778 44.3654 36.2778 41.3762 36.2778 38.3864Z" fill="#2E4F74"/>
<path d="M35.6712 20.224C35.6696 21.7102 34.4787 22.9048 33.0011 22.9042C31.5255 22.9031 30.3282 21.7027 30.3271 20.2235C30.3261 18.7491 31.5304 17.5416 33.0021 17.5416C34.4771 17.5411 35.6728 18.7432 35.6712 20.224Z" fill="#2E4F74"/>
<path d="M6.6241 49.6443L6.85925 49.8539L10.4017 45.6237C10.4017 45.6237 10.4323 45.5691 10.3866 45.4843C10.3409 45.3995 9.40185 43.6436 9.18123 42.9472C9.18123 42.9472 9.16401 42.8602 9.07414 42.8397C8.98428 42.8192 7.49692 42.8397 7.49692 42.8397L2.39181 42.8775C2.39181 42.8775 2.2745 42.9035 2.218 42.7554C2.1615 42.6074 1.45872 39.9764 1.45872 39.9764C1.45872 39.9764 1.43988 39.8834 1.59647 39.8008C1.75307 39.7181 7.39307 36.6721 7.39307 36.6721C7.39307 36.6721 7.47109 36.6154 7.43665 36.4155C7.40221 36.2156 7.2397 34.0119 7.251 33.7974C7.26284 33.5829 7.00185 33.5305 7.00185 33.5305L0.913603 31.0529C0.913603 31.0529 0.797908 31.0356 0.809209 30.9022C0.821047 30.7687 1.08741 28.2393 1.08741 28.2393C1.08741 28.2393 1.06159 28.1393 1.36132 28.1085C1.66159 28.0783 7.61585 27.276 7.61585 27.276L10.59 28.2393L10.6594 27.9146L7.83163 27.021C7.83163 27.021 7.62715 26.9513 7.49692 26.9643C7.3667 26.9772 1.00024 27.8622 1.00024 27.8622C1.00024 27.8622 0.818895 27.8794 0.808132 27.9843C0.79737 28.0885 0.50033 30.9897 0.50033 30.9897C0.50033 30.9897 0.461047 31.2226 0.53746 31.255C0.613334 31.2874 6.92598 33.8212 6.92598 33.8212C6.92598 33.8212 7.08849 36.1481 7.14069 36.4323C7.14069 36.4323 7.16383 36.4582 7.0449 36.5219C6.92598 36.5857 1.11378 39.7192 1.11378 39.7192L1.96508 43.0915C2.00706 43.2492 2.13028 43.2325 2.20024 43.233C4.45441 43.2487 6.51755 43.1758 8.77172 43.1914C8.86266 43.2001 8.91217 43.24 8.9493 43.2935C8.96652 43.3184 9.19199 43.8419 9.291 44.0634C9.5084 44.5507 9.72472 44.9629 9.9389 45.3849C9.95235 45.4146 9.99325 45.5048 9.98786 45.5518C9.98571 45.6112 9.96526 45.6615 9.92813 45.7117C9.85925 45.7998 9.46643 46.2795 8.5145 47.4103C8.03611 47.9786 7.43827 48.7139 6.6241 49.6443Z" fill="black"/>
</g>
<defs>
<clipPath id="clip0_1_1681">
<rect width="66" height="66" fill="white"/>
</clipPath>
</defs>
</svg>
