<svg width="105" height="31" viewBox="0 0 105 31" fill="none" xmlns="http://www.w3.org/2000/svg">
<path d="M38.8679 10.8854C38.8679 10.7554 38.8479 10.6387 38.8079 10.5353C38.7712 10.4286 38.7012 10.3318 38.5978 10.2451C38.4944 10.1551 38.3493 10.0667 38.1626 9.98002C37.9758 9.89331 37.7341 9.80327 37.4373 9.7099C37.1071 9.60318 36.7936 9.48313 36.4968 9.34974C36.2034 9.21634 35.9433 9.06127 35.7165 8.88453C35.4931 8.70444 35.3163 8.49602 35.1862 8.25924C35.0595 8.02247 34.9962 7.74735 34.9962 7.43387C34.9962 7.1304 35.0629 6.85528 35.1963 6.6085C35.3296 6.35838 35.5164 6.14496 35.7565 5.96821C35.9966 5.78813 36.2801 5.64973 36.6069 5.55302C36.937 5.45631 37.2989 5.40796 37.6924 5.40796C38.2293 5.40796 38.6978 5.50467 39.098 5.69809C39.4982 5.89151 39.8083 6.15663 40.0284 6.49345C40.2519 6.83026 40.3636 7.21544 40.3636 7.64897H38.8729C38.8729 7.43554 38.8279 7.24879 38.7379 7.08871C38.6511 6.92531 38.5178 6.79692 38.3377 6.70354C38.1609 6.61017 37.9375 6.56348 37.6674 6.56348C37.4072 6.56348 37.1905 6.6035 37.0171 6.68353C36.8437 6.76023 36.7136 6.86528 36.6269 6.99867C36.5402 7.12873 36.4968 7.27547 36.4968 7.43887C36.4968 7.56226 36.5269 7.67398 36.5869 7.77402C36.6502 7.87407 36.7436 7.96744 36.867 8.05415C36.9904 8.14086 37.1421 8.22256 37.3222 8.29926C37.5023 8.37596 37.7107 8.451 37.9475 8.52436C38.3443 8.64442 38.6928 8.77948 38.993 8.92955C39.2964 9.07961 39.5499 9.24802 39.7533 9.43477C39.9567 9.62153 40.1101 9.83329 40.2135 10.0701C40.3169 10.3068 40.3686 10.5753 40.3686 10.8754C40.3686 11.1922 40.3069 11.4757 40.1835 11.7258C40.0601 11.9759 39.8817 12.1877 39.6483 12.3611C39.4148 12.5345 39.1364 12.6662 38.8129 12.7563C38.4894 12.8463 38.1276 12.8913 37.7274 12.8913C37.3672 12.8913 37.0121 12.8446 36.6619 12.7513C36.3118 12.6546 35.9933 12.5095 35.7065 12.3161C35.423 12.1227 35.1963 11.8759 35.0262 11.5757C34.8561 11.2756 34.7711 10.9204 34.7711 10.5103H36.2767C36.2767 10.737 36.3118 10.9288 36.3818 11.0855C36.4518 11.2423 36.5502 11.369 36.6769 11.4657C36.807 11.5624 36.9604 11.6324 37.1371 11.6758C37.3172 11.7191 37.514 11.7408 37.7274 11.7408C37.9875 11.7408 38.2009 11.7041 38.3677 11.6308C38.5378 11.5574 38.6628 11.4557 38.7429 11.3256C38.8262 11.1956 38.8679 11.0488 38.8679 10.8854ZM42.0744 5.508H43.3449L45.2158 10.8554L47.0866 5.508H48.3572L45.726 12.7913H44.7055L42.0744 5.508ZM41.389 5.508H42.6546L42.8847 10.7204V12.7913H41.389V5.508ZM47.7769 5.508H49.0475V12.7913H47.5468V10.7204L47.7769 5.508ZM51.8638 5.508V12.7913H50.3631V5.508H51.8638ZM56.2258 5.508L53.3394 9.10463L51.6737 10.8954L51.4036 9.47479L52.5291 7.9341L54.3849 5.508H56.2258ZM54.52 12.7913L52.374 9.42477L53.4845 8.49435L56.2958 12.7913H54.52ZM65.3549 5.508V12.7913H63.8542L60.9279 7.90909V12.7913H59.4272V5.508H60.9279L63.8592 10.3952V5.508H65.3549ZM71.5477 11.6208V12.7913H67.6709V11.6208H71.5477ZM68.1611 5.508V12.7913H66.6605V5.508H68.1611ZM71.0424 8.47434V9.61486H67.6709V8.47434H71.0424ZM71.5427 5.508V6.68353H67.6709V5.508H71.5427ZM78.1957 8.98457V11.8709C78.0823 12.0076 77.9072 12.156 77.6704 12.3161C77.4337 12.4728 77.1285 12.6079 76.755 12.7213C76.3815 12.8346 75.9296 12.8913 75.3994 12.8913C74.9292 12.8913 74.5007 12.8146 74.1138 12.6612C73.727 12.5045 73.3935 12.2761 73.1134 11.9759C72.8366 11.6758 72.6232 11.309 72.4731 10.8754C72.323 10.4386 72.248 9.94 72.248 9.37975V8.92454C72.248 8.36429 72.3197 7.86573 72.4631 7.42887C72.6098 6.992 72.8182 6.6235 73.0884 6.32337C73.3585 6.02323 73.6803 5.7948 74.0538 5.63806C74.4273 5.48132 74.8425 5.40295 75.2994 5.40295C75.933 5.40295 76.4532 5.50633 76.8601 5.71309C77.2669 5.91652 77.5771 6.19998 77.7905 6.56348C78.0073 6.92364 78.1406 7.33716 78.1907 7.80404H76.735C76.6983 7.55726 76.6283 7.34216 76.5249 7.15875C76.4215 6.97533 76.2731 6.83193 76.0797 6.72855C75.8896 6.62517 75.6429 6.57348 75.3394 6.57348C75.0893 6.57348 74.8658 6.62517 74.6691 6.72855C74.4757 6.8286 74.3123 6.977 74.1789 7.17375C74.0455 7.37051 73.9438 7.61395 73.8737 7.90408C73.8037 8.19421 73.7687 8.53103 73.7687 8.91454V9.37975C73.7687 9.75992 73.8054 10.0967 73.8787 10.3902C73.9521 10.6803 74.0605 10.9254 74.2039 11.1255C74.3506 11.3223 74.5307 11.4707 74.7441 11.5707C74.9575 11.6708 75.206 11.7208 75.4894 11.7208C75.7262 11.7208 75.923 11.7008 76.0797 11.6608C76.2398 11.6208 76.3682 11.5724 76.4649 11.5157C76.5649 11.4557 76.6416 11.399 76.695 11.3456V10.0551H75.3244V8.98457H78.1957ZM84.2934 11.6208V12.7913H80.4167V11.6208H84.2934ZM80.9069 5.508V12.7913H79.4062V5.508H80.9069ZM83.7882 8.47434V9.61486H80.4167V8.47434H83.7882ZM84.2884 5.508V6.68353H80.4167V5.508H84.2884ZM85.1688 5.508H87.885C88.442 5.508 88.9205 5.59137 89.3207 5.75811C89.7242 5.92486 90.0344 6.17163 90.2511 6.49845C90.4679 6.82526 90.5763 7.22711 90.5763 7.70399C90.5763 8.09417 90.5096 8.42932 90.3762 8.70945C90.2461 8.98624 90.061 9.21801 89.8209 9.40476C89.5841 9.58818 89.3057 9.73491 88.9855 9.84496L88.5103 10.0951H86.1493L86.1393 8.92454H87.8951C88.1585 8.92454 88.3769 8.87786 88.5503 8.78448C88.7238 8.69111 88.8538 8.56105 88.9405 8.3943C89.0306 8.22756 89.0756 8.03414 89.0756 7.81404C89.0756 7.5806 89.0322 7.37885 88.9455 7.20877C88.8588 7.03869 88.7271 6.90863 88.5503 6.81859C88.3736 6.72855 88.1518 6.68353 87.885 6.68353H86.6695V12.7913H85.1688V5.508ZM89.2407 12.7913L87.5799 9.54482L89.1656 9.53482L90.8464 12.7213V12.7913H89.2407ZM93.3275 5.508V12.7913H91.8318V5.508H93.3275ZM100.646 5.49299V12.7913H99.2052V7.15374L97.4744 7.70399V6.56848L100.491 5.49299H100.646ZM37.3122 24.7913H35.7265L35.7365 23.6208H37.3122C37.7057 23.6208 38.0375 23.5324 38.3077 23.3556C38.5778 23.1756 38.7812 22.9138 38.9179 22.5703C39.058 22.2268 39.128 21.8116 39.128 21.3247V20.9696C39.128 20.5961 39.088 20.2676 39.008 19.9841C38.9313 19.7007 38.8162 19.4622 38.6628 19.2688C38.5094 19.0754 38.321 18.9303 38.0976 18.8336C37.8741 18.7336 37.6173 18.6835 37.3272 18.6835H35.6965V17.508H37.3272C37.8141 17.508 38.2593 17.5914 38.6628 17.7581C39.0697 17.9215 39.4215 18.1566 39.7183 18.4634C40.0151 18.7702 40.2435 19.1371 40.4036 19.5639C40.567 19.9875 40.6487 20.4593 40.6487 20.9796V21.3247C40.6487 21.8416 40.567 22.3135 40.4036 22.7404C40.2435 23.1672 40.0151 23.5341 39.7183 23.8409C39.4248 24.1443 39.073 24.3794 38.6628 24.5462C38.256 24.7096 37.8058 24.7913 37.3122 24.7913ZM36.5769 17.508V24.7913H35.0762V17.508H36.5769ZM46.6264 23.6208V24.7913H42.7497V23.6208H46.6264ZM43.2399 17.508V24.7913H41.7392V17.508H43.2399ZM46.1212 20.4743V21.6149H42.7497V20.4743H46.1212ZM46.6214 17.508V18.6835H42.7497V17.508H46.6214ZM53.4295 17.508V24.7913H51.9288L49.0025 19.9091V24.7913H47.5018V17.508H49.0025L51.9338 22.3952V17.508H53.4295ZM57.5714 22.1951H55.7155V21.0246H57.5714C57.8582 21.0246 58.0916 20.9779 58.2717 20.8845C58.4518 20.7878 58.5835 20.6544 58.6669 20.4843C58.7502 20.3143 58.7919 20.1225 58.7919 19.9091C58.7919 19.6923 58.7502 19.4906 58.6669 19.3038C58.5835 19.1171 58.4518 18.967 58.2717 18.8536C58.0916 18.7402 57.8582 18.6835 57.5714 18.6835H56.2358V24.7913H54.7351V17.508H57.5714C58.1416 17.508 58.6302 17.6114 59.037 17.8181C59.4472 18.0216 59.7607 18.3034 59.9774 18.6635C60.1942 19.0237 60.3026 19.4355 60.3026 19.8991C60.3026 20.3693 60.1942 20.7761 59.9774 21.1196C59.7607 21.4631 59.4472 21.7282 59.037 21.915C58.6302 22.1017 58.1416 22.1951 57.5714 22.1951ZM63.469 18.7536L61.4881 24.7913H59.8924L62.5986 17.508H63.6141L63.469 18.7536ZM65.1148 24.7913L63.1289 18.7536L62.9688 17.508H63.9943L66.7155 24.7913H65.1148ZM65.0247 22.0801V23.2556H61.178V22.0801H65.0247ZM71.1825 22.8854C71.1825 22.7554 71.1625 22.6387 71.1225 22.5353C71.0858 22.4286 71.0158 22.3318 70.9124 22.2451C70.809 22.1551 70.6639 22.0667 70.4772 21.98C70.2904 21.8933 70.0487 21.8033 69.7519 21.7099C69.4217 21.6032 69.1082 21.4831 68.8114 21.3497C68.518 21.2163 68.2578 21.0613 68.0311 20.8845C67.8076 20.7044 67.6309 20.496 67.5008 20.2592C67.3741 20.0225 67.3108 19.7473 67.3108 19.4339C67.3108 19.1304 67.3775 18.8553 67.5108 18.6085C67.6442 18.3584 67.831 18.145 68.0711 17.9682C68.3112 17.7881 68.5947 17.6497 68.9215 17.553C69.2516 17.4563 69.6135 17.408 70.007 17.408C70.5439 17.408 71.0124 17.5047 71.4126 17.6981C71.8128 17.8915 72.1229 18.1566 72.343 18.4934C72.5665 18.8303 72.6782 19.2154 72.6782 19.649H71.1875C71.1875 19.4355 71.1425 19.2488 71.0524 19.0887C70.9657 18.9253 70.8323 18.7969 70.6523 18.7035C70.4755 18.6102 70.2521 18.5635 69.982 18.5635C69.7218 18.5635 69.5051 18.6035 69.3317 18.6835C69.1583 18.7602 69.0282 18.8653 68.9415 18.9987C68.8548 19.1287 68.8114 19.2755 68.8114 19.4389C68.8114 19.5623 68.8414 19.674 68.9015 19.774C68.9648 19.8741 69.0582 19.9674 69.1816 20.0542C69.305 20.1409 69.4567 20.2226 69.6368 20.2993C69.8169 20.376 70.0253 20.451 70.2621 20.5244C70.6589 20.6444 71.0074 20.7795 71.3076 20.9295C71.611 21.0796 71.8645 21.248 72.0679 21.4348C72.2713 21.6215 72.4247 21.8333 72.5281 22.0701C72.6315 22.3068 72.6832 22.5753 72.6832 22.8754C72.6832 23.1922 72.6215 23.4757 72.4981 23.7258C72.3747 23.9759 72.1963 24.1877 71.9629 24.3611C71.7294 24.5345 71.451 24.6662 71.1275 24.7563C70.804 24.8463 70.4422 24.8913 70.042 24.8913C69.6818 24.8913 69.3267 24.8446 68.9765 24.7513C68.6263 24.6546 68.3079 24.5095 68.0211 24.3161C67.7376 24.1227 67.5108 23.8759 67.3408 23.5757C67.1707 23.2756 67.0857 22.9204 67.0857 22.5103H68.5913C68.5913 22.737 68.6263 22.9288 68.6964 23.0855C68.7664 23.2423 68.8648 23.369 68.9915 23.4657C69.1216 23.5624 69.275 23.6324 69.4517 23.6758C69.6318 23.7191 69.8286 23.7408 70.042 23.7408C70.3021 23.7408 70.5155 23.7041 70.6823 23.6308C70.8524 23.5574 70.9774 23.4557 71.0574 23.3256C71.1408 23.1956 71.1825 23.0488 71.1825 22.8854ZM76.665 18.7536L74.6841 24.7913H73.0884L75.7946 17.508H76.81L76.665 18.7536ZM78.3107 24.7913L76.3248 18.7536L76.1648 17.508H77.1902L79.9114 24.7913H78.3107ZM78.2207 22.0801V23.2556H74.3739V22.0801H78.2207ZM80.5868 17.508H83.303C83.8599 17.508 84.3384 17.5914 84.7386 17.7581C85.1421 17.9249 85.4523 18.1716 85.669 18.4984C85.8858 18.8253 85.9942 19.2271 85.9942 19.704C85.9942 20.0942 85.9275 20.4293 85.7941 20.7094C85.664 20.9862 85.479 21.218 85.2389 21.4048C85.0021 21.5882 84.7236 21.7349 84.4035 21.845L83.9283 22.0951H81.5672L81.5572 20.9245H83.313C83.5764 20.9245 83.7949 20.8779 83.9683 20.7845C84.1417 20.6911 84.2717 20.561 84.3585 20.3943C84.4485 20.2276 84.4935 20.0341 84.4935 19.814C84.4935 19.5806 84.4502 19.3788 84.3635 19.2088C84.2768 19.0387 84.145 18.9086 83.9683 18.8186C83.7915 18.7286 83.5698 18.6835 83.303 18.6835H82.0874V24.7913H80.5868V17.508ZM84.6586 24.7913L82.9978 21.5448L84.5836 21.5348L86.2643 24.7213V24.7913H84.6586Z" fill="white"/>
<g clip-path="url(#clip0_71_1875)">
<path d="M13.1488 30.7015C12.9321 30.6349 12.708 30.5997 12.487 30.551C12.0719 30.4595 11.6561 30.37 11.2398 30.2843C11.1702 30.27 11.1461 30.2388 11.1456 30.1722C11.1446 30.0626 11.1366 29.9533 11.1346 29.844C11.1221 29.1953 11.1156 28.5463 11.0961 27.8979C11.0886 27.645 11.0843 27.3924 11.0833 27.1396C11.083 27.067 11.0573 27.0288 10.9884 27.0034C10.7413 26.9129 10.4978 26.8131 10.2604 26.6987C10.1966 26.6678 10.156 26.6902 10.1122 26.7312C9.86439 26.9627 9.61656 27.1939 9.36772 27.4246C8.95891 27.8039 8.54936 28.1821 8.14005 28.5611C8.04742 28.6469 7.95355 28.7311 7.86342 28.8193C7.82687 28.8552 7.79809 28.8587 7.75478 28.8303C7.27237 28.5136 6.78972 28.198 6.30531 27.8843C6.25424 27.8511 6.24973 27.8187 6.26651 27.7659C6.49732 27.0293 6.72688 26.2921 6.95644 25.5549C7.0333 25.3084 7.1079 25.061 7.18776 24.8155C7.20803 24.7527 7.19652 24.7104 7.1482 24.6675C6.94318 24.4847 6.7414 24.2982 6.55064 24.1004C6.50934 24.0575 6.47304 24.0725 6.43023 24.0899C5.88198 24.3096 5.33349 24.5285 4.785 24.7476C4.3847 24.9075 3.98391 25.0663 3.58437 25.2284C3.52679 25.2518 3.49449 25.2413 3.45895 25.192C3.10847 24.7049 2.75699 24.2183 2.40251 23.734C2.35294 23.6664 2.3592 23.6259 2.41328 23.5628C2.7635 23.1542 3.10822 22.741 3.45469 22.3293C3.75084 21.9777 4.04549 21.6248 4.3444 21.2757C4.40298 21.2073 4.4175 21.155 4.36968 21.0698C4.24752 20.8519 4.14663 20.6227 4.04925 20.3927C4.01921 20.3219 3.98065 20.298 3.9048 20.299C2.93098 20.3141 1.95741 20.3181 0.983585 20.3166C0.739754 20.3161 0.782312 20.3523 0.718976 20.1163C0.577284 19.5875 0.436342 19.0584 0.29465 18.5296C0.258351 18.3944 0.256598 18.3931 0.377262 18.3278C1.22942 17.8666 2.08108 17.4046 2.93549 16.9477C3.04614 16.8886 3.10196 16.8346 3.07893 16.6921C3.04013 16.4518 3.02661 16.2067 3.0231 15.9624C3.0221 15.8981 2.9838 15.877 2.93423 15.8569C2.55021 15.7016 2.16669 15.545 1.78292 15.3889C1.2149 15.1582 0.646878 14.9274 0.078857 14.697C0.0530721 14.6864 0.0262857 14.6779 0 14.6683C0 14.6346 0 14.601 0 14.5673C0.0373006 14.3856 0.0445605 14.2003 0.0653387 14.0166C0.109148 13.629 0.146449 13.241 0.185502 12.8529C0.190258 12.8049 0.21329 12.7863 0.259853 12.78C1.08522 12.6684 1.91059 12.5558 2.73596 12.4432C2.97954 12.4101 3.22313 12.3749 3.46721 12.344C3.52053 12.3372 3.54656 12.3128 3.55908 12.2635C3.61666 12.0376 3.683 11.8144 3.7561 11.593C3.77112 11.5472 3.76536 11.5168 3.72631 11.4836C3.2762 11.1009 2.82759 10.7158 2.37873 10.3318C2.00422 10.0113 1.62996 9.69061 1.2547 9.37091C1.22116 9.34251 1.21515 9.31712 1.23568 9.27691C1.51355 8.73201 1.79068 8.18662 2.0658 7.64021C2.09334 7.58542 2.12363 7.57109 2.18447 7.58442C3.00132 7.76362 3.81868 7.94006 4.63604 8.11725C4.81904 8.15696 5.00279 8.19466 5.18529 8.23713C5.24512 8.25096 5.28568 8.23839 5.32172 8.18737C5.48219 7.96092 5.64967 7.73924 5.82891 7.52736C5.86346 7.48639 5.84418 7.45598 5.82566 7.42105C5.55704 6.91863 5.28868 6.41646 5.02006 5.91404C4.80577 5.51316 4.59324 5.11127 4.37619 4.7119C4.3429 4.65057 4.34991 4.61765 4.40173 4.57115C4.77098 4.24039 5.13697 3.90561 5.50422 3.57234C5.6016 3.48387 5.60185 3.48538 5.71826 3.55073C6.61623 4.05616 7.51445 4.5611 8.41167 5.06779C8.46449 5.0977 8.50254 5.10072 8.55511 5.06503C8.77967 4.91221 9.01098 4.76945 9.24805 4.6365C9.30588 4.60408 9.32441 4.56411 9.31865 4.50053C9.26858 3.95286 9.21952 3.4052 9.17145 2.85754C9.13115 2.39911 9.09209 1.94067 9.05304 1.48223C9.04052 1.33571 9.04127 1.3347 9.17946 1.28142C9.67013 1.09166 10.162 0.904665 10.6512 0.711137C10.7318 0.679217 10.7741 0.69103 10.8229 0.76065C11.201 1.30052 11.582 1.83813 11.9625 2.37624C12.1698 2.66929 12.3783 2.9616 12.5841 3.25566C12.6136 3.29788 12.6427 3.31699 12.695 3.30492C12.9679 3.24309 13.243 3.19257 13.5199 3.15387C13.5802 3.14532 13.5867 3.10234 13.5972 3.05912C13.6553 2.81607 13.7126 2.57303 13.7699 2.32974C13.9444 1.5893 14.1189 0.848868 14.2929 0.108433C14.3012 0.0732464 14.3032 0.0365514 14.3079 0.000610352C14.9964 0.000610352 15.685 0.000610352 16.3735 0.000610352C16.4664 0.390935 16.5585 0.78151 16.6521 1.17183C16.8008 1.79138 16.9518 2.41042 17.098 3.03071C17.1172 3.1129 17.1495 3.14859 17.2384 3.16191C17.4897 3.19961 17.7393 3.25114 17.9887 3.3009C18.0485 3.31296 18.0851 3.30266 18.1213 3.24862C18.6851 2.4074 19.2516 1.56844 19.8152 0.727222C19.8565 0.665645 19.889 0.646543 19.9626 0.675447C20.5384 0.901146 21.1154 1.12383 21.6934 1.34375C21.7713 1.37341 21.7978 1.40583 21.7858 1.49631C21.6749 2.32496 21.5708 3.15462 21.4646 3.98378C21.4426 4.1562 21.4218 4.32911 21.3975 4.50128C21.388 4.56839 21.4071 4.6091 21.4694 4.64328C21.6927 4.76619 21.911 4.89839 22.1193 5.04517C22.1941 5.0977 22.2462 5.08362 22.3143 5.03914C23.1612 4.4867 24.0098 3.93753 24.856 3.38434C24.9216 3.34162 24.9574 3.35192 25.012 3.40194C25.43 3.78321 25.8511 4.16122 26.2722 4.53923C26.3806 4.6365 26.3818 4.63499 26.3115 4.76568C25.8418 5.63757 25.3729 6.50995 24.9008 7.38058C24.8585 7.45875 24.86 7.51203 24.9198 7.5809C25.0851 7.77141 25.2348 7.97499 25.38 8.18134C25.4183 8.23588 25.4578 8.24995 25.5216 8.23588C26.2509 8.07603 26.9809 7.91819 27.7106 7.7601C27.9812 7.70154 28.2524 7.64524 28.5222 7.58366C28.5843 7.56959 28.6133 7.58919 28.6404 7.64247C28.9428 8.24116 29.246 8.83934 29.5524 9.43575C29.5869 9.50311 29.5744 9.53579 29.5161 9.57927C28.6892 10.1991 27.8641 10.8211 27.0392 11.4437C26.9083 11.5425 26.9298 11.5108 26.9711 11.6553C27.0289 11.8576 27.0908 12.0589 27.1466 12.2618C27.1616 12.3168 27.1879 12.3372 27.244 12.344C27.9985 12.4359 28.7528 12.5312 29.5071 12.6247C29.8037 12.6614 30.1006 12.6971 30.3978 12.7313C30.4684 12.7393 30.5117 12.7569 30.5197 12.8441C30.5517 13.2018 30.5923 13.5584 30.6308 13.9156C30.6519 14.1103 30.6754 14.3051 30.6977 14.4999C30.6977 14.5562 30.6977 14.6123 30.6977 14.6686C30.5287 14.7193 30.3687 14.7945 30.2058 14.8608C29.4022 15.1883 28.6001 15.5193 27.7957 15.8453C27.7199 15.876 27.6856 15.9152 27.6826 15.9966C27.6731 16.2658 27.6515 16.5345 27.6207 16.8022C27.6145 16.8567 27.6425 16.8763 27.6821 16.8977C28.1602 17.1553 28.6381 17.4137 29.116 17.672C29.5298 17.8957 29.9429 18.1209 30.3582 18.3416C30.4283 18.3788 30.4436 18.4147 30.4223 18.4926C30.2551 19.1046 30.0914 19.7176 29.9311 20.3317C29.9096 20.4138 29.8743 20.443 29.7917 20.4309C29.6084 20.4043 29.4232 20.4141 29.2387 20.4048C28.722 20.3792 28.2045 20.3671 27.6876 20.3485C27.3802 20.3374 27.0728 20.3256 26.7656 20.3105C26.71 20.3078 26.6862 20.3289 26.6655 20.3761C26.5556 20.6282 26.4414 20.8786 26.311 21.1211C26.2887 21.1626 26.2944 21.1927 26.3242 21.2269C26.7048 21.665 27.0845 22.1033 27.4643 22.5422C27.7577 22.8812 28.0498 23.2215 28.3445 23.5596C28.3835 23.6043 28.3723 23.6365 28.3427 23.6774C27.9572 24.2085 27.5719 24.7396 27.1889 25.2727C27.1466 25.3315 27.1073 25.3129 27.0595 25.2923C26.6945 25.1347 26.3295 24.9776 25.964 24.8208C25.3955 24.577 24.8265 24.3342 24.2584 24.0886C24.2094 24.0675 24.1781 24.072 24.1408 24.1102C23.9448 24.3106 23.7452 24.5079 23.5322 24.6901C23.4896 24.7265 23.5012 24.7625 23.5139 24.8032C23.6318 25.1809 23.7497 25.5589 23.8677 25.9369C24.0554 26.5402 24.2424 27.1434 24.4319 27.7461C24.4537 27.8152 24.4452 27.8582 24.3803 27.9001C23.912 28.2022 23.4451 28.5066 22.9797 28.8132C22.9154 28.8555 22.8753 28.8567 22.8155 28.8004C22.1899 28.2138 21.5613 27.6307 20.9332 27.0468C20.812 26.9342 20.6888 26.8242 20.5687 26.7106C20.5349 26.6786 20.5051 26.6736 20.4638 26.693C20.2124 26.8101 19.9568 26.9174 19.6962 27.0122C19.6334 27.035 19.6306 27.0773 19.6306 27.1308C19.6304 27.5832 19.6299 28.0356 19.6274 28.488C19.6241 29.047 19.6179 29.606 19.6154 30.1649C19.6151 30.2295 19.5964 30.2589 19.5305 30.2727C18.9582 30.3921 18.3865 30.5133 17.8154 30.6387C17.7413 30.655 17.7148 30.6213 17.686 30.5686C17.3713 29.989 17.0562 29.4099 16.7405 28.8308C16.5349 28.4538 16.3279 28.0778 16.1234 27.7003C16.0969 27.6513 16.0648 27.637 16.009 27.6403C15.5731 27.6669 15.137 27.6687 14.7012 27.6397C14.6421 27.636 14.6088 27.6498 14.583 27.7051C14.1437 28.6431 13.7026 29.5801 13.2628 30.5178C13.2342 30.5784 13.1962 30.6352 13.1824 30.7023C13.1711 30.7015 13.1601 30.7015 13.1488 30.7015Z" fill="#0B2644"/>
<path d="M13.1557 30.7042C12.9389 30.6376 12.7148 30.6024 12.4938 30.5537C12.0787 30.4622 11.6629 30.3727 11.2466 30.287C11.177 30.2727 11.1529 30.2415 11.1524 30.1749C11.1514 30.0653 11.1434 29.956 11.1414 29.8467C11.1289 29.198 11.1224 28.549 11.1029 27.9006C11.0954 27.6477 11.0911 27.3951 11.0901 27.1423C11.0899 27.0696 11.0641 27.0314 10.9952 27.0061C10.7481 26.9156 10.5046 26.8158 10.2672 26.7014C10.2034 26.6705 10.1628 26.6929 10.119 26.7339C9.8712 26.9653 9.62336 27.1966 9.37452 27.4273C8.96572 27.8066 8.55616 28.1848 8.14686 28.5638C8.05423 28.6495 7.96035 28.7337 7.87023 28.822C7.83368 28.8579 7.80489 28.8614 7.76158 28.833C7.27918 28.5163 6.79652 28.2007 6.31211 27.887C6.26105 27.8538 6.25654 27.8214 6.27331 27.7686C6.50413 27.0319 6.73369 26.2948 6.96325 25.5576C7.0401 25.311 7.11471 25.0637 7.19456 24.8182C7.21484 24.7553 7.20333 24.7131 7.15501 24.6701C6.94998 24.4874 6.74821 24.3009 6.55745 24.1031C6.51614 24.0602 6.47984 24.0752 6.43704 24.0926C5.88879 24.3122 5.3403 24.5312 4.7918 24.7503C4.39151 24.9102 3.99071 25.069 3.59117 25.2311C3.53359 25.2545 3.5013 25.2439 3.46575 25.1947C3.11528 24.7076 2.7638 24.221 2.40932 23.7367C2.35975 23.6691 2.36601 23.6286 2.42008 23.5655C2.77031 23.1568 3.11502 22.7437 3.4615 22.332C3.75765 21.9803 4.0523 21.6275 4.3512 21.2784C4.40978 21.21 4.4243 21.1577 4.37649 21.0725C4.25432 20.8546 4.15343 20.6254 4.05605 20.3954C4.02601 20.3245 3.98746 20.3007 3.91161 20.3017C2.93778 20.3168 1.96421 20.3208 0.990391 20.3193C0.74656 20.3188 0.789117 20.355 0.725781 20.119C0.584089 19.5901 0.443148 19.0611 0.301455 18.5323C0.265156 18.3971 0.263404 18.3958 0.384068 18.3304C1.23622 17.8692 2.08788 17.4073 2.94229 16.9504C3.05294 16.8913 3.10877 16.8373 3.08574 16.6948C3.04693 16.4545 3.03341 16.2094 3.02991 15.9651C3.02891 15.9008 2.99061 15.8797 2.94104 15.8596C2.55702 15.7042 2.1735 15.5477 1.78973 15.3916C1.2217 15.1609 0.653684 14.9301 0.0856625 14.6997C0.0598775 14.6891 0.0330911 14.6805 0.00680542 14.671C0.00680542 14.6373 0.00680542 14.6036 0.00680542 14.57C0.0441061 14.3882 0.0513659 14.203 0.0721441 14.0193C0.115954 13.6317 0.153254 13.2437 0.192307 12.8556C0.197064 12.8076 0.220095 12.789 0.266658 12.7827C1.09203 12.6711 1.9174 12.5585 2.74277 12.4459C2.98635 12.4127 3.22993 12.3776 3.47401 12.3466C3.52733 12.3399 3.55337 12.3155 3.56589 12.2662C3.62347 12.0403 3.68981 11.8171 3.7629 11.5957C3.77792 11.5499 3.77217 11.5195 3.73311 11.4863C3.283 11.1035 2.83439 10.7185 2.38553 10.3345C2.01103 10.014 1.63677 9.6933 1.26151 9.3736C1.22796 9.34519 1.22196 9.31981 1.24248 9.2796C1.52036 8.7347 1.79749 8.1893 2.07261 7.6429C2.10015 7.58811 2.13044 7.57378 2.19127 7.5871C3.00813 7.7663 3.82549 7.94274 4.64285 8.11993C4.82585 8.15964 5.0096 8.19734 5.19209 8.23982C5.25193 8.25364 5.29248 8.24108 5.32853 8.19005C5.489 7.9636 5.65648 7.74192 5.83572 7.53005C5.87027 7.48908 5.85099 7.45867 5.83246 7.42373C5.56385 6.92131 5.29549 6.41914 5.02687 5.91672C4.81258 5.51584 4.60004 5.11396 4.383 4.71458C4.3497 4.65326 4.35671 4.62033 4.40853 4.57384C4.77778 4.24308 5.14378 3.9083 5.51103 3.57503C5.60841 3.48656 5.60866 3.48807 5.72507 3.55341C6.62304 4.05885 7.52126 4.56378 8.41848 5.07048C8.4713 5.10039 8.50935 5.1034 8.56192 5.06771C8.78647 4.9149 9.01779 4.77214 9.25486 4.63918C9.31269 4.60676 9.33121 4.5668 9.32546 4.50321C9.27539 3.95555 9.22632 3.40789 9.17826 2.86023C9.13795 2.40179 9.0989 1.94336 9.05984 1.48492C9.04733 1.33839 9.04808 1.33739 9.18627 1.2841C9.67693 1.09434 10.1689 0.907351 10.658 0.713822C10.7386 0.681902 10.7809 0.693715 10.8297 0.763335C11.2078 1.3032 11.5888 1.84081 11.9693 2.37892C12.1766 2.67198 12.3851 2.96428 12.5909 3.25835C12.6204 3.30057 12.6495 3.31967 12.7018 3.30761C12.9747 3.24578 13.2498 3.19526 13.5267 3.15655C13.587 3.14801 13.5935 3.10503 13.604 3.0618C13.6621 2.81876 13.7194 2.57572 13.7767 2.33242C13.9512 1.59199 14.1257 0.851554 14.2997 0.111119C14.308 0.0759319 14.31 0.0392369 14.3147 0.0032959C15.0032 0.0032959 15.6918 0.0032959 16.3803 0.0032959C16.4732 0.39362 16.5653 0.784196 16.6589 1.17452C16.8076 1.79406 16.9586 2.4131 17.1048 3.0334C17.124 3.11559 17.1563 3.15128 17.2452 3.1646C17.4965 3.2023 17.7461 3.25382 17.9955 3.30359C18.0553 3.31565 18.0919 3.30535 18.1282 3.25131C18.6914 2.40933 19.2582 1.57037 19.8215 0.728902C19.8628 0.667325 19.8953 0.648224 19.9689 0.677127C20.5447 0.902827 21.1217 1.12551 21.6998 1.34543C21.7776 1.37509 21.8041 1.40751 21.7921 1.49799C21.6812 2.32664 21.5771 3.1563 21.4709 3.98546C21.4489 4.15788 21.4281 4.33079 21.4039 4.50296C21.3943 4.57007 21.4134 4.61078 21.4757 4.64496C21.699 4.76787 21.9173 4.90007 22.1256 5.04685C22.2004 5.09938 22.2525 5.0853 22.3206 5.04082C23.1675 4.48838 24.0161 3.93921 24.8623 3.38602C24.9279 3.3433 24.9637 3.3536 25.0183 3.40362C25.4363 3.78489 25.8574 4.1629 26.2785 4.54091C26.3869 4.63818 26.3881 4.63667 26.3178 4.76736C25.8481 5.63925 25.3792 6.51164 24.9071 7.38226C24.8648 7.46043 24.8663 7.51371 24.9261 7.58258C25.0914 7.77309 25.2411 7.97667 25.3863 8.18302C25.4246 8.23756 25.4641 8.25163 25.528 8.23756C26.2572 8.07771 26.9872 7.91987 27.7169 7.76178C27.9875 7.70322 28.2587 7.64692 28.5285 7.58534C28.5906 7.57127 28.6196 7.59087 28.6467 7.64415C28.9491 8.24284 29.2523 8.84101 29.5587 9.43744C29.5932 9.50479 29.5807 9.53747 29.5224 9.58095C28.6955 10.2007 27.8704 10.8228 27.0455 11.4454C26.9146 11.5441 26.9361 11.5125 26.9774 11.657C27.0352 11.8593 27.0971 12.0606 27.1529 12.2635C27.1679 12.3185 27.1942 12.3389 27.2503 12.3456C28.0048 12.4376 28.7591 12.5329 29.5134 12.6264C29.81 12.6631 30.1069 12.6988 30.4041 12.7329C30.4747 12.741 30.518 12.7586 30.526 12.8458C30.558 13.2035 30.5986 13.5601 30.6371 13.9172C30.6582 14.112 30.6817 14.3068 30.704 14.5016C30.704 14.5579 30.704 14.6139 30.704 14.6702C30.535 14.721 30.375 14.7962 30.2121 14.8625C29.4085 15.19 28.6064 15.521 27.802 15.847C27.7262 15.8777 27.6919 15.9169 27.6889 15.9983C27.6794 16.2675 27.6578 16.5362 27.627 16.8038C27.6208 16.8584 27.6488 16.878 27.6884 16.8993C28.1665 17.157 28.6444 17.4153 29.1223 17.6737C29.5361 17.8974 29.9492 18.1226 30.3645 18.3433C30.4346 18.3805 30.4499 18.4164 30.4286 18.4943C30.2614 19.1063 30.0977 19.7193 29.9374 20.3333C29.9159 20.4155 29.8806 20.4447 29.798 20.4326C29.6147 20.406 29.4295 20.4158 29.245 20.4065C28.7283 20.3808 28.2108 20.3688 27.6939 20.3502C27.3865 20.3391 27.0791 20.3273 26.7719 20.3122C26.7163 20.3095 26.6925 20.3306 26.6718 20.3778C26.5619 20.6299 26.4477 20.8802 26.3173 21.1228C26.295 21.1643 26.3008 21.1944 26.3305 21.2286C26.7111 21.6667 27.0908 22.105 27.4706 22.5438C27.764 22.8829 28.0561 23.2232 28.3508 23.5612C28.3898 23.606 28.3786 23.6382 28.349 23.6791C27.9635 24.2102 27.578 24.7413 27.1952 25.2744C27.1529 25.3332 27.1136 25.3146 27.0658 25.294C26.7008 25.1364 26.3358 24.9793 25.9703 24.8225C25.4018 24.5787 24.8328 24.3359 24.2647 24.0903C24.2157 24.0692 24.1844 24.0737 24.1471 24.1119C23.9511 24.3122 23.7515 24.5095 23.5385 24.6918C23.4959 24.7282 23.5075 24.7641 23.5202 24.8049C23.6381 25.1826 23.756 25.5606 23.874 25.9386C24.0617 26.5418 24.2487 27.145 24.4382 27.7477C24.46 27.8169 24.4515 27.8598 24.3867 27.9018C23.9183 28.2039 23.4514 28.5083 22.986 28.8149C22.9217 28.8571 22.8816 28.8584 22.8218 28.8021C22.1962 28.2155 21.5676 27.6324 20.9395 27.0485C20.8183 26.9359 20.6951 26.8258 20.575 26.7122C20.5412 26.6803 20.5114 26.6753 20.4701 26.6947C20.2187 26.8118 19.9631 26.9191 19.7025 27.0138C19.6397 27.0367 19.637 27.0789 19.637 27.1325C19.6367 27.5849 19.6362 28.0373 19.6337 28.4897C19.6304 29.0487 19.6242 29.6076 19.6217 30.1666C19.6214 30.2312 19.6027 30.2606 19.5368 30.2744C18.9645 30.3938 18.3928 30.515 17.8217 30.6404C17.7476 30.6567 17.7211 30.623 17.6923 30.5702C17.3776 29.9907 17.0625 29.4116 16.7468 28.8325C16.5413 28.4555 16.3342 28.0795 16.1297 27.702C16.1032 27.653 16.0711 27.6387 16.0153 27.6419C15.5794 27.6686 15.1434 27.6703 14.7075 27.6414C14.6484 27.6377 14.6151 27.6515 14.5894 27.7068C14.15 28.6448 13.7089 29.5817 13.2691 30.5195C13.2405 30.5801 13.2025 30.6369 13.1887 30.704C13.1779 30.7042 13.1669 30.7042 13.1557 30.7042Z" fill="white"/>
<path d="M3.82745 22.2161C4.06628 21.93 4.30435 21.6433 4.54443 21.3583C4.67285 21.2057 4.67385 21.2075 4.58398 21.0338C4.43954 20.7548 4.30385 20.4715 4.18444 20.1807C4.1584 20.1172 4.12661 20.0913 4.05576 20.0918C3.306 20.0968 2.55598 20.0935 1.80646 20.1031C1.5436 20.1066 1.28075 20.1023 1.01789 20.1124C0.950049 20.1149 0.925766 20.0908 0.909494 20.0297C0.781821 19.5446 0.652646 19.0598 0.520466 18.5757C0.502442 18.5096 0.525473 18.483 0.579797 18.4536C1.38539 18.02 2.18998 17.5842 2.99457 17.1491C3.07343 17.1067 3.15054 17.0607 3.23165 17.023C3.29473 16.9936 3.31651 16.9523 3.30675 16.884C3.28071 16.7008 3.26269 16.5163 3.25267 16.3313C3.24366 16.1631 3.22914 15.9953 3.22489 15.8271C3.22338 15.7663 3.20236 15.7391 3.14803 15.7173C2.20751 15.3365 1.26823 14.9527 0.327204 14.5732C0.246845 14.5408 0.220059 14.5073 0.230573 14.4164C0.282894 13.9652 0.326453 13.5128 0.372015 13.0607C0.378524 12.9961 0.401054 12.9684 0.473653 12.9589C1.15483 12.8694 1.83525 12.7739 2.51592 12.6806C2.84788 12.6351 3.18008 12.5907 3.51203 12.5444C3.56209 12.5374 3.60565 12.555 3.65046 12.5695C4.06277 12.7023 4.47483 12.8352 4.88714 12.9679C4.90842 12.9747 4.92995 12.98 4.95148 12.986C5.00756 13.0076 4.98327 13.0516 4.97526 13.0863C4.91067 13.3713 4.86361 13.6593 4.8218 13.9481C4.78175 14.2256 4.75997 14.5051 4.74069 14.7853C4.72092 15.0718 4.72943 15.3579 4.72818 15.6439C4.72642 16.0259 4.76147 16.4057 4.81154 16.7842C4.88314 17.3251 4.99028 17.8582 5.14224 18.3822C5.29019 18.8929 5.47519 19.389 5.69524 19.8729C6.02569 20.599 6.4375 21.2756 6.9209 21.9087C7.25486 22.346 7.61835 22.7582 8.01739 23.1365C8.70182 23.7854 9.45559 24.3391 10.2837 24.7915C11.0598 25.2155 11.8766 25.5324 12.7308 25.7531C13.2297 25.882 13.7364 25.971 14.2488 26.0241C14.2882 26.0281 14.3265 26.0351 14.3572 26.063C14.396 26.1487 14.3915 26.2412 14.3793 26.3284C14.3562 26.4905 14.3655 26.6536 14.355 26.8158C14.344 26.9887 14.3245 27.1631 14.334 27.3368C14.3427 27.4969 14.2756 27.6323 14.21 27.7683C13.985 28.2361 13.7672 28.7073 13.5456 29.1768C13.3839 29.5194 13.22 29.8607 13.0632 30.2058C13.0129 30.3166 12.9824 30.3352 12.8595 30.3096C12.4269 30.2188 11.9945 30.1266 11.5627 30.0326C11.4721 30.013 11.444 29.9811 11.4465 29.8863C11.4546 29.552 11.4255 29.2188 11.4265 28.8845C11.4275 28.5477 11.4168 28.2109 11.4062 27.8744C11.3987 27.6301 11.3992 27.386 11.3952 27.142C11.394 27.0575 11.3759 26.9749 11.3749 26.8904C11.3742 26.8278 11.3301 26.7987 11.2766 26.7786C11.0252 26.6838 10.7739 26.5883 10.5285 26.4782C10.4264 26.4325 10.3225 26.3902 10.2234 26.338C10.154 26.3015 10.0977 26.3138 10.0414 26.3676C9.72045 26.6722 9.39451 26.9716 9.07057 27.2729C8.69957 27.6183 8.32406 27.9588 7.95656 28.3082C7.93002 28.3333 7.89973 28.3539 7.87244 28.3778C7.77481 28.4635 7.76855 28.4643 7.66316 28.3952C7.35174 28.1906 7.03956 27.9875 6.72714 27.7849C6.61774 27.714 6.61524 27.7015 6.65404 27.5781C6.94769 26.6403 7.23633 25.7011 7.53248 24.7644C7.56052 24.6754 7.55702 24.604 7.47966 24.5382C7.20629 24.3057 6.94769 24.0576 6.6966 23.801C6.5887 23.6909 6.58144 23.6901 6.44125 23.7467C5.5538 24.1056 4.66284 24.4557 3.77513 24.8141C3.62593 24.8744 3.61942 24.8739 3.52504 24.7448C3.28522 24.4165 3.0469 24.0868 2.80932 23.757C2.753 23.6791 2.7555 23.6479 2.81909 23.572C3.1245 23.2063 3.43017 22.8406 3.74159 22.4802C3.81093 22.3998 3.84097 22.3184 3.82745 22.2161Z" fill="white"/>
<path d="M14.3412 26.0821C14.0701 26.0427 13.7977 26.015 13.5276 25.9678C12.5826 25.8031 11.6761 25.5169 10.8087 25.1064C9.68915 24.5769 8.69155 23.8726 7.81586 22.9955C7.03154 22.2103 6.38366 21.3236 5.87347 20.3358C5.32373 19.2719 4.96399 18.1464 4.791 16.9611C4.68686 16.2476 4.65907 15.5303 4.69813 14.81C4.73017 14.2226 4.80702 13.6423 4.93745 13.0687C4.94371 13.0416 4.94671 13.0134 4.95122 12.9858C4.96874 12.9169 4.98627 12.848 5.00354 12.7792C4.96899 12.7508 4.97751 12.7138 4.98627 12.6789C5.03258 12.4984 5.08115 12.3185 5.14098 12.142C5.15249 12.1084 5.16226 12.0704 5.20982 12.0701C5.23636 11.9922 5.26289 11.9141 5.28943 11.8362C5.23811 11.7937 5.27291 11.7532 5.29218 11.7122C5.34651 11.526 5.42436 11.3481 5.50022 11.1704C5.78035 10.5154 6.12131 9.89358 6.52536 9.30722C6.80248 8.90483 7.1064 8.5238 7.43509 8.16188C7.8832 7.66851 8.37086 7.21912 8.90108 6.81698C9.30338 6.51211 9.72445 6.23489 10.1668 5.99134C10.7621 5.6636 11.3804 5.38889 12.0261 5.17727C12.5535 5.00435 13.0913 4.87013 13.6398 4.78619C13.9655 4.73642 14.2921 4.69018 14.6226 4.6751C14.9045 4.66228 15.1864 4.63589 15.4685 4.64569C16.002 4.66429 16.5339 4.69772 17.0622 4.78594C17.685 4.88999 18.2948 5.04129 18.8904 5.2504C19.4727 5.45474 20.0332 5.70758 20.5722 6.00994C21.175 6.34824 21.7403 6.74057 22.267 7.1882C22.6492 7.51318 23.0075 7.86354 23.3417 8.23929C23.6984 8.64042 24.0259 9.06367 24.3188 9.51306C24.7631 10.1949 25.1326 10.9153 25.4057 11.6838C25.4203 11.7349 25.4513 11.7819 25.4413 11.8384C25.4243 11.9151 25.4763 11.9736 25.4941 12.0412C25.5284 12.0588 25.5457 12.0877 25.5582 12.1242C25.6175 12.2989 25.6681 12.4763 25.7154 12.6548C25.7277 12.7013 25.7332 12.7467 25.7116 12.792C25.7254 12.8581 25.7192 12.931 25.777 12.9815C25.8068 13.021 25.811 13.0685 25.8175 13.1152C25.8824 13.3427 25.9144 13.5764 25.9515 13.8091C25.9995 14.1112 26.0328 14.4156 26.0486 14.7207C26.0676 15.0902 26.0869 15.4602 26.0589 15.8309C26.0446 16.0181 26.0386 16.2059 26.0238 16.3934C26.0013 16.6764 25.959 16.9561 25.9127 17.2359C25.7582 18.1668 25.4768 19.0578 25.0845 19.9148C24.6853 20.788 24.1733 21.5882 23.5602 22.3254C23.361 22.5649 23.1509 22.7949 22.9314 23.0141C22.2257 23.7183 21.4421 24.3208 20.5707 24.8073C19.9573 25.1497 19.318 25.4302 18.6511 25.6476C18.1289 25.818 17.5964 25.9489 17.0534 26.0321C16.8271 26.0668 16.601 26.108 16.3712 26.1155C16.3249 26.1211 16.2791 26.1226 16.2368 26.098C16.1644 26.0985 16.0918 26.099 16.0195 26.0995C15.9809 26.1455 15.9299 26.1555 15.873 26.1568C15.7489 26.1593 15.6242 26.1492 15.5003 26.1666C15.3941 26.1723 15.2878 26.1713 15.1814 26.1668C15.0577 26.1487 14.9333 26.1603 14.8094 26.1563C14.7633 26.1548 14.721 26.1485 14.6982 26.1012C14.6294 26.1002 14.5605 26.0992 14.4919 26.0982C14.4376 26.1289 14.3865 26.1311 14.3412 26.0821Z" fill="#274566"/>
<path d="M5.32497 11.7185C5.3132 11.758 5.30144 11.7974 5.28942 11.8367C5.21957 11.8414 5.16024 11.806 5.09791 11.7841C4.72515 11.6539 4.35365 11.5207 3.98089 11.3905C3.85472 11.3463 3.77161 11.2445 3.67423 11.1636C3.37807 10.917 3.08618 10.6654 2.79353 10.4146C2.5497 10.2057 2.30737 9.99487 2.06354 9.78551C1.8898 9.63621 1.71607 9.48692 1.53958 9.34089C1.48901 9.29917 1.47449 9.2665 1.50804 9.2014C1.7361 8.75905 1.9604 8.31469 2.1822 7.86932C2.20899 7.81554 2.24178 7.81453 2.28759 7.82433C2.60127 7.89219 2.9152 7.96005 3.22887 8.02766C3.59412 8.10658 3.95936 8.1845 4.32436 8.26417C4.63528 8.33228 4.9457 8.4019 5.25637 8.47202C5.32021 8.48635 5.36803 8.48334 5.41234 8.41899C5.61486 8.12468 5.83141 7.84042 6.06522 7.56998C6.10202 7.52751 6.10327 7.49282 6.07749 7.44482C5.6802 6.70689 5.28416 5.96847 4.88812 5.23005C4.80101 5.06768 4.71739 4.90331 4.62777 4.7422C4.60048 4.69319 4.60799 4.66429 4.6478 4.6286C4.9064 4.39762 5.1635 4.16488 5.42085 3.9329C5.47893 3.88037 5.53826 3.8291 5.59458 3.77481C5.61837 3.75194 5.63989 3.74616 5.66768 3.76199C5.90576 3.89822 6.14283 4.03595 6.3819 4.17067C6.64025 4.31644 6.90036 4.4587 7.15896 4.60372C7.35723 4.71481 7.55424 4.82791 7.75201 4.94026C7.98808 5.07447 8.22415 5.20818 8.45997 5.3429C8.49027 5.36024 8.5123 5.34541 8.53508 5.32907C8.82998 5.11845 9.1409 4.93297 9.45683 4.75703C9.53068 4.71581 9.5442 4.67108 9.53694 4.59819C9.51866 4.41773 9.50364 4.23702 9.48787 4.05631C9.45733 3.70494 9.42754 3.35382 9.39725 3.00246C9.3662 2.64179 9.33466 2.28137 9.30337 1.92071C9.2921 1.79202 9.28209 1.66334 9.26932 1.53491C9.26457 1.48816 9.28109 1.46554 9.32565 1.44845C9.75423 1.28433 10.1821 1.11819 10.6099 0.95206C10.6514 0.935974 10.6815 0.928686 10.715 0.976691C11.1814 1.64147 11.6506 2.30425 12.1187 2.96777C12.2496 3.15326 12.381 3.33874 12.511 3.52524C12.5257 3.54635 12.5405 3.55841 12.5655 3.55213C12.9298 3.46089 13.2988 3.39429 13.671 3.34729C13.7376 3.339 13.7559 3.30155 13.7687 3.2465C13.8806 2.76369 13.9927 2.28112 14.1064 1.79881C14.2291 1.27854 14.3532 0.758531 14.4769 0.238518C14.4786 0.230726 14.4844 0.22394 14.4884 0.216651C14.5069 0.207855 14.5267 0.210871 14.5462 0.210871C15.0765 0.210619 15.6067 0.210619 16.1369 0.211122C16.1587 0.211122 16.1817 0.20509 16.2017 0.22017C16.2869 0.571537 16.3722 0.922653 16.4573 1.27402C16.5597 1.69626 16.6626 2.11826 16.7642 2.5405C16.8208 2.776 16.8767 3.01151 16.9297 3.24776C16.9425 3.30431 16.9638 3.34553 17.0254 3.35206C17.3861 3.38977 17.7401 3.46693 18.0938 3.54283C18.1591 3.5569 18.1839 3.52875 18.2132 3.48502C18.4318 3.15854 18.6511 2.8323 18.8701 2.50607C19.2138 1.9946 19.558 1.48363 19.9005 0.971161C19.9358 0.918381 19.9709 0.908327 20.0289 0.931199C20.449 1.09633 20.8701 1.25944 21.2911 1.42231C21.3635 1.45021 21.4363 1.4766 21.5102 1.49997C21.5527 1.51354 21.5645 1.53365 21.558 1.5799C21.5295 1.78298 21.5069 1.98706 21.4799 2.19039C21.4541 2.38568 21.4241 2.58046 21.399 2.77575C21.374 2.97129 21.355 3.16733 21.3299 3.36287C21.2989 3.60516 21.2636 3.84695 21.2318 4.08898C21.2123 4.23752 21.2068 4.38908 21.174 4.5346C21.1402 4.68515 21.2045 4.74396 21.3292 4.81032C21.6023 4.95584 21.8664 5.11946 22.117 5.30268C22.1778 5.34717 22.2232 5.34616 22.288 5.30318C22.6262 5.07849 22.9684 4.85983 23.3091 4.6389C23.422 4.68993 23.4275 4.72788 23.3297 4.7985C23.174 4.9111 23.0067 5.00636 22.8485 5.11519C22.6968 5.21974 22.5336 5.30645 22.3884 5.42106C22.2615 5.52109 22.2081 5.52134 22.0737 5.4369C21.8612 5.30318 21.6536 5.16168 21.4371 5.03451C21.3289 4.97092 21.218 4.91261 21.1119 4.84525C21.0518 4.80705 21.0085 4.76231 20.991 4.69319C20.9892 4.68113 20.989 4.66881 20.9897 4.65675C20.9952 4.62106 21.009 4.58638 21.0048 4.54918C21.0045 4.53762 21.006 4.52631 21.0083 4.515C21.0233 4.48383 21.0375 4.45241 21.0233 4.41672C21.0223 4.40516 21.0225 4.39385 21.024 4.38254C21.0333 4.34886 21.0446 4.31518 21.0386 4.27924C21.0383 4.26768 21.0393 4.25637 21.0413 4.24531C21.0543 4.21264 21.0631 4.17921 21.0561 4.14327C21.0561 4.13171 21.0571 4.1204 21.0593 4.10909C21.0804 4.07893 21.0874 4.04651 21.0746 4.01107C21.0741 4.00328 21.0746 3.99574 21.0754 3.9882C21.0851 3.95753 21.0911 3.92637 21.0881 3.89369C21.0879 3.88213 21.0889 3.87082 21.0904 3.85951C21.0996 3.82558 21.1099 3.7919 21.1056 3.75571C21.1054 3.74415 21.1069 3.73284 21.1091 3.72153C21.1262 3.69011 21.1367 3.65769 21.1244 3.62175C21.1239 3.60994 21.1247 3.59837 21.1264 3.58681C21.1462 3.55514 21.1495 3.52121 21.1404 3.48527C21.1402 3.47371 21.1409 3.46215 21.1429 3.45059C21.1627 3.41967 21.1667 3.38625 21.1567 3.35106C21.156 3.33975 21.1565 3.32844 21.158 3.31713C21.1617 3.28923 21.169 3.26209 21.1707 3.23369C21.1712 3.22212 21.1725 3.21081 21.1742 3.1995C21.1835 3.16658 21.1925 3.13365 21.1895 3.09872C21.1893 3.08691 21.1908 3.07534 21.193 3.06378C21.2098 3.03237 21.2211 3.00019 21.2083 2.964C21.2078 2.95219 21.2085 2.94063 21.2103 2.92932C21.2296 2.89815 21.2346 2.86472 21.2241 2.82929C21.2233 2.81773 21.2241 2.80642 21.2261 2.7951C21.2386 2.76193 21.2476 2.7285 21.2406 2.69256C21.2401 2.681 21.2413 2.66969 21.2433 2.65838C21.2506 2.63199 21.2616 2.60635 21.2551 2.5777C21.2556 2.56614 21.2568 2.55458 21.2586 2.54302C21.2671 2.51009 21.2776 2.47767 21.2734 2.44273C21.2731 2.43092 21.2739 2.41911 21.2756 2.40729C21.2841 2.37412 21.2939 2.34119 21.2904 2.30626C21.2901 2.29444 21.2914 2.28288 21.2936 2.27157C21.3097 2.24041 21.3224 2.20874 21.3087 2.17305C21.3077 2.16149 21.3084 2.14993 21.3099 2.13836C21.3219 2.10469 21.3312 2.07076 21.3244 2.03431C21.3244 2.02275 21.3254 2.01119 21.3277 1.99963C21.3482 1.96846 21.351 1.93503 21.3415 1.8996C21.3407 1.88803 21.3412 1.87647 21.3425 1.86516C21.3452 1.83576 21.3535 1.80736 21.3555 1.7777C21.356 1.76563 21.3575 1.75382 21.3595 1.74226C21.381 1.64173 21.3672 1.60503 21.2706 1.56507C21.0493 1.47333 20.824 1.3919 20.601 1.30443C20.4585 1.24864 20.3138 1.19787 20.1734 1.13679C20.1293 1.11744 20.0888 1.11417 20.0457 1.13378C20.0304 1.13805 20.0167 1.14584 20.0039 1.15514C19.9005 1.2034 19.8524 1.30167 19.7976 1.39139C19.7072 1.53968 19.6051 1.67993 19.5087 1.82394C19.3265 2.09589 19.1385 2.36406 18.9612 2.63953C18.7963 2.89589 18.617 3.1422 18.4475 3.39555C18.3947 3.47472 18.3441 3.55514 18.2873 3.6318C18.2428 3.69162 18.1907 3.70997 18.1203 3.69489C17.9378 3.65543 17.7561 3.6122 17.5713 3.5843C17.4815 3.57073 17.3921 3.54585 17.2997 3.56344C17.2915 3.56268 17.2832 3.56093 17.2752 3.55891C17.2126 3.52901 17.1493 3.50287 17.0777 3.52599C17.0657 3.52649 17.0539 3.52549 17.0421 3.52348C17.0113 3.51166 16.9798 3.50463 16.9462 3.50789C16.933 3.50664 16.9205 3.50337 16.9099 3.49482C16.791 3.38725 16.78 3.23318 16.7462 3.09218C16.6619 2.74107 16.5755 2.3902 16.4926 2.03858C16.4118 1.69501 16.3274 1.35244 16.245 1.00911C16.2092 0.859317 16.1734 0.709521 16.1376 0.559725C16.1244 0.504179 16.0883 0.466982 16.0563 0.425511C16.0217 0.394346 15.9789 0.395854 15.9371 0.395854C15.5453 0.395602 15.1536 0.3951 14.7618 0.396105C14.6541 0.396356 14.6304 0.413699 14.6051 0.520516C14.4914 0.998557 14.379 1.47685 14.2664 1.95514C14.1547 2.4279 14.0423 2.90041 13.9327 3.37368C13.9109 3.46743 13.8633 3.50639 13.7679 3.51895C13.3739 3.57022 12.9829 3.6401 12.5971 3.73661C12.5 3.76099 12.4356 3.73862 12.3765 3.65367C11.8806 2.94289 11.3764 2.23789 10.8778 1.52913C10.8117 1.43513 10.7438 1.34213 10.678 1.24788C10.6352 1.18681 10.5821 1.16745 10.5108 1.19535C10.1928 1.31976 9.87214 1.43764 9.55521 1.56431C9.49213 1.58945 9.46734 1.63117 9.4731 1.70154C9.5134 2.19919 9.55897 2.69633 9.60002 3.19372C9.63757 3.64914 9.67913 4.10456 9.71768 4.55998C9.74372 4.86837 9.75098 4.80303 9.5074 4.94377C9.19697 5.12323 8.89206 5.31148 8.59691 5.51581C8.53007 5.56206 8.47675 5.56156 8.4069 5.52185C7.73224 5.13956 7.05632 4.75904 6.3804 4.37902C6.17537 4.26391 5.97134 4.14679 5.76532 4.03344C5.67269 3.98242 5.64265 3.98644 5.56404 4.05731C5.35776 4.24255 5.15449 4.43105 4.94595 4.61377C4.84682 4.70073 4.84281 4.7319 4.90565 4.85153C5.17101 5.35546 5.44138 5.85663 5.70974 6.35905C5.89474 6.70564 6.07674 7.05374 6.26625 7.39756C6.33509 7.52273 6.33559 7.53304 6.24647 7.64211C5.99463 7.95076 5.74253 8.25914 5.52524 8.59367C5.4574 8.69823 5.37679 8.68767 5.27941 8.66581C4.76646 8.54994 4.25151 8.44186 3.73781 8.32927C3.31975 8.23753 2.90143 8.1468 2.48286 8.05682C2.32289 8.02239 2.31238 8.02792 2.24128 8.17218C2.08757 8.48434 1.92861 8.79399 1.76939 9.10338C1.71156 9.21598 1.71407 9.23609 1.8112 9.32003C2.08482 9.55629 2.35969 9.79053 2.63431 10.0253C3.03886 10.3711 3.44466 10.7154 3.84746 11.0633C3.95311 11.1548 4.06751 11.2224 4.20044 11.2666C4.54015 11.3797 4.87661 11.5034 5.21432 11.6228C5.26113 11.6399 5.32246 11.6469 5.32497 11.7185Z" fill="white"/>
<path d="M16.2368 26.0984C16.2799 26.0721 16.3274 26.0829 16.3735 26.0811C16.4163 26.1153 16.4328 26.161 16.4308 26.2148C16.4206 26.4845 16.4538 26.7532 16.4496 27.0229C16.4473 27.1629 16.4704 27.3026 16.4671 27.4431C16.4659 27.4984 16.4931 27.5461 16.5187 27.5929C16.6914 27.9108 16.8644 28.2288 17.0381 28.5465C17.2817 28.9921 17.5243 29.4382 17.7679 29.8841C17.8082 29.958 17.8515 30.0303 17.8885 30.106C17.9198 30.1698 17.9692 30.1935 18.0402 30.1791C18.3942 30.108 18.7462 30.0283 19.0994 29.9539C19.2001 29.9328 19.2173 29.9059 19.2199 29.8026C19.2201 29.7971 19.2199 29.7913 19.2199 29.7858C19.2193 28.8365 19.2484 27.8872 19.2369 26.9379C19.2366 26.9125 19.2386 26.8871 19.2371 26.862C19.2331 26.7909 19.2629 26.7474 19.3313 26.7223C19.5546 26.6406 19.7769 26.5556 19.9962 26.4629C20.1664 26.3907 20.3341 26.3133 20.5021 26.2369C20.5669 26.2075 20.615 26.2146 20.6686 26.2631C20.9635 26.53 21.2509 26.8049 21.544 27.0739C21.8702 27.373 22.1924 27.6763 22.5191 27.9749C22.6285 28.075 22.7391 28.1742 22.8448 28.2788C22.9169 28.3499 22.9504 28.3522 23.0365 28.2964C23.3232 28.1104 23.6096 27.9236 23.8952 27.7362C23.9728 27.6851 23.9853 27.6487 23.9538 27.5489C23.8339 27.1686 23.7165 26.7876 23.598 26.4068C23.4221 25.8411 23.2448 25.2758 23.0678 24.7106C23.0423 24.6294 23.0591 24.5701 23.1231 24.517C23.4351 24.2599 23.7187 23.9726 24.0001 23.6831C24.0667 23.6145 24.1228 23.5951 24.2184 23.6359C24.8978 23.9264 25.5752 24.2225 26.2552 24.5115C26.4792 24.6068 26.703 24.703 26.9271 24.7983C26.9584 24.8116 26.9896 24.8234 27.0242 24.8126C27.084 24.7973 27.1228 24.7586 27.1581 24.7081C27.3571 24.422 27.5647 24.1423 27.7725 23.8626C27.8075 23.8156 27.8355 23.764 27.8731 23.7188C27.9066 23.6781 27.8879 23.6406 27.8631 23.6044C27.8556 23.5951 27.8483 23.5856 27.8416 23.5758C27.8253 23.5311 27.826 23.4732 27.7582 23.469C27.7507 23.465 27.7447 23.4594 27.7392 23.4529C27.7231 23.4044 27.7026 23.3601 27.646 23.3473C27.6365 23.3393 27.628 23.33 27.6208 23.3197C27.5962 23.2114 27.5226 23.1453 27.4295 23.0957C27.4197 23.0874 27.4112 23.0784 27.4037 23.0681C27.3794 22.9588 27.3051 22.8927 27.2114 22.8429C27.2017 22.8346 27.1932 22.8256 27.1857 22.8152C27.1606 22.7072 27.0893 22.6391 26.9944 22.5911C26.9849 22.583 26.9761 22.5742 26.9679 22.5649C26.9443 22.5043 26.9145 22.4491 26.8697 22.3995C26.8424 22.3696 26.8167 22.3465 26.7781 22.3377C26.7676 22.3304 26.7588 22.3216 26.7503 22.3123C26.7263 22.2518 26.6965 22.1965 26.6514 22.1469C26.6242 22.117 26.5984 22.0939 26.5598 22.0849C26.5493 22.0776 26.5405 22.0688 26.532 22.0595C26.508 21.9992 26.4782 21.9439 26.4334 21.8944C26.4061 21.8644 26.3808 21.8411 26.342 21.8323C26.3315 21.8252 26.3227 21.8162 26.3142 21.8069C26.2869 21.7669 26.2819 21.7084 26.2214 21.6968C26.2118 21.6888 26.2031 21.6797 26.1956 21.6697C26.1768 21.6347 26.1788 21.5832 26.1222 21.5789C26.112 21.5716 26.1034 21.5626 26.0952 21.5533C26.0696 21.5121 26.0624 21.4555 26.0023 21.4435C25.9925 21.4352 25.9838 21.4261 25.9763 21.4158C25.9587 21.3771 25.9547 21.3286 25.9019 21.3165C25.8914 21.3075 25.8854 21.2959 25.8826 21.2824C25.8781 21.1999 25.9027 21.1275 25.9445 21.0561C26.125 20.747 26.2659 20.4185 26.4061 20.0898C26.4321 20.0289 26.4542 19.9651 26.4995 19.9143C26.5325 19.9038 26.5658 19.9035 26.5994 19.9106C26.6632 19.9767 26.7318 19.9875 26.8082 19.9304C26.8209 19.9209 26.8404 19.9234 26.857 19.9216C26.9165 19.9196 26.9761 19.9153 27.035 19.9274C27.098 19.9912 27.1654 20.0081 27.2417 19.9485C27.2543 19.9387 27.2735 19.9412 27.2901 19.939C27.3301 19.9367 27.3699 19.9357 27.4092 19.945C27.442 19.953 27.4493 19.987 27.4711 20.0068C27.5266 20.0571 27.5214 20.0772 27.4523 20.1199C27.4137 20.1189 27.3747 20.1277 27.3366 20.1144C27.2645 20.1129 27.1924 20.1114 27.1201 20.1099C27.0475 20.0933 26.9726 20.1157 26.9 20.0973C26.8162 20.0968 26.732 20.0998 26.6482 20.0945C26.5816 20.0903 26.5433 20.1086 26.5158 20.1757C26.3821 20.5007 26.2314 20.8179 26.0629 21.1263C26.0316 21.1836 26.0336 21.216 26.0812 21.269C26.2429 21.4482 26.3928 21.638 26.5498 21.8215C26.678 21.9713 26.8112 22.1173 26.9401 22.2666C27.1013 22.4533 27.2593 22.6428 27.4205 22.8296C27.5149 22.9389 27.6137 23.0445 27.7089 23.1533C27.8278 23.2893 27.9452 23.4262 28.0624 23.5637C28.1057 23.6145 28.0934 23.6547 28.0526 23.7098C27.7352 24.1398 27.422 24.5728 27.1118 25.0082C27.0755 25.0589 27.0467 25.0564 27.0014 25.0371C26.7125 24.9131 26.4234 24.79 26.1342 24.6663C25.566 24.4235 24.9977 24.1808 24.4294 23.9377C24.3501 23.9038 24.2697 23.8724 24.1926 23.8344C24.1525 23.8148 24.1275 23.8211 24.0975 23.8518C24.0131 23.938 23.9247 24.0199 23.8406 24.1061C23.6616 24.2898 23.4729 24.4628 23.2741 24.6244C23.2443 24.6487 23.2468 24.6716 23.2571 24.7043C23.361 25.031 23.4641 25.3578 23.5655 25.6853C23.7167 26.1723 23.8637 26.6607 24.0179 27.1468C24.0759 27.3302 24.1353 27.5132 24.1908 27.6972C24.2031 27.7374 24.1981 27.7563 24.1636 27.7789C23.8571 27.9779 23.552 28.1788 23.2463 28.3791C23.1537 28.4396 23.0576 28.4957 22.9697 28.5625C22.9241 28.5972 22.8951 28.5857 22.862 28.5558C22.7812 28.4824 22.7013 28.4082 22.6215 28.3336C22.288 28.0222 21.9556 27.71 21.6216 27.3996C21.2794 27.0817 20.9354 26.7655 20.5925 26.4483C20.5707 26.4279 20.5509 26.4121 20.5191 26.4279C20.1649 26.6059 19.7919 26.7396 19.4261 26.8909C19.4131 27.1088 19.4244 27.327 19.4201 27.5449C19.4194 27.5811 19.4264 27.6175 19.4146 27.6532C19.4129 28.1184 19.4111 28.5837 19.4094 29.0491C19.3963 29.2985 19.4084 29.548 19.4031 29.7974C19.4011 29.8891 19.4154 29.9816 19.3943 30.0728C19.2534 30.1258 19.1039 30.1432 18.9582 30.1759C18.6143 30.2533 18.2688 30.3229 17.9246 30.398C17.8663 30.4109 17.8325 30.4048 17.8004 30.3445C17.6264 30.0165 17.4464 29.692 17.269 29.3661C16.9618 28.8021 16.6576 28.2363 16.3459 27.6748C16.2864 27.5675 16.2771 27.4584 16.2736 27.3436C16.2618 26.9289 16.2493 26.5137 16.2368 26.0984Z" fill="white"/>
<path d="M14.3412 26.0821C14.392 26.0829 14.4436 26.0753 14.4919 26.099C14.4697 26.5667 14.4469 27.0344 14.4256 27.5022C14.4216 27.5909 14.3715 27.6603 14.3367 27.7357C14.2156 27.9991 14.0914 28.261 13.9675 28.5228C13.8851 28.6968 13.8 28.8694 13.7176 29.0434C13.5316 29.4365 13.3466 29.83 13.1614 30.2236C13.1353 30.2792 13.1098 30.3352 13.0873 30.3923C13.0672 30.4428 13.0329 30.4576 12.9824 30.4468C12.5546 30.3541 12.1267 30.2616 11.6986 30.1693C11.604 30.149 11.5091 30.1291 11.4138 30.1113C11.3722 30.1035 11.3499 30.0856 11.3512 30.0394C11.3529 29.9638 11.3502 29.8879 11.3492 29.8122C11.3321 29.6878 11.3544 29.5621 11.3376 29.4375C11.3359 29.3037 11.3341 29.1703 11.3324 29.0366C11.3156 28.9064 11.3376 28.7752 11.3206 28.645C11.3191 28.5166 11.3179 28.3879 11.3164 28.2594C11.2973 28.13 11.3216 27.9991 11.3036 27.8696C11.3021 27.7412 11.3008 27.6125 11.2993 27.4841C11.2803 27.3546 11.3046 27.2237 11.2866 27.0943C11.3121 26.9407 11.2503 26.867 11.0973 26.8185C10.7927 26.7218 10.5008 26.5868 10.2119 26.4486C10.1641 26.4257 10.1308 26.4272 10.088 26.4664C9.87191 26.6635 9.65937 26.8643 9.44508 27.0631C9.21026 27.281 8.97419 27.4974 8.74062 27.7168C8.53559 27.9093 8.32706 28.0978 8.12153 28.2896C8.03191 28.3733 7.94229 28.4572 7.85292 28.5412C7.81436 28.5774 7.77681 28.5998 7.71773 28.5608C7.3257 28.3007 6.93166 28.0441 6.53663 27.7884C6.49182 27.7593 6.49733 27.7314 6.51034 27.6899C6.59896 27.4082 6.68458 27.1254 6.77245 26.8437C6.993 26.1362 7.21455 25.4292 7.4351 24.7216C7.44561 24.688 7.45563 24.6576 7.41783 24.6259C7.1387 24.3919 6.87784 24.1383 6.6265 23.8746C6.57894 23.8246 6.53913 23.8141 6.47404 23.8407C6.04321 24.0164 5.61112 24.1883 5.17904 24.3612C4.67235 24.5641 4.16566 24.7661 3.65922 24.9697C3.59889 24.9941 3.56259 24.9848 3.52129 24.9267C3.24015 24.5316 2.95552 24.1393 2.66813 23.7487C2.62081 23.6841 2.61706 23.6396 2.67088 23.5773C2.86665 23.3516 3.05841 23.1219 3.25067 22.8932C3.42315 22.6878 3.59438 22.4815 3.76687 22.2759C3.78489 22.2545 3.80642 22.2362 3.8262 22.2166C3.84022 22.2339 3.85248 22.2535 3.86876 22.2684C3.91056 22.3068 3.90831 22.3435 3.87301 22.3852C3.679 22.6137 3.48549 22.8424 3.29222 23.0716C3.14052 23.2516 2.99006 23.4325 2.83736 23.6115C2.80331 23.6515 2.80606 23.6856 2.83435 23.7246C3.08695 24.0717 3.33979 24.4183 3.59063 24.7664C3.63043 24.8217 3.67074 24.8104 3.72156 24.7898C4.59725 24.4384 5.47319 24.0883 6.34938 23.7377C6.41446 23.7118 6.4793 23.6859 6.54414 23.6593C6.58494 23.6424 6.61499 23.6484 6.64728 23.6844C6.90588 23.9727 7.19002 24.2351 7.48291 24.4872C7.6231 24.6078 7.62636 24.603 7.57078 24.7805C7.27588 25.724 6.98223 26.6677 6.68583 27.6105C6.66606 27.6738 6.68158 27.708 6.73465 27.7422C7.05959 27.9516 7.38328 28.1629 7.70647 28.3753C7.75078 28.4045 7.78357 28.4065 7.82463 28.368C8.04493 28.1609 8.26698 27.9556 8.48928 27.7505C8.89233 27.3783 9.29638 27.0068 9.69917 26.6343C9.81433 26.5277 9.92923 26.4209 10.0399 26.3098C10.0907 26.2588 10.1355 26.2465 10.2026 26.2802C10.5689 26.4632 10.9484 26.615 11.3334 26.7522C11.397 26.7748 11.416 26.809 11.421 26.8746C11.4418 27.1495 11.4273 27.425 11.4375 27.6997C11.4563 28.216 11.4606 28.7325 11.4736 29.2487C11.4788 29.4591 11.4838 29.6694 11.4856 29.8801C11.4861 29.9482 11.5139 29.9813 11.5802 29.9952C12.0128 30.0859 12.4454 30.1781 12.8772 30.2724C12.9508 30.2885 12.9906 30.2651 13.0217 30.1972C13.1872 29.8378 13.3559 29.4799 13.5241 29.1218C13.7664 28.606 14.0093 28.0908 14.2516 27.5753C14.2759 27.5235 14.2857 27.4677 14.2882 27.4117C14.3012 27.1033 14.3109 26.7949 14.3245 26.4868C14.3307 26.3513 14.3475 26.2171 14.3412 26.0821Z" fill="white"/>
<path d="M21.025 4.68694C21.0711 4.82819 21.2048 4.86715 21.3147 4.92898C21.5931 5.08531 21.8587 5.26175 22.1255 5.43643C22.1819 5.47337 22.2302 5.48066 22.2873 5.44321C22.6129 5.23058 22.9381 5.0172 23.2666 4.80909C23.3439 4.76008 23.3772 4.7166 23.3086 4.63919C23.8198 4.30743 24.3313 3.97617 24.8412 3.64239C24.8853 3.61349 24.9166 3.61072 24.9586 3.64189C25.0305 3.69517 25.0876 3.76429 25.1561 3.82159C25.3011 3.94274 25.4343 4.07796 25.5747 4.20488C25.7106 4.32779 25.8476 4.44993 25.988 4.56756C26.1012 4.66256 26.1122 4.67991 26.0444 4.80708C25.8721 5.13181 25.6954 5.45402 25.5216 5.77799C25.3862 6.03084 25.2538 6.28519 25.1176 6.53778C24.9579 6.83436 24.8019 7.1337 24.6307 7.42349C24.5769 7.51447 24.6244 7.55795 24.6675 7.60797C24.8925 7.86911 25.0953 8.14733 25.2943 8.42808C25.3261 8.47307 25.3572 8.48689 25.4052 8.47633C25.9537 8.35645 26.5022 8.23631 27.051 8.11667C27.4991 8.0189 27.9474 7.92164 28.396 7.82537C28.4511 7.81356 28.4914 7.82286 28.5225 7.88544C28.7072 8.25817 28.8952 8.6294 29.0877 8.99811C29.1576 9.13182 29.2237 9.26754 29.2933 9.40125C29.3163 9.44573 29.3088 9.47087 29.2715 9.49877C28.6366 9.97455 28.0018 10.4508 27.3676 10.9276C27.2014 11.0525 27.0355 11.1777 26.872 11.3064C26.7999 11.3632 26.7148 11.3863 26.6319 11.416C26.2354 11.5577 25.8383 11.6985 25.4415 11.8397C25.3842 11.8106 25.3927 11.7502 25.3762 11.7015C25.3915 11.6592 25.429 11.6469 25.4663 11.6334C25.8431 11.4984 26.2208 11.3667 26.5981 11.233C26.673 11.2063 26.741 11.1717 26.8046 11.1239C27.5271 10.5795 28.2493 10.0344 28.9706 9.48796C29.0757 9.40829 29.0797 9.39094 29.0204 9.27081C28.8329 8.89079 28.6319 8.51755 28.4466 8.13653C28.3968 8.03398 28.3763 8.02418 28.2601 8.04931C27.7652 8.15588 27.2705 8.26421 26.7758 8.37153C26.3192 8.47055 25.8624 8.56732 25.4067 8.67062C25.2971 8.6955 25.2328 8.6676 25.1694 8.57435C24.9451 8.2451 24.704 7.92842 24.4432 7.62682C24.3733 7.54589 24.3708 7.52829 24.4232 7.43254C24.7358 6.85874 25.0425 6.28142 25.3542 5.70712C25.5119 5.41607 25.6681 5.12427 25.8248 4.83272C25.8749 4.73972 25.8661 4.71459 25.7903 4.64397C25.5359 4.40746 25.2733 4.18025 25.0197 3.94299C24.9136 3.84396 24.8873 3.8417 24.7651 3.92062C24.0972 4.35242 23.4308 4.78622 22.7642 5.21978C22.6069 5.32207 22.4492 5.42386 22.292 5.52615C22.2297 5.56662 22.1826 5.56762 22.1185 5.52289C21.7808 5.28688 21.4308 5.07023 21.0688 4.87369C21.0391 4.8576 21.0098 4.84101 20.99 4.81261C20.9549 4.76285 20.968 4.71786 21.025 4.68694Z" fill="white"/>
<path d="M27.4563 20.1129C27.5063 20.043 27.423 20.0237 27.406 19.9794C27.4212 19.9322 27.4635 19.936 27.4971 19.939C27.6866 19.9558 27.8771 19.9463 28.0664 19.9636C28.0886 19.9656 28.1109 19.9704 28.1332 19.9694C28.3628 19.9603 28.5916 19.9827 28.8204 19.9913C29.0099 19.9985 29.2006 19.991 29.3894 20.0174C29.4199 20.0217 29.4507 20.0212 29.4815 20.0202C29.5759 20.0169 29.6034 19.9968 29.63 19.9033C29.7123 19.6145 29.7862 19.3232 29.8638 19.0329C29.8921 18.9271 29.9216 18.8218 29.9489 18.7157C29.9739 18.6177 29.9609 18.5815 29.8756 18.5353C29.425 18.2917 28.9741 18.0484 28.5237 17.8044C28.1127 17.5817 27.7009 17.3608 27.2903 17.1371C27.2127 17.0949 27.1897 17.0396 27.2004 16.9589C27.2553 16.5442 27.2888 16.1277 27.2971 15.7095C27.2986 15.6266 27.3491 15.5994 27.4102 15.5738C27.6866 15.4584 27.9645 15.3471 28.2413 15.2327C28.8802 14.9688 29.5221 14.7119 30.1597 14.445C30.2588 14.4036 30.2786 14.3759 30.2676 14.2724C30.23 13.921 30.1993 13.5686 30.1542 13.218C30.1412 13.1162 30.1264 13.1016 30.022 13.0881C29.6783 13.0431 29.3343 12.9993 28.9901 12.9586C28.6459 12.9179 28.3024 12.8714 27.958 12.8315C27.7164 12.8033 27.4751 12.7724 27.234 12.742C27.1679 12.7337 27.1066 12.7533 27.0455 12.7739C26.677 12.8986 26.3055 13.0137 25.9365 13.1376C25.8854 13.1547 25.8236 13.1936 25.7815 13.117C25.7752 13.0722 25.74 13.0285 25.7768 12.9823C26.0466 12.8963 26.3167 12.8111 26.5866 12.7244C26.7531 12.6709 26.9203 12.6186 27.0848 12.5593C27.1504 12.5356 27.2122 12.556 27.2728 12.5623C27.5917 12.5962 27.9099 12.6384 28.2283 12.6779C28.5468 12.7171 28.8654 12.7556 29.1836 12.796C29.5238 12.8395 29.8628 12.8943 30.204 12.9244C30.3169 12.9345 30.3227 12.9785 30.3312 13.066C30.3757 13.5211 30.4258 13.9755 30.4759 14.4302C30.4824 14.49 30.4744 14.5252 30.4088 14.5511C29.9291 14.7409 29.451 14.9344 28.9738 15.1299C28.525 15.3136 28.0799 15.5067 27.6283 15.6831C27.5084 15.7299 27.4726 15.7836 27.4703 15.9131C27.4655 16.1798 27.4485 16.4472 27.4102 16.7126C27.4015 16.7724 27.401 16.8345 27.3907 16.8948C27.3792 16.9629 27.409 16.9968 27.469 17.0285C27.7344 17.1673 27.996 17.3128 28.2596 17.455C28.6329 17.6569 29.0064 17.8582 29.3799 18.0592C29.6365 18.1975 29.8931 18.336 30.1507 18.4722C30.1875 18.4915 30.198 18.5096 30.1867 18.5506C30.1159 18.8087 30.047 19.0673 29.9782 19.3262C29.9094 19.5846 29.8428 19.8435 29.7709 20.1008C29.7599 20.1403 29.7752 20.2031 29.7063 20.2119C29.6337 20.1953 29.5591 20.218 29.4865 20.1991C29.4142 20.1979 29.3418 20.1964 29.2697 20.1951C29.2022 20.1788 29.1323 20.1999 29.0647 20.1835C28.9931 20.1818 28.9215 20.1803 28.8502 20.1785C28.7776 20.1612 28.7025 20.1845 28.6299 20.1659C28.5578 20.1644 28.4857 20.1629 28.4136 20.1614C28.341 20.1446 28.2664 20.1674 28.1938 20.1486C28.1214 20.1473 28.0491 20.1458 27.977 20.1446C27.9094 20.1282 27.8396 20.1493 27.772 20.133C27.6949 20.1313 27.6178 20.1295 27.5404 20.1277C27.5139 20.1124 27.4813 20.1338 27.4563 20.1129Z" fill="white"/>
<path d="M15.5015 26.1178C15.6743 26.1145 15.8475 26.1254 16.0195 26.1002C16.0448 26.4164 16.044 26.7338 16.0558 27.0505C16.0595 27.1516 16.0628 27.2526 16.0691 27.3534C16.0723 27.4067 16.0533 27.4283 15.9985 27.4313C15.5709 27.4542 15.1436 27.4524 14.7157 27.4315C14.6554 27.4285 14.6396 27.4014 14.6421 27.3466C14.6566 27.044 14.6694 26.7411 14.6829 26.4383C14.6879 26.3262 14.6929 26.2141 14.6977 26.102C14.8584 26.1211 15.0196 26.1168 15.1809 26.1171C15.2883 26.1291 15.3949 26.1279 15.5015 26.1178Z" fill="white"/>
<path d="M25.7114 12.793C25.6391 12.5427 25.5665 12.2923 25.4941 12.0423C25.8736 11.9096 26.2534 11.7768 26.6329 11.6444C26.7348 11.6087 26.7365 11.6082 26.7668 11.7092C26.8239 11.8998 26.8767 12.0918 26.9361 12.2815C26.9593 12.3562 26.9436 12.3899 26.866 12.4147C26.4799 12.5374 26.0959 12.6663 25.7114 12.793Z" fill="white"/>
<path d="M5.20981 12.0709C5.12971 12.3039 5.06537 12.5414 5.00353 12.7799C4.75695 12.7184 4.51938 12.6274 4.27655 12.5532C4.12159 12.506 3.96863 12.4524 3.81392 12.4044C3.7656 12.3894 3.74458 12.37 3.76135 12.3152C3.82569 12.1036 3.88702 11.891 3.94835 11.6783C3.96287 11.6283 3.9859 11.6122 4.03973 11.6316C4.41023 11.7645 4.78198 11.8947 5.15299 12.0264C5.17627 12.0345 5.2023 12.0415 5.20981 12.0709Z" fill="white"/>
<path d="M21.0251 4.68693C20.9975 4.75655 21.0188 4.80129 21.0861 4.83698C21.4501 5.03025 21.7989 5.24892 22.1368 5.48442C22.1906 5.52187 22.2269 5.5181 22.2785 5.48442C23.0643 4.97169 23.8511 4.46073 24.638 3.94926C24.7013 3.90804 24.7664 3.86908 24.8287 3.82636C24.8748 3.79469 24.9121 3.79444 24.9556 3.83415C25.0981 3.96434 25.2438 4.09126 25.3877 4.21995C25.5419 4.35818 25.6939 4.49893 25.8504 4.63465C25.9092 4.68567 25.9302 4.72865 25.8879 4.80581C25.6371 5.26324 25.3905 5.72319 25.1431 6.18238C24.9449 6.55033 24.7474 6.91879 24.5496 7.287C24.5416 7.30183 24.5346 7.31716 24.5268 7.33224C24.4229 7.53632 24.4222 7.53708 24.5719 7.71477C24.7997 7.98521 25.0117 8.26771 25.2112 8.55951C25.2581 8.62787 25.3031 8.64874 25.3842 8.63064C25.9715 8.5002 26.5596 8.37377 27.1474 8.24609C27.5329 8.1624 27.9187 8.08021 28.3034 7.99325C28.382 7.97541 28.4241 7.99124 28.4614 8.06714C28.6689 8.48738 28.8807 8.9056 29.095 9.32257C29.1301 9.39068 29.1233 9.42838 29.061 9.47513C28.2969 10.0484 27.5349 10.6245 26.7724 11.2C26.6847 11.2661 26.5773 11.2835 26.4782 11.3199C26.1392 11.4443 25.7978 11.5617 25.4571 11.6811C25.4308 11.6904 25.403 11.6947 25.376 11.7015C25.2643 11.4383 25.1634 11.1706 25.043 10.911C24.5401 9.827 23.8804 8.85031 23.0521 7.99074C21.4609 6.33971 19.5405 5.29893 17.292 4.87141C16.5915 4.7382 15.8838 4.67989 15.1716 4.69497C13.1283 4.7382 11.2423 5.30773 9.52895 6.43044C7.96157 7.4574 6.74617 8.80858 5.87799 10.4742C5.67797 10.8577 5.50448 11.2531 5.35228 11.658C5.34452 11.6788 5.33425 11.6987 5.32499 11.7191C5.18605 11.6442 5.03234 11.6077 4.88564 11.5534C4.62829 11.4582 4.36969 11.3664 4.10884 11.2822C3.95788 11.2335 3.85349 11.1231 3.73909 11.0269C3.36232 10.7094 2.98957 10.3875 2.61531 10.067C2.3134 9.80865 2.01174 9.54977 1.70883 9.29241C1.66277 9.25345 1.66552 9.21499 1.69005 9.16649C1.87981 8.79375 2.06857 8.42052 2.25657 8.04704C2.28336 7.99375 2.31741 7.97666 2.37799 7.98998C3.34555 8.20186 4.31362 8.41173 5.28168 8.6226C5.43013 8.65502 5.42938 8.65627 5.51375 8.53237C5.7358 8.20462 5.98238 7.89573 6.23623 7.59262C6.27253 7.54914 6.27953 7.5137 6.25325 7.46469C6.0342 7.05677 5.81666 6.64835 5.59811 6.24018C5.41812 5.9039 5.23712 5.56786 5.05688 5.23157C4.98252 5.09309 4.91118 4.95309 4.83307 4.81687C4.79427 4.74901 4.78951 4.7 4.85435 4.64244C5.10344 4.42127 5.34852 4.19557 5.59385 3.97037C5.64042 3.92764 5.68348 3.93845 5.73129 3.96534C5.97738 4.10484 6.22371 4.24357 6.47004 4.38231C6.96046 4.65828 7.45088 4.93399 7.94129 5.20996C8.10476 5.30195 8.26899 5.39268 8.43071 5.48768C8.48052 5.51709 8.51933 5.51885 8.56814 5.48492C8.9046 5.25193 9.25207 5.03654 9.61081 4.83999C9.67189 4.80656 9.69567 4.7656 9.68966 4.69899C9.66964 4.47832 9.65136 4.25765 9.63209 4.03697C9.61231 3.81077 9.59203 3.58457 9.57225 3.35837C9.54622 3.06229 9.52043 2.76622 9.4949 2.47015C9.47562 2.24671 9.45685 2.02302 9.43807 1.79958C9.43682 1.78551 9.43782 1.77143 9.43682 1.75736C9.4233 1.57011 9.42305 1.56911 9.59479 1.50276C9.90546 1.38262 10.2176 1.26625 10.5271 1.14309C10.6009 1.11369 10.6437 1.12626 10.6885 1.19035C10.9802 1.60606 11.2748 2.01925 11.568 2.4337C11.8516 2.83433 12.1352 3.23496 12.4171 3.63685C12.4602 3.69843 12.5072 3.71652 12.5811 3.69792C12.9749 3.59864 13.3744 3.52802 13.777 3.47599C13.8448 3.4672 13.8741 3.43528 13.8886 3.37295C13.9767 2.99544 14.0666 2.61844 14.1555 2.24143C14.2967 1.64275 14.4389 1.04432 14.5778 0.445387C14.5948 0.371745 14.6331 0.354152 14.702 0.354403C15.1636 0.356414 15.6255 0.355409 16.0874 0.35566C16.1084 0.376269 16.1149 0.403414 16.1216 0.430809C16.2839 1.08855 16.4398 1.74781 16.5993 2.40631C16.6756 2.72199 16.753 3.03741 16.8271 3.35359C16.8409 3.41266 16.8719 3.45237 16.9275 3.47373C16.9388 3.47398 16.95 3.47398 16.9615 3.47423C16.9928 3.46167 17.0201 3.47122 17.0452 3.49057C17.0564 3.49057 17.0677 3.49082 17.0789 3.49082C17.1493 3.48152 17.2151 3.49987 17.28 3.52425C17.2857 3.52425 17.2915 3.5245 17.2972 3.5245C17.5283 3.54411 17.7526 3.60292 17.9792 3.64715C18.2771 3.70496 18.1842 3.75322 18.3612 3.4961C18.7089 2.99117 19.0469 2.4797 19.3903 1.97175C19.5738 1.70056 19.7581 1.43012 19.9381 1.15642C19.9518 1.13555 19.9664 1.11469 19.9851 1.0976C19.9959 1.09182 20.0069 1.08579 20.0177 1.08001C20.065 1.07197 20.1036 1.0976 20.1446 1.11369C20.5364 1.2655 20.9282 1.4163 21.3202 1.5676C21.4376 1.61284 21.4451 1.63144 21.3951 1.75459C21.3951 1.7659 21.3948 1.77747 21.3948 1.78878C21.4166 1.8222 21.3946 1.84684 21.3785 1.87272C21.3785 1.88403 21.3783 1.89559 21.3783 1.9069C21.3956 1.94435 21.3825 1.97652 21.3618 2.00769C21.3618 2.019 21.3615 2.03056 21.3615 2.04187C21.381 2.07957 21.3618 2.11074 21.345 2.14241C21.345 2.15372 21.345 2.16528 21.3447 2.17659C21.3693 2.21504 21.3432 2.2452 21.328 2.27712C21.328 2.28843 21.3277 2.29999 21.3277 2.3113C21.3492 2.34926 21.3237 2.37967 21.3112 2.41184C21.3112 2.42315 21.3109 2.43471 21.3109 2.44602C21.3327 2.48422 21.3072 2.51438 21.2944 2.54681C21.2942 2.55812 21.2942 2.56968 21.2939 2.58099C21.3064 2.6124 21.2969 2.6398 21.2776 2.66493C21.2776 2.67624 21.2774 2.6878 21.2774 2.69911C21.2967 2.73681 21.2776 2.76798 21.2609 2.79965C21.2609 2.81121 21.2606 2.82252 21.2606 2.83408C21.2781 2.87153 21.2649 2.9037 21.2441 2.93487C21.2441 2.94618 21.2439 2.95749 21.2439 2.96905C21.2684 3.0075 21.2423 3.03766 21.2273 3.06958C21.2273 3.08089 21.2271 3.09245 21.2271 3.10377C21.2489 3.14197 21.2233 3.17213 21.2106 3.20455C21.2106 3.21586 21.2103 3.22742 21.2103 3.23873C21.2321 3.27216 21.2101 3.29679 21.194 3.32268C21.194 3.33399 21.1938 3.34555 21.1938 3.35686C21.2111 3.39431 21.198 3.42648 21.1773 3.45765C21.1773 3.46896 21.177 3.48052 21.177 3.49183C21.1945 3.52928 21.1813 3.56145 21.1605 3.59261C21.1605 3.60392 21.1602 3.61523 21.1602 3.62679C21.1848 3.66525 21.1587 3.69541 21.1437 3.72733C21.1437 3.73864 21.1435 3.7502 21.1435 3.76151C21.165 3.79946 21.1395 3.82987 21.1269 3.86204C21.1269 3.87335 21.1267 3.88492 21.1267 3.89623C21.1485 3.93443 21.1229 3.96459 21.1102 3.99701C21.1102 4.00279 21.1102 4.00857 21.1102 4.01461C21.1274 4.05205 21.1144 4.08423 21.0936 4.11539C21.0936 4.1267 21.0934 4.13826 21.0934 4.14957C21.1127 4.18727 21.0936 4.21844 21.0769 4.25011C21.0769 4.26167 21.0766 4.27298 21.0766 4.28454C21.0939 4.32199 21.0746 4.35315 21.0601 4.38507C21.0601 4.39638 21.0599 4.40795 21.0599 4.41926C21.0844 4.45771 21.0583 4.48787 21.0433 4.51979C21.0433 4.5311 21.0431 4.54266 21.0431 4.55397C21.0649 4.59192 21.0393 4.62234 21.0266 4.65476C21.0253 4.66431 21.0251 4.67562 21.0251 4.68693Z" fill="white"/>
<path d="M25.7817 13.1175C25.8341 13.1368 25.8811 13.112 25.9279 13.0966C26.2739 12.9838 26.6211 12.8747 26.9641 12.7535C27.1038 12.7043 27.2385 12.6965 27.3829 12.7151C28.2201 12.8227 29.0577 12.926 29.8951 13.03C29.9644 13.0386 30.034 13.0441 30.1036 13.0519C30.1577 13.0579 30.1875 13.0843 30.1935 13.1431C30.2348 13.5478 30.2771 13.9522 30.3222 14.3563C30.3294 14.4207 30.2941 14.4388 30.2468 14.4581C29.8062 14.6378 29.3661 14.8185 28.9258 14.999C28.4258 15.2038 27.9264 15.4099 27.426 15.6127C27.3614 15.6389 27.3389 15.6768 27.3374 15.7457C27.3286 16.1526 27.2976 16.5578 27.2425 16.9612C27.234 17.024 27.2472 17.0665 27.3078 17.0989C27.7397 17.3301 28.17 17.5641 28.6008 17.7971C29.0489 18.0394 29.497 18.2817 29.9459 18.5227C30.0062 18.5551 30.03 18.5921 30.0102 18.6642C29.8898 19.1028 29.7724 19.5424 29.6568 19.9822C29.6395 20.0476 29.6029 20.0664 29.5416 20.0634C29.1761 20.0466 28.8106 20.032 28.4451 20.0146C28.2944 20.0076 28.1435 20.0079 27.9927 20.0013C27.7975 19.9928 27.6022 19.9764 27.4065 19.9797C27.3672 19.9797 27.3278 19.9795 27.2885 19.9795C27.2024 20.0084 27.1193 19.9938 27.037 19.9631C26.9751 19.9629 26.9135 19.9629 26.8517 19.9626C26.7658 19.9893 26.6825 19.9782 26.6004 19.946C26.5666 19.946 26.533 19.946 26.4992 19.9458C26.4311 20.0234 26.4104 20.1242 26.3693 20.215C26.2248 20.5354 26.0784 20.8546 25.9044 21.1605C25.8814 21.2009 25.8841 21.2399 25.9112 21.2776C25.9167 21.2831 25.9219 21.2887 25.9274 21.2942C25.96 21.3244 25.9928 21.3545 26.0121 21.3957C26.0176 21.4013 26.0228 21.4068 26.0283 21.4123C26.0716 21.4435 26.0997 21.488 26.1297 21.5307C26.135 21.5362 26.1405 21.5418 26.146 21.5473C26.1785 21.5774 26.2113 21.6076 26.2306 21.6488C26.2361 21.6544 26.2414 21.6599 26.2469 21.6654C26.2902 21.6966 26.3182 21.7411 26.3483 21.7838C26.3535 21.7893 26.359 21.7949 26.3645 21.8004C26.4381 21.874 26.5077 21.9507 26.5668 22.0369C26.5723 22.0424 26.5776 22.0479 26.5831 22.0535C26.6564 22.1271 26.7263 22.2038 26.7854 22.29C26.7909 22.2955 26.7961 22.301 26.8016 22.3066C26.875 22.3802 26.9448 22.4569 27.0039 22.5431C27.0094 22.5486 27.0147 22.5541 27.0202 22.5597C27.0943 22.6328 27.1639 22.7095 27.2222 22.7962C27.2277 22.8017 27.233 22.8072 27.2385 22.8128C27.3126 22.8859 27.3822 22.9626 27.4405 23.0493C27.446 23.0548 27.4513 23.0603 27.4568 23.0659C27.5309 23.139 27.6005 23.2157 27.6588 23.3024C27.6643 23.3079 27.6696 23.3134 27.6751 23.319C27.7184 23.3501 27.7464 23.3946 27.7765 23.4371H27.7762C27.817 23.4703 27.8516 23.509 27.8771 23.5555C27.8826 23.561 27.8879 23.5665 27.8934 23.572C27.9502 23.6065 27.9474 23.6444 27.9101 23.6962C27.7159 23.9666 27.5191 24.2353 27.3243 24.5055C27.2475 24.6123 27.1716 24.7199 27.0933 24.8255C27.0768 24.8478 27.0625 24.8727 27.0367 24.8865C26.8011 24.8051 26.5768 24.6958 26.3478 24.5985C25.6265 24.2924 24.9063 23.9832 24.1871 23.6723C24.1288 23.6472 24.0925 23.6517 24.0476 23.697C23.8251 23.9222 23.6068 24.1519 23.3697 24.3622C23.3006 24.4236 23.232 24.4857 23.1597 24.543C23.1044 24.5869 23.0878 24.6324 23.1101 24.7033C23.4073 25.6488 23.7019 26.5949 23.9976 27.5409C24.0461 27.6967 24.0436 27.6952 23.908 27.7827C23.6136 27.9722 23.3202 28.1632 23.0295 28.3582C22.9589 28.4055 22.9119 28.4047 22.8478 28.3449C22.4209 27.9448 21.9901 27.5492 21.5615 27.1508C21.2992 26.9068 21.0388 26.6605 20.777 26.4159C20.7279 26.3702 20.6756 26.3277 20.6265 26.2819C20.5902 26.248 20.5559 26.2618 20.5186 26.2792C20.1964 26.4295 19.8705 26.5712 19.5373 26.6951C19.4822 26.7158 19.4276 26.7379 19.3713 26.7542C19.3005 26.7748 19.2782 26.8188 19.2784 26.8914C19.2804 27.4617 19.2897 28.0323 19.2757 28.6023C19.2654 29.0263 19.2657 29.45 19.2637 29.874C19.2634 29.9434 19.2374 29.9726 19.17 29.9866C18.7782 30.0678 18.387 30.1515 17.9964 30.2382C17.9263 30.2538 17.8985 30.2154 17.8723 30.1671C17.7659 29.9728 17.6605 29.7778 17.5543 29.5832C17.275 29.071 16.9951 28.5593 16.7157 28.0471C16.6258 27.882 16.5372 27.7163 16.4473 27.5512C16.4336 27.5258 16.4261 27.4997 16.425 27.471C16.4193 27.2888 16.415 27.1063 16.4073 26.9244C16.3955 26.6441 16.3988 26.3634 16.3745 26.0836C16.5738 26.0568 16.7735 26.0319 16.9725 26.0025C17.8738 25.8685 18.7422 25.6174 19.5778 25.255C20.7109 24.7636 21.7295 24.0951 22.6315 23.2491C23.5437 22.3933 24.2865 21.4091 24.8565 20.2929C25.4235 19.1825 25.7835 18.008 25.942 16.7714C26.0451 15.9661 26.0554 15.1583 25.9758 14.3503C25.9345 13.9341 25.8696 13.5239 25.7817 13.1175Z" fill="white"/>
<path d="M15.5015 26.1178C15.3947 26.1327 15.288 26.1352 15.1814 26.1168C15.2883 26.1171 15.3949 26.1176 15.5015 26.1178Z" fill="#0B2644"/>
<path d="M15.3516 10.9824C17.0837 10.9824 18.8158 10.9824 20.5476 10.9824C20.655 10.9824 20.655 10.9824 20.6553 11.0905C20.6553 11.7 20.6538 12.3097 20.6573 12.9192C20.6578 12.9989 20.6337 13.0147 20.5594 13.0147C17.0869 13.0129 13.6145 13.0129 10.142 13.0147C10.0699 13.0147 10.0469 12.9989 10.0474 12.9227C10.0506 12.3074 10.0506 11.6922 10.0471 11.0772C10.0466 10.9962 10.0737 10.9809 10.1473 10.9811C11.8819 10.9829 13.6167 10.9824 15.3516 10.9824Z" fill="white"/>
<path d="M13.8338 17.8569C13.8338 19.2418 13.8338 20.6266 13.8338 22.0117C13.8338 22.0426 13.8325 22.0736 13.8335 22.1045C13.8358 22.1648 13.8087 22.1894 13.7479 22.1892C13.2668 22.1879 12.7854 22.1879 12.3042 22.1889C12.2461 22.1889 12.2226 22.1643 12.2261 22.1077C12.2278 22.0771 12.2261 22.0459 12.2261 22.015C12.2261 20.0682 12.2263 18.1216 12.2258 16.1747C12.2256 15.6952 11.9707 15.3121 11.5314 15.1281C11.4167 15.0801 11.2963 15.055 11.1719 15.055C10.8362 15.0555 10.5005 15.0507 10.165 15.0676C10.0526 15.0731 10.0464 15.0631 10.0461 14.95C10.0456 14.5146 10.0456 14.0791 10.0461 13.6438C10.0464 13.5352 10.0569 13.5251 10.1683 13.5249C11.3492 13.5246 12.5298 13.5246 13.7106 13.5249C13.826 13.5249 13.8338 13.5339 13.8338 13.6596C13.8338 15.059 13.8338 16.458 13.8338 17.8569Z" fill="white"/>
<path d="M16.36 17.8624C16.36 19.2699 16.3592 20.6774 16.3617 22.0849C16.362 22.1658 16.3477 22.1939 16.2586 22.1932C15.6542 22.1887 15.0497 22.1894 14.4454 22.1924C14.3678 22.1929 14.3417 22.1776 14.3417 22.0927C14.3442 19.2692 14.344 16.4456 14.3422 13.6221C14.3422 13.5513 14.3555 13.5256 14.4328 13.5261C15.0457 13.5294 15.6585 13.5296 16.2713 13.5261C16.3502 13.5256 16.3615 13.5535 16.3615 13.6229C16.3595 15.0362 16.36 16.4494 16.36 17.8624Z" fill="white"/>
<path d="M16.8769 17.8579C16.8769 16.456 16.8769 15.0538 16.8769 13.6518C16.8769 13.5256 16.8772 13.5251 17.0013 13.5251C18.1767 13.5251 19.3523 13.5251 20.5276 13.5251C20.6548 13.5251 20.655 13.5254 20.655 13.6488C20.655 14.0871 20.6535 14.5255 20.6565 14.9638C20.6571 15.0432 20.6355 15.0749 20.5529 15.0701C20.2177 15.0508 19.8817 15.0538 19.546 15.0555C19.0058 15.0583 18.5354 15.4971 18.4864 16.038C18.4768 16.1418 18.4736 16.2454 18.4736 16.3492C18.4736 18.2402 18.4736 20.131 18.4736 22.0221C18.4736 22.053 18.4721 22.0839 18.4733 22.1148C18.4756 22.1693 18.4491 22.1892 18.3967 22.1892C17.9153 22.1884 17.4339 22.1884 16.9528 22.1892C16.9005 22.1892 16.8739 22.1696 16.8769 22.1148C16.8784 22.0869 16.8769 22.0585 16.8769 22.0306C16.8769 20.6395 16.8769 19.2488 16.8769 17.8579Z" fill="white"/>
<path d="M16.5948 9.40853C16.594 10.1 16.04 10.6557 15.3526 10.6554C14.6662 10.6549 14.1092 10.0964 14.1087 9.40827C14.1082 8.72238 14.6684 8.16064 15.3531 8.16064C16.0393 8.16039 16.5955 8.71961 16.5948 9.40853Z" fill="white"/>
<path d="M3.08168 23.0953L3.19108 23.1928L4.83907 21.2248C4.83907 21.2248 4.85334 21.1994 4.83206 21.16C4.81078 21.1205 4.37394 20.3037 4.2713 19.9797C4.2713 19.9797 4.26329 19.9392 4.22148 19.9297C4.17967 19.9201 3.48773 19.9297 3.48773 19.9297L1.11276 19.9473C1.11276 19.9473 1.05819 19.9593 1.0319 19.8905C1.00561 19.8216 0.678671 18.5976 0.678671 18.5976C0.678671 18.5976 0.669909 18.5544 0.742758 18.5159C0.815607 18.4775 3.43942 17.0604 3.43942 17.0604C3.43942 17.0604 3.47572 17.034 3.4597 16.941C3.44367 16.848 3.36807 15.8229 3.37333 15.7231C3.37884 15.6233 3.25742 15.5989 3.25742 15.5989L0.425076 14.4463C0.425076 14.4463 0.371253 14.4382 0.37651 14.3762C0.382018 14.3141 0.505936 13.1373 0.505936 13.1373C0.505936 13.1373 0.49392 13.0908 0.633359 13.0765C0.773049 13.0624 3.54306 12.6892 3.54306 12.6892L4.92669 13.1373L4.95898 12.9863L3.64345 12.5706C3.64345 12.5706 3.54832 12.5381 3.48773 12.5442C3.42715 12.5502 0.465381 12.9619 0.465381 12.9619C0.465381 12.9619 0.381017 12.9699 0.37601 13.0187C0.371003 13.0672 0.232815 14.4169 0.232815 14.4169C0.232815 14.4169 0.214541 14.5252 0.250089 14.5403C0.285387 14.5554 3.22212 15.7341 3.22212 15.7341C3.22212 15.7341 3.29773 16.8166 3.32201 16.9488C3.32201 16.9488 3.33277 16.9609 3.27745 16.9906C3.22212 17.0202 0.518203 18.478 0.518203 18.478L0.914241 20.0468C0.933767 20.1202 0.991095 20.1124 1.02364 20.1126C2.07231 20.1199 3.03212 20.086 4.08079 20.0933C4.1231 20.0973 4.14613 20.1159 4.1634 20.1408C4.17141 20.1524 4.27631 20.3959 4.32237 20.499C4.4235 20.7257 4.52414 20.9174 4.62378 21.1137C4.63004 21.1275 4.64906 21.1695 4.64656 21.1914C4.64556 21.219 4.63604 21.2424 4.61877 21.2658C4.58673 21.3067 4.40398 21.5299 3.96113 22.056C3.73857 22.3204 3.46045 22.6625 3.08168 23.0953Z" fill="white"/>
</g>
<defs>
<clipPath id="clip0_71_1875">
<rect width="30.7042" height="30.7042" fill="white"/>
</clipPath>
</defs>
</svg>
