<svg width="98" height="26" viewBox="0 0 98 26" fill="none" xmlns="http://www.w3.org/2000/svg">
<path d="M36.9351 6.24983C36.9083 5.97916 36.7931 5.76889 36.5895 5.61901C36.386 5.46913 36.1097 5.3942 35.7607 5.3942C35.5236 5.3942 35.3234 5.42775 35.1601 5.49486C34.9968 5.55973 34.8715 5.65033 34.7843 5.76665C34.6993 5.88297 34.6568 6.01495 34.6568 6.16259C34.6523 6.28562 34.678 6.39299 34.734 6.48471C34.7921 6.57642 34.8715 6.65583 34.9722 6.72294C35.0729 6.78781 35.1892 6.84486 35.3212 6.89407C35.4531 6.94105 35.5941 6.98131 35.7439 7.01486L36.3613 7.1625C36.6611 7.22961 36.9362 7.31909 37.1868 7.43094C37.4373 7.54278 37.6543 7.68036 37.8377 7.84365C38.0212 8.00695 38.1632 8.19933 38.2639 8.42079C38.3668 8.64224 38.4193 8.89614 38.4216 9.18247C38.4193 9.60301 38.312 9.96763 38.0995 10.2763C37.8892 10.5828 37.585 10.821 37.1868 10.991C36.7908 11.1588 36.3132 11.2427 35.754 11.2427C35.1993 11.2427 34.7161 11.1577 34.3045 10.9877C33.8951 10.8177 33.5752 10.566 33.3448 10.2327C33.1167 9.89717 32.997 9.48222 32.9858 8.98785H34.3917C34.4074 9.21826 34.4734 9.41063 34.5897 9.56498C34.7082 9.7171 34.8659 9.8323 35.0628 9.91059C35.2619 9.98665 35.4867 10.0247 35.7372 10.0247C35.9833 10.0247 36.1969 9.98888 36.3781 9.9173C36.5616 9.84572 36.7036 9.74618 36.8043 9.61867C36.9049 9.49116 36.9553 9.34464 36.9553 9.17911C36.9553 9.02476 36.9094 8.89502 36.8177 8.78988C36.7282 8.68474 36.5962 8.59527 36.4217 8.52145C36.2495 8.44763 36.0381 8.38052 35.7876 8.32012L35.0393 8.13222C34.4599 7.99129 34.0025 7.77095 33.6669 7.4712C33.3314 7.17145 33.1647 6.76768 33.167 6.2599C33.1647 5.84382 33.2755 5.48032 33.4992 5.16938C33.7251 4.85845 34.0349 4.61574 34.4286 4.44126C34.8223 4.26678 35.2697 4.17954 35.7708 4.17954C36.2808 4.17954 36.726 4.26678 37.1062 4.44126C37.4888 4.61574 37.7863 4.85845 37.9988 5.16938C38.2113 5.48032 38.3209 5.84047 38.3276 6.24983H36.9351ZM39.3988 4.27349H41.1906L43.0831 8.89054H43.1636L45.0561 4.27349H46.8479V11.1454H45.4386V6.67261H45.3815L43.6032 11.1118H42.6435L40.8652 6.65583H40.8081V11.1454H39.3988V4.27349ZM48.0449 11.1454V4.27349H49.4978V7.30343H49.5884L52.0614 4.27349H53.8028L51.2527 7.35041L53.833 11.1454H52.0949L50.2125 8.32012L49.4978 9.19253V11.1454H48.0449ZM62.4942 4.27349V11.1454H61.2393L58.2496 6.82025H58.1993V11.1454H56.7464V4.27349H58.0214L60.9876 8.59527H61.048V4.27349H62.4942ZM63.6946 11.1454V4.27349H68.3251V5.47137H65.1475V7.10882H68.0868V8.3067H65.1475V9.9475H68.3385V11.1454H63.6946ZM74.0368 6.49477C73.9899 6.33148 73.9239 6.18719 73.8389 6.06193C73.7539 5.93442 73.6498 5.82705 73.5268 5.73981C73.406 5.65033 73.2673 5.5821 73.1107 5.53513C72.9564 5.48815 72.7853 5.46466 72.5974 5.46466C72.2462 5.46466 71.9375 5.5519 71.6713 5.72638C71.4073 5.90087 71.2015 6.15476 71.0539 6.48806C70.9062 6.81913 70.8324 7.22402 70.8324 7.70273C70.8324 8.18143 70.9051 8.58856 71.0505 8.9241C71.1959 9.25964 71.4017 9.51577 71.6679 9.69249C71.9341 9.86697 72.2484 9.95421 72.6108 9.95421C72.9396 9.95421 73.2203 9.89605 73.453 9.77973C73.6879 9.66117 73.8668 9.49452 73.9899 9.27977C74.1151 9.06503 74.1778 8.81113 74.1778 8.51809L74.473 8.56171H72.7014V7.46785H75.577V8.33354C75.577 8.93752 75.4495 9.45649 75.1944 9.89046C74.9394 10.3222 74.5882 10.6555 74.1408 10.8904C73.6935 11.123 73.1812 11.2393 72.6041 11.2393C71.9598 11.2393 71.3939 11.0973 70.9062 10.8132C70.4186 10.5269 70.0383 10.1209 69.7654 9.59518C69.4947 9.06726 69.3594 8.44092 69.3594 7.71615C69.3594 7.15915 69.4399 6.66255 69.601 6.22634C69.7643 5.7879 69.9924 5.41657 70.2855 5.11234C70.5785 4.80812 70.9196 4.57659 71.3089 4.41777C71.6981 4.25895 72.1198 4.17954 72.5739 4.17954C72.9631 4.17954 73.3255 4.23658 73.661 4.35066C73.9966 4.46251 74.2941 4.62133 74.5536 4.82713C74.8153 5.03293 75.0289 5.27788 75.1944 5.56197C75.36 5.84382 75.4662 6.15476 75.5132 6.49477H74.0368ZM76.6683 11.1454V4.27349H81.2988V5.47137H78.1212V7.10882H81.0606V8.3067H78.1212V9.9475H81.3122V11.1454H76.6683ZM82.4539 11.1454V4.27349H85.1651C85.684 4.27349 86.127 4.36632 86.4938 4.55199C86.8629 4.73542 87.1437 4.99602 87.336 5.3338C87.5306 5.66934 87.628 6.06416 87.628 6.51826C87.628 6.9746 87.5295 7.36718 87.3327 7.69601C87.1358 8.02261 86.8506 8.27315 86.477 8.44763C86.1057 8.62211 85.6561 8.70935 85.1282 8.70935H83.3129V7.54167H84.8933C85.1707 7.54167 85.4011 7.50364 85.5845 7.42758C85.7679 7.35153 85.9044 7.23744 85.9939 7.08533C86.0856 6.93322 86.1314 6.74419 86.1314 6.51826C86.1314 6.29009 86.0856 6.09772 85.9939 5.94113C85.9044 5.78454 85.7668 5.66599 85.5811 5.58546C85.3977 5.50269 85.1662 5.46131 84.8866 5.46131H83.9068V11.1454H82.4539ZM86.165 8.01814L87.8729 11.1454H86.269L84.598 8.01814H86.165ZM90.1076 4.27349V11.1454H88.6547V4.27349H90.1076ZM96.4393 4.27349V11.1454H94.9864V5.65256H94.9461L93.3724 6.63906V5.35058L95.0736 4.27349H96.4393ZM35.6433 22.1454H33.2072V15.2735H35.6634C36.3546 15.2735 36.9497 15.4111 37.4485 15.6862C37.9473 15.9591 38.331 16.3517 38.5994 16.864C38.8701 17.3762 39.0054 17.9891 39.0054 18.7027C39.0054 19.4185 38.8701 20.0337 38.5994 20.5482C38.331 21.0627 37.9451 21.4575 37.4418 21.7327C36.9407 22.0078 36.3412 22.1454 35.6433 22.1454ZM34.6601 20.9005H35.5829C36.0124 20.9005 36.3736 20.8245 36.6667 20.6724C36.962 20.518 37.1834 20.2798 37.3311 19.9577C37.4809 19.6333 37.5559 19.215 37.5559 18.7027C37.5559 18.1949 37.4809 17.78 37.3311 17.4579C37.1834 17.1357 36.9631 16.8986 36.67 16.7465C36.377 16.5944 36.0157 16.5183 35.5862 16.5183H34.6601V20.9005ZM40.0817 22.1454V15.2735H44.7121V16.4714H41.5346V18.1088H44.4739V19.3067H41.5346V20.9475H44.7256V22.1454H40.0817ZM51.6151 15.2735V22.1454H50.3602L47.3705 17.8203H47.3201V22.1454H45.8672V15.2735H47.1423L50.1085 19.5953H50.1689V15.2735H51.6151ZM52.8155 22.1454V15.2735H55.5267C56.0479 15.2735 56.4919 15.373 56.8588 15.5721C57.2256 15.769 57.5052 16.043 57.6976 16.3942C57.8922 16.7432 57.9895 17.1458 57.9895 17.6021C57.9895 18.0585 57.8911 18.4611 57.6943 18.8101C57.4974 19.1591 57.2122 19.4309 56.8386 19.6255C56.4673 19.8201 56.0177 19.9174 55.4897 19.9174H53.7617V18.7531H55.2549C55.5345 18.7531 55.7649 18.705 55.9461 18.6088C56.1295 18.5103 56.266 18.375 56.3554 18.2028C56.4472 18.0283 56.493 17.8281 56.493 17.6021C56.493 17.374 56.4472 17.1749 56.3554 17.0049C56.266 16.8326 56.1295 16.6995 55.9461 16.6056C55.7627 16.5094 55.53 16.4613 55.2482 16.4613H54.2684V22.1454H52.8155ZM59.3242 22.1454H57.7672L60.1395 15.2735H62.0118L64.3808 22.1454H62.8239L61.1025 16.8438H61.0488L59.3242 22.1454ZM59.2268 19.4443H62.9044V20.5784H59.2268V19.4443ZM68.7789 17.2498C68.752 16.9792 68.6368 16.7689 68.4333 16.619C68.2297 16.4691 67.9535 16.3942 67.6045 16.3942C67.3674 16.3942 67.1672 16.4278 67.0039 16.4949C66.8406 16.5597 66.7153 16.6503 66.6281 16.7666C66.5431 16.883 66.5006 17.0149 66.5006 17.1626C66.4961 17.2856 66.5218 17.393 66.5777 17.4847C66.6359 17.5764 66.7153 17.6558 66.816 17.7229C66.9166 17.7878 67.0329 17.8449 67.1649 17.8941C67.2969 17.941 67.4378 17.9813 67.5877 18.0149L68.2051 18.1625C68.5049 18.2296 68.78 18.3191 69.0305 18.4309C69.2811 18.5428 69.4981 18.6804 69.6815 18.8437C69.8649 19.007 70.007 19.1993 70.1076 19.4208C70.2105 19.6422 70.2631 19.8961 70.2653 20.1825C70.2631 20.603 70.1557 20.9676 69.9432 21.2763C69.7329 21.5828 69.4287 21.821 69.0305 21.991C68.6346 22.1588 68.157 22.2427 67.5978 22.2427C67.043 22.2427 66.5598 22.1577 66.1482 21.9877C65.7389 21.8177 65.419 21.566 65.1886 21.2327C64.9604 20.8972 64.8407 20.4822 64.8296 19.9879H66.2355C66.2511 20.2183 66.3171 20.4106 66.4334 20.565C66.552 20.7171 66.7097 20.8323 66.9066 20.9106C67.1057 20.9866 67.3305 21.0247 67.581 21.0247C67.8271 21.0247 68.0407 20.9889 68.2219 20.9173C68.4053 20.8457 68.5474 20.7462 68.648 20.6187C68.7487 20.4912 68.799 20.3446 68.799 20.1791C68.799 20.0248 68.7532 19.895 68.6614 19.7899C68.572 19.6847 68.44 19.5953 68.2655 19.5214C68.0933 19.4476 67.8819 19.3805 67.6313 19.3201L66.8831 19.1322C66.3037 18.9913 65.8462 18.771 65.5107 18.4712C65.1752 18.1715 65.0085 17.7677 65.0108 17.2599C65.0085 16.8438 65.1192 16.4803 65.3429 16.1694C65.5689 15.8584 65.8787 15.6157 66.2724 15.4413C66.6661 15.2668 67.1135 15.1795 67.6146 15.1795C68.1246 15.1795 68.5697 15.2668 68.95 15.4413C69.3325 15.6157 69.63 15.8584 69.8426 16.1694C70.0551 16.4803 70.1647 16.8405 70.1714 17.2498H68.7789ZM72.2702 22.1454H70.7133L73.0856 15.2735H74.9579L77.3268 22.1454H75.7699L74.0486 16.8438H73.9949L72.2702 22.1454ZM72.1729 19.4443H75.8504V20.5784H72.1729V19.4443ZM78.1539 22.1454V15.2735H80.8651C81.3841 15.2735 81.827 15.3663 82.1939 15.552C82.5629 15.7354 82.8437 15.996 83.0361 16.3338C83.2307 16.6693 83.328 17.0642 83.328 17.5183C83.328 17.9746 83.2296 18.3672 83.0327 18.696C82.8359 19.0226 82.5506 19.2731 82.1771 19.4476C81.8057 19.6221 81.3561 19.7094 80.8282 19.7094H79.0129V18.5417H80.5933C80.8707 18.5417 81.1011 18.5036 81.2845 18.4276C81.468 18.3515 81.6044 18.2374 81.6939 18.0853C81.7856 17.9332 81.8315 17.7442 81.8315 17.5183C81.8315 17.2901 81.7856 17.0977 81.6939 16.9411C81.6044 16.7845 81.4668 16.666 81.2812 16.5855C81.0977 16.5027 80.8662 16.4613 80.5866 16.4613H79.6068V22.1454H78.1539ZM81.865 19.0181L83.5729 22.1454H81.969L80.298 19.0181H81.865Z" fill="white"/>
<path d="M14.9952 11.1477C14.9952 11.1477 15.6105 6.95562 8.8379 5.25084C8.8379 5.25084 5.14332 4.37588 0.013275 4.69834V16.8597C0.013275 16.8597 -0.141165 17.6315 0.603499 17.6541C0.603499 17.6541 5.93946 17.5734 9.63405 19.4739C13.3286 21.3743 14.4444 23.2048 14.4444 23.2048C14.4444 23.2048 14.7461 23.7573 15.0598 23.7519C15.3735 23.7466 15.6752 23.1532 15.6752 23.1532C15.6752 23.1532 17.4841 20.165 22.6022 18.5065C22.6022 18.5065 26.893 17.3488 29.394 17.5562C29.394 17.5562 29.971 17.6422 30.0094 16.9339C30.0477 16.2255 30.0094 5.04876 30.0094 5.04876C30.0094 5.04876 30.0345 4.56506 29.4646 4.50164C28.8947 4.43822 23.8521 4.3576 21.0435 5.22182C18.2348 6.08603 15.1233 7.7618 14.9952 11.1477Z" fill="white"/>
<path d="M14.9952 4.83703C16.4829 4.83703 17.6889 3.75422 17.6889 2.41851C17.6889 1.08281 16.4829 0 14.9952 0C13.5075 0 12.3014 1.08281 12.3014 2.41851C12.3014 3.75422 13.5075 4.83703 14.9952 4.83703Z" fill="white"/>
<path d="M0.732764 19.7641C1.09246 19.7641 1.38405 19.5023 1.38405 19.1793C1.38405 18.8564 1.09246 18.5946 0.732764 18.5946C0.373071 18.5946 0.0814819 18.8564 0.0814819 19.1793C0.0814819 19.5023 0.373071 19.7641 0.732764 19.7641Z" fill="white"/>
<path d="M0.732768 21.9644C1.09246 21.9644 1.38405 21.7026 1.38405 21.3796C1.38405 21.0567 1.09246 20.7949 0.732768 20.7949C0.373075 20.7949 0.0814857 21.0567 0.0814857 21.3796C0.0814857 21.7026 0.373075 21.9644 0.732768 21.9644Z" fill="white"/>
<path d="M1.77075 18.772V19.6931V19.7426C1.77075 19.7426 5.22111 19.4405 8.27399 21.2829C11.3269 23.1253 12.0452 24.1851 12.0452 24.1851L12.8952 23.6294C12.8952 23.6294 10.9162 21.3291 7.99145 20.0156C5.06666 18.7032 1.77075 18.772 1.77075 18.772Z" fill="white"/>
<path d="M1.77075 20.9604V21.7268V21.9192C1.77075 21.9192 7.10671 21.7892 10.3739 25.4084C10.6409 25.2794 11.1605 24.8311 11.1605 24.8311C11.1605 24.8311 9.46761 23.0887 7.00614 21.9966C4.54468 20.9045 1.77075 20.9604 1.77075 20.9604Z" fill="white"/>
<path d="M29.2946 19.6953C29.6543 19.6953 29.9459 19.4335 29.9459 19.1106C29.9459 18.7876 29.6543 18.5258 29.2946 18.5258C28.9349 18.5258 28.6434 18.7876 28.6434 19.1106C28.6434 19.4335 28.9349 19.6953 29.2946 19.6953Z" fill="white"/>
<path d="M29.2946 21.8946C29.6543 21.8946 29.9459 21.6328 29.9459 21.3098C29.9459 20.9869 29.6543 20.7251 29.2946 20.7251C28.9349 20.7251 28.6434 20.9869 28.6434 21.3098C28.6434 21.6328 28.9349 21.8946 29.2946 21.8946Z" fill="white"/>
<path d="M28.2567 18.7032V19.6244V19.6738C28.2567 19.6738 24.8063 19.3717 21.7534 21.2141C18.7005 23.0565 17.9822 24.1163 17.9822 24.1163L17.1322 23.5606C17.1322 23.5606 19.1112 21.2603 22.036 19.9468C24.9607 18.6344 28.2567 18.7032 28.2567 18.7032Z" fill="white"/>
<path d="M28.2567 20.8917V21.6581V21.8505C28.2567 21.8505 22.9207 21.7204 19.6535 25.3396C19.3866 25.2106 18.867 24.7624 18.867 24.7624C18.867 24.7624 20.5598 23.0199 23.0213 21.9279C25.4828 20.8358 28.2567 20.8917 28.2567 20.8917Z" fill="white"/>
</svg>
