<svg width="280" height="279" viewBox="0 0 280 279" fill="none" xmlns="http://www.w3.org/2000/svg">
<g clip-path="url(#clip0_77_14614)">
<path d="M119.908 278.975C117.931 278.37 115.888 278.05 113.872 277.607C110.087 276.776 106.295 275.963 102.498 275.184C101.864 275.054 101.645 274.77 101.64 274.165C101.631 273.169 101.558 272.176 101.54 271.183C101.426 265.288 101.366 259.391 101.188 253.499C101.12 251.201 101.081 248.906 101.072 246.609C101.069 245.949 100.834 245.602 100.206 245.371C97.9532 244.549 95.7319 243.642 93.5677 242.603C92.9856 242.322 92.6157 242.525 92.2162 242.898C89.9561 245.001 87.696 247.102 85.4268 249.199C81.6988 252.645 77.964 256.082 74.2314 259.526C73.3867 260.305 72.5306 261.07 71.7088 261.871C71.3755 262.198 71.1129 262.23 70.718 261.972C66.3188 259.094 61.9173 256.226 57.4999 253.376C57.0342 253.074 56.9931 252.78 57.146 252.3C59.2509 245.606 61.3443 238.908 63.4377 232.209C64.1386 229.969 64.8189 227.722 65.5472 225.49C65.7321 224.919 65.6271 224.536 65.1865 224.145C63.3168 222.485 61.4767 220.79 59.7371 218.993C59.3605 218.602 59.0294 218.739 58.639 218.897C53.6395 220.893 48.6376 222.882 43.6357 224.874C39.9853 226.326 36.3304 227.77 32.6868 229.243C32.1618 229.455 31.8673 229.359 31.5431 228.911C28.347 224.485 25.1418 220.064 21.9092 215.663C21.4572 215.049 21.5142 214.681 22.0073 214.108C25.2011 210.394 28.3447 206.64 31.5043 202.899C34.205 199.704 36.892 196.497 39.6178 193.325C40.152 192.704 40.2844 192.229 39.8483 191.455C38.7343 189.474 37.8143 187.392 36.9262 185.302C36.6523 184.658 36.3007 184.441 35.609 184.45C26.7284 184.587 17.8501 184.624 8.96959 184.61C6.74603 184.605 7.13412 184.934 6.55654 182.79C5.26441 177.985 3.97913 173.177 2.687 168.372C2.35597 167.143 2.33999 167.132 3.44036 166.538C11.2114 162.347 18.9779 158.15 26.7695 153.998C27.7786 153.461 28.2876 152.97 28.0776 151.675C27.7238 149.492 27.6005 147.265 27.5685 145.045C27.5594 144.46 27.2101 144.269 26.7581 144.086C23.2561 142.675 19.7587 141.252 16.2589 139.833C11.079 137.737 5.89906 135.64 0.719119 133.546C0.483979 133.45 0.239706 133.373 0 133.286C0 132.98 0 132.674 0 132.368C0.340155 130.717 0.406359 129.033 0.595842 127.364C0.995353 123.842 1.33551 120.316 1.69164 116.79C1.73502 116.354 1.94505 116.185 2.36967 116.128C9.89645 115.113 17.4232 114.09 24.95 113.067C27.1713 112.766 29.3926 112.446 31.6184 112.165C32.1047 112.103 32.3421 111.882 32.4563 111.434C32.9813 109.381 33.5863 107.353 34.2529 105.341C34.3899 104.925 34.3374 104.649 33.9812 104.348C29.8766 100.869 25.7856 97.3705 21.6923 93.8809C18.277 90.969 14.8641 88.0548 11.442 85.1498C11.1361 84.8918 11.0813 84.6611 11.2685 84.2957C13.8025 79.3444 16.3297 74.3885 18.8386 69.4235C19.0898 68.9256 19.366 68.7954 19.9207 68.9165C27.3699 70.5448 34.8236 72.1481 42.2774 73.7582C43.9462 74.119 45.6218 74.4616 47.2861 74.8475C47.8317 74.9732 48.2015 74.859 48.5303 74.3953C49.9936 72.3376 51.5209 70.3233 53.1555 68.398C53.4705 68.0258 53.2947 67.7495 53.1258 67.432C50.6762 62.8666 48.2289 58.3036 45.7794 53.7382C43.8252 50.0956 41.887 46.4437 39.9077 42.8148C39.6041 42.2575 39.668 41.9583 40.1406 41.5358C43.5079 38.5303 46.8455 35.4883 50.1945 32.4599C51.0826 31.656 51.0849 31.6697 52.1464 32.2635C60.3353 36.8563 68.5264 41.4445 76.7084 46.0486C77.19 46.3204 77.537 46.3478 78.0165 46.0235C80.0642 44.635 82.1737 43.3377 84.3356 42.1296C84.8629 41.835 85.0319 41.4719 84.9794 40.8941C84.5228 35.9176 84.0753 30.9412 83.637 25.9648C83.2695 21.7991 82.9133 17.6334 82.5572 13.4677C82.443 12.1363 82.4499 12.1271 83.7101 11.643C88.1846 9.91868 92.6705 8.21952 97.1313 6.46098C97.8664 6.17094 98.2523 6.27828 98.6974 6.9109C102.145 11.8165 105.619 16.7016 109.089 21.5913C110.98 24.2542 112.881 26.9103 114.758 29.5823C115.027 29.966 115.292 30.1396 115.769 30.03C118.257 29.4681 120.766 29.0091 123.291 28.6574C123.841 28.5797 123.901 28.1892 123.997 27.7964C124.526 25.5879 125.049 23.3795 125.572 21.1688C127.163 14.4406 128.754 7.71251 130.341 0.984395C130.416 0.664661 130.435 0.331224 130.478 0.00463867C136.756 0.00463867 143.036 0.00463867 149.314 0.00463867C150.161 3.5514 151.001 7.10045 151.855 10.6472C153.211 16.2768 154.588 21.9019 155.921 27.5383C156.097 28.2851 156.391 28.6094 157.202 28.7305C159.494 29.073 161.77 29.5412 164.044 29.9934C164.589 30.103 164.923 30.0094 165.254 29.5184C170.395 21.8745 175.561 14.2511 180.7 6.60715C181.077 6.04761 181.373 5.87404 182.044 6.13668C187.295 8.18755 192.557 10.211 197.829 12.2093C198.539 12.4788 198.781 12.7734 198.671 13.5956C197.66 21.1254 196.71 28.6642 195.742 36.1985C195.541 37.7652 195.352 39.3365 195.13 40.9009C195.043 41.5107 195.217 41.8807 195.785 42.1913C197.822 43.3081 199.812 44.5093 201.712 45.8431C202.394 46.3204 202.869 46.1925 203.49 45.7883C211.213 40.7685 218.952 35.7783 226.669 30.7516C227.267 30.3634 227.593 30.457 228.091 30.9115C231.903 34.3761 235.743 37.8109 239.583 41.2458C240.572 42.1296 240.583 42.1159 239.942 43.3035C235.659 51.226 231.383 59.1532 227.077 67.0643C226.692 67.7746 226.705 68.2587 227.251 68.8845C228.758 70.6156 230.123 72.4655 231.447 74.3405C231.796 74.8361 232.157 74.964 232.739 74.8361C239.389 73.3836 246.046 71.9494 252.701 70.5129C255.169 69.9807 257.641 69.4692 260.102 68.9096C260.668 68.7817 260.933 68.9599 261.18 69.444C263.937 74.8841 266.702 80.3196 269.496 85.7391C269.811 86.3511 269.697 86.648 269.165 87.0431C261.625 92.675 254.1 98.3274 246.578 103.984C245.384 104.882 245.58 104.594 245.957 105.907C246.484 107.746 247.048 109.575 247.557 111.418C247.694 111.918 247.934 112.103 248.445 112.165C255.326 113.001 262.205 113.867 269.083 114.716C271.788 115.05 274.496 115.374 277.206 115.684C277.849 115.758 278.244 115.917 278.317 116.71C278.61 119.96 278.979 123.2 279.331 126.446C279.523 128.216 279.737 129.986 279.941 131.756C279.941 132.267 279.941 132.777 279.941 133.288C278.4 133.749 276.941 134.432 275.455 135.035C268.126 138.011 260.812 141.019 253.477 143.981C252.785 144.26 252.473 144.616 252.445 145.356C252.358 147.802 252.162 150.243 251.881 152.675C251.824 153.171 252.08 153.349 252.441 153.543C256.801 155.884 261.159 158.232 265.517 160.58C269.291 162.612 273.058 164.659 276.845 166.664C277.484 167.002 277.623 167.328 277.429 168.036C275.904 173.597 274.411 179.168 272.95 184.747C272.754 185.494 272.432 185.759 271.679 185.649C270.008 185.407 268.318 185.496 266.636 185.412C261.924 185.179 257.205 185.069 252.491 184.9C249.687 184.8 246.884 184.692 244.083 184.555C243.576 184.53 243.359 184.722 243.17 185.151C242.167 187.442 241.126 189.717 239.937 191.92C239.734 192.297 239.786 192.571 240.058 192.882C243.528 196.863 246.991 200.846 250.454 204.833C253.13 207.914 255.794 211.006 258.481 214.078C258.837 214.485 258.735 214.777 258.465 215.149C254.95 219.975 251.436 224.801 247.943 229.645C247.557 230.179 247.199 230.01 246.763 229.823C243.434 228.391 240.106 226.963 236.773 225.538C231.588 223.323 226.399 221.117 221.219 218.885C220.772 218.694 220.487 218.735 220.146 219.082C218.359 220.902 216.539 222.695 214.597 224.351C214.209 224.682 214.314 225.008 214.43 225.378C215.505 228.811 216.58 232.246 217.656 235.681C219.368 241.162 221.073 246.643 222.801 252.12C223 252.748 222.922 253.138 222.331 253.52C218.06 256.265 213.802 259.03 209.558 261.817C208.972 262.2 208.606 262.212 208.061 261.7C202.356 256.37 196.623 251.071 190.895 245.766C189.79 244.743 188.667 243.743 187.571 242.71C187.263 242.42 186.992 242.375 186.615 242.55C184.323 243.615 181.992 244.59 179.615 245.451C179.042 245.659 179.017 246.042 179.017 246.529C179.015 250.64 179.011 254.75 178.988 258.861C178.958 263.941 178.901 269.02 178.878 274.099C178.876 274.686 178.705 274.953 178.104 275.079C172.885 276.164 167.671 277.264 162.464 278.404C161.788 278.552 161.546 278.246 161.284 277.767C158.414 272.5 155.54 267.238 152.661 261.976C150.787 258.551 148.899 255.134 147.034 251.704C146.792 251.259 146.499 251.128 145.99 251.158C142.016 251.4 138.039 251.416 134.064 251.153C133.526 251.119 133.222 251.245 132.987 251.747C128.98 260.27 124.958 268.785 120.947 277.305C120.686 277.856 120.34 278.372 120.214 278.982C120.111 278.975 120.011 278.975 119.908 278.975Z" fill="#0B2644"/>
<path d="M119.97 279C117.993 278.395 115.95 278.075 113.934 277.632C110.149 276.801 106.357 275.988 102.56 275.209C101.926 275.079 101.706 274.795 101.702 274.19C101.693 273.194 101.62 272.201 101.601 271.208C101.487 265.313 101.428 259.416 101.25 253.524C101.181 251.226 101.143 248.931 101.133 246.634C101.131 245.974 100.896 245.627 100.268 245.396C98.015 244.574 95.7937 243.667 93.6295 242.628C93.0473 242.347 92.6775 242.55 92.278 242.923C90.0179 245.026 87.7578 247.127 85.4886 249.224C81.7606 252.67 78.0257 256.107 74.2932 259.551C73.4485 260.33 72.5924 261.095 71.7705 261.896C71.4372 262.223 71.1747 262.255 70.7797 261.997C66.3806 259.119 61.9791 256.251 57.5616 253.401C57.0959 253.099 57.0548 252.805 57.2078 252.325C59.3126 245.631 61.4061 238.933 63.4995 232.234C64.2004 229.994 64.8807 227.747 65.6089 225.515C65.7939 224.944 65.6888 224.561 65.2482 224.17C63.3785 222.51 61.5385 220.815 59.7989 219.018C59.4222 218.627 59.0912 218.764 58.7008 218.922C53.7012 220.918 48.6994 222.907 43.6975 224.899C40.0471 226.351 36.3921 227.795 32.7486 229.268C32.2235 229.48 31.929 229.384 31.6049 228.936C28.4088 224.51 25.2036 220.089 21.9709 215.688C21.5189 215.074 21.576 214.706 22.0691 214.133C25.2629 210.419 28.4065 206.665 31.566 202.924C34.2667 199.729 36.9537 196.522 39.6795 193.35C40.2137 192.729 40.3462 192.254 39.9101 191.48C38.7961 189.5 37.876 187.417 36.988 185.327C36.714 184.683 36.3625 184.466 35.6707 184.475C26.7902 184.612 17.9119 184.649 9.03136 184.635C6.80779 184.63 7.19589 184.959 6.61831 182.815C5.32618 178.01 4.04089 173.202 2.74876 168.397C2.41774 167.168 2.40176 167.157 3.50213 166.563C11.2732 162.372 19.0397 158.175 26.8313 154.023C27.8403 153.486 28.3494 152.995 28.1394 151.7C27.7855 149.517 27.6623 147.29 27.6303 145.07C27.6212 144.486 27.2719 144.294 26.8199 144.111C23.3179 142.7 19.8204 141.277 16.3207 139.859C11.1408 137.762 5.96083 135.665 0.780887 133.571C0.545746 133.475 0.301474 133.398 0.0617676 133.311C0.0617676 133.005 0.0617676 132.699 0.0617676 132.393C0.401922 130.742 0.468127 129.058 0.657609 127.389C1.05712 123.867 1.39728 120.341 1.75341 116.815C1.79679 116.379 2.00681 116.21 2.43144 116.153C9.95822 115.139 17.485 114.115 25.0118 113.092C27.2331 112.791 29.4543 112.471 31.6802 112.19C32.1665 112.128 32.4039 111.907 32.518 111.459C33.0431 109.406 33.6481 107.378 34.3147 105.366C34.4517 104.95 34.3991 104.674 34.043 104.373C29.9383 100.894 25.8473 97.3956 21.7541 93.9059C18.3388 90.994 14.9259 88.0799 11.5038 85.1749C11.1978 84.9168 11.1431 84.6861 11.3303 84.3207C13.8643 79.3694 16.3915 74.4135 18.9004 69.4485C19.1515 68.9506 19.4278 68.8205 19.9825 68.9415C27.4317 70.5699 34.8854 72.1731 42.3391 73.7832C44.008 74.144 45.6836 74.4866 47.3479 74.8726C47.8935 74.9982 48.2633 74.884 48.5921 74.4204C50.0554 72.3627 51.5827 70.3483 53.2173 68.4231C53.5323 68.0508 53.3565 67.7745 53.1876 67.457C50.738 62.8917 48.2907 58.3286 45.8411 53.7633C43.887 50.1206 41.9488 46.4688 39.9695 42.8398C39.6658 42.2825 39.7298 41.9833 40.2023 41.5608C43.5696 38.5553 46.9073 35.5133 50.2563 32.485C51.1444 31.6811 51.1466 31.6948 52.2082 32.2886C60.397 36.8813 68.5881 41.4695 76.7701 46.0737C77.2518 46.3454 77.5988 46.3728 78.0782 46.0485C80.126 44.66 82.2354 43.3628 84.3974 42.1546C84.9247 41.86 85.0937 41.4969 85.0411 40.9191C84.5846 35.9427 84.1371 30.9662 83.6988 25.9898C83.3312 21.8241 82.9751 17.6584 82.619 13.4928C82.5048 12.1613 82.5117 12.1522 83.7718 11.668C88.2464 9.9437 92.7323 8.24455 97.1931 6.48601C97.9282 6.19596 98.314 6.3033 98.7592 6.93592C102.206 11.8416 105.681 16.7266 109.151 21.6163C111.041 24.2792 112.943 26.9353 114.82 29.6074C115.089 29.991 115.354 30.1646 115.831 30.055C118.319 29.4932 120.828 29.0341 123.353 28.6824C123.903 28.6048 123.963 28.2142 124.058 27.8214C124.588 25.613 125.111 23.4045 125.634 21.1938C127.225 14.4657 128.816 7.73754 130.403 1.00942C130.478 0.689686 130.496 0.356249 130.54 0.0296631C136.818 0.0296631 143.098 0.0296631 149.376 0.0296631C150.223 3.57643 151.063 7.12548 151.917 10.6722C153.273 16.3018 154.65 21.9269 155.983 27.5633C156.159 28.3101 156.453 28.6344 157.264 28.7555C159.556 29.0981 161.832 29.5662 164.105 30.0184C164.651 30.1281 164.984 30.0344 165.315 29.5434C170.452 21.8926 175.621 14.2693 180.757 6.62304C181.134 6.0635 181.431 5.88993 182.102 6.15257C187.352 8.20344 192.615 10.2269 197.886 12.2252C198.596 12.4947 198.838 12.7893 198.728 13.6115C197.717 21.1413 196.767 28.6801 195.799 36.2144C195.598 37.7811 195.409 39.3524 195.187 40.9168C195.101 41.5266 195.274 41.8966 195.843 42.2072C197.879 43.3239 199.87 44.5252 201.769 45.859C202.452 46.3363 202.926 46.2084 203.547 45.8042C211.271 40.7843 219.01 35.7942 226.726 30.7675C227.324 30.3793 227.651 30.4729 228.148 30.9274C231.961 34.3919 235.801 37.8268 239.64 41.2617C240.629 42.1455 240.64 42.1318 239.999 43.3194C235.716 51.2419 231.44 59.1691 227.135 67.0802C226.749 67.7905 226.762 68.2746 227.308 68.9004C228.815 70.6315 230.18 72.4814 231.504 74.3564C231.853 74.852 232.214 74.9799 232.796 74.852C239.446 73.3995 246.103 71.9653 252.758 70.5288C255.226 69.9966 257.698 69.485 260.159 68.9255C260.725 68.7976 260.99 68.9758 261.237 69.4599C263.995 74.9 266.759 80.3354 269.553 85.7549C269.869 86.367 269.754 86.6639 269.222 87.059C261.682 92.6909 254.157 98.3433 246.635 104C245.441 104.898 245.638 104.61 246.014 105.923C246.542 107.762 247.106 109.591 247.615 111.434C247.752 111.934 247.991 112.119 248.503 112.181C255.383 113.017 262.262 113.882 269.14 114.732C271.846 115.065 274.553 115.39 277.263 115.7C277.907 115.773 278.302 115.933 278.375 116.726C278.667 119.976 279.037 123.216 279.388 126.462C279.58 128.232 279.795 130.002 279.998 131.772C279.998 132.283 279.998 132.792 279.998 133.304C278.457 133.765 276.998 134.448 275.512 135.051C268.184 138.027 260.869 141.035 253.534 143.997C252.842 144.275 252.53 144.632 252.502 145.372C252.416 147.818 252.219 150.259 251.938 152.691C251.881 153.187 252.137 153.365 252.498 153.559C256.858 155.9 261.216 158.248 265.574 160.596C269.348 162.628 273.115 164.674 276.902 166.68C277.541 167.018 277.681 167.344 277.487 168.052C275.962 173.613 274.469 179.184 273.008 184.763C272.811 185.51 272.489 185.775 271.736 185.665C270.065 185.423 268.375 185.512 266.693 185.427C261.981 185.195 257.262 185.085 252.548 184.916C249.745 184.815 246.941 184.708 244.14 184.571C243.633 184.546 243.416 184.738 243.227 185.167C242.225 187.458 241.184 189.732 239.994 191.936C239.791 192.313 239.844 192.587 240.115 192.898C243.585 196.879 247.048 200.862 250.512 204.849C253.187 207.93 255.851 211.022 258.538 214.094C258.895 214.5 258.792 214.793 258.522 215.165C255.007 219.991 251.491 224.816 248 229.66C247.615 230.195 247.256 230.026 246.82 229.839C243.492 228.407 240.163 226.979 236.83 225.554C231.646 223.339 226.457 221.133 221.277 218.901C220.829 218.71 220.544 218.751 220.204 219.098C218.416 220.918 216.597 222.711 214.654 224.367C214.266 224.698 214.371 225.024 214.487 225.394C215.562 228.827 216.638 232.262 217.713 235.697C219.425 241.178 221.13 246.659 222.859 252.135C223.057 252.764 222.98 253.154 222.388 253.535C218.117 256.281 213.859 259.046 209.615 261.833C209.029 262.216 208.663 262.228 208.118 261.716C202.413 256.386 196.68 251.087 190.953 245.782C189.848 244.759 188.724 243.758 187.629 242.726C187.32 242.436 187.049 242.39 186.672 242.566C184.38 243.631 182.049 244.606 179.673 245.467C179.1 245.675 179.075 246.058 179.075 246.545C179.072 250.656 179.068 254.766 179.045 258.877C179.015 263.956 178.958 269.036 178.935 274.115C178.933 274.702 178.762 274.969 178.161 275.095C172.943 276.179 167.728 277.28 162.521 278.42C161.845 278.568 161.603 278.262 161.341 277.783C158.471 272.516 155.597 267.254 152.718 261.992C150.844 258.567 148.956 255.15 147.091 251.72C146.849 251.274 146.557 251.144 146.048 251.174C142.073 251.416 138.096 251.432 134.122 251.169C133.583 251.135 133.279 251.261 133.044 251.763C129.038 260.286 125.015 268.8 121.004 277.321C120.744 277.872 120.397 278.388 120.271 278.998C120.173 279 120.073 279 119.97 279Z" fill="#0B2644"/>
<path d="M34.9036 201.871C37.0815 199.272 39.2526 196.666 41.4419 194.076C42.613 192.69 42.6222 192.706 41.8026 191.128C40.4853 188.593 39.248 186.019 38.159 183.377C37.9216 182.799 37.6317 182.564 36.9856 182.568C30.1483 182.614 23.3087 182.584 16.4736 182.671C14.0765 182.703 11.6795 182.664 9.28241 182.755C8.66374 182.778 8.4423 182.559 8.29391 182.004C7.12962 177.596 5.95164 173.191 4.74626 168.792C4.58189 168.192 4.79191 167.95 5.28731 167.682C12.6337 163.743 19.971 159.783 27.3083 155.829C28.0275 155.443 28.7306 155.025 29.4703 154.683C30.0456 154.416 30.2442 154.041 30.1551 153.42C29.9177 151.755 29.7533 150.079 29.662 148.398C29.5798 146.87 29.4474 145.344 29.4086 143.816C29.3949 143.264 29.2032 143.017 28.7078 142.818C20.1308 139.358 11.5653 135.871 2.98384 132.423C2.25103 132.128 2.00675 131.824 2.10264 130.997C2.57977 126.898 2.97699 122.787 3.39249 118.679C3.45184 118.092 3.6573 117.84 4.31935 117.754C10.5312 116.941 16.7361 116.073 22.9434 115.225C25.9705 114.812 29 114.408 32.0271 113.988C32.4837 113.924 32.8809 114.083 33.2896 114.216C37.0496 115.422 40.8072 116.63 44.5672 117.836C44.7612 117.897 44.9576 117.945 45.1539 118C45.6653 118.197 45.4438 118.596 45.3708 118.911C44.7818 121.501 44.3526 124.119 43.9714 126.743C43.6061 129.264 43.4075 131.804 43.2317 134.35C43.0513 136.954 43.129 139.553 43.1175 142.152C43.1016 145.623 43.4212 149.074 43.8778 152.513C44.5307 157.428 45.5078 162.272 46.8935 167.034C48.2427 171.674 49.9298 176.183 51.9365 180.579C54.9499 187.177 58.7053 193.325 63.1136 199.078C66.159 203.052 69.4738 206.797 73.1128 210.234C79.3543 216.131 86.2282 221.162 93.7801 225.273C100.857 229.126 108.306 232.006 116.096 234.011C120.645 235.183 125.266 235.991 129.939 236.473C130.298 236.51 130.647 236.574 130.928 236.827C131.282 237.606 131.24 238.446 131.129 239.239C130.919 240.712 131.003 242.194 130.907 243.667C130.807 245.238 130.629 246.823 130.715 248.401C130.795 249.856 130.184 251.087 129.585 252.323C127.533 256.573 125.547 260.855 123.527 265.121C122.052 268.234 120.556 271.336 119.127 274.471C118.668 275.478 118.39 275.647 117.269 275.414C113.324 274.59 109.382 273.752 105.444 272.898C104.617 272.72 104.361 272.429 104.384 271.568C104.457 268.531 104.192 265.503 104.202 262.465C104.211 259.405 104.113 256.345 104.017 253.287C103.948 251.067 103.953 248.849 103.916 246.632C103.905 245.864 103.74 245.113 103.731 244.345C103.724 243.777 103.323 243.512 102.834 243.329C100.542 242.468 98.25 241.6 96.0128 240.6C95.0813 240.184 94.1339 239.801 93.2299 239.326C92.5975 238.994 92.0839 239.106 91.5702 239.595C88.6435 242.363 85.6711 245.083 82.717 247.821C79.3338 250.959 75.9094 254.054 72.5581 257.228C72.3161 257.457 72.0398 257.644 71.791 257.861C70.9007 258.64 70.8436 258.647 69.8825 258.019C67.0425 256.16 64.1957 254.314 61.3466 252.473C60.349 251.829 60.3262 251.715 60.68 250.594C63.3579 242.073 65.9901 233.538 68.6908 225.027C68.9465 224.218 68.9145 223.57 68.2091 222.971C65.7162 220.859 63.3579 218.605 61.0681 216.273C60.0842 215.272 60.018 215.266 58.7396 215.779C50.6466 219.041 42.5217 222.222 34.4265 225.479C33.0659 226.027 33.0065 226.022 32.1458 224.848C29.9588 221.866 27.7855 218.869 25.619 215.873C25.1053 215.165 25.1282 214.882 25.708 214.192C28.4932 210.869 31.2806 207.546 34.1206 204.271C34.7529 203.54 35.0269 202.801 34.9036 201.871Z" fill="#446AA1"/>
<path d="M130.782 237.001C128.309 236.642 125.825 236.391 123.362 235.962C114.744 234.466 106.478 231.864 98.5674 228.135C88.3582 223.323 79.2608 216.924 71.2751 208.953C64.1227 201.819 58.2145 193.761 53.562 184.786C48.5487 175.118 45.2681 164.892 43.6906 154.121C42.7409 147.637 42.4875 141.119 42.8437 134.574C43.1359 129.237 43.8367 123.963 45.0261 118.752C45.0832 118.505 45.1106 118.249 45.1517 117.998C45.3115 117.372 45.4713 116.746 45.6288 116.121C45.3138 115.863 45.3914 115.527 45.4713 115.209C45.8936 113.57 46.3365 111.934 46.8821 110.331C46.9872 110.025 47.0762 109.68 47.5099 109.678C47.7519 108.97 47.9939 108.26 48.2359 107.552C47.7679 107.166 48.0852 106.798 48.261 106.426C48.7564 104.734 49.4664 103.117 50.1581 101.502C52.7127 95.5503 55.8221 89.9002 59.5067 84.572C62.0339 80.9156 64.8053 77.4534 67.8028 74.1647C71.8892 69.6816 76.3364 65.5981 81.1716 61.944C84.8402 59.1737 88.6801 56.6547 92.714 54.4417C98.1428 51.4636 103.782 48.9674 109.669 47.0444C114.479 45.4731 119.383 44.2536 124.385 43.4908C127.355 43.0386 130.334 42.6183 133.348 42.4813C135.918 42.3648 138.489 42.125 141.062 42.2141C145.927 42.3831 150.778 42.6869 155.595 43.4885C161.275 44.434 166.836 45.8088 172.267 47.709C177.577 49.5657 182.688 51.8632 187.604 54.6107C193.101 57.6847 198.256 61.2497 203.059 65.3172C206.545 68.2702 209.812 71.4538 212.859 74.8681C216.113 78.5131 219.099 82.359 221.77 86.4425C225.822 92.6385 229.191 99.1839 231.682 106.168C231.814 106.631 232.098 107.058 232.006 107.572C231.851 108.269 232.326 108.801 232.488 109.415C232.801 109.575 232.958 109.838 233.072 110.169C233.613 111.756 234.075 113.369 234.506 114.99C234.618 115.413 234.668 115.826 234.472 116.237C234.597 116.838 234.54 117.5 235.068 117.959C235.339 118.318 235.378 118.749 235.438 119.174C236.029 121.241 236.321 123.365 236.659 125.48C237.097 128.225 237.401 130.991 237.545 133.763C237.718 137.12 237.894 140.482 237.638 143.851C237.508 145.552 237.453 147.258 237.319 148.962C237.113 151.533 236.727 154.075 236.305 156.617C234.896 165.077 232.33 173.173 228.753 180.96C225.112 188.894 220.443 196.166 214.852 202.865C213.035 205.041 211.12 207.131 209.118 209.122C202.682 215.521 195.537 220.996 187.59 225.417C181.997 228.528 176.166 231.076 170.084 233.052C165.322 234.6 160.466 235.79 155.515 236.546C153.451 236.861 151.39 237.236 149.294 237.304C148.872 237.355 148.454 237.368 148.068 237.145C147.408 237.149 146.746 237.154 146.086 237.158C145.735 237.576 145.269 237.668 144.751 237.679C143.619 237.702 142.482 237.61 141.352 237.768C140.384 237.821 139.413 237.811 138.443 237.77C137.315 237.606 136.181 237.711 135.051 237.674C134.631 237.661 134.245 237.604 134.037 237.174C133.409 237.165 132.782 237.156 132.156 237.147C131.661 237.425 131.195 237.446 130.782 237.001Z" fill="#0D3837"/>
<path d="M48.5599 106.483C48.4526 106.841 48.3453 107.2 48.2358 107.556C47.5988 107.6 47.0578 107.278 46.4893 107.079C43.0901 105.896 39.7022 104.686 36.3029 103.503C35.1524 103.101 34.3944 102.176 33.5064 101.44C30.8057 99.1998 28.1438 96.9137 25.4751 94.6345C23.2515 92.7366 21.0416 90.8205 18.8181 88.9181C17.2337 87.5615 15.6494 86.2049 14.0399 84.878C13.5788 84.4989 13.4464 84.202 13.7523 83.6105C15.832 79.591 17.8775 75.5532 19.9002 71.5063C20.1444 71.0175 20.4435 71.0084 20.8613 71.0975C23.7218 71.7141 26.5846 72.3307 29.4451 72.9451C32.7758 73.6622 36.1066 74.3702 39.4351 75.0941C42.2705 75.7131 45.1013 76.3457 47.9344 76.9828C48.5166 77.113 48.9526 77.0856 49.3567 76.501C51.2036 73.8266 53.1783 71.2436 55.3105 68.7862C55.6461 68.4003 55.6575 68.0851 55.4224 67.6489C51.7994 60.9436 48.1878 54.2338 44.5762 47.5239C43.7818 46.0486 43.0193 44.555 42.202 43.091C41.9532 42.6457 42.0217 42.3831 42.3846 42.0588C44.7429 39.9599 47.0875 37.8451 49.4343 35.7372C49.9639 35.2598 50.505 34.7939 51.0186 34.3006C51.2355 34.0928 51.4319 34.0403 51.6853 34.1842C53.8563 35.422 56.0182 36.6735 58.1984 37.8976C60.5544 39.2223 62.9263 40.5149 65.2846 41.8327C67.0927 42.8421 68.8893 43.8698 70.6928 44.8907C72.8456 46.1102 74.9984 47.3252 77.1489 48.5494C77.4252 48.7069 77.6261 48.5722 77.8338 48.4237C80.5231 46.5099 83.3585 44.8245 86.2395 43.2258C86.913 42.8512 87.0363 42.4447 86.9701 41.7824C86.8034 40.1426 86.6664 38.5006 86.5226 36.8585C86.2441 33.6657 85.9724 30.4752 85.6962 27.2825C85.4131 24.0052 85.1255 20.7302 84.8401 17.4529C84.7374 16.2836 84.646 15.1143 84.5296 13.9473C84.4862 13.5225 84.6369 13.3169 85.0433 13.1616C88.9516 11.6703 92.8531 10.1607 96.7546 8.65111C97.1336 8.50494 97.4076 8.43871 97.7135 8.87492C101.967 14.9156 106.245 20.938 110.514 26.9673C111.708 28.6528 112.906 30.3382 114.091 32.0328C114.226 32.2246 114.361 32.3343 114.589 32.2772C117.91 31.4482 121.275 30.8429 124.67 30.4159C125.277 30.3405 125.444 30.0002 125.561 29.5001C126.581 25.1128 127.604 20.7279 128.64 16.3453C129.759 11.6178 130.891 6.89257 132.019 2.16736C132.035 2.09656 132.087 2.03489 132.124 1.96866C132.293 1.88873 132.473 1.91614 132.651 1.91614C137.486 1.91385 142.322 1.91385 147.157 1.91842C147.356 1.91842 147.566 1.86361 147.748 2.00064C148.524 5.19341 149.303 8.3839 150.079 11.5767C151.013 15.4135 151.951 19.248 152.878 23.0848C153.394 25.2248 153.903 27.3647 154.387 29.5115C154.503 30.0253 154.697 30.3999 155.259 30.4593C158.549 30.8018 161.777 31.503 165.003 32.1927C165.598 32.3206 165.824 32.0648 166.091 31.6674C168.084 28.7007 170.084 25.7363 172.082 22.7719C175.216 18.1244 178.355 13.4814 181.478 8.82468C181.8 8.34508 182.12 8.25372 182.649 8.46155C186.48 9.96202 190.32 11.4442 194.16 12.9241C194.82 13.1776 195.484 13.4174 196.158 13.6298C196.546 13.7531 196.653 13.9359 196.594 14.3561C196.333 16.2014 196.128 18.0559 195.881 19.9035C195.646 21.678 195.372 23.4479 195.144 25.2225C194.916 26.9993 194.742 28.7807 194.514 30.5575C194.231 32.7591 193.909 34.9561 193.619 37.1554C193.441 38.5051 193.391 39.8823 193.092 41.2046C192.783 42.5726 193.37 43.107 194.507 43.71C196.998 45.0323 199.406 46.519 201.691 48.1839C202.246 48.5882 202.659 48.579 203.251 48.1885C206.335 46.1468 209.456 44.1599 212.563 42.1524C213.592 42.616 213.642 42.9609 212.75 43.6026C211.33 44.6258 209.805 45.4913 208.362 46.4802C206.979 47.4303 205.49 48.2182 204.166 49.2596C203.009 50.1686 202.522 50.1709 201.296 49.4035C199.358 48.1885 197.466 46.9027 195.491 45.7471C194.505 45.1693 193.493 44.6395 192.525 44.0274C191.977 43.6803 191.583 43.2737 191.423 42.6457C191.407 42.5361 191.404 42.4242 191.411 42.3145C191.462 41.9902 191.587 41.6751 191.548 41.3371C191.546 41.232 191.56 41.1292 191.58 41.0265C191.717 40.7433 191.847 40.4578 191.717 40.1335C191.708 40.0284 191.71 39.9257 191.724 39.8229C191.809 39.5169 191.911 39.2108 191.856 38.8843C191.854 38.7792 191.863 38.6764 191.882 38.5759C192 38.279 192.08 37.9753 192.016 37.6487C192.016 37.5437 192.025 37.4409 192.046 37.3381C192.238 37.0641 192.302 36.7694 192.185 36.4474C192.181 36.3766 192.185 36.3081 192.192 36.2396C192.281 35.961 192.336 35.6778 192.309 35.3809C192.306 35.2758 192.315 35.173 192.329 35.0703C192.414 34.762 192.507 34.4559 192.468 34.1271C192.466 34.022 192.48 33.9192 192.5 33.8165C192.656 33.531 192.751 33.2364 192.64 32.9098C192.635 32.8025 192.642 32.6974 192.658 32.5923C192.838 32.3046 192.868 31.9963 192.786 31.6697C192.783 31.5646 192.79 31.4596 192.808 31.3545C192.989 31.0736 193.025 30.7699 192.934 30.4501C192.927 30.3473 192.932 30.2446 192.945 30.1418C192.98 29.8883 193.046 29.6417 193.062 29.3836C193.066 29.2785 193.078 29.1758 193.094 29.073C193.178 28.7738 193.26 28.4746 193.233 28.1572C193.231 28.0498 193.245 27.9448 193.265 27.8397C193.418 27.5542 193.521 27.2619 193.404 26.933C193.4 26.8257 193.407 26.7207 193.423 26.6179C193.598 26.3347 193.644 26.0309 193.548 25.7089C193.541 25.6039 193.548 25.5011 193.566 25.3983C193.681 25.0969 193.763 24.7931 193.699 24.4665C193.694 24.3615 193.706 24.2587 193.724 24.1559C193.79 23.9161 193.891 23.6832 193.831 23.4228C193.836 23.3178 193.847 23.2127 193.863 23.1077C193.941 22.8085 194.037 22.5139 193.998 22.1964C193.996 22.0891 194.002 21.9817 194.018 21.8744C194.096 21.5729 194.185 21.2738 194.153 20.9563C194.151 20.849 194.162 20.7439 194.183 20.6411C194.329 20.3579 194.445 20.0702 194.32 19.7459C194.311 19.6408 194.317 19.5358 194.331 19.4307C194.441 19.1247 194.525 18.8164 194.464 18.4852C194.464 18.3802 194.473 18.2751 194.493 18.17C194.68 17.8869 194.706 17.5831 194.619 17.2611C194.612 17.156 194.617 17.051 194.628 16.9482C194.653 16.681 194.728 16.4229 194.747 16.1534C194.751 16.0438 194.765 15.9365 194.783 15.8314C194.98 14.9179 194.854 14.5845 193.973 14.2213C191.955 13.3877 189.9 12.6478 187.866 11.853C186.567 11.346 185.247 10.8847 183.967 10.3297C183.565 10.1539 183.195 10.1242 182.802 10.3023C182.663 10.3411 182.538 10.4119 182.421 10.4964C181.478 10.9349 181.04 11.8279 180.54 12.6432C179.716 13.9907 178.784 15.265 177.906 16.5737C176.244 19.0447 174.529 21.4816 172.913 23.9846C171.408 26.3141 169.774 28.5523 168.228 30.8544C167.747 31.5738 167.285 32.3046 166.767 33.0011C166.361 33.5447 165.886 33.7114 165.245 33.5744C163.58 33.2158 161.923 32.823 160.238 32.5695C159.418 32.4462 158.603 32.2201 157.761 32.3799C157.686 32.3731 157.61 32.3571 157.537 32.3388C156.967 32.0671 156.389 31.8295 155.736 32.0397C155.627 32.0442 155.519 32.0351 155.412 32.0168C155.131 31.9095 154.844 31.8455 154.538 31.8752C154.417 31.8638 154.302 31.8341 154.207 31.7565C153.122 30.779 153.022 29.379 152.714 28.0978C151.944 24.9073 151.157 21.7191 150.401 18.524C149.664 15.4021 148.894 12.2892 148.143 9.16953C147.817 7.80838 147.49 6.44723 147.164 5.08607C147.043 4.58135 146.714 4.24334 146.422 3.86651C146.107 3.58332 145.716 3.59702 145.335 3.59702C141.762 3.59474 138.19 3.59017 134.617 3.59931C133.635 3.60159 133.418 3.75917 133.188 4.7298C132.151 9.07361 131.126 13.4197 130.099 17.7658C129.081 22.0617 128.056 26.3552 127.056 30.6557C126.857 31.5075 126.423 31.8615 125.554 31.9757C121.96 32.4416 118.394 33.0765 114.876 33.9535C113.991 34.175 113.404 33.9718 112.865 33.1998C108.343 26.7412 103.745 20.3351 99.1974 13.8947C98.5947 13.0406 97.976 12.1956 97.3756 11.3392C96.9852 10.7842 96.5012 10.6083 95.8506 10.8618C92.9513 11.9923 90.0269 13.0634 87.1367 14.2145C86.5614 14.4429 86.3354 14.822 86.3879 15.4614C86.7555 19.9834 87.171 24.5008 87.5453 29.0205C87.8878 33.1587 88.2668 37.297 88.6183 41.4353C88.8557 44.2375 88.922 43.6437 86.7007 44.9227C83.8699 46.5533 81.0893 48.2639 78.3977 50.1206C77.7882 50.5408 77.3019 50.5363 76.665 50.1754C70.5125 46.7017 64.3486 43.2441 58.1847 39.7909C56.315 38.7449 54.4544 37.6807 52.5756 36.6507C51.7309 36.1871 51.457 36.2236 50.7401 36.8676C48.859 38.5508 47.0053 40.2637 45.1036 41.924C44.1996 42.7142 44.163 42.9974 44.7361 44.0845C47.1559 48.6635 49.6215 53.2175 52.0688 57.7828C53.7559 60.9322 55.4155 64.0953 57.1437 67.2195C57.7715 68.3569 57.7761 68.4505 56.9634 69.4417C54.6667 72.2462 52.3678 75.0485 50.3863 78.0882C49.7676 79.0383 49.0325 78.9424 48.1444 78.7437C43.4667 77.6908 38.7708 76.7088 34.0862 75.6856C30.2738 74.8521 26.459 74.0276 22.642 73.21C21.1832 72.8971 21.0873 72.9473 20.4389 74.2583C19.0372 77.0948 17.5876 79.9084 16.1356 82.7198C15.6083 83.7429 15.6311 83.9257 16.5169 84.6884C19.0121 86.8352 21.5188 88.9637 24.0231 91.0968C27.7123 94.2394 31.4129 97.3682 35.0862 100.529C36.0495 101.36 37.0928 101.975 38.3051 102.377C41.403 103.404 44.4712 104.528 47.5509 105.613C47.9778 105.768 48.5371 105.832 48.5599 106.483Z" fill="#4D83B2"/>
<path d="M148.068 237.149C148.461 236.909 148.894 237.008 149.314 236.992C149.705 237.302 149.855 237.718 149.837 238.207C149.744 240.657 150.047 243.099 150.008 245.549C149.988 246.821 150.198 248.091 150.168 249.368C150.157 249.87 150.406 250.304 150.638 250.729C152.214 253.618 153.791 256.507 155.375 259.394C157.597 263.443 159.809 267.496 162.03 271.548C162.398 272.219 162.793 272.877 163.131 273.565C163.416 274.145 163.866 274.359 164.514 274.229C167.742 273.583 170.952 272.859 174.173 272.183C175.091 271.991 175.248 271.747 175.271 270.808C175.273 270.758 175.271 270.705 175.271 270.655C175.267 262.029 175.531 253.403 175.426 244.777C175.424 244.546 175.442 244.316 175.429 244.087C175.392 243.441 175.664 243.046 176.287 242.818C178.323 242.075 180.351 241.303 182.35 240.461C183.903 239.805 185.432 239.102 186.964 238.408C187.556 238.14 187.994 238.204 188.482 238.645C191.172 241.07 193.792 243.569 196.466 246.013C199.44 248.73 202.379 251.487 205.358 254.2C206.355 255.109 207.364 256.011 208.328 256.961C208.985 257.608 209.291 257.628 210.077 257.121C212.69 255.431 215.302 253.734 217.907 252.031C218.615 251.567 218.729 251.236 218.441 250.329C217.348 246.874 216.277 243.411 215.197 239.951C213.592 234.811 211.976 229.674 210.362 224.538C210.129 223.8 210.282 223.261 210.866 222.779C213.711 220.443 216.297 217.833 218.863 215.202C219.471 214.578 219.982 214.402 220.854 214.772C227.05 217.412 233.228 220.103 239.428 222.729C241.471 223.595 243.512 224.469 245.555 225.335C245.841 225.456 246.126 225.563 246.441 225.465C246.987 225.326 247.341 224.974 247.663 224.515C249.477 221.916 251.37 219.374 253.265 216.832C253.584 216.405 253.84 215.937 254.183 215.526C254.488 215.156 254.317 214.816 254.091 214.487C254.023 214.402 253.957 214.316 253.895 214.227C253.746 213.82 253.753 213.295 253.135 213.256C253.066 213.219 253.011 213.169 252.961 213.11C252.815 212.669 252.628 212.267 252.112 212.151C252.025 212.077 251.948 211.993 251.881 211.899C251.658 210.915 250.986 210.314 250.137 209.864C250.048 209.789 249.971 209.707 249.902 209.613C249.681 208.62 249.003 208.019 248.149 207.567C248.06 207.492 247.982 207.409 247.914 207.316C247.685 206.334 247.035 205.715 246.169 205.279C246.083 205.205 246.003 205.126 245.927 205.041C245.713 204.491 245.441 203.988 245.033 203.538C244.784 203.266 244.549 203.056 244.197 202.976C244.101 202.91 244.021 202.83 243.944 202.746C243.724 202.195 243.453 201.693 243.042 201.243C242.793 200.971 242.558 200.761 242.206 200.679C242.11 200.613 242.031 200.533 241.953 200.448C241.734 199.9 241.462 199.398 241.053 198.948C240.805 198.676 240.574 198.464 240.22 198.384C240.124 198.32 240.044 198.238 239.967 198.153C239.718 197.79 239.672 197.258 239.12 197.153C239.033 197.08 238.953 196.997 238.885 196.906C238.713 196.589 238.732 196.12 238.216 196.082C238.122 196.015 238.045 195.933 237.969 195.849C237.736 195.474 237.67 194.96 237.122 194.851C237.033 194.775 236.953 194.693 236.885 194.599C236.725 194.248 236.689 193.807 236.207 193.697C236.111 193.615 236.056 193.51 236.031 193.387C235.99 192.638 236.214 191.98 236.595 191.331C238.241 188.522 239.526 185.537 240.805 182.55C241.042 181.997 241.243 181.417 241.656 180.956C241.958 180.86 242.261 180.858 242.567 180.922C243.149 181.522 243.775 181.621 244.471 181.102C244.587 181.015 244.765 181.038 244.916 181.022C245.459 181.004 246.003 180.965 246.539 181.075C247.115 181.655 247.729 181.808 248.425 181.267C248.539 181.177 248.715 181.2 248.866 181.18C249.231 181.159 249.594 181.15 249.952 181.235C250.251 181.308 250.318 181.616 250.516 181.796C251.023 182.253 250.975 182.436 250.345 182.824C249.993 182.815 249.637 182.895 249.29 182.774C248.633 182.76 247.975 182.746 247.315 182.733C246.653 182.582 245.971 182.785 245.309 182.619C244.544 182.614 243.777 182.641 243.012 182.593C242.405 182.555 242.056 182.721 241.805 183.331C240.585 186.284 239.211 189.166 237.675 191.968C237.389 192.489 237.408 192.784 237.841 193.266C239.316 194.894 240.684 196.618 242.115 198.285C243.284 199.647 244.498 200.974 245.674 202.33C247.144 204.027 248.585 205.749 250.055 207.446C250.916 208.439 251.817 209.399 252.685 210.387C253.769 211.623 254.84 212.868 255.908 214.117C256.303 214.578 256.191 214.944 255.819 215.444C252.925 219.351 250.069 223.286 247.24 227.242C246.909 227.703 246.647 227.68 246.233 227.505C243.599 226.379 240.962 225.26 238.325 224.136C233.143 221.93 227.961 219.724 222.779 217.515C222.055 217.207 221.322 216.921 220.619 216.577C220.254 216.398 220.025 216.456 219.752 216.734C218.982 217.518 218.176 218.262 217.409 219.045C215.777 220.715 214.056 222.286 212.243 223.755C211.971 223.976 211.994 224.184 212.088 224.481C213.035 227.45 213.976 230.419 214.9 233.395C216.279 237.821 217.619 242.258 219.026 246.675C219.555 248.342 220.096 250.005 220.603 251.677C220.715 252.042 220.669 252.213 220.354 252.419C217.56 254.228 214.777 256.052 211.99 257.873C211.145 258.423 210.268 258.932 209.467 259.54C209.051 259.855 208.787 259.75 208.485 259.478C207.748 258.811 207.02 258.137 206.291 257.459C203.251 254.629 200.219 251.793 197.173 248.972C194.053 246.083 190.916 243.21 187.788 240.328C187.59 240.143 187.409 239.999 187.119 240.143C183.889 241.76 180.488 242.975 177.152 244.35C177.034 246.33 177.136 248.312 177.097 250.293C177.091 250.621 177.155 250.953 177.047 251.277C177.031 255.504 177.015 259.732 176.999 263.961C176.881 266.227 176.99 268.495 176.942 270.76C176.924 271.594 177.054 272.434 176.862 273.263C175.577 273.745 174.214 273.903 172.885 274.199C169.749 274.903 166.598 275.536 163.459 276.218C162.927 276.335 162.619 276.28 162.327 275.732C160.74 272.752 159.099 269.803 157.48 266.841C154.679 261.716 151.905 256.575 149.063 251.473C148.52 250.498 148.435 249.507 148.403 248.463C148.296 244.695 148.182 240.922 148.068 237.149Z" fill="#4E83B2"/>
<path d="M130.781 237.001C131.245 237.007 131.715 236.939 132.156 237.154C131.952 241.404 131.745 245.654 131.551 249.904C131.514 250.71 131.058 251.341 130.74 252.026C129.635 254.419 128.503 256.799 127.373 259.179C126.622 260.759 125.846 262.328 125.095 263.908C123.398 267.48 121.711 271.057 120.022 274.633C119.785 275.138 119.552 275.647 119.346 276.166C119.164 276.625 118.851 276.759 118.39 276.661C114.488 275.819 110.587 274.978 106.683 274.14C105.82 273.955 104.955 273.775 104.085 273.612C103.706 273.542 103.503 273.379 103.514 272.959C103.53 272.272 103.505 271.582 103.496 270.895C103.341 269.764 103.544 268.622 103.391 267.489C103.375 266.274 103.359 265.062 103.343 263.847C103.19 262.664 103.391 261.472 103.236 260.289C103.222 259.122 103.211 257.952 103.197 256.785C103.023 255.609 103.245 254.419 103.08 253.243C103.067 252.076 103.055 250.907 103.042 249.74C102.868 248.563 103.09 247.374 102.925 246.197C103.158 244.802 102.594 244.133 101.199 243.692C98.421 242.813 95.7591 241.586 93.1246 240.33C92.6886 240.122 92.3849 240.136 91.9945 240.492C90.0244 242.283 88.0862 244.108 86.132 245.914C83.9906 247.894 81.8378 249.861 79.7079 251.854C77.8382 253.604 75.9365 255.317 74.0622 257.059C73.2449 257.82 72.4277 258.583 71.6126 259.345C71.2611 259.674 70.9186 259.877 70.3799 259.523C66.8048 257.16 63.2115 254.828 59.6091 252.505C59.2004 252.24 59.2506 251.987 59.3694 251.61C60.1775 249.05 60.9583 246.481 61.7596 243.92C63.7708 237.492 65.7912 231.067 67.8025 224.638C67.8983 224.332 67.9897 224.056 67.6449 223.768C65.0995 221.642 62.7207 219.338 60.4286 216.942C59.9949 216.487 59.6319 216.391 59.0383 216.633C55.1094 218.23 51.1691 219.792 47.2288 221.363C42.6082 223.206 37.9875 225.042 33.3692 226.892C32.819 227.114 32.488 227.029 32.1113 226.502C29.5476 222.912 26.9519 219.347 24.3311 215.798C23.8996 215.211 23.8654 214.806 24.3562 214.24C26.1415 212.189 27.8902 210.102 29.6435 208.024C31.2164 206.158 32.7779 204.283 34.3508 202.414C34.5152 202.22 34.7115 202.054 34.8919 201.875C35.0197 202.033 35.1316 202.211 35.28 202.346C35.6612 202.695 35.6407 203.029 35.3188 203.408C33.5495 205.484 31.7848 207.562 30.0224 209.645C28.639 211.28 27.2669 212.925 25.8744 214.551C25.5639 214.914 25.589 215.224 25.847 215.578C28.1504 218.732 30.4562 221.882 32.7437 225.045C33.1067 225.547 33.4742 225.444 33.9376 225.257C41.9233 222.064 49.9112 218.883 57.9014 215.697C58.495 215.462 59.0863 215.227 59.6776 214.985C60.0497 214.832 60.3236 214.886 60.6181 215.213C62.9764 217.832 65.5675 220.217 68.2385 222.507C69.5169 223.604 69.5466 223.56 69.0398 225.173C66.3505 233.746 63.6727 242.322 60.9697 250.888C60.7893 251.464 60.9309 251.775 61.4148 252.085C64.3781 253.988 67.3299 255.908 70.2771 257.838C70.6812 258.103 70.9803 258.121 71.3547 257.772C73.3636 255.89 75.3886 254.024 77.4158 252.16C81.0913 248.778 84.776 245.403 88.4492 242.018C89.4993 241.05 90.5472 240.079 91.5562 239.07C92.0197 238.606 92.4283 238.494 93.0401 238.8C96.38 240.463 99.8409 241.842 103.352 243.089C103.932 243.295 104.105 243.605 104.151 244.201C104.341 246.7 104.208 249.203 104.302 251.699C104.473 256.39 104.512 261.083 104.631 265.774C104.678 267.686 104.724 269.597 104.74 271.511C104.745 272.13 104.998 272.432 105.603 272.557C109.548 273.382 113.493 274.22 117.431 275.076C118.102 275.222 118.465 275.01 118.748 274.393C120.257 271.128 121.796 267.875 123.33 264.621C125.54 259.935 127.754 255.253 129.964 250.569C130.185 250.098 130.275 249.591 130.297 249.082C130.416 246.28 130.505 243.477 130.628 240.677C130.685 239.446 130.838 238.227 130.781 237.001Z" fill="#4E83B2"/>
<path d="M191.734 42.5887C192.154 43.8722 193.373 44.2262 194.375 44.788C196.913 46.2085 199.336 47.8118 201.769 49.399C202.283 49.7347 202.723 49.801 203.244 49.4607C206.214 47.5286 209.18 45.5896 212.175 43.6986C212.88 43.2533 213.184 42.8582 212.558 42.1547C217.22 39.1401 221.884 36.13 226.534 33.0971C226.936 32.8345 227.221 32.8094 227.605 33.0926C228.26 33.5767 228.781 34.2048 229.406 34.7255C230.728 35.8263 231.943 37.055 233.223 38.2083C234.463 39.3251 235.712 40.435 236.992 41.5039C238.024 42.3671 238.125 42.5247 237.506 43.6803C235.935 46.631 234.324 49.5589 232.739 52.5027C231.504 54.8002 230.297 57.1114 229.055 59.4067C227.598 62.1016 226.176 64.8216 224.614 67.4548C224.124 68.2816 224.557 68.6767 224.95 69.1312C227.002 71.5041 228.851 74.0322 230.666 76.5832C230.956 76.9921 231.239 77.1177 231.678 77.0217C236.68 75.9324 241.681 74.8407 246.686 73.7536C250.772 72.8652 254.861 71.9814 258.952 71.1067C259.454 70.9993 259.822 71.0838 260.105 71.6525C261.789 75.0394 263.504 78.4126 265.259 81.7629C265.896 82.9779 266.499 84.2112 267.134 85.4262C267.344 85.8304 267.275 86.0588 266.935 86.3123C261.146 90.6356 255.356 94.9634 249.574 99.2958C248.058 100.431 246.544 101.568 245.053 102.737C244.396 103.254 243.62 103.464 242.864 103.733C239.248 105.021 235.627 106.3 232.009 107.584C231.486 107.319 231.564 106.771 231.413 106.328C231.552 105.944 231.895 105.832 232.235 105.709C235.671 104.482 239.115 103.286 242.556 102.071C243.238 101.829 243.859 101.513 244.439 101.079C251.028 96.1327 257.614 91.1791 264.191 86.2141C265.15 85.4901 265.186 85.3325 264.645 84.2409C262.935 80.7878 261.102 77.3963 259.413 73.934C258.959 73.0022 258.771 72.9132 257.712 73.1415C253.199 74.1099 248.688 75.0942 244.177 76.0694C240.013 76.9692 235.846 77.8485 231.691 78.7871C230.692 79.0132 230.105 78.7597 229.527 77.9124C227.482 74.9206 225.283 72.043 222.904 69.3025C222.268 68.5671 222.245 68.4072 222.722 67.5371C225.573 62.3231 228.37 57.0772 231.212 51.8587C232.65 49.214 234.075 46.5625 235.504 43.9133C235.96 43.0683 235.881 42.8399 235.189 42.1981C232.869 40.0491 230.475 37.9845 228.162 35.8286C227.194 34.9288 226.954 34.9082 225.84 35.6253C219.749 39.5489 213.672 43.4908 207.593 47.4304C206.159 48.3599 204.721 49.2848 203.287 50.2143C202.719 50.582 202.29 50.5912 201.705 50.1846C198.626 48.0401 195.434 46.0715 192.133 44.2855C191.861 44.1394 191.594 43.9886 191.414 43.7306C191.094 43.2784 191.213 42.8696 191.734 42.5887Z" fill="#4D83B2"/>
<path d="M250.381 182.76C250.838 182.125 250.078 181.949 249.923 181.547C250.062 181.118 250.448 181.152 250.754 181.18C252.482 181.333 254.219 181.246 255.945 181.403C256.148 181.422 256.351 181.465 256.555 181.456C258.648 181.374 260.735 181.577 262.821 181.655C264.549 181.721 266.289 181.652 268.01 181.892C268.289 181.931 268.57 181.926 268.85 181.917C269.711 181.888 269.962 181.705 270.204 180.855C270.955 178.231 271.629 175.584 272.336 172.947C272.594 171.985 272.864 171.028 273.112 170.064C273.341 169.174 273.222 168.845 272.444 168.425C268.334 166.212 264.223 164.001 260.116 161.783C256.367 159.76 252.612 157.752 248.868 155.72C248.16 155.336 247.95 154.834 248.048 154.1C248.548 150.332 248.854 146.548 248.93 142.748C248.943 141.994 249.404 141.747 249.961 141.514C252.482 140.466 255.016 139.454 257.541 138.415C263.367 136.017 269.22 133.683 275.035 131.258C275.939 130.881 276.119 130.63 276.019 129.689C275.676 126.496 275.395 123.294 274.985 120.108C274.866 119.183 274.731 119.051 273.779 118.927C270.645 118.519 267.508 118.121 264.369 117.751C261.23 117.381 258.098 116.959 254.956 116.596C252.753 116.34 250.553 116.059 248.354 115.783C247.752 115.707 247.192 115.885 246.635 116.073C243.275 117.205 239.887 118.251 236.522 119.377C236.056 119.533 235.492 119.887 235.109 119.19C235.052 118.784 234.73 118.386 235.065 117.966C237.526 117.185 239.99 116.411 242.451 115.623C243.969 115.136 245.494 114.661 246.994 114.122C247.592 113.908 248.156 114.093 248.708 114.15C251.617 114.458 254.518 114.842 257.422 115.2C260.326 115.557 263.232 115.906 266.134 116.274C269.236 116.669 272.327 117.167 275.439 117.441C276.468 117.532 276.521 117.932 276.599 118.726C277.005 122.862 277.461 126.992 277.918 131.123C277.977 131.667 277.904 131.986 277.306 132.222C272.932 133.946 268.572 135.704 264.221 137.481C260.127 139.151 256.068 140.905 251.95 142.508C250.856 142.933 250.53 143.421 250.509 144.598C250.466 147.021 250.311 149.451 249.961 151.862C249.882 152.406 249.877 152.97 249.783 153.518C249.678 154.137 249.95 154.445 250.498 154.733C252.918 155.994 255.303 157.316 257.707 158.609C261.111 160.443 264.517 162.272 267.923 164.099C270.263 165.355 272.603 166.613 274.953 167.851C275.288 168.027 275.384 168.192 275.281 168.564C274.635 170.909 274.007 173.259 273.38 175.612C272.752 177.959 272.145 180.312 271.489 182.65C271.389 183.009 271.528 183.58 270.9 183.66C270.238 183.509 269.558 183.715 268.896 183.543C268.236 183.532 267.576 183.518 266.919 183.507C266.303 183.358 265.666 183.55 265.049 183.402C264.396 183.386 263.743 183.372 263.093 183.356C262.431 183.199 261.746 183.411 261.084 183.242C260.426 183.228 259.769 183.215 259.111 183.201C258.449 183.048 257.769 183.256 257.107 183.084C256.447 183.073 255.787 183.059 255.13 183.048C254.514 182.899 253.877 183.091 253.26 182.943C252.557 182.927 251.854 182.911 251.149 182.895C250.907 182.756 250.61 182.95 250.381 182.76Z" fill="#4D82B1"/>
<path d="M141.363 237.325C142.938 237.295 144.518 237.393 146.086 237.165C146.317 240.038 146.31 242.923 146.417 245.8C146.451 246.718 146.481 247.636 146.538 248.552C146.568 249.036 146.394 249.233 145.894 249.26C141.995 249.468 138.098 249.452 134.197 249.262C133.646 249.235 133.503 248.988 133.525 248.491C133.658 245.741 133.774 242.989 133.898 240.237C133.943 239.218 133.989 238.2 134.032 237.181C135.498 237.355 136.968 237.316 138.438 237.318C139.418 237.428 140.39 237.416 141.363 237.325Z" fill="#3D469A"/>
<path d="M234.469 116.246C233.81 113.972 233.148 111.697 232.488 109.425C235.949 108.219 239.412 107.013 242.873 105.809C243.802 105.485 243.818 105.48 244.094 106.398C244.615 108.13 245.096 109.874 245.637 111.599C245.85 112.277 245.706 112.583 244.998 112.809C241.478 113.924 237.976 115.095 234.469 116.246Z" fill="#3D469A"/>
<path d="M47.51 109.685C46.7794 111.802 46.1927 113.96 45.6289 116.127C43.3802 115.568 41.2137 114.741 38.9993 114.067C37.5861 113.638 36.1913 113.152 34.7804 112.715C34.3398 112.578 34.1481 112.403 34.301 111.905C34.8877 109.982 35.447 108.05 36.0064 106.117C36.1388 105.663 36.3488 105.517 36.8396 105.693C40.2183 106.901 43.6085 108.084 46.9918 109.281C47.2041 109.354 47.4415 109.418 47.51 109.685Z" fill="#3D469A"/>
<path d="M147.746 1.99836C142.538 1.98923 137.331 1.97781 132.124 1.96868C132.377 1.79967 132.667 1.85677 132.941 1.85677C137.607 1.8522 142.276 1.8522 146.942 1.85905C147.214 1.85677 147.508 1.77912 147.746 1.99836Z" fill="#446AA1"/>
<path d="M176.867 273.268C176.872 270.468 176.874 267.665 176.878 264.866C176.878 264.559 176.862 264.253 177.004 263.966C177.002 266.923 176.999 269.881 176.988 272.838C176.988 272.982 176.91 273.126 176.867 273.268Z" fill="#446AA1"/>
<path d="M177.052 251.284C177.043 249.199 177.029 247.111 177.029 245.026C177.029 244.802 177.111 244.581 177.157 244.357C177.154 246.492 177.154 248.628 177.145 250.765C177.143 250.939 177.084 251.11 177.052 251.284Z" fill="#446AA1"/>
<path d="M102.932 246.193C103.179 247.367 103.051 248.554 103.048 249.735C102.841 248.561 102.921 247.376 102.932 246.193Z" fill="#446AA1"/>
<path d="M103.085 253.241C103.332 254.415 103.204 255.602 103.202 256.783C102.994 255.609 103.074 254.424 103.085 253.241Z" fill="#446AA1"/>
<path d="M103.238 260.289C103.482 261.469 103.364 262.659 103.345 263.847C103.158 262.664 103.222 261.476 103.238 260.289Z" fill="#446AA1"/>
<path d="M103.393 267.49C103.638 268.618 103.517 269.757 103.498 270.895C103.318 269.764 103.371 268.625 103.393 267.49Z" fill="#446AA1"/>
<path d="M245.309 182.628C245.98 182.616 246.655 182.518 247.315 182.742C246.642 182.765 245.968 182.817 245.309 182.628Z" fill="#446AA1"/>
<path d="M257.103 183.087C257.774 183.08 258.449 182.979 259.107 183.203C258.433 183.226 257.762 183.272 257.103 183.087Z" fill="#446AA1"/>
<path d="M261.079 183.242C261.753 183.23 262.428 183.132 263.088 183.358C262.415 183.377 261.739 183.434 261.079 183.242Z" fill="#446AA1"/>
<path d="M268.894 183.546C269.565 183.539 270.241 183.438 270.898 183.662C270.225 183.685 269.553 183.733 268.894 183.546Z" fill="#446AA1"/>
<path d="M250.381 182.76C250.642 182.771 250.904 182.765 251.142 182.895C250.521 182.915 249.895 182.968 249.288 182.781C249.653 182.774 250.018 182.767 250.381 182.76Z" fill="#446AA1"/>
<path d="M253.253 182.943C253.881 182.915 254.511 182.833 255.123 183.048C254.498 183.075 253.87 183.112 253.253 182.943Z" fill="#446AA1"/>
<path d="M265.045 183.402C265.672 183.374 266.303 183.292 266.914 183.507C266.289 183.537 265.661 183.571 265.045 183.402Z" fill="#446AA1"/>
<path d="M191.733 42.5886C191.482 43.2213 191.676 43.6278 192.29 43.9521C195.609 45.7083 198.79 47.6953 201.872 49.8352C202.362 50.1755 202.693 50.1412 203.164 49.8352C210.33 45.1762 217.505 40.5332 224.68 35.8856C225.258 35.5111 225.851 35.1571 226.42 34.7689C226.84 34.4811 227.18 34.4788 227.577 34.8397C228.876 36.0227 230.205 37.176 231.518 38.3453C232.924 39.6014 234.31 40.8803 235.736 42.1136C236.273 42.5772 236.465 42.9678 236.079 43.6689C233.791 47.8254 231.543 52.0048 229.287 56.1773C227.479 59.5208 225.678 62.8689 223.874 66.2147C223.801 66.3494 223.737 66.4888 223.667 66.6258C222.719 68.4803 222.712 68.4871 224.077 70.1018C226.155 72.5591 228.089 75.1262 229.908 77.7777C230.335 78.3989 230.746 78.5884 231.486 78.424C236.841 77.2387 242.204 76.0899 247.564 74.9297C251.08 74.1692 254.598 73.4224 258.107 72.6322C258.823 72.4701 259.207 72.614 259.547 73.3037C261.44 77.1222 263.371 80.9225 265.325 84.7113C265.645 85.3302 265.583 85.6728 265.015 86.0976C258.047 91.307 251.098 96.5415 244.144 101.771C243.345 102.372 242.366 102.53 241.462 102.861C238.371 103.991 235.257 105.058 232.15 106.143C231.91 106.227 231.657 106.266 231.41 106.328C230.392 103.936 229.472 101.504 228.374 99.145C223.788 89.2949 217.772 80.42 210.218 72.6094C195.708 57.607 178.195 48.1497 157.69 44.265C151.303 43.0545 144.849 42.5247 138.354 42.6617C119.721 43.0545 102.521 48.2297 86.8969 58.4315C72.6036 67.7631 61.52 80.0409 53.6028 95.1758C51.7788 98.6609 50.1967 102.253 48.8087 105.933C48.7379 106.122 48.6443 106.303 48.5599 106.487C47.2929 105.807 45.8911 105.476 44.5533 104.982C42.2065 104.117 39.8483 103.283 37.4694 102.518C36.0929 102.075 35.1409 101.073 34.0976 100.198C30.6618 97.3134 27.2625 94.3878 23.8496 91.476C21.0964 89.1282 18.3454 86.7759 15.5831 84.4373C15.1631 84.0833 15.1882 83.7338 15.4119 83.2931C17.1423 79.9062 18.8637 76.5147 20.5781 73.121C20.8224 72.6368 21.1329 72.4815 21.6854 72.6025C30.5088 74.5278 39.3369 76.4348 48.1649 78.3509C49.5187 78.6455 49.5118 78.6569 50.2812 77.531C52.3061 74.5529 54.5548 71.7461 56.8697 68.9918C57.2007 68.5967 57.2646 68.2747 57.0249 67.8294C55.0274 64.1227 53.0435 60.4115 51.0505 56.7026C49.4091 53.6469 47.7586 50.5934 46.1149 47.5377C45.4368 46.2793 44.7862 45.0072 44.0739 43.7694C43.7201 43.1527 43.6767 42.7074 44.268 42.1844C46.5395 40.1746 48.7745 38.1238 51.0117 36.0775C51.4363 35.6892 51.829 35.7874 52.265 36.0318C54.5092 37.2993 56.7555 38.56 59.0019 39.8207C63.4742 42.3283 67.9464 44.8336 72.4186 47.3413C73.9094 48.1771 75.407 49.0016 76.8817 49.8649C77.336 50.1321 77.6899 50.1481 78.1351 49.8397C81.2033 47.7227 84.372 45.7654 87.6434 43.9795C88.2005 43.6757 88.4173 43.3035 88.3625 42.6983C88.1799 40.6931 88.0133 38.6879 87.8375 36.6827C87.6571 34.6273 87.4722 32.5718 87.2919 30.5164C87.0544 27.8261 86.8193 25.1357 86.5864 22.4454C86.4107 20.4151 86.2394 18.3825 86.0682 16.3522C86.0568 16.2243 86.0659 16.0964 86.0568 15.9685C85.9335 14.2671 85.9312 14.2579 87.4973 13.655C90.3304 12.5633 93.1772 11.5059 95.9989 10.3868C96.6724 10.1196 97.0627 10.2338 97.4714 10.8162C100.131 14.5936 102.818 18.3482 105.491 22.1142C108.078 25.7546 110.664 29.395 113.235 33.0469C113.628 33.6064 114.057 33.7708 114.73 33.6018C118.321 32.6997 121.965 32.058 125.636 31.5852C126.254 31.5053 126.522 31.2152 126.654 30.6489C127.458 27.2186 128.277 23.7928 129.088 20.3671C130.375 14.9271 131.672 9.48931 132.939 4.04698C133.094 3.37782 133.443 3.21796 134.071 3.22024C138.281 3.23851 142.493 3.22937 146.705 3.23166C146.897 3.41893 146.956 3.66558 147.018 3.91452C148.497 9.89126 149.919 15.8817 151.373 21.8653C152.07 24.7338 152.775 27.6 153.451 30.473C153.576 31.0097 153.859 31.3705 154.366 31.5647C154.469 31.567 154.572 31.5669 154.677 31.5692C154.962 31.455 155.211 31.5418 155.439 31.7177C155.542 31.7177 155.645 31.72 155.747 31.72C156.389 31.6355 156.989 31.8022 157.581 32.0237C157.633 32.0237 157.686 32.026 157.738 32.026C159.845 32.2041 161.891 32.7385 163.957 33.1405C166.673 33.6658 165.827 34.1043 167.441 31.7679C170.612 27.1797 173.693 22.5322 176.826 17.9166C178.499 15.4524 180.179 12.995 181.821 10.5079C181.946 10.3183 182.079 10.1288 182.25 9.97348C182.348 9.92095 182.448 9.86614 182.547 9.81361C182.978 9.74053 183.33 9.97348 183.704 10.1196C187.277 11.4991 190.85 12.8694 194.425 14.2442C195.495 14.6553 195.564 14.8243 195.107 15.9434C195.107 16.0461 195.105 16.1512 195.105 16.254C195.304 16.5577 195.103 16.7815 194.957 17.0168C194.957 17.1195 194.954 17.2246 194.954 17.3274C195.112 17.6677 194.993 17.96 194.804 18.2432C194.804 18.3459 194.801 18.451 194.801 18.5538C194.979 18.8963 194.804 19.1795 194.651 19.4673C194.651 19.5701 194.651 19.6751 194.648 19.7779C194.872 20.1273 194.635 20.4014 194.495 20.6914C194.495 20.7942 194.493 20.8993 194.493 21.002C194.689 21.3469 194.457 21.6232 194.342 21.9155C194.342 22.0183 194.34 22.1234 194.34 22.2261C194.539 22.5733 194.306 22.8473 194.19 23.142C194.187 23.2447 194.187 23.3498 194.185 23.4526C194.299 23.738 194.212 23.987 194.037 24.2153C194.037 24.3181 194.034 24.4232 194.034 24.5259C194.21 24.8685 194.037 25.1517 193.884 25.4395C193.884 25.5445 193.881 25.6473 193.881 25.7524C194.041 26.0926 193.92 26.385 193.731 26.6682C193.731 26.7709 193.728 26.8737 193.728 26.9788C193.952 27.3282 193.715 27.6022 193.578 27.8923C193.578 27.9951 193.575 28.1001 193.575 28.2029C193.774 28.55 193.541 28.8241 193.425 29.1187C193.425 29.2215 193.422 29.3265 193.422 29.4293C193.621 29.733 193.42 29.9569 193.274 30.1921C193.274 30.2949 193.272 30.3999 193.272 30.5027C193.429 30.843 193.311 31.1353 193.121 31.4185C193.121 31.5213 193.119 31.6263 193.119 31.7291C193.279 32.0694 193.158 32.3617 192.968 32.6449C192.968 32.7477 192.966 32.8505 192.966 32.9555C193.19 33.3049 192.952 33.579 192.815 33.869C192.815 33.9718 192.813 34.0769 192.813 34.1796C193.009 34.5245 192.776 34.8008 192.662 35.0932C192.662 35.1959 192.66 35.301 192.66 35.4038C192.859 35.7509 192.626 36.025 192.509 36.3196C192.509 36.3721 192.509 36.4246 192.509 36.4794C192.667 36.8197 192.548 37.1121 192.359 37.3952C192.359 37.498 192.356 37.6031 192.356 37.7058C192.532 38.0484 192.359 38.3316 192.206 38.6194C192.206 38.7244 192.203 38.8272 192.203 38.9323C192.361 39.2725 192.185 39.5557 192.053 39.8458C192.053 39.9485 192.05 40.0536 192.05 40.1564C192.274 40.5058 192.037 40.7799 191.9 41.0699C191.9 41.1727 191.897 41.2777 191.897 41.3805C192.096 41.7254 191.863 42.0017 191.747 42.2963C191.735 42.3831 191.733 42.4859 191.733 42.5886Z" fill="#446AA1"/>
<path d="M235.111 119.195C235.588 119.37 236.017 119.144 236.444 119.005C239.599 117.98 242.766 116.988 245.893 115.888C247.167 115.44 248.395 115.369 249.712 115.538C257.347 116.516 264.985 117.454 272.622 118.4C273.254 118.477 273.889 118.528 274.523 118.599C275.016 118.653 275.288 118.893 275.343 119.428C275.719 123.104 276.105 126.779 276.516 130.452C276.582 131.036 276.261 131.201 275.829 131.376C271.811 133.009 267.798 134.651 263.782 136.291C259.223 138.153 254.669 140.025 250.105 141.868C249.516 142.106 249.311 142.451 249.297 143.076C249.217 146.774 248.934 150.455 248.432 154.121C248.354 154.692 248.475 155.078 249.028 155.373C252.966 157.474 256.89 159.6 260.819 161.717C264.905 163.919 268.992 166.12 273.085 168.31C273.635 168.605 273.852 168.941 273.672 169.596C272.574 173.581 271.503 177.576 270.448 181.572C270.291 182.166 269.957 182.338 269.398 182.31C266.065 182.157 262.732 182.025 259.399 181.867C258.025 181.803 256.648 181.805 255.274 181.746C253.493 181.668 251.712 181.52 249.927 181.55C249.569 181.55 249.21 181.547 248.852 181.547C248.067 181.81 247.309 181.677 246.558 181.399C245.994 181.397 245.432 181.397 244.868 181.394C244.085 181.636 243.325 181.536 242.576 181.244C242.268 181.244 241.962 181.244 241.654 181.241C241.033 181.947 240.843 182.863 240.469 183.687C239.152 186.599 237.816 189.5 236.23 192.279C236.02 192.647 236.045 193.001 236.291 193.343C236.341 193.393 236.389 193.444 236.44 193.494C236.736 193.768 237.035 194.042 237.211 194.417C237.261 194.467 237.309 194.517 237.36 194.567C237.755 194.851 238.01 195.255 238.284 195.643C238.332 195.693 238.382 195.743 238.433 195.794C238.729 196.068 239.028 196.342 239.204 196.716C239.254 196.767 239.302 196.817 239.353 196.867C239.748 197.15 240.003 197.555 240.277 197.943C240.325 197.993 240.375 198.043 240.426 198.094C241.097 198.763 241.731 199.459 242.27 200.243C242.32 200.293 242.368 200.343 242.419 200.393C243.087 201.063 243.724 201.759 244.263 202.542C244.313 202.593 244.361 202.643 244.412 202.693C245.08 203.362 245.717 204.059 246.256 204.842C246.306 204.892 246.354 204.943 246.405 204.993C247.08 205.658 247.715 206.354 248.247 207.142C248.297 207.192 248.345 207.243 248.395 207.293C249.071 207.957 249.706 208.654 250.238 209.442C250.288 209.492 250.336 209.542 250.386 209.593C251.062 210.257 251.696 210.954 252.228 211.742C252.278 211.792 252.326 211.842 252.377 211.892C252.772 212.176 253.027 212.58 253.301 212.966H253.299C253.671 213.267 253.986 213.619 254.219 214.041C254.269 214.092 254.317 214.142 254.367 214.192C254.886 214.505 254.86 214.85 254.52 215.32C252.749 217.778 250.954 220.219 249.178 222.674C248.477 223.645 247.786 224.622 247.071 225.582C246.92 225.785 246.79 226.011 246.555 226.137C244.407 225.397 242.362 224.403 240.273 223.519C233.696 220.738 227.128 217.928 220.569 215.103C220.037 214.875 219.706 214.916 219.297 215.327C217.268 217.374 215.277 219.461 213.115 221.372C212.485 221.93 211.859 222.494 211.2 223.015C210.695 223.414 210.544 223.828 210.748 224.472C213.457 233.063 216.144 241.66 218.841 250.256C219.283 251.672 219.261 251.658 218.023 252.453C215.339 254.175 212.663 255.911 210.013 257.683C209.369 258.112 208.94 258.105 208.355 257.562C204.463 253.926 200.534 250.331 196.626 246.711C194.233 244.494 191.859 242.256 189.471 240.034C189.023 239.618 188.546 239.232 188.099 238.816C187.768 238.508 187.455 238.634 187.115 238.791C184.177 240.157 181.204 241.445 178.166 242.571C177.664 242.758 177.166 242.959 176.652 243.108C176.006 243.295 175.803 243.694 175.805 244.354C175.824 249.536 175.908 254.721 175.78 259.9C175.687 263.753 175.689 267.604 175.671 271.457C175.668 272.087 175.431 272.352 174.817 272.48C171.244 273.217 167.676 273.978 164.115 274.766C163.475 274.907 163.222 274.558 162.982 274.119C162.012 272.354 161.051 270.582 160.083 268.814C157.535 264.16 154.983 259.51 152.435 254.855C151.616 253.355 150.807 251.85 149.988 250.35C149.862 250.119 149.794 249.881 149.785 249.621C149.732 247.965 149.693 246.307 149.623 244.654C149.515 242.107 149.545 239.556 149.323 237.014C151.141 236.77 152.962 236.544 154.777 236.277C162.996 235.059 170.915 232.778 178.536 229.485C188.868 225.02 198.157 218.945 206.383 211.257C214.702 203.481 221.475 194.538 226.673 184.395C231.844 174.305 235.127 163.633 236.572 152.397C237.513 145.079 237.606 137.739 236.88 130.397C236.504 126.615 235.912 122.888 235.111 119.195Z" fill="#446AA1"/>
<path d="M141.212 235.79C88.7052 236.439 45.7383 194.848 44.3024 142.775C42.8253 89.1693 84.9064 45.9823 136.697 44.29C190.553 42.5292 233.62 84.6268 235.679 136.001C237.873 190.733 194.475 235.18 141.212 235.79Z" fill="#29999B"/>
<path d="M141.363 237.325C140.388 237.46 139.416 237.483 138.443 237.316C139.418 237.318 140.39 237.323 141.363 237.325Z" fill="#0B2644"/>
<path d="M182.248 9.96204C181.357 11.6018 180.239 13.0931 179.207 14.6416C176.967 17.9919 174.698 21.324 172.438 24.6607C170.55 27.4492 168.655 30.2332 166.772 33.0217C166.502 33.4191 166.238 33.7754 165.674 33.6566C163.03 33.1062 160.384 32.5627 157.738 32.0168C158.597 31.7496 159.396 32.1242 160.208 32.2681C161.916 32.5718 163.612 32.9395 165.306 33.3095C165.852 33.4282 166.231 33.3026 166.548 32.8322C168.221 30.3611 169.915 27.9037 171.591 25.4349C173.94 21.9726 176.278 18.5035 178.62 15.0367C179.634 13.5362 180.641 12.0312 181.652 10.5307C181.807 10.2978 181.958 10.0557 182.248 9.96204Z" fill="#4D83B2"/>
<path d="M154.362 31.5532C153.59 31.6103 153.463 31.053 153.326 30.4844C152.038 25.1585 150.746 19.8327 149.452 14.5091C148.536 10.7453 147.618 6.98162 146.701 3.2179C147.023 3.36406 147.089 3.67009 147.162 3.96927C148.589 9.84324 150.013 15.7149 151.438 21.5889C152.141 24.4871 152.855 27.3829 153.54 30.288C153.668 30.8292 154.081 31.1375 154.362 31.5532Z" fill="#4D83B2"/>
<path d="M195.105 15.9296C195.212 14.6506 195.205 14.6712 194.007 14.2121C190.183 12.7505 186.366 11.2729 182.544 9.79982C182.843 9.61255 183.138 9.71075 183.426 9.82266C187.208 11.2866 190.991 12.7459 194.767 14.2213C195.555 14.5319 195.678 15.2376 195.105 15.9296Z" fill="#4D83B2"/>
<path d="M157.578 32.0145C156.966 31.914 156.357 31.8112 155.745 31.7107C156.421 31.4138 157.024 31.5646 157.578 32.0145Z" fill="#4D83B2"/>
<path d="M192.35 37.3792C192.4 37.0732 192.45 36.7694 192.5 36.4634C192.799 36.8265 192.824 37.144 192.35 37.3792Z" fill="#4D83B2"/>
<path d="M193.114 31.4047C193.164 31.0987 193.215 30.7949 193.265 30.4889C193.564 30.852 193.591 31.1695 193.114 31.4047Z" fill="#4D83B2"/>
<path d="M192.809 33.8553C192.859 33.5516 192.909 33.2455 192.959 32.9418C193.402 33.3255 193.156 33.5995 192.809 33.8553Z" fill="#4D83B2"/>
<path d="M192.962 32.6311C193.012 32.3251 193.062 32.0214 193.112 31.7153C193.411 32.0785 193.437 32.3959 192.962 32.6311Z" fill="#4D83B2"/>
<path d="M193.573 27.8786C193.623 27.5749 193.674 27.2688 193.724 26.9651C194.169 27.3511 193.92 27.6228 193.573 27.8786Z" fill="#4D83B2"/>
<path d="M193.726 26.6545C193.777 26.3484 193.827 26.0447 193.877 25.7386C194.178 26.1041 194.203 26.4215 193.726 26.6545Z" fill="#4D83B2"/>
<path d="M194.493 20.68C194.543 20.3763 194.594 20.0702 194.644 19.7665C195.087 20.1524 194.838 20.4242 194.493 20.68Z" fill="#4D83B2"/>
<path d="M194.799 18.2294C194.85 17.9234 194.9 17.6196 194.95 17.3136C195.249 17.6767 195.274 17.9942 194.799 18.2294Z" fill="#4D83B2"/>
<path d="M191.888 41.0539C191.939 40.7502 191.989 40.4441 192.039 40.1404C192.484 40.5263 192.235 40.7981 191.888 41.0539Z" fill="#4D83B2"/>
<path d="M155.435 31.7063C155.168 31.7154 154.914 31.6697 154.672 31.5578C155.008 31.1878 155.243 31.334 155.435 31.7063Z" fill="#4D83B2"/>
<path d="M192.194 38.6034C192.245 38.2996 192.295 37.9936 192.345 37.6898C192.687 38.0598 192.585 38.3544 192.194 38.6034Z" fill="#4D83B2"/>
<path d="M194.035 24.2038C194.025 23.9389 194.071 23.6831 194.183 23.441C194.553 23.7768 194.404 24.012 194.035 24.2038Z" fill="#4D83B2"/>
<path d="M193.42 29.1049C193.471 28.7989 193.521 28.4951 193.571 28.1891C193.991 28.5728 193.708 28.84 193.42 29.1049Z" fill="#4D83B2"/>
<path d="M194.185 23.1305C194.235 22.8245 194.286 22.5208 194.336 22.2147C194.756 22.5984 194.475 22.8656 194.185 23.1305Z" fill="#4D83B2"/>
<path d="M192.5 36.3058C192.551 35.9998 192.601 35.696 192.651 35.39C193.074 35.7737 192.79 36.0386 192.5 36.3058Z" fill="#4D83B2"/>
<path d="M194.338 21.9041C194.388 21.6004 194.439 21.2943 194.489 20.9906C194.909 21.372 194.628 21.6392 194.338 21.9041Z" fill="#4D83B2"/>
<path d="M194.646 19.4536C194.696 19.1498 194.747 18.8438 194.797 18.54C195.137 18.91 195.034 19.2046 194.646 19.4536Z" fill="#4D83B2"/>
<path d="M192.656 35.0794C192.706 34.7757 192.756 34.4696 192.806 34.1659C193.226 34.5473 192.943 34.8145 192.656 35.0794Z" fill="#4D83B2"/>
<path d="M191.735 42.2803C191.786 41.9743 191.836 41.6705 191.886 41.3645C192.306 41.7482 192.023 42.0154 191.735 42.2803Z" fill="#4D83B2"/>
<path d="M193.879 25.428C193.93 25.1243 193.98 24.8183 194.03 24.5145C194.373 24.8845 194.27 25.1791 193.879 25.428Z" fill="#4D83B2"/>
<path d="M194.952 17.003C195.002 16.7495 195.053 16.4937 195.101 16.2402C195.47 16.576 195.324 16.8112 194.952 17.003Z" fill="#4D83B2"/>
<path d="M192.042 39.8298C192.092 39.526 192.142 39.22 192.192 38.9163C192.514 39.2817 192.373 39.5717 192.042 39.8298Z" fill="#4D83B2"/>
<path d="M193.267 30.1783C193.318 29.9248 193.368 29.669 193.416 29.4155C193.786 29.7512 193.639 29.9865 193.267 30.1783Z" fill="#4D83B2"/>
<path d="M236.291 193.343C235.821 193.049 235.848 192.699 236.095 192.242C237.889 188.91 239.544 185.51 241.003 182.016C241.14 181.687 241.236 181.33 241.654 181.239C240.174 184.822 238.606 188.365 236.695 191.745C236.408 192.254 236.241 192.763 236.291 193.343Z" fill="#4D82B1"/>
<path d="M246.546 226.121C248.16 223.869 249.772 221.617 251.388 219.37C252.352 218.029 253.315 216.686 254.299 215.359C254.596 214.957 254.646 214.587 254.358 214.176C255.169 214.446 254.954 214.93 254.605 215.416C253.158 217.419 251.699 219.413 250.245 221.414C249.242 222.795 248.24 224.177 247.242 225.561C247.06 225.812 246.875 226.052 246.546 226.121Z" fill="#4D82B1"/>
<path d="M246.555 181.394C247.329 181.31 248.08 181.538 248.85 181.543C247.994 182.029 247.09 181.97 246.555 181.394Z" fill="#4D82B1"/>
<path d="M242.576 181.241C243.348 181.159 244.101 181.385 244.868 181.392C244.005 181.874 243.179 181.821 242.576 181.241Z" fill="#4D82B1"/>
<path d="M242.264 200.238C241.556 199.603 240.926 198.9 240.419 198.089C241.275 198.598 241.875 199.327 242.264 200.238Z" fill="#4D82B1"/>
<path d="M244.254 202.536C243.546 201.901 242.916 201.197 242.412 200.386C243.265 200.896 243.866 201.624 244.254 202.536Z" fill="#4D82B1"/>
<path d="M246.245 204.833C245.537 204.198 244.907 203.495 244.403 202.684C245.256 203.193 245.857 203.922 246.245 204.833Z" fill="#4D82B1"/>
<path d="M248.235 207.131C247.521 206.5 246.911 205.781 246.393 204.982C247.224 205.514 247.882 206.192 248.235 207.131Z" fill="#4D82B1"/>
<path d="M250.226 209.428C249.512 208.798 248.902 208.078 248.384 207.279C249.215 207.811 249.872 208.489 250.226 209.428Z" fill="#4D82B1"/>
<path d="M252.217 211.728C251.502 211.098 250.893 210.378 250.375 209.579C251.205 210.109 251.863 210.789 252.217 211.728Z" fill="#4D82B1"/>
<path d="M254.207 214.025C253.806 213.747 253.493 213.393 253.287 212.95C253.806 213.128 254.148 213.454 254.207 214.025Z" fill="#4D82B1"/>
<path d="M240.273 197.938C239.871 197.66 239.558 197.306 239.348 196.863C239.894 197.018 240.149 197.422 240.273 197.938Z" fill="#4D82B1"/>
<path d="M238.282 195.641C237.88 195.362 237.567 195.008 237.357 194.565C237.903 194.72 238.159 195.125 238.282 195.641Z" fill="#4D82B1"/>
<path d="M253.29 212.95C252.885 212.676 252.575 212.319 252.365 211.876C252.911 212.029 253.164 212.436 253.29 212.95Z" fill="#4D82B1"/>
<path d="M239.202 196.714C238.871 196.47 238.556 196.209 238.43 195.792C238.898 195.922 239.163 196.223 239.202 196.714Z" fill="#4D82B1"/>
<path d="M237.209 194.414C236.878 194.17 236.563 193.91 236.437 193.492C236.908 193.624 237.172 193.923 237.209 194.414Z" fill="#4D82B1"/>
<path d="M233.091 140.062C233.474 190.993 191.268 233.897 138.658 233.216C88.7349 232.57 45.9895 191.391 46.8547 138.28C47.672 88.1827 88.8079 46.8343 140.05 46.8206C191.437 46.8069 233.467 88.957 233.091 140.062Z" fill="#39B9C1"/>
<path d="M139.995 99.7937C155.791 99.7937 171.586 99.7937 187.38 99.7937C188.359 99.7937 188.359 99.7937 188.361 100.776C188.361 106.314 188.348 111.855 188.38 117.393C188.384 118.117 188.165 118.261 187.487 118.261C155.821 118.245 124.154 118.245 92.4878 118.261C91.8304 118.261 91.6203 118.117 91.6249 117.425C91.6546 111.834 91.6546 106.243 91.6226 100.655C91.6181 99.9193 91.8646 99.78 92.5358 99.7823C108.354 99.7982 124.175 99.7937 139.995 99.7937Z" fill="#0B1615"/>
<path d="M126.154 162.26C126.154 174.844 126.154 187.428 126.154 200.014C126.154 200.295 126.143 200.576 126.152 200.857C126.172 201.405 125.926 201.629 125.371 201.627C120.983 201.615 116.593 201.615 112.205 201.624C111.676 201.624 111.461 201.4 111.493 200.887C111.509 200.608 111.493 200.325 111.493 200.044C111.493 182.353 111.495 164.665 111.491 146.975C111.489 142.617 109.165 139.137 105.158 137.465C104.113 137.029 103.014 136.8 101.88 136.8C98.8184 136.805 95.757 136.762 92.6979 136.915C91.6729 136.965 91.6158 136.874 91.6135 135.846C91.609 131.89 91.609 127.932 91.6135 123.977C91.6158 122.99 91.7117 122.899 92.7276 122.897C103.496 122.894 114.262 122.894 125.031 122.897C126.083 122.897 126.154 122.979 126.154 124.121C126.154 136.837 126.154 149.549 126.154 162.26Z" fill="#1F74A1"/>
<path d="M149.191 162.311C149.191 175.1 149.184 187.889 149.207 200.679C149.209 201.414 149.079 201.67 148.266 201.663C142.755 201.622 137.242 201.629 131.731 201.656C131.023 201.661 130.786 201.521 130.786 200.75C130.809 175.093 130.806 149.437 130.79 123.78C130.79 123.136 130.911 122.903 131.617 122.908C137.205 122.938 142.794 122.94 148.383 122.908C149.102 122.903 149.204 123.157 149.204 123.787C149.186 136.629 149.191 149.471 149.191 162.311Z" fill="#0B1615"/>
<path d="M153.905 162.27C153.905 149.53 153.905 136.789 153.905 124.05C153.905 122.903 153.908 122.899 155.04 122.899C165.758 122.899 176.479 122.899 187.197 122.899C188.357 122.899 188.359 122.901 188.359 124.023C188.359 128.006 188.345 131.989 188.373 135.971C188.377 136.693 188.181 136.981 187.428 136.938C184.371 136.762 181.307 136.789 178.246 136.805C173.319 136.83 169.03 140.818 168.582 145.733C168.496 146.676 168.466 147.617 168.466 148.56C168.466 165.743 168.466 182.924 168.466 200.108C168.466 200.389 168.452 200.67 168.464 200.951C168.484 201.446 168.242 201.627 167.765 201.627C163.375 201.62 158.985 201.62 154.597 201.627C154.12 201.627 153.878 201.448 153.905 200.951C153.919 200.697 153.905 200.439 153.905 200.186C153.905 187.545 153.905 174.908 153.905 162.27Z" fill="#1F74A1"/>
<path d="M151.332 85.4923C151.326 91.7751 146.273 96.8246 140.005 96.8223C133.745 96.8178 128.665 91.7431 128.661 85.49C128.656 79.2575 133.765 74.1532 140.009 74.1532C146.267 74.1509 151.339 79.2324 151.332 85.4923Z" fill="#0B1615"/>
<path d="M28.1028 209.86L29.1004 210.746L44.1289 192.864C44.1289 192.864 44.259 192.633 44.0649 192.274C43.8709 191.916 39.8872 184.494 38.9512 181.55C38.9512 181.55 38.8781 181.182 38.4969 181.095C38.1157 181.008 31.8057 181.095 31.8057 181.095L10.1476 181.255C10.1476 181.255 9.64993 181.365 9.41023 180.739C9.17052 180.113 6.18903 168.991 6.18903 168.991C6.18903 168.991 6.10913 168.598 6.77346 168.249C7.43779 167.899 31.3651 155.023 31.3651 155.023C31.3651 155.023 31.6961 154.783 31.55 153.938C31.4039 153.093 30.7144 143.778 30.7624 142.871C30.8126 141.964 29.7054 141.743 29.7054 141.743L3.87643 131.269C3.87643 131.269 3.38561 131.196 3.43355 130.632C3.48377 130.068 4.61382 119.375 4.61382 119.375C4.61382 119.375 4.50424 118.953 5.77582 118.822C7.04969 118.695 32.3102 115.303 32.3102 115.303L44.9279 119.375L45.2224 118.003L33.2256 114.225C33.2256 114.225 32.3581 113.931 31.8057 113.985C31.2532 114.04 4.24398 117.781 4.24398 117.781C4.24398 117.781 3.47464 117.854 3.42898 118.297C3.38332 118.738 2.12315 131.002 2.12315 131.002C2.12315 131.002 1.9565 131.986 2.28067 132.123C2.60256 132.26 29.3835 142.971 29.3835 142.971C29.3835 142.971 30.0729 152.808 30.2944 154.009C30.2944 154.009 30.3925 154.119 29.888 154.388C29.3835 154.658 4.72568 167.904 4.72568 167.904L8.33726 182.159C8.51532 182.826 9.03811 182.756 9.33489 182.758C18.898 182.824 27.6507 182.516 37.2139 182.582C37.5997 182.619 37.8097 182.788 37.9673 183.014C38.0403 183.119 38.9969 185.332 39.4169 186.268C40.3392 188.328 41.2569 190.071 42.1656 191.854C42.2226 191.98 42.3961 192.361 42.3733 192.56C42.3642 192.811 42.2774 193.024 42.1199 193.236C41.8277 193.608 40.1611 195.636 36.1227 200.416C34.0931 202.819 31.5568 205.927 28.1028 209.86Z" fill="#4E84B3"/>
</g>
<defs>
<clipPath id="clip0_77_14614">
<rect width="280" height="279" fill="white"/>
</clipPath>
</defs>
</svg>
