<svg width="1728" height="1117" viewBox="0 0 1728 1117" fill="none" xmlns="http://www.w3.org/2000/svg">
<g clip-path="url(#clip0_231_5770)">
<rect width="130.732" height="115.602" transform="matrix(-1 0 0 1 101.732 20)" fill="white" fill-opacity="0.4"/>
<path d="M37.2505 103.149C2.66975 103.149 -25.3634 91.3406 -25.3634 76.7737C-25.3634 62.2069 2.66975 50.3982 37.2505 50.3982C71.8312 50.3982 99.8643 62.2069 99.8643 76.7737C99.8643 91.3406 71.8312 103.149 37.2505 103.149Z" stroke="#CBCBCB" stroke-opacity="0.24" stroke-width="3.7811" stroke-miterlimit="10"/>
<path d="M2.16215 128.631C-9.90209 120.468 -3.97227 90.6333 15.4067 61.9936C34.7858 33.3539 60.2756 16.7544 72.3398 24.9176C84.404 33.0809 78.4742 62.9156 59.0952 91.5553C39.7162 120.195 14.2264 136.795 2.16215 128.631Z" stroke="#CBCBCB" stroke-opacity="0.24" stroke-width="3.7811" stroke-miterlimit="10"/>
<path d="M14.8896 90.7616C-3.45542 61.4476 -8.31677 31.4193 4.03151 23.6916C16.3798 15.9639 41.2617 33.4631 59.6067 62.7772C77.9518 92.0912 82.8131 122.12 70.4648 129.847C58.1166 137.575 33.2347 120.076 14.8896 90.7616Z" stroke="#CBCBCB" stroke-opacity="0.24" stroke-width="3.7811" stroke-miterlimit="10"/>
<path d="M37.736 88.8843C44.6288 88.8843 50.2389 83.4236 50.2389 76.7114C50.2389 69.9992 44.6288 64.5386 37.736 64.5386C30.8433 64.5386 25.2332 69.9992 25.2332 76.7114C25.2332 83.4236 30.8433 88.8843 37.736 88.8843ZM37.736 68.2683C42.5678 68.2683 46.503 72.054 46.503 76.7052C46.503 81.3564 42.5678 85.1421 37.736 85.1421C32.9043 85.1421 28.9691 81.3564 28.9691 76.7052C28.9691 72.054 32.9043 68.2683 37.736 68.2683Z" fill="#CBCBCB" fill-opacity="0.24"/>
<path d="M37.736 88.8843C44.6288 88.8843 50.2389 83.4236 50.2389 76.7114C50.2389 69.9992 44.6288 64.5386 37.736 64.5386C30.8433 64.5386 25.2332 69.9992 25.2332 76.7114C25.2332 83.4236 30.8433 88.8843 37.736 88.8843ZM37.736 68.2683C42.5678 68.2683 46.503 72.054 46.503 76.7052C46.503 81.3564 42.5678 85.1421 37.736 85.1421C32.9043 85.1421 28.9691 81.3564 28.9691 76.7052C28.9691 72.054 32.9043 68.2683 37.736 68.2683Z" fill="#CBCBCB" fill-opacity="0.24"/>
<path d="M37.736 88.8843C44.6288 88.8843 50.2389 83.4236 50.2389 76.7114C50.2389 69.9992 44.6288 64.5386 37.736 64.5386C30.8433 64.5386 25.2332 69.9992 25.2332 76.7114C25.2332 83.4236 30.8433 88.8843 37.736 88.8843ZM37.736 68.2683C42.5678 68.2683 46.503 72.054 46.503 76.7052C46.503 81.3564 42.5678 85.1421 37.736 85.1421C32.9043 85.1421 28.9691 81.3564 28.9691 76.7052C28.9691 72.054 32.9043 68.2683 37.736 68.2683Z" fill="#CBCBCB" fill-opacity="0.24"/>
<path d="M37.736 88.8843C44.6288 88.8843 50.2389 83.4236 50.2389 76.7114C50.2389 69.9992 44.6288 64.5386 37.736 64.5386C30.8433 64.5386 25.2332 69.9992 25.2332 76.7114C25.2332 83.4236 30.8433 88.8843 37.736 88.8843ZM37.736 68.2683C42.5678 68.2683 46.503 72.054 46.503 76.7052C46.503 81.3564 42.5678 85.1421 37.736 85.1421C32.9043 85.1421 28.9691 81.3564 28.9691 76.7052C28.9691 72.054 32.9043 68.2683 37.736 68.2683Z" fill="#CBCBCB" fill-opacity="0.24"/>
<path d="M37.736 88.8843C44.6288 88.8843 50.2389 83.4236 50.2389 76.7114C50.2389 69.9992 44.6288 64.5386 37.736 64.5386C30.8433 64.5386 25.2332 69.9992 25.2332 76.7114C25.2332 83.4236 30.8433 88.8843 37.736 88.8843ZM37.736 68.2683C42.5678 68.2683 46.503 72.054 46.503 76.7052C46.503 81.3564 42.5678 85.1421 37.736 85.1421C32.9043 85.1421 28.9691 81.3564 28.9691 76.7052C28.9691 72.054 32.9043 68.2683 37.736 68.2683Z" fill="#CBCBCB" fill-opacity="0.24"/>
<path d="M37.736 88.8843C44.6288 88.8843 50.2389 83.4236 50.2389 76.7114C50.2389 69.9992 44.6288 64.5386 37.736 64.5386C30.8433 64.5386 25.2332 69.9992 25.2332 76.7114C25.2332 83.4236 30.8433 88.8843 37.736 88.8843ZM37.736 68.2683C42.5678 68.2683 46.503 72.054 46.503 76.7052C46.503 81.3564 42.5678 85.1421 37.736 85.1421C32.9043 85.1421 28.9691 81.3564 28.9691 76.7052C28.9691 72.054 32.9043 68.2683 37.736 68.2683Z" fill="#CBCBCB" fill-opacity="0.24"/>
<path d="M37.736 88.8843C44.6288 88.8843 50.2389 83.4236 50.2389 76.7114C50.2389 69.9992 44.6288 64.5386 37.736 64.5386C30.8433 64.5386 25.2332 69.9992 25.2332 76.7114C25.2332 83.4236 30.8433 88.8843 37.736 88.8843ZM37.736 68.2683C42.5678 68.2683 46.503 72.054 46.503 76.7052C46.503 81.3564 42.5678 85.1421 37.736 85.1421C32.9043 85.1421 28.9691 81.3564 28.9691 76.7052C28.9691 72.054 32.9043 68.2683 37.736 68.2683Z" fill="#CBCBCB" fill-opacity="0.24"/>
<path d="M37.736 88.8843C44.6288 88.8843 50.2389 83.4236 50.2389 76.7114C50.2389 69.9992 44.6288 64.5386 37.736 64.5386C30.8433 64.5386 25.2332 69.9992 25.2332 76.7114C25.2332 83.4236 30.8433 88.8843 37.736 88.8843ZM37.736 68.2683C42.5678 68.2683 46.503 72.054 46.503 76.7052C46.503 81.3564 42.5678 85.1421 37.736 85.1421C32.9043 85.1421 28.9691 81.3564 28.9691 76.7052C28.9691 72.054 32.9043 68.2683 37.736 68.2683Z" fill="#CBCBCB" fill-opacity="0.24"/>
<path d="M37.736 88.8843C44.6288 88.8843 50.2389 83.4236 50.2389 76.7114C50.2389 69.9992 44.6288 64.5386 37.736 64.5386C30.8433 64.5386 25.2332 69.9992 25.2332 76.7114C25.2332 83.4236 30.8433 88.8843 37.736 88.8843ZM37.736 68.2683C42.5678 68.2683 46.503 72.054 46.503 76.7052C46.503 81.3564 42.5678 85.1421 37.736 85.1421C32.9043 85.1421 28.9691 81.3564 28.9691 76.7052C28.9691 72.054 32.9043 68.2683 37.736 68.2683Z" fill="#CBCBCB" fill-opacity="0.24"/>
<path d="M37.736 88.8843C44.6288 88.8843 50.2389 83.4236 50.2389 76.7114C50.2389 69.9992 44.6288 64.5386 37.736 64.5386C30.8433 64.5386 25.2332 69.9992 25.2332 76.7114C25.2332 83.4236 30.8433 88.8843 37.736 88.8843ZM37.736 68.2683C42.5678 68.2683 46.503 72.054 46.503 76.7052C46.503 81.3564 42.5678 85.1421 37.736 85.1421C32.9043 85.1421 28.9691 81.3564 28.9691 76.7052C28.9691 72.054 32.9043 68.2683 37.736 68.2683Z" fill="#CBCBCB" fill-opacity="0.24"/>
<path d="M37.736 88.8843C44.6288 88.8843 50.2389 83.4236 50.2389 76.7114C50.2389 69.9992 44.6288 64.5386 37.736 64.5386C30.8433 64.5386 25.2332 69.9992 25.2332 76.7114C25.2332 83.4236 30.8433 88.8843 37.736 88.8843ZM37.736 68.2683C42.5678 68.2683 46.503 72.054 46.503 76.7052C46.503 81.3564 42.5678 85.1421 37.736 85.1421C32.9043 85.1421 28.9691 81.3564 28.9691 76.7052C28.9691 72.054 32.9043 68.2683 37.736 68.2683Z" fill="#CBCBCB" fill-opacity="0.24"/>
<path d="M92.4426 72.0914C96.7202 72.0914 100.207 68.6979 100.207 64.5324C100.207 60.3668 96.7265 56.9734 92.4426 56.9734C88.1588 56.9734 84.6781 60.3668 84.6781 64.5324C84.6781 68.6979 88.165 72.0914 92.4426 72.0914ZM92.4426 59.2959C95.4438 59.2959 97.8846 61.6495 97.8846 64.5386C97.8846 67.4277 95.4438 69.7813 92.4426 69.7813C89.4414 69.7813 87.0006 67.4277 87.0006 64.5386C87.0006 61.6433 89.4414 59.2959 92.4426 59.2959Z" fill="#CBCBCB" fill-opacity="0.24"/>
<path d="M56.6836 135.602C60.9613 135.602 64.4481 132.208 64.4481 128.043C64.4481 123.877 60.9675 120.484 56.6836 120.484C52.3998 120.484 48.9192 123.877 48.9192 128.043C48.9254 132.215 52.406 135.602 56.6836 135.602ZM56.6836 122.806C59.6848 122.806 62.1256 125.16 62.1256 128.049C62.1256 130.938 59.6848 133.292 56.6836 133.292C53.6825 133.292 51.2417 130.938 51.2417 128.049C51.2417 125.154 53.6825 122.806 56.6836 122.806Z" fill="#CBCBCB" fill-opacity="0.24"/>
<path d="M24.1996 35.3924C28.4772 35.3924 31.964 31.999 31.964 27.8334C31.964 23.6679 28.4834 20.2744 24.1996 20.2744C19.9219 20.2744 16.4351 23.6679 16.4351 27.8334C16.4351 31.999 19.9157 35.3924 24.1996 35.3924ZM24.1996 22.5907C27.2007 22.5907 29.6415 24.9443 29.6415 27.8334C29.6415 30.7225 27.2007 33.0761 24.1996 33.0761C21.1984 33.0761 18.7576 30.7225 18.7576 27.8334C18.7576 24.9443 21.1921 22.5907 24.1996 22.5907Z" fill="#CBCBCB" fill-opacity="0.24"/>
</g>
<g clip-path="url(#clip1_231_5770)">
<path d="M138.405 885.694L138.493 884.333C138.493 884.333 138.591 883.618 138.95 883.573C139.309 883.529 139.579 883.515 139.982 884.063L198.173 972.156C198.173 972.156 199.042 973.141 198.173 973.812C197.303 974.483 134.735 1011.88 134.735 1011.88C134.735 1011.88 133.551 1012.51 133.354 1010.97C133.158 1009.43 138.405 885.694 138.405 885.694ZM195.677 973.469C196.679 972.97 196.32 972.333 196.32 972.333L192.017 966.435C192.017 966.435 184.913 970.765 184.648 970.501C184.383 970.236 184.594 969.923 184.594 969.923L191.462 965.357L186.805 958.142L181.936 960.9C181.936 960.9 180.595 961.595 180.541 961.321C180.487 961.047 180.831 960.719 180.831 960.719L186.122 957.02L181.307 949.937C181.307 949.937 175.781 952.979 174.597 953.508C173.413 954.032 173.624 953.508 173.624 953.508L180.521 948.786L175.81 941.674C175.81 941.674 170.337 945.245 169.915 944.902C169.492 944.559 170.101 944.191 170.101 944.191L175.338 940.753L171.182 934.101C171.182 934.101 163.818 938.509 163.032 938.725C162.241 938.94 162.718 938.215 162.718 938.215L170.264 932.7L166.618 926.866C166.618 926.866 162.079 929.437 161.367 929.437C160.654 929.437 161.195 928.703 161.195 928.703L165.764 926.082L161.539 919.533L154.116 924C153.246 923.941 153.742 923.27 153.742 923.27L160.831 918.494L156.872 912.249C156.872 912.249 152.819 914.845 152.701 914.336C152.583 913.826 152.912 913.537 152.912 913.537L156.149 911.279L152.209 905.107C152.209 905.107 144.531 909.888 144.374 909.496C144.216 909.104 144.609 908.805 144.609 908.805L151.477 904.064L140.832 888.109C139.481 886.086 139.441 886.62 139.441 886.62L139.417 887.179L134.936 1009.95C134.931 1009.95 194.675 973.969 195.677 973.469Z" fill="#CBCBCB" fill-opacity="0.5"/>
<path d="M173.648 968.365L148.382 985.627L150.313 929.981L173.648 968.365ZM172.327 968.081L151.472 934.546L149.434 983.721L172.327 968.081Z" fill="#CBCBCB" fill-opacity="0.5"/>
</g>
<g clip-path="url(#clip2_231_5770)">
<path d="M15.8604 687.175L43.0753 665.931C43.0753 665.931 48.672 660.179 52.281 663.378C55.8899 666.576 40.6835 678.389 40.6835 678.389L20.6592 693.29L60.532 734.837C60.532 734.837 61.6768 736.614 63.1156 735.358C64.5545 734.103 90.9438 711.681 90.9438 711.681C90.9438 711.681 93.8223 708.407 92.7198 704.833L53.0832 664.223" stroke="#CBCBCB" stroke-opacity="0.5" stroke-width="2" stroke-miterlimit="10"/>
<path d="M15.8604 687.175L43.0753 665.931C43.0753 665.931 48.672 660.179 52.281 663.378C55.8899 666.576 40.6835 678.389 40.6835 678.389L20.6592 693.29L60.532 734.837C60.532 734.837 61.6768 736.614 63.1156 735.358C64.5545 734.103 90.9438 711.681 90.9438 711.681C90.9438 711.681 93.8223 708.407 92.7198 704.833L53.0832 664.223" stroke="#CBCBCB" stroke-opacity="0.5" stroke-width="2" stroke-miterlimit="10"/>
<path d="M49.5908 665.45L25.0364 685.133" stroke="#CBCBCB" stroke-opacity="0.5" stroke-width="2" stroke-miterlimit="10"/>
<path d="M25.6982 687.166L33.6226 680.758" stroke="#CBCBCB" stroke-opacity="0.5" stroke-width="2" stroke-miterlimit="10"/>
<path d="M38.7876 674.108C38.7876 674.108 38.0566 677.085 39.9714 679.346C41.8862 681.607 47.7953 686.198 47.7953 686.198L46.8336 680.577L53.7345 681.728L46.3266 674.276C46.3266 674.276 45.4232 672.99 45.5193 671.305C45.6155 669.62 45.9744 668.347 45.9744 668.347" stroke="#CBCBCB" stroke-opacity="0.5" stroke-width="2" stroke-miterlimit="10"/>
<path d="M38.7876 674.108C38.7876 674.108 38.0566 677.085 39.9714 679.346C41.8862 681.607 47.7953 686.198 47.7953 686.198L46.8336 680.577L53.7345 681.728L46.3266 674.276C46.3266 674.276 45.4232 672.99 45.5193 671.305C45.6155 669.62 45.9744 668.347 45.9744 668.347" stroke="#CBCBCB" stroke-opacity="0.5" stroke-width="2" stroke-miterlimit="10"/>
<path d="M57.7966 693.223C57.7966 693.223 50.3884 697.861 46.6972 702.365C46.6999 702.366 54.4995 697.587 57.7966 693.223Z" stroke="#CBCBCB" stroke-opacity="0.5" stroke-width="2" stroke-miterlimit="10"/>
<path d="M60.5598 698.28C60.5598 698.28 54.5143 702.265 52.0269 705.779C52.0269 705.779 57.473 702.291 60.5598 698.28Z" stroke="#CBCBCB" stroke-opacity="0.5" stroke-width="2" stroke-miterlimit="10"/>
<path d="M64.7768 701.558C64.7768 701.558 57.6328 706.91 55.3024 709.66C55.3024 709.66 61.6872 705.568 64.7768 701.558Z" stroke="#CBCBCB" stroke-opacity="0.5" stroke-width="2" stroke-miterlimit="10"/>
<path d="M50.3205 669.523L91.1942 711.522" stroke="#CBCBCB" stroke-opacity="0.5" stroke-width="2" stroke-miterlimit="10"/>
<path d="M22.8951 691.655C22.8951 691.655 21.7043 686.185 17.2214 686.151" stroke="#CBCBCB" stroke-opacity="0.5" stroke-width="2" stroke-miterlimit="10"/>
<path d="M44.7069 666.757C44.7069 666.757 38.6762 670.893 37.0865 673.191C37.0865 673.191 42.9656 668.906 44.7069 666.757Z" stroke="#CBCBCB" stroke-opacity="0.5" stroke-width="2" stroke-miterlimit="10"/>
</g>
<g clip-path="url(#clip3_231_5770)">
<path d="M17.2701 838.338C17.2701 838.338 118.377 765.091 120.519 763.877C122.661 762.664 124.174 764.567 124.174 764.567L144.044 791.693C144.494 792.305 142.991 793.304 142.991 793.304C142.991 793.304 42.4192 867.939 40.2949 869.399C38.1705 870.858 37.7226 869.583 37.7226 869.583C37.7226 869.583 17.8774 841.84 16.9874 840.478C16.0967 839.105 17.2701 838.338 17.2701 838.338ZM18.926 840.022C18.926 840.022 37.6122 864.578 38.2163 865.546C38.8204 866.513 40.4337 865.387 40.4337 865.387C40.4337 865.387 140.124 793.806 141.305 792.999C142.485 792.191 142.127 791.613 142.127 791.613L123.143 768.028C122.665 767.438 121.537 768.143 121.537 768.143L115.624 772.311C115.624 772.311 124.163 784.488 125.49 787.394C126.818 790.301 124.165 788.123 124.165 788.123L113.143 773.627L104.954 779.483C104.954 779.483 109.415 786.722 110.342 788.053C111.269 789.383 109.754 789.254 109.754 789.254L102.788 780.906L94.4196 786.755L94.5999 787.059C94.5999 787.059 105.267 801.58 105.946 802.483C106.625 803.385 106.534 804.055 106.074 804.276C105.615 804.498 104.968 804.039 104.968 804.039L91.5752 788.256L90.9691 788.646L84.3758 793.685C84.3758 793.685 89.7903 801.658 90.2345 802.191C90.6894 802.733 91.2885 803.631 90.5227 803.864C89.7575 804.107 89.2928 803.566 89.2928 803.566L81.9488 795.067L72.8101 801.357L73.2368 801.921C73.2368 801.921 87.083 819.058 86.2335 820.06C85.3931 821.051 84.3004 820.317 84.3004 820.317L70.1952 803.575L69.7504 803.864L62.6052 809.081L68.2709 816.828C68.2709 816.828 69.3615 817.949 68.6548 818.593C67.9481 819.238 67.3342 818.827 67.3342 818.827L60.5393 810.665L50.9044 817.496C50.9044 817.496 63.5806 834.201 63.8735 834.696C64.1664 835.19 64.5192 835.967 63.828 836.274C63.1367 836.581 62.6165 836.093 62.6165 836.093L48.4211 819.061L40.2525 825.064C42.1689 827.066 46.3441 832.949 46.1922 833.593C46.0402 834.238 45.0813 833.713 45.0813 833.713L38.076 825.933L29.1584 832.544C29.1584 832.544 40.9377 849.036 41.2313 849.54C41.525 850.044 41.4948 850.591 41.1639 850.813C40.8324 851.025 40.2854 850.856 40.2854 850.856L26.5871 834.402C26.5871 834.402 20.5131 837.838 19.4622 838.656C18.4114 839.474 18.926 840.022 18.926 840.022Z" fill="#CBCBCB" fill-opacity="0.5"/>
</g>
<g clip-path="url(#clip4_231_5770)">
<path d="M61.3512 563.831L61.9552 563.786C62.1661 563.768 83.4722 562.161 98.4086 555.345C113.174 548.61 143.417 540.853 143.719 540.773L144.217 540.646L145.786 540.181C145.796 540.086 145.01 536.975 144.203 533.858C143.811 532.328 142.038 526.72 139.676 518.726C136.417 507.722 132.467 492.431 130.304 482.579C126.689 466.121 115.773 420.818 115.67 420.365L115.501 419.624L114.766 419.821C114.528 419.891 90.6272 426.374 71.3664 430.586C51.9971 434.817 31.358 443.842 31.1511 443.94L30.2737 444.355L30.785 445.945C30.8816 446.267 40.2861 478.571 43.114 493.192C45.9522 507.87 61.0528 562.697 61.198 563.257L61.3512 563.831ZM143.151 539.208C139.063 540.273 111.156 547.126 97.3544 553.419C84.0527 559.483 65.8264 562.339 62.2706 562.657C60.6813 556.647 47.7211 506.449 45.0581 492.635C42.436 479.052 33.8568 450.359 32.4971 445.858C35.9002 444.253 54.2605 435.809 71.6791 432.003C89.0763 428.206 109.774 423.086 113.953 421.958C115.314 427.928 124.992 467.807 128.359 483.114C130.532 493.016 135.006 508.121 138.273 519.146C140.536 526.774 142.316 532.803 142.514 534.263C142.863 536.836 143.181 538.37 143.151 539.208Z" fill="#CBCBCB" fill-opacity="0.5"/>
<path d="M101.559 467.078C101.559 467.078 88.9627 466.426 78.8772 468.922C68.7918 471.419 64.8591 471.072 64.8591 471.072L64.9493 472.857C64.9493 472.857 75.2754 471.942 79.3587 470.644C83.442 469.347 101.559 467.078 101.559 467.078Z" fill="#CBCBCB" fill-opacity="0.5"/>
<path d="M104.366 477.232C104.366 477.232 70.8116 483.49 68.9575 485.104C67.1034 486.719 65.8006 484.209 68.8456 482.891C71.89 481.558 99.0903 476.327 104.366 477.232Z" fill="#CBCBCB" fill-opacity="0.5"/>
<path d="M105.295 486.36C105.295 486.36 104.74 485.784 101.813 485.969C98.8856 486.153 73.2778 489.652 70.4838 493.191C70.4838 493.191 96.5027 489.3 100.709 488.84C104.908 488.388 105.967 487.672 105.295 486.36Z" fill="#CBCBCB" fill-opacity="0.5"/>
<path d="M107.283 498.251C107.283 498.251 95.4205 500.407 87.2753 501.838C79.1302 503.268 72.2734 505.477 72.2734 505.477C72.2734 505.477 68.8049 506.511 69.3255 504.382C69.8461 502.253 88.6318 499.193 91.0507 499.071C98.7462 498.136 107.283 498.251 107.283 498.251Z" fill="#CBCBCB" fill-opacity="0.5"/>
<path d="M148.003 529.714C149.562 529.33 150.053 530.237 149.338 530.542C148.687 530.815 141.953 533.134 139.905 533.514C137.857 533.894 137.405 534.339 137.405 534.339C137.405 534.339 135.799 535.083 135.885 533.754C135.971 532.425 147.544 529.592 148.003 529.714Z" fill="#CBCBCB" fill-opacity="0.5"/>
<path d="M145.654 521.102C146.855 521.005 147.437 521.543 147.003 522.205C146.528 522.927 139.121 524.939 137.062 525.239C135.002 525.54 134.122 525.897 134.29 524.601C134.458 523.305 145.158 520.959 145.654 521.102Z" fill="#CBCBCB" fill-opacity="0.5"/>
<path d="M142.718 512.57C143.918 512.473 144.5 513.011 144.066 513.673C143.592 514.395 136.184 516.407 134.125 516.707C132.066 517.008 131.185 517.365 131.354 516.069C131.522 514.773 142.228 512.427 142.718 512.57Z" fill="#CBCBCB" fill-opacity="0.5"/>
<path d="M141.081 503.448C142.281 503.351 142.863 503.889 142.429 504.551C141.955 505.274 134.547 507.285 132.488 507.586C130.429 507.886 129.548 508.244 129.717 506.947C129.885 505.651 140.592 503.313 141.081 503.448Z" fill="#CBCBCB" fill-opacity="0.5"/>
<path d="M138.988 495.288C140.189 495.191 140.771 495.729 140.337 496.391C139.862 497.114 132.455 499.125 130.396 499.426C128.336 499.726 127.456 500.084 127.624 498.787C127.792 497.491 138.499 495.145 138.988 495.288Z" fill="#CBCBCB" fill-opacity="0.5"/>
<path d="M136.35 487.156C137.55 487.059 138.132 487.597 137.698 488.259C137.223 488.981 129.816 490.993 127.757 491.293C125.698 491.594 124.817 491.951 124.985 490.655C125.154 489.359 135.86 487.013 136.35 487.156Z" fill="#CBCBCB" fill-opacity="0.5"/>
<path d="M133.79 479.012C134.991 478.915 135.573 479.453 135.139 480.115C134.664 480.838 127.257 482.849 125.198 483.15C123.138 483.45 122.258 483.807 122.426 482.511C122.595 481.215 133.302 478.876 133.79 479.012Z" fill="#CBCBCB" fill-opacity="0.5"/>
<path d="M129.85 462.024C131.049 461.92 131.632 462.466 131.198 463.121C130.723 463.843 123.316 465.855 121.256 466.155C119.197 466.456 118.317 466.813 118.485 465.517C118.654 464.227 129.36 461.882 129.85 462.024Z" fill="#CBCBCB" fill-opacity="0.5"/>
<path d="M128.132 453.475C129.332 453.378 129.915 453.916 129.48 454.578C129.006 455.3 121.598 457.312 119.539 457.612C117.48 457.913 116.599 458.27 116.768 456.974C116.929 455.678 127.636 453.34 128.132 453.475Z" fill="#CBCBCB" fill-opacity="0.5"/>
<path d="M125.649 445.392C126.851 445.339 127.413 445.907 126.949 446.549C126.444 447.251 118.964 448.975 116.893 449.189C114.822 449.41 113.925 449.725 114.152 448.44C114.372 447.156 125.159 445.235 125.649 445.392Z" fill="#CBCBCB" fill-opacity="0.5"/>
<path d="M123.712 437.283C124.915 437.229 125.477 437.798 125.013 438.44C124.508 439.142 117.027 440.866 114.956 441.08C112.886 441.301 111.989 441.615 112.216 440.33C112.436 439.039 123.222 437.126 123.712 437.283Z" fill="#CBCBCB" fill-opacity="0.5"/>
<path d="M121.747 429.167C122.949 429.114 123.511 429.682 123.047 430.324C122.542 431.026 115.061 432.75 112.99 432.964C110.92 433.185 110.023 433.5 110.25 432.215C110.477 430.93 121.264 429.01 121.747 429.167Z" fill="#CBCBCB" fill-opacity="0.5"/>
<path d="M132.602 470.522C133.884 470.45 134.496 471.009 134.011 471.659C133.477 472.37 125.498 474.199 123.29 474.449C121.082 474.699 120.127 475.031 120.347 473.739C120.566 472.448 132.083 470.367 132.602 470.522Z" fill="#CBCBCB" fill-opacity="0.5"/>
</g>
<g clip-path="url(#clip5_231_5770)">
<path d="M182.014 569.975C182.014 569.975 187.862 572.446 187.495 574.813C187.129 577.18 181.149 594.139 181.149 594.139L181.1 594.309L180.354 594.092L186.765 575.062C186.765 575.062 186.928 574.5 186.294 573.753C185.66 573.007 182.679 570.053 178.301 570.828C178.301 570.828 178.114 570.911 177.906 571.485C177.696 572.063 170.959 590.446 170.959 590.446L170.247 590.239L176.911 571.276C176.911 571.276 177.205 570.124 177.753 569.916C178.302 569.707 179.271 568.947 182.014 569.975Z" fill="#CBCBCB" fill-opacity="0.78"/>
<path d="M183.349 577.405C183.349 577.405 182.884 580.256 181.452 583.518C180.02 586.779 178.712 589.706 178.712 589.706C178.712 589.706 180.38 584.071 181.076 581.987C181.772 579.904 183.349 577.405 183.349 577.405Z" fill="#CBCBCB" fill-opacity="0.78"/>
<path d="M182.244 573.258C182.244 573.258 181.457 577.317 180.139 580.5C178.822 583.68 177.585 586.047 177.585 586.047C177.585 586.047 179.019 580.175 179.669 578.25C180.319 576.326 182.244 573.258 182.244 573.258Z" fill="#CBCBCB" fill-opacity="0.78"/>
<path d="M178.108 576.607C178.108 576.607 177.477 580.134 176.407 583.501C175.337 586.872 174.118 588.659 174.118 588.659C174.118 588.659 174.753 584.379 175.625 581.795C176.5 579.212 178.108 576.607 178.108 576.607Z" fill="#CBCBCB" fill-opacity="0.78"/>
<path d="M162.236 598.844C162.236 598.844 165.492 590.71 165.778 589.856C166.068 589.003 166.315 588.736 166.315 588.736L167.718 589.143C171.854 590.489 184.603 595.673 184.603 595.673C185.09 595.872 184.958 596.158 184.958 596.158L184.835 596.58C184.835 596.58 181.184 607.401 181.071 607.829C180.957 608.258 180.379 608.634 180.379 608.634L169.515 615.484L164.245 613.952C164.245 613.952 162.463 603.554 162.101 601.769C161.742 599.984 162.236 598.844 162.236 598.844ZM162.834 600.756L164.756 613.391L169.508 614.674C169.508 614.674 179.049 608.695 179.584 608.31C180.12 607.925 180.194 607.463 180.194 607.463L183.682 596.577C183.817 596.151 182.894 595.905 182.894 595.905C182.894 595.905 167.157 589.55 166.978 589.462C166.799 589.374 166.608 589.928 166.608 589.928C166.608 589.928 163.53 598.218 163.153 599.096C162.779 599.968 162.834 600.756 162.834 600.756Z" fill="#CBCBCB" fill-opacity="0.78"/>
<path d="M178.326 657.688L178.385 609.898L177.154 610.672L177.266 657.145C177.266 657.145 173.488 658.016 173.16 658.31C172.833 658.601 172.625 657.924 172.747 656.528C172.869 655.135 171.255 614.392 171.255 614.392L170.291 614.999L171.665 658.301C171.665 658.301 171.561 659.49 172.37 659.299C173.174 659.108 177.611 658.003 177.611 658.003L178.234 657.848C178.232 657.844 178.327 657.84 178.326 657.688Z" fill="#CBCBCB" fill-opacity="0.78"/>
<path d="M177.094 658.126L174.488 667.967C174.488 667.967 174.354 668.44 174.006 668.44C173.658 668.44 173.553 667.54 173.553 667.54L173.006 659.138L174.192 658.845L174.348 665.027L175.819 658.441L177.094 658.126Z" fill="#CBCBCB" fill-opacity="0.78"/>
<path d="M177.528 640.248L177.483 639.594L181.135 639.458L180.963 636.328L185.807 636.2L186.365 646.217L181.519 646.348L181.397 644.139L177.796 644.271L177.752 643.616L181.361 643.482L181.176 640.111L177.528 640.248ZM182.203 645.635L185.458 645.549L184.868 637.142L181.727 637.004L182.203 645.635Z" fill="#CBCBCB" fill-opacity="0.78"/>
<path d="M144.085 630.963L143.742 631.364L141.466 629.589L139.81 631.487L136.819 629.104L142.745 622.572L145.443 625.029L143.94 626.752L146.184 628.504L145.841 628.905L143.593 627.152L141.812 629.195L144.085 630.963ZM144.529 625.207L142.868 623.815L138.127 629.094L139.906 630.506L144.529 625.207Z" fill="#CBCBCB" fill-opacity="0.78"/>
<path d="M164.158 613.444L139.63 647.348C139.63 647.348 138.572 648.973 137.977 648.508C137.381 648.046 134.229 644.145 134.229 644.145C134.229 644.145 133.77 643.838 134.25 643.137C134.726 642.436 162.661 604.798 162.661 604.798L162.945 606.413L135.445 643.348C135.445 643.348 135.172 643.791 135.444 644.119C135.711 644.449 137.931 646.793 137.931 646.793C137.931 646.793 138.539 647.355 138.9 646.88C139.262 646.404 163.927 612.053 163.927 612.053L164.158 613.444Z" fill="#CBCBCB" fill-opacity="0.78"/>
<path d="M137.674 648.222L131.53 656.259L134.834 644.89L135.412 645.595L132.924 653.127L136.956 647.425L137.674 648.222Z" fill="#CBCBCB" fill-opacity="0.78"/>
<path d="M175.399 605.402C177.348 605.969 179.372 604.916 179.911 603.061C180.451 601.202 179.303 599.231 177.356 598.666C175.407 598.099 173.384 599.152 172.844 601.007C172.305 602.863 173.449 604.836 175.399 605.402ZM177.164 599.327C178.727 599.781 179.647 601.365 179.214 602.855C178.781 604.344 177.156 605.188 175.593 604.734C174.027 604.279 173.11 602.696 173.543 601.207C173.976 599.717 175.602 598.873 177.164 599.327Z" fill="#CBCBCB" fill-opacity="0.78"/>
<path d="M168.036 602.509C169.985 603.076 172.008 602.023 172.548 600.167C173.088 598.309 171.94 596.338 169.993 595.772C168.044 595.206 166.02 596.259 165.481 598.114C164.939 599.968 166.086 601.942 168.036 602.509ZM169.801 596.434C171.364 596.888 172.284 598.472 171.851 599.961C171.418 601.451 169.792 602.295 168.23 601.841C166.664 601.386 165.747 599.803 166.18 598.313C166.609 596.823 168.235 595.979 169.801 596.434Z" fill="#CBCBCB" fill-opacity="0.78"/>
</g>
<path d="M17.1351 349.875L49.2573 355.929L49.3069 355.938L117.106 389.641L117.234 389.703L117.305 389.841C121.609 398.667 113.187 405.502 113.1 405.573L112.91 405.726L43.1738 370.818C43.1738 370.818 28.884 360.33 18.0207 351.49C15.8563 349.875 17.1351 349.875 17.1351 349.875ZM46.228 364.612C46.1369 365.05 45.6817 365.136 45.2223 365.188C44.345 365.283 41.4192 365.521 41.2867 365.536C41.2288 365.54 41.1709 365.545 41.1129 365.55C42.2841 366.669 45.7645 370.427 46.8984 371.647L92.4745 394.461C98.3924 389.189 97.664 381.354 97.6185 381.011C97.6185 381.011 97.6185 381.006 97.6185 380.996L51.0906 357.867L42.4082 359.277C42.1517 359.306 41.8578 359.401 41.7254 359.487C41.742 359.511 41.7668 359.539 41.7999 359.572C42.6441 360.449 45.7893 363.773 46.05 364.05C46.199 364.178 46.2694 364.397 46.228 364.612ZM108.792 386.621C108.792 386.621 108.792 386.588 108.792 386.545L98.918 381.635C99.0421 383.93 98.8642 390.313 93.7284 395.085L103.665 400.058C109.566 394.79 108.838 386.964 108.792 386.621ZM116.647 390.451L110.087 387.188C110.216 389.427 110.079 395.871 104.914 400.687L112.811 404.64C114.002 403.616 120.144 397.853 116.647 390.451ZM43.5422 369.965L44.6926 370.542C42.7724 368.498 40.6453 366.274 40.2894 366.012C39.9004 365.721 39.9045 365.398 39.9459 365.231C39.9831 365.069 40.0825 364.645 41.2412 364.578C41.2702 364.574 44.0264 364.35 45.0237 364.25C44.0553 363.226 41.9199 360.973 41.2453 360.273C40.8232 359.834 40.8191 359.449 40.8895 359.201C41.0757 358.539 41.953 358.367 42.3048 358.329L49.5801 357.115L49.0752 356.862L28.4412 352.976C29.6454 354.938 31.5119 358.315 31.4001 360.192L43.5422 369.965ZM30.5311 359.496C30.229 358.015 28.8426 355.229 27.2741 352.752L20.5865 351.49L30.5311 359.496Z" fill="#CBCBCB" fill-opacity="0.5"/>
<path d="M102.796 396.662C104.703 394.652 106.433 388.369 106.433 388.369C106.433 388.369 107.368 390.746 105.709 393.804C104.045 396.867 102.796 396.662 102.796 396.662Z" fill="#CBCBCB" fill-opacity="0.5"/>
<path d="M100.002 395.605C101.91 393.595 103.64 387.312 103.64 387.312C103.64 387.312 104.575 389.689 102.916 392.747C101.252 395.809 100.002 395.605 100.002 395.605Z" fill="#CBCBCB" fill-opacity="0.5"/>
<path d="M96.9936 394.109C98.9014 392.099 100.631 385.817 100.631 385.817C100.631 385.817 101.566 388.193 99.9029 391.256C98.2392 394.314 96.9936 394.109 96.9936 394.109Z" fill="#CBCBCB" fill-opacity="0.5"/>
<g clip-path="url(#clip6_231_5770)">
<path d="M122.957 178.088L177.584 224.981C177.584 224.981 191.647 234.053 186.598 242.754C181.55 251.455 151.143 225.23 151.143 225.23L112.439 190.426L43.9852 289.12C43.9852 289.12 40.8272 292.194 43.9852 294.619C47.1431 297.043 103.841 341.761 103.841 341.761C103.841 341.761 111.716 346.298 118.565 342.568L185.202 244.744" stroke="#CBCBCB" stroke-opacity="0.5" stroke-width="2" stroke-miterlimit="10"/>
<path d="M181.254 238.108L130.911 196.012" stroke="#CBCBCB" stroke-opacity="0.5" stroke-width="2" stroke-miterlimit="10"/>
<path d="M127.03 198.205L143.392 211.767" stroke="#CBCBCB" stroke-opacity="0.5" stroke-width="2" stroke-miterlimit="10"/>
<path d="M159.109 219.586C159.109 219.586 152.725 219.319 148.894 224.169C145.063 229.018 138.119 242.998 138.119 242.998L149.208 238.711L149.702 253.3L161.874 235.074C161.874 235.074 164.129 232.696 167.612 232.197C171.095 231.698 173.844 231.907 173.844 231.907" stroke="#CBCBCB" stroke-opacity="0.5" stroke-width="2" stroke-miterlimit="10"/>
<path d="M127.888 266.352C127.888 266.352 115.357 253.114 104.632 247.424C104.632 247.43 117.612 261.409 127.888 266.352Z" stroke="#CBCBCB" stroke-opacity="0.5" stroke-width="2" stroke-miterlimit="10"/>
<path d="M118.695 274.09C118.695 274.09 108.06 263.37 99.8534 259.733C99.8534 259.733 109.226 269.432 118.695 274.09Z" stroke="#CBCBCB" stroke-opacity="0.5" stroke-width="2" stroke-miterlimit="10"/>
<path d="M113.736 284.067C113.736 284.067 99.8534 271.665 93.2739 268.034C93.2739 268.034 104.268 279.403 113.736 284.067Z" stroke="#CBCBCB" stroke-opacity="0.5" stroke-width="2" stroke-miterlimit="10"/>
<path d="M173.233 241.281L104.268 342.208" stroke="#CBCBCB" stroke-opacity="0.5" stroke-width="2" stroke-miterlimit="10"/>
<path d="M116.703 194.324C116.703 194.324 127.389 189.631 125.611 180.448" stroke="#CBCBCB" stroke-opacity="0.5" stroke-width="2" stroke-miterlimit="10"/>
<path d="M176.57 228.658C176.57 228.658 165.632 218.031 160.281 215.729C160.281 215.729 171.46 225.984 176.57 228.658Z" stroke="#CBCBCB" stroke-opacity="0.5" stroke-width="2" stroke-miterlimit="10"/>
</g>
<g clip-path="url(#clip7_231_5770)">
<rect width="132.313" height="117" transform="translate(1646.76 1192.57) rotate(178.694)" fill="white" fill-opacity="0.4"/>
<path d="M1579.59 1109.92C1544.6 1110.72 1516.51 1123.32 1516.85 1138.06C1517.18 1152.8 1545.82 1164.1 1580.81 1163.3C1615.8 1162.5 1643.89 1149.91 1643.56 1135.17C1643.22 1120.43 1614.58 1109.13 1579.59 1109.92Z" stroke="#CBCBCB" stroke-opacity="0.24" stroke-width="3.7811" stroke-miterlimit="10"/>
<path d="M1543.5 1084.95C1531.48 1093.49 1538.17 1123.54 1558.44 1152.07C1578.71 1180.6 1604.88 1196.81 1616.9 1188.27C1628.92 1179.73 1622.23 1149.68 1601.96 1121.15C1581.69 1092.62 1555.52 1076.41 1543.5 1084.95Z" stroke="#CBCBCB" stroke-opacity="0.24" stroke-width="3.7811" stroke-miterlimit="10"/>
<path d="M1557.25 1122.97C1539.37 1153.06 1535.14 1183.55 1547.81 1191.09C1560.49 1198.62 1585.26 1180.34 1603.14 1150.26C1621.03 1120.17 1625.26 1089.68 1612.58 1082.14C1599.91 1074.61 1575.14 1092.89 1557.25 1122.97Z" stroke="#CBCBCB" stroke-opacity="0.24" stroke-width="3.7811" stroke-miterlimit="10"/>
<path d="M1598.51 1076.64C1602.83 1076.54 1606.44 1079.89 1606.54 1084.11C1606.63 1088.32 1603.19 1091.84 1598.86 1091.94C1594.52 1092.03 1590.92 1088.68 1590.82 1084.47C1590.73 1080.24 1594.18 1076.74 1598.51 1076.64ZM1598.8 1089.59C1601.84 1089.52 1604.25 1087.08 1604.19 1084.16C1604.12 1081.23 1601.6 1078.91 1598.56 1078.98C1595.52 1079.05 1593.11 1081.48 1593.17 1084.41C1593.24 1087.34 1595.76 1089.65 1598.8 1089.59Z" fill="#CBCBCB" fill-opacity="0.24"/>
</g>
<g clip-path="url(#clip8_231_5770)">
<path d="M1663.89 315.785L1664.01 317.161C1664.01 317.161 1664.12 317.882 1664.49 317.918C1664.85 317.955 1665.12 317.963 1665.52 317.399L1722.37 226.92C1722.37 226.92 1723.22 225.904 1722.33 225.245C1721.43 224.586 1657.26 188.193 1657.26 188.193C1657.26 188.193 1656.05 187.581 1655.89 189.142C1655.72 190.703 1663.89 315.785 1663.89 315.785ZM1719.81 225.65C1720.84 226.132 1720.49 226.785 1720.49 226.785L1716.27 232.852C1716.27 232.852 1708.98 228.634 1708.72 228.908C1708.46 229.182 1708.68 229.494 1708.68 229.494L1715.73 233.955L1711.19 241.363L1706.2 238.685C1706.2 238.685 1704.82 238.012 1704.78 238.291C1704.73 238.57 1705.08 238.894 1705.08 238.894L1710.52 242.514L1705.81 249.792C1705.81 249.792 1700.15 246.841 1698.94 246.333C1697.73 245.83 1697.96 246.356 1697.96 246.356L1705.05 250.975L1700.44 258.28C1700.44 258.28 1694.82 254.793 1694.4 255.15C1693.98 255.507 1694.61 255.864 1694.61 255.864L1699.99 259.223L1695.93 266.049C1695.93 266.049 1688.38 261.759 1687.58 261.559C1686.78 261.359 1687.27 262.081 1687.27 262.081L1695.04 267.488L1691.48 273.475C1691.48 273.475 1686.83 270.978 1686.11 270.994C1685.39 271.011 1685.95 271.742 1685.95 271.742L1690.64 274.288L1686.51 281.012L1678.9 276.663C1678.02 276.743 1678.54 277.41 1678.54 277.41L1685.82 282.079L1681.96 288.49C1681.96 288.49 1677.8 285.957 1677.69 286.475C1677.58 286.993 1677.92 287.278 1677.92 287.278L1681.25 289.488L1677.41 295.824C1677.41 295.824 1669.53 291.164 1669.38 291.564C1669.23 291.964 1669.63 292.257 1669.63 292.257L1676.69 296.897L1666.29 313.285C1664.97 315.363 1664.91 314.824 1664.91 314.824L1664.88 314.26L1657.51 190.141C1657.5 190.141 1718.79 225.167 1719.81 225.65Z" fill="#CBCBCB"/>
<path d="M1697.64 231.323L1671.68 214.439L1674.91 270.699L1697.64 231.323ZM1696.31 231.641L1675.98 266.053L1672.78 216.343L1696.31 231.641Z" fill="#CBCBCB"/>
</g>
<g clip-path="url(#clip9_231_5770)">
<path d="M1544.47 519.481L1572.5 540.348C1572.5 540.348 1578.3 546.039 1581.87 542.719C1585.45 539.399 1569.79 527.798 1569.79 527.798L1549.19 513.183L1588.57 470.224C1588.57 470.224 1589.69 468.4 1591.18 469.637C1592.66 470.874 1619.88 492.953 1619.88 492.953C1619.88 492.953 1622.87 496.198 1621.83 499.84L1582.67 541.845" stroke="#CBCBCB" stroke-opacity="0.5" stroke-width="2" stroke-miterlimit="10"/>
<path d="M1579.1 540.684L1553.8 521.335" stroke="#CBCBCB" stroke-opacity="0.5" stroke-width="2" stroke-miterlimit="10"/>
<path d="M1554.43 519.262L1562.59 525.564" stroke="#CBCBCB" stroke-opacity="0.5" stroke-width="2" stroke-miterlimit="10"/>
<path d="M1567.97 532.173C1567.97 532.173 1567.16 529.178 1569.05 526.846C1570.93 524.514 1576.81 519.732 1576.81 519.732L1575.96 525.442L1582.92 524.118L1575.6 531.829C1575.6 531.829 1574.71 533.151 1574.85 534.854C1574.98 536.557 1575.38 537.837 1575.38 537.837" stroke="#CBCBCB" stroke-opacity="0.5" stroke-width="2" stroke-miterlimit="10"/>
<path d="M1586.77 512.393C1586.77 512.393 1579.16 507.872 1575.32 503.4C1575.33 503.399 1583.33 508.054 1586.77 512.393Z" stroke="#CBCBCB" stroke-opacity="0.5" stroke-width="2" stroke-miterlimit="10"/>
<path d="M1589.44 507.213C1589.44 507.213 1583.24 503.32 1580.64 499.822C1580.64 499.822 1586.23 503.226 1589.44 507.213Z" stroke="#CBCBCB" stroke-opacity="0.5" stroke-width="2" stroke-miterlimit="10"/>
<path d="M1593.64 503.799C1593.64 503.799 1586.28 498.548 1583.86 495.82C1583.86 495.82 1590.42 499.813 1593.64 503.799Z" stroke="#CBCBCB" stroke-opacity="0.5" stroke-width="2" stroke-miterlimit="10"/>
<path d="M1579.75 536.546L1620.14 493.107" stroke="#CBCBCB" stroke-opacity="0.5" stroke-width="2" stroke-miterlimit="10"/>
<path d="M1551.49 514.786C1551.49 514.786 1550.41 520.348 1545.87 520.486" stroke="#CBCBCB" stroke-opacity="0.5" stroke-width="2" stroke-miterlimit="10"/>
<path d="M1574.13 539.475C1574.13 539.475 1567.93 535.429 1566.27 533.14C1566.27 533.14 1572.32 537.34 1574.13 539.475Z" stroke="#CBCBCB" stroke-opacity="0.5" stroke-width="2" stroke-miterlimit="10"/>
</g>
<g clip-path="url(#clip10_231_5770)">
<path d="M1542.41 366.497C1542.41 366.497 1646.4 438.278 1648.6 439.456C1650.79 440.634 1652.28 438.674 1652.28 438.674L1671.76 410.768C1672.2 410.139 1670.66 409.162 1670.66 409.162C1670.66 409.162 1567.17 335.965 1564.99 334.537C1562.81 333.109 1562.38 334.41 1562.38 334.41C1562.38 334.41 1542.94 362.939 1542.08 364.338C1541.21 365.747 1542.41 366.497 1542.41 366.497ZM1544.05 364.754C1544.05 364.754 1562.39 339.476 1562.98 338.484C1563.57 337.491 1565.22 338.593 1565.22 338.593C1565.22 338.593 1667.75 408.72 1668.96 409.51C1670.17 410.3 1669.82 410.894 1669.82 410.894L1651.16 435.195C1650.69 435.803 1649.53 435.116 1649.53 435.116L1643.45 431.036C1643.45 431.036 1651.81 418.517 1653.09 415.546C1654.36 412.574 1651.73 414.839 1651.73 414.839L1640.91 429.761L1632.49 424.024C1632.49 424.024 1636.84 416.597 1637.74 415.229C1638.65 413.862 1637.12 414.028 1637.12 414.028L1630.27 422.635L1621.66 416.91L1621.84 416.598C1621.84 416.598 1632.3 401.659 1632.96 400.73C1633.63 399.801 1633.52 399.125 1633.05 398.912C1632.58 398.699 1631.94 399.178 1631.94 399.178L1618.75 415.456L1618.13 415.076L1611.34 410.13C1611.34 410.13 1616.64 401.937 1617.07 401.388C1617.52 400.829 1618.11 399.907 1617.33 399.688C1616.55 399.46 1616.09 400.019 1616.09 400.019L1608.85 408.787L1599.46 402.633L1599.88 402.053C1599.88 402.053 1613.49 384.394 1612.61 383.4C1611.74 382.416 1610.65 383.184 1610.65 383.184L1596.76 400.45L1596.31 400.167L1588.96 395.054L1594.51 387.084C1594.51 387.084 1595.59 385.925 1594.86 385.289C1594.13 384.653 1593.52 385.084 1593.52 385.084L1586.83 393.498L1576.92 386.809C1576.92 386.809 1589.36 369.613 1589.65 369.107C1589.93 368.6 1590.27 367.805 1589.57 367.511C1588.86 367.216 1588.35 367.722 1588.35 367.722L1574.38 385.283L1565.97 379.398C1567.86 377.327 1571.95 371.279 1571.78 370.63C1571.62 369.981 1570.66 370.535 1570.66 370.535L1563.75 378.569L1554.57 372.085C1554.57 372.085 1566.11 355.126 1566.4 354.609C1566.68 354.092 1566.64 353.539 1566.3 353.323C1565.96 353.116 1565.41 353.299 1565.41 353.299L1551.93 370.264C1551.93 370.264 1545.7 366.927 1544.62 366.124C1543.54 365.32 1544.05 364.754 1544.05 364.754Z" fill="#CBCBCB"/>
</g>
<g clip-path="url(#clip11_231_5770)">
<path d="M1593.35 643.234L1593.96 643.266C1594.17 643.279 1615.77 644.415 1631.04 650.967C1646.13 657.44 1676.91 664.591 1677.22 664.665L1677.73 664.783L1679.33 665.217C1679.34 665.313 1678.62 668.479 1677.87 671.651C1677.51 673.208 1675.85 678.923 1673.64 687.066C1670.6 698.276 1666.95 713.839 1664.99 723.857C1661.71 740.594 1651.71 786.685 1651.62 787.145L1651.47 787.899L1650.72 787.716C1650.48 787.651 1626.14 781.643 1606.56 777.826C1586.86 773.991 1565.77 765.336 1565.56 765.242L1564.66 764.842L1565.14 763.222C1565.23 762.893 1574 729.99 1576.52 715.131C1579.06 700.213 1593.07 644.389 1593.21 643.819L1593.35 643.234ZM1676.68 666.262C1672.52 665.278 1644.13 658.988 1630.02 652.939C1616.42 647.111 1597.91 644.641 1594.31 644.401C1592.84 650.519 1580.88 701.61 1578.5 715.649C1576.16 729.454 1568.15 758.684 1566.87 763.27C1570.35 764.815 1589.13 772.936 1606.84 776.384C1624.53 779.825 1645.59 784.528 1649.85 785.573C1651.09 779.501 1659.96 738.926 1663.01 723.361C1664.98 713.292 1669.16 697.905 1672.21 686.673C1674.32 678.903 1675.99 672.761 1676.15 671.28C1676.45 668.669 1676.73 667.109 1676.68 666.262Z" fill="#CBCBCB"/>
<path d="M1636.26 740.205C1636.26 740.205 1623.53 741.155 1613.27 738.862C1603.01 736.569 1599.04 737.011 1599.04 737.011L1599.09 735.202C1599.09 735.202 1609.56 735.889 1613.72 737.108C1617.88 738.327 1636.26 740.205 1636.26 740.205Z" fill="#CBCBCB"/>
<path d="M1638.87 729.866C1638.87 729.866 1604.77 724.308 1602.86 722.718C1600.95 721.127 1599.69 723.696 1602.8 724.96C1605.91 726.238 1633.55 730.903 1638.87 729.866Z" fill="#CBCBCB"/>
<path d="M1639.6 720.608C1639.6 720.608 1639.05 721.204 1636.08 721.085C1633.12 720.966 1607.13 718.017 1604.22 714.5C1604.22 714.5 1630.63 717.836 1634.9 718.205C1639.16 718.566 1640.25 719.265 1639.6 720.608Z" fill="#CBCBCB"/>
<path d="M1641.34 708.531C1641.34 708.531 1629.28 706.623 1621.01 705.363C1612.73 704.104 1605.75 702.027 1605.75 702.027C1605.75 702.027 1602.21 701.061 1602.79 703.203C1603.36 705.345 1622.44 708.008 1624.89 708.076C1632.7 708.844 1641.34 708.531 1641.34 708.531Z" fill="#CBCBCB"/>
<path d="M1681.81 675.756C1683.4 676.109 1683.87 675.18 1683.14 674.887C1682.48 674.626 1675.61 672.435 1673.53 672.097C1671.45 671.76 1670.98 671.321 1670.98 671.321C1670.98 671.321 1669.34 670.606 1669.46 671.948C1669.58 673.29 1681.35 675.89 1681.81 675.756Z" fill="#CBCBCB"/>
<path d="M1679.63 684.524C1680.85 684.595 1681.43 684.037 1680.97 683.377C1680.48 682.657 1672.94 680.792 1670.84 680.536C1668.75 680.279 1667.85 679.938 1668.06 681.246C1668.26 682.554 1679.14 684.68 1679.63 684.524Z" fill="#CBCBCB"/>
<path d="M1676.86 693.225C1678.08 693.296 1678.65 692.738 1678.2 692.078C1677.7 691.357 1670.16 689.493 1668.07 689.237C1665.98 688.98 1665.08 688.639 1665.28 689.947C1665.48 691.254 1676.37 693.381 1676.86 693.225Z" fill="#CBCBCB"/>
<path d="M1675.41 702.493C1676.63 702.563 1677.21 702.005 1676.75 701.345C1676.26 700.625 1668.71 698.761 1666.62 698.504C1664.53 698.247 1663.63 697.906 1663.83 699.214C1664.03 700.522 1674.92 702.641 1675.41 702.493Z" fill="#CBCBCB"/>
<path d="M1673.49 710.797C1674.7 710.868 1675.28 710.31 1674.82 709.65C1674.33 708.93 1666.79 707.065 1664.7 706.809C1662.6 706.552 1661.71 706.211 1661.91 707.519C1662.11 708.827 1672.99 710.953 1673.49 710.797Z" fill="#CBCBCB"/>
<path d="M1671 719.087C1672.22 719.157 1672.8 718.599 1672.34 717.939C1671.84 717.219 1664.3 715.355 1662.21 715.098C1660.12 714.842 1659.22 714.501 1659.42 715.808C1659.62 717.116 1670.51 719.243 1671 719.087Z" fill="#CBCBCB"/>
<path d="M1668.6 727.386C1669.82 727.457 1670.39 726.899 1669.94 726.239C1669.44 725.519 1661.9 723.654 1659.81 723.398C1657.72 723.141 1656.82 722.8 1657.02 724.108C1657.22 725.415 1668.11 727.534 1668.6 727.386Z" fill="#CBCBCB"/>
<path d="M1665.01 744.665C1666.22 744.743 1666.8 744.178 1666.34 743.525C1665.85 742.805 1658.31 740.941 1656.22 740.684C1654.13 740.428 1653.23 740.086 1653.43 741.394C1653.63 742.695 1664.51 744.821 1665.01 744.665Z" fill="#CBCBCB"/>
<path d="M1663.47 753.356C1664.68 753.427 1665.26 752.869 1664.8 752.209C1664.31 751.488 1656.77 749.624 1654.68 749.368C1652.58 749.111 1651.69 748.77 1651.89 750.078C1652.08 751.385 1662.97 753.504 1663.47 753.356Z" fill="#CBCBCB"/>
<path d="M1661.14 761.591C1662.36 761.617 1662.91 761.03 1662.43 760.391C1661.9 759.692 1654.29 758.12 1652.19 757.951C1650.09 757.775 1649.18 757.478 1649.44 758.773C1649.69 760.067 1660.65 761.761 1661.14 761.591Z" fill="#CBCBCB"/>
<path d="M1659.37 769.841C1660.59 769.868 1661.14 769.28 1660.66 768.641C1660.13 767.942 1652.52 766.37 1650.42 766.202C1648.32 766.026 1647.4 765.728 1647.66 767.023C1647.92 768.325 1658.87 770.012 1659.37 769.841Z" fill="#CBCBCB"/>
<path d="M1657.57 778.098C1658.78 778.125 1659.34 777.537 1658.85 776.898C1658.33 776.199 1650.72 774.627 1648.62 774.459C1646.52 774.283 1645.6 773.985 1645.86 775.28C1646.12 776.575 1657.08 778.269 1657.57 778.098Z" fill="#CBCBCB"/>
<path d="M1667.59 736.003C1668.89 736.047 1669.5 735.468 1668.99 734.821C1668.44 734.114 1660.32 732.447 1658.08 732.245C1655.84 732.043 1654.87 731.729 1655.12 733.031C1655.37 734.333 1667.07 736.173 1667.59 736.003Z" fill="#CBCBCB"/>
</g>
<g clip-path="url(#clip12_231_5770)">
<path d="M1715.3 634.234C1715.3 634.234 1721.16 631.599 1720.73 629.212C1720.31 626.825 1713.86 609.804 1713.86 609.804L1713.81 609.633L1713.06 609.87L1719.99 628.977C1719.99 628.977 1720.16 629.541 1719.54 630.312C1718.92 631.082 1715.97 634.14 1711.52 633.456C1711.52 633.456 1711.33 633.376 1711.11 632.8C1710.88 632.221 1703.64 613.776 1703.64 613.776L1702.92 614.001L1710.1 633.035C1710.1 633.035 1710.43 634.194 1710.99 634.392C1711.55 634.59 1712.55 635.337 1715.3 634.234Z" fill="#CBCBCB" fill-opacity="0.78"/>
<path d="M1716.48 626.685C1716.48 626.685 1715.94 623.811 1714.42 620.544C1712.89 617.277 1711.5 614.346 1711.5 614.346C1711.5 614.346 1713.32 620.008 1714.07 622.101C1714.82 624.193 1716.48 626.685 1716.48 626.685Z" fill="#CBCBCB" fill-opacity="0.78"/>
<path d="M1715.45 630.907C1715.45 630.907 1714.56 626.818 1713.16 623.628C1711.75 620.441 1710.44 618.074 1710.44 618.074C1710.44 618.074 1712.03 623.983 1712.73 625.915C1713.44 627.847 1715.45 630.907 1715.45 630.907Z" fill="#CBCBCB" fill-opacity="0.78"/>
<path d="M1711.19 627.613C1711.19 627.613 1710.47 624.059 1709.31 620.677C1708.15 617.291 1706.88 615.51 1706.88 615.51C1706.88 615.51 1707.62 619.826 1708.56 622.421C1709.5 625.015 1711.19 627.613 1711.19 627.613Z" fill="#CBCBCB" fill-opacity="0.78"/>
<path d="M1694.62 605.479C1694.62 605.479 1698.1 613.634 1698.41 614.492C1698.72 615.349 1698.98 615.613 1698.98 615.613L1700.39 615.169C1704.54 613.711 1717.32 608.172 1717.32 608.172C1717.81 607.959 1717.67 607.673 1717.67 607.673L1717.54 607.248C1717.54 607.248 1713.59 596.384 1713.47 595.953C1713.34 595.522 1712.75 595.154 1712.75 595.154L1701.6 588.475L1696.3 590.146C1696.3 590.146 1694.74 600.708 1694.41 602.523C1694.09 604.337 1694.62 605.479 1694.62 605.479ZM1695.18 603.531L1696.83 590.703L1701.61 589.294C1701.61 589.294 1711.4 595.124 1711.95 595.501C1712.5 595.879 1712.59 596.344 1712.59 596.344L1716.37 607.278C1716.52 607.706 1715.59 607.977 1715.59 607.977C1715.59 607.977 1699.81 614.77 1699.63 614.863C1699.45 614.956 1699.25 614.4 1699.25 614.4C1699.25 614.4 1695.94 606.083 1695.54 605.203C1695.14 604.329 1695.18 603.531 1695.18 603.531Z" fill="#CBCBCB" fill-opacity="0.78"/>
<path d="M1709.54 545.568L1710.7 593.922L1709.44 593.167L1708.48 546.142C1708.48 546.142 1704.64 545.348 1704.3 545.057C1703.96 544.771 1703.77 545.46 1703.92 546.87C1704.08 548.277 1703.38 589.539 1703.38 589.539L1702.4 588.947L1702.79 545.101C1702.79 545.101 1702.65 543.901 1703.48 544.075C1704.3 544.25 1708.81 545.266 1708.81 545.266L1709.44 545.408C1709.44 545.412 1709.54 545.415 1709.54 545.568Z" fill="#CBCBCB" fill-opacity="0.78"/>
<path d="M1708.28 545.152L1705.42 535.256C1705.42 535.256 1705.27 534.78 1704.92 534.788C1704.57 534.796 1704.48 535.709 1704.48 535.709L1704.13 544.223L1705.33 544.493L1705.35 538.234L1706.99 544.864L1708.28 545.152Z" fill="#CBCBCB" fill-opacity="0.78"/>
<path d="M1709.14 563.232L1709.11 563.896L1712.8 563.949L1712.7 567.12L1717.61 567.138L1717.94 556.989L1713.03 556.968L1712.96 559.207L1709.31 559.156L1709.28 559.819L1712.94 559.871L1712.83 563.287L1709.14 563.232ZM1713.74 557.674L1717.04 557.686L1716.63 566.206L1713.46 566.418L1713.74 557.674Z" fill="#CBCBCB" fill-opacity="0.78"/>
<path d="M1675.51 573.399L1675.15 573.001L1672.89 574.85L1671.17 572.967L1668.2 575.448L1674.35 581.921L1677.02 579.372L1675.46 577.663L1677.69 575.839L1677.34 575.441L1675.1 577.266L1673.25 575.241L1675.51 573.399ZM1676.09 579.213L1674.44 580.659L1669.53 575.428L1671.29 573.958L1676.09 579.213Z" fill="#CBCBCB" fill-opacity="0.78"/>
<path d="M1696.23 590.662L1670.63 556.923C1670.63 556.923 1669.52 555.303 1668.93 555.787C1668.33 556.268 1665.24 560.289 1665.24 560.289C1665.24 560.289 1664.78 560.61 1665.28 561.308C1665.78 562.007 1694.91 599.445 1694.91 599.445L1695.16 597.804L1666.48 561.067C1666.48 561.067 1666.2 560.625 1666.46 560.287C1666.73 559.947 1668.92 557.524 1668.92 557.524C1668.92 557.524 1669.52 556.941 1669.9 557.414C1670.27 557.887 1696.02 592.075 1696.02 592.075L1696.23 590.662Z" fill="#CBCBCB" fill-opacity="0.78"/>
<path d="M1668.63 556.084L1662.22 548.094L1665.83 559.521L1666.4 558.794L1663.71 551.231L1667.92 556.907L1668.63 556.084Z" fill="#CBCBCB" fill-opacity="0.78"/>
<path d="M1707.79 598.54C1709.75 597.922 1711.82 598.94 1712.41 600.805C1712.99 602.673 1711.88 604.694 1709.92 605.311C1707.96 605.929 1705.89 604.911 1705.3 603.046C1704.71 601.181 1705.83 599.158 1707.79 598.54ZM1709.71 604.646C1711.28 604.15 1712.18 602.527 1711.71 601.03C1711.23 599.532 1709.57 598.716 1708 599.212C1706.42 599.708 1705.53 601.331 1706 602.828C1706.48 604.325 1708.14 605.141 1709.71 604.646Z" fill="#CBCBCB" fill-opacity="0.78"/>
<path d="M1700.4 601.637C1702.36 601.019 1704.43 602.038 1705.02 603.902C1705.61 605.771 1704.49 607.791 1702.54 608.408C1700.58 609.027 1698.51 608.008 1697.92 606.143C1697.33 604.279 1698.44 602.256 1700.4 601.637ZM1702.33 607.743C1703.9 607.248 1704.79 605.624 1704.32 604.127C1703.85 602.63 1702.18 601.814 1700.61 602.309C1699.04 602.806 1698.15 604.428 1698.62 605.925C1699.09 607.424 1700.75 608.24 1702.33 607.743Z" fill="#CBCBCB" fill-opacity="0.78"/>
</g>
<path d="M1553.55 860.742L1585.91 853.876L1585.96 853.865L1653.78 818.199L1653.91 818.133L1653.98 817.992C1658.13 808.962 1649.45 802.241 1649.36 802.171L1649.16 802.021L1579.41 838.951C1579.41 838.951 1565.19 849.893 1554.4 859.088C1552.25 860.772 1553.55 860.742 1553.55 860.742ZM1582.64 845.16C1582.54 844.719 1582.08 844.643 1581.61 844.6C1580.72 844.524 1577.76 844.351 1577.62 844.339C1577.56 844.336 1577.5 844.332 1577.45 844.329C1578.6 843.169 1582.04 839.286 1583.16 838.026L1628.75 813.89C1634.86 819.089 1634.3 827.033 1634.26 827.381C1634.26 827.381 1634.26 827.386 1634.26 827.396L1587.72 851.872L1578.9 850.646C1578.64 850.623 1578.34 850.533 1578.2 850.45C1578.22 850.425 1578.25 850.396 1578.28 850.361C1579.11 849.455 1582.22 846.018 1582.48 845.733C1582.62 845.599 1582.69 845.376 1582.64 845.16ZM1645.44 821.446C1645.44 821.446 1645.44 821.48 1645.44 821.523L1635.56 826.72C1635.64 824.394 1635.31 817.94 1630 813.23L1639.94 807.969C1646.03 813.163 1645.48 821.098 1645.44 821.446ZM1653.3 817.39L1646.74 820.843C1646.81 818.575 1646.53 812.057 1641.19 807.304L1649.09 803.122C1650.32 804.131 1656.67 809.82 1653.3 817.39ZM1579.8 839.805L1580.95 839.195C1579.06 841.307 1576.96 843.607 1576.6 843.88C1576.21 844.183 1576.23 844.511 1576.27 844.679C1576.31 844.842 1576.42 845.268 1577.6 845.309C1577.63 845.313 1580.42 845.476 1581.43 845.554C1580.48 846.613 1578.37 848.941 1577.7 849.665C1577.28 850.119 1577.29 850.509 1577.37 850.758C1577.57 851.424 1578.46 851.577 1578.82 851.607L1586.21 852.668L1585.7 852.935L1564.91 857.344C1566.09 855.331 1567.9 851.871 1567.74 849.975L1579.8 839.805ZM1566.88 850.698C1566.61 852.204 1565.27 855.055 1563.74 857.598L1557 859.029L1566.88 850.698Z" fill="#CBCBCB"/>
<path d="M1639.14 811.426C1641.12 813.415 1643.01 819.732 1643.01 819.732C1643.01 819.732 1643.9 817.306 1642.15 814.25C1640.4 811.19 1639.14 811.426 1639.14 811.426Z" fill="#CBCBCB"/>
<path d="M1636.34 812.56C1638.31 814.55 1640.21 820.866 1640.21 820.866C1640.21 820.866 1641.1 818.44 1639.35 815.384C1637.6 812.324 1636.34 812.56 1636.34 812.56Z" fill="#CBCBCB"/>
<path d="M1633.33 814.142C1635.3 816.132 1637.2 822.449 1637.2 822.449C1637.2 822.449 1638.09 820.022 1636.34 816.962C1634.58 813.906 1633.33 814.142 1633.33 814.142Z" fill="#CBCBCB"/>
<g clip-path="url(#clip13_231_5770)">
<path d="M1664.58 1032.12L1718.78 983.413C1718.78 983.413 1732.79 973.909 1727.49 965.221C1722.18 956.534 1692.01 983.771 1692.01 983.771L1653.66 1019.88L1582.12 921.598C1582.12 921.598 1578.85 918.56 1581.99 916.034C1585.13 913.508 1641.46 866.952 1641.46 866.952C1641.46 866.952 1649.33 862.181 1656.34 865.797L1726.03 963.24" stroke="#CBCBCB" stroke-width="2" stroke-miterlimit="10"/>
<path d="M1722.19 970.046L1672.22 1013.8" stroke="#CBCBCB" stroke-width="2" stroke-miterlimit="10"/>
<path d="M1668.24 1011.67L1684.48 997.572" stroke="#CBCBCB" stroke-width="2" stroke-miterlimit="10"/>
<path d="M1700.21 989.298C1700.21 989.298 1693.75 989.715 1689.76 984.897C1685.78 980.078 1678.43 966.093 1678.43 966.093L1689.75 970.175L1689.91 955.402L1702.65 973.563C1702.65 973.563 1704.98 975.917 1708.52 976.342C1712.05 976.766 1714.83 976.491 1714.83 976.491" stroke="#CBCBCB" stroke-width="2" stroke-miterlimit="10"/>
<path d="M1667.54 942.699C1667.54 942.699 1655.16 956.382 1644.44 962.388C1644.44 962.382 1657.25 947.937 1667.54 942.699Z" stroke="#CBCBCB" stroke-width="2" stroke-miterlimit="10"/>
<path d="M1658.06 935.082C1658.06 935.082 1647.54 946.174 1639.32 950.043C1639.32 950.043 1648.58 940.013 1658.06 935.082Z" stroke="#CBCBCB" stroke-width="2" stroke-miterlimit="10"/>
<path d="M1652.81 925.101C1652.81 925.101 1639.05 937.97 1632.47 941.796C1632.47 941.796 1643.34 930.038 1652.81 925.101Z" stroke="#CBCBCB" stroke-width="2" stroke-miterlimit="10"/>
<path d="M1714 967.021L1641.89 866.49" stroke="#CBCBCB" stroke-width="2" stroke-miterlimit="10"/>
<path d="M1657.88 1015.84C1657.88 1015.84 1668.8 1020.34 1667.21 1029.67" stroke="#CBCBCB" stroke-width="2" stroke-miterlimit="10"/>
<path d="M1717.66 979.715C1717.66 979.715 1706.84 990.721 1701.48 993.174C1701.48 993.174 1712.56 982.539 1717.66 979.715Z" stroke="#CBCBCB" stroke-width="2" stroke-miterlimit="10"/>
</g>
<rect x="458" y="438" width="332" height="332" rx="166" fill="#F7F7F7"/>
<rect x="486" y="-153" width="332" height="332" rx="166" fill="#F7F7F7"/>
<rect x="1426" y="-153" width="332" height="332" rx="166" fill="#F7F7F7"/>
<defs>
<clipPath id="clip0_231_5770">
<rect width="130.732" height="115.602" fill="white" transform="matrix(-1 0 0 1 101.732 20)"/>
</clipPath>
<clipPath id="clip1_231_5770">
<rect width="65.2112" height="128.446" fill="white" transform="matrix(-1 0 0 1 198.561 883.554)"/>
</clipPath>
<clipPath id="clip2_231_5770">
<rect width="70.1514" height="80.0319" fill="white" transform="matrix(-0.197795 0.980243 0.980243 0.197795 22.0967 656.268)"/>
</clipPath>
<clipPath id="clip3_231_5770">
<rect width="130.541" height="100.425" fill="white" transform="matrix(-0.997449 0.071377 0.071377 0.997449 141.99 762.024)"/>
</clipPath>
<clipPath id="clip4_231_5770">
<rect width="114.614" height="141.291" fill="white" transform="matrix(-0.998725 0.0504723 0.0504723 0.998725 144.003 418.183)"/>
</clipPath>
<clipPath id="clip5_231_5770">
<rect width="52.3532" height="96.9754" fill="white" transform="matrix(-0.960276 -0.279053 -0.279053 0.960276 206.465 577.048)"/>
</clipPath>
<clipPath id="clip6_231_5770">
<rect width="146.231" height="166.98" fill="white" transform="matrix(-1 0 0 1 188.68 178.088)"/>
</clipPath>
<clipPath id="clip7_231_5770">
<rect width="132.313" height="117" fill="white" transform="translate(1646.76 1192.57) rotate(178.694)"/>
</clipPath>
<clipPath id="clip8_231_5770">
<rect width="66" height="130" fill="white" transform="translate(1724.8 316.562) rotate(178.694)"/>
</clipPath>
<clipPath id="clip9_231_5770">
<rect width="71" height="81" fill="white" transform="translate(1551.5 550.61) rotate(-102.714)"/>
</clipPath>
<clipPath id="clip10_231_5770">
<rect width="132.12" height="101.64" fill="white" transform="translate(1670.37 440.836) rotate(-177.213)"/>
</clipPath>
<clipPath id="clip11_231_5770">
<rect width="116" height="143" fill="white" transform="translate(1680.34 788.699) rotate(-178.413)"/>
</clipPath>
<clipPath id="clip12_231_5770">
<rect width="52.9865" height="98.1485" fill="white" transform="translate(1739.87 626.513) rotate(162.49)"/>
</clipPath>
<clipPath id="clip13_231_5770">
<rect width="148" height="169" fill="white" transform="translate(1731.08 1030.6) rotate(178.694)"/>
</clipPath>
</defs>
</svg>
