<svg width="375" height="598" viewBox="0 0 375 598" fill="none" xmlns="http://www.w3.org/2000/svg">
<g clip-path="url(#clip0_309_5373)">
<path d="M-4.06258 50.1242C-24.9086 50.1242 -41.8076 43.0057 -41.8076 34.2245C-41.8076 25.4433 -24.9086 18.3247 -4.06258 18.3247C16.7835 18.3247 33.6825 25.4433 33.6825 34.2245C33.6825 43.0057 16.7835 50.1242 -4.06258 50.1242Z" stroke="#CBCBCB" stroke-opacity="0.24" stroke-width="3.7811" stroke-miterlimit="10"/>
<path d="M-25.2146 65.4853C-32.4872 60.5644 -28.9126 42.5793 -17.2305 25.3146C-5.54837 8.04995 9.81746 -1.95659 17.09 2.9644C24.3626 7.88539 20.788 25.8704 9.1059 43.1351C-2.57621 60.3998 -17.942 70.4063 -25.2146 65.4853Z" stroke="#CBCBCB" stroke-opacity="0.24" stroke-width="3.7811" stroke-miterlimit="10"/>
<path d="M-17.5422 42.6567C-28.601 24.9855 -31.5315 6.88382 -24.0877 2.22539C-16.6439 -2.43304 -1.64453 8.11588 9.41429 25.7871C20.4731 43.4582 23.4036 61.5599 15.9598 66.2184C8.51599 70.8768 -6.48337 60.3279 -17.5422 42.6567Z" stroke="#CBCBCB" stroke-opacity="0.24" stroke-width="3.7811" stroke-miterlimit="10"/>
<path d="M-3.76985 41.525C0.385257 41.525 3.76715 38.2331 3.76715 34.1869C3.76715 30.1406 0.385257 26.8488 -3.76985 26.8488C-7.92496 26.8488 -11.3069 30.1406 -11.3069 34.1869C-11.3069 38.2331 -7.92496 41.525 -3.76985 41.525ZM-3.76985 29.0972C-0.857147 29.0972 1.51506 31.3793 1.51506 34.1831C1.51506 36.987 -0.857147 39.2691 -3.76985 39.2691C-6.68256 39.2691 -9.05477 36.987 -9.05477 34.1831C-9.05477 31.3793 -6.68256 29.0972 -3.76985 29.0972Z" fill="#CBCBCB" fill-opacity="0.24"/>
<path d="M29.2085 31.4018C31.7871 31.4018 33.8891 29.3561 33.8891 26.8451C33.8891 24.334 31.7909 22.2883 29.2085 22.2883C26.6261 22.2883 24.5279 24.334 24.5279 26.8451C24.5279 29.3561 26.6299 31.4018 29.2085 31.4018ZM29.2085 23.6884C31.0177 23.6884 32.489 25.1072 32.489 26.8488C32.489 28.5904 31.0177 30.0093 29.2085 30.0093C27.3993 30.0093 25.928 28.5904 25.928 26.8488C25.928 25.1034 27.3993 23.6884 29.2085 23.6884Z" fill="#CBCBCB" fill-opacity="0.24"/>
<path d="M7.65216 69.6874C10.2308 69.6874 12.3328 67.6417 12.3328 65.1307C12.3328 62.6196 10.2346 60.5739 7.65216 60.5739C5.06977 60.5739 2.97157 62.6196 2.97157 65.1307C2.97532 67.6455 5.07352 69.6874 7.65216 69.6874ZM7.65216 61.974C9.46135 61.974 10.9327 63.3928 10.9327 65.1344C10.9327 66.876 9.46135 68.2948 7.65216 68.2948C5.84298 68.2948 4.37162 66.876 4.37162 65.1344C4.37162 63.389 5.84298 61.974 7.65216 61.974Z" fill="#CBCBCB" fill-opacity="0.24"/>
</g>
<g clip-path="url(#clip1_309_5373)">
<path d="M56.9156 521.86L56.9689 521.039C56.9689 521.039 57.0281 520.608 57.2443 520.582C57.4605 520.555 57.6234 520.546 57.8662 520.877L92.945 573.981C92.945 573.981 93.4692 574.575 92.945 574.979C92.4208 575.384 54.7033 597.926 54.7033 597.926C54.7033 597.926 53.9896 598.307 53.8712 597.38C53.7527 596.453 56.9156 521.86 56.9156 521.86ZM91.4406 574.773C92.0447 574.471 91.8285 574.088 91.8285 574.088L89.2343 570.532C89.2343 570.532 84.952 573.143 84.792 572.983C84.6321 572.824 84.7595 572.635 84.7595 572.635L88.8996 569.883L86.0921 565.533L83.1573 567.196C83.1573 567.196 82.3488 567.615 82.3162 567.45C82.2837 567.284 82.491 567.086 82.491 567.086L85.6805 564.857L82.7782 560.587C82.7782 560.587 79.4466 562.421 78.7328 562.74C78.0191 563.056 78.1465 562.74 78.1465 562.74L82.3044 559.893L79.4643 555.606C79.4643 555.606 76.1652 557.758 75.9105 557.552C75.6559 557.345 76.0231 557.123 76.0231 557.123L79.18 555.05L76.6746 551.04C76.6746 551.04 72.2353 553.698 71.7615 553.828C71.2847 553.958 71.572 553.521 71.572 553.521L76.1208 550.196L73.9234 546.679C73.9234 546.679 71.187 548.229 70.7576 548.229C70.3281 548.229 70.6539 547.786 70.6539 547.786L73.4081 546.207L70.8612 542.259L66.3864 544.952C65.8622 544.916 66.1613 544.512 66.1613 544.512L70.4348 541.633L68.0478 537.868C68.0478 537.868 65.6046 539.433 65.5335 539.126C65.4624 538.818 65.6608 538.644 65.6608 538.644L67.6125 537.283L65.2374 533.562C65.2374 533.562 60.6085 536.444 60.5138 536.208C60.419 535.972 60.6559 535.792 60.6559 535.792L64.7961 532.933L58.3786 523.316C57.5641 522.096 57.5405 522.418 57.5405 522.418L57.5256 522.755L54.8248 596.763C54.8218 596.763 90.8364 575.074 91.4406 574.773Z" fill="#CBCBCB" fill-opacity="0.5"/>
<path d="M78.1613 571.696L62.9303 582.102L64.0942 548.557L78.1613 571.696ZM77.3646 571.525L64.7931 551.309L63.5641 580.953L77.3646 571.525Z" fill="#CBCBCB" fill-opacity="0.5"/>
</g>
<g clip-path="url(#clip2_309_5373)">
<path d="M-16.9571 402.188L-0.551305 389.382C-0.551305 389.382 2.82252 385.914 4.99808 387.843C7.17363 389.771 -1.99314 396.892 -1.99314 396.892L-14.0643 405.874L9.97201 430.92C9.97201 430.92 10.6621 431.991 11.5295 431.234C12.3968 430.478 28.3049 416.961 28.3049 416.961C28.3049 416.961 30.0401 414.987 29.3755 412.833L5.48169 388.352" stroke="#CBCBCB" stroke-opacity="0.5" stroke-width="2" stroke-miterlimit="10"/>
<path d="M3.3764 389.092L-11.4256 400.957" stroke="#CBCBCB" stroke-opacity="0.5" stroke-width="2" stroke-miterlimit="10"/>
<path d="M-3.13601 394.311C-3.13601 394.311 -3.57671 396.105 -2.4224 397.469C-1.2681 398.832 2.29403 401.599 2.29403 401.599L1.71426 398.211L5.87433 398.904L1.40865 394.412C1.40865 394.412 0.864051 393.637 0.92201 392.621C0.97997 391.605 1.19633 390.838 1.19633 390.838" stroke="#CBCBCB" stroke-opacity="0.5" stroke-width="2" stroke-miterlimit="10"/>
<path d="M8.32304 405.834C8.32304 405.834 3.85723 408.63 1.6321 411.345C1.63375 411.345 6.33552 408.465 8.32304 405.834Z" stroke="#CBCBCB" stroke-opacity="0.5" stroke-width="2" stroke-miterlimit="10"/>
<path d="M9.98873 408.883C9.98873 408.883 6.34436 411.285 4.84488 413.403C4.84488 413.403 8.1279 411.3 9.98873 408.883Z" stroke="#CBCBCB" stroke-opacity="0.5" stroke-width="2" stroke-miterlimit="10"/>
<path d="M12.5308 410.858C12.5308 410.858 8.22427 414.085 6.81947 415.743C6.81947 415.743 10.6684 413.276 12.5308 410.858Z" stroke="#CBCBCB" stroke-opacity="0.5" stroke-width="2" stroke-miterlimit="10"/>
<path d="M3.81622 391.547L28.4558 416.865" stroke="#CBCBCB" stroke-opacity="0.5" stroke-width="2" stroke-miterlimit="10"/>
<path d="M0.432235 389.88C0.432235 389.88 -3.20317 392.373 -4.16148 393.758C-4.16148 393.758 -0.617424 391.176 0.432235 389.88Z" stroke="#CBCBCB" stroke-opacity="0.5" stroke-width="2" stroke-miterlimit="10"/>
</g>
<g clip-path="url(#clip3_309_5373)">
<path d="M-16.1071 493.312C-16.1071 493.312 44.8422 449.158 46.1335 448.426C47.4247 447.695 48.3368 448.842 48.3368 448.842L60.3152 465.194C60.5864 465.563 59.6801 466.165 59.6801 466.165C59.6801 466.165 -0.946637 511.157 -2.22724 512.037C-3.50784 512.917 -3.77784 512.148 -3.77784 512.148C-3.77784 512.148 -15.741 495.424 -16.2775 494.603C-16.8144 493.775 -16.1071 493.312 -16.1071 493.312ZM-15.1089 494.328C-15.1089 494.328 -3.84443 509.131 -3.48025 509.714C-3.11608 510.297 -2.14353 509.618 -2.14353 509.618C-2.14353 509.618 57.9521 466.468 58.6637 465.981C59.3753 465.494 59.1592 465.146 59.1592 465.146L47.7158 450.928C47.4276 450.573 46.7474 450.998 46.7474 450.998L43.1831 453.51C43.1831 453.51 48.3303 460.851 49.1304 462.603C49.9306 464.355 48.3318 463.042 48.3318 463.042L41.6874 454.304L36.7508 457.834C36.7508 457.834 39.4397 462.198 39.9987 462.999C40.5577 463.801 39.6444 463.724 39.6444 463.724L35.4447 458.692L30.4004 462.217L30.5091 462.401C30.5091 462.401 36.9397 471.154 37.3488 471.698C37.758 472.242 37.7033 472.646 37.4262 472.78C37.1491 472.913 36.7591 472.636 36.7591 472.636L28.6857 463.122L28.3203 463.357L24.3458 466.395C24.3458 466.395 27.6097 471.201 27.8775 471.522C28.1517 471.849 28.5129 472.39 28.0512 472.531C27.59 472.677 27.3098 472.351 27.3098 472.351L22.8827 467.228L17.3737 471.02L17.6309 471.36C17.6309 471.36 25.9777 481.69 25.4656 482.294C24.959 482.892 24.3003 482.449 24.3003 482.449L15.7974 472.357L15.5292 472.531L11.2219 475.676L14.6374 480.346C14.6374 480.346 15.2948 481.021 14.8688 481.41C14.4428 481.799 14.0727 481.551 14.0727 481.551L9.97656 476.631L4.16846 480.749C4.16846 480.749 11.8099 490.819 11.9865 491.117C12.1631 491.415 12.3758 491.883 11.9591 492.068C11.5424 492.253 11.2287 491.959 11.2287 491.959L2.67144 481.692L-2.25279 485.311C-1.09752 486.518 1.41939 490.064 1.32778 490.453C1.23617 490.841 0.658152 490.524 0.658152 490.524L-3.56484 485.834L-8.94054 489.82C-8.94054 489.82 -1.8397 499.762 -1.6627 500.066C-1.4857 500.369 -1.50391 500.699 -1.70334 500.833C-1.9032 500.961 -2.23294 500.859 -2.23294 500.859L-10.4906 490.94C-10.4906 490.94 -14.1521 493.011 -14.7856 493.505C-15.4191 493.998 -15.1089 494.328 -15.1089 494.328Z" fill="#CBCBCB" fill-opacity="0.5"/>
</g>
<g clip-path="url(#clip4_309_5373)">
<path d="M10.4659 327.834L10.8301 327.807C10.9572 327.796 23.801 326.827 32.805 322.718C41.7058 318.658 59.9368 313.982 60.1193 313.933L60.4192 313.857L61.365 313.577C61.3709 313.519 60.8975 311.644 60.4106 309.765C60.1746 308.843 59.1055 305.462 57.6819 300.643C55.7175 294.01 53.3362 284.792 52.0321 278.853C49.8531 268.932 43.2727 241.622 43.2105 241.349L43.1086 240.902L42.6655 241.021C42.5223 241.063 28.1142 244.972 16.5034 247.51C4.8271 250.061 -7.61461 255.501 -7.73933 255.56L-8.26827 255.811L-7.96005 256.769C-7.9018 256.963 -2.23258 276.437 -0.527838 285.251C1.18307 294.099 10.2861 327.15 10.3736 327.488L10.4659 327.834ZM59.7766 312.99C57.3124 313.632 40.4893 317.763 32.1695 321.557C24.1509 325.212 13.1637 326.934 11.0202 327.126C10.0622 323.503 2.2494 293.242 0.644086 284.915C-0.936585 276.727 -6.1083 259.43 -6.92792 256.717C-4.87646 255.749 6.1915 250.659 16.6919 248.365C27.1793 246.076 39.6563 242.989 42.1758 242.309C42.9962 245.908 48.8301 269.948 50.8596 279.175C52.1696 285.145 54.8666 294.25 56.8361 300.897C58.2001 305.495 59.2733 309.129 59.3926 310.009C59.6031 311.56 59.7951 312.485 59.7766 312.99Z" fill="#CBCBCB" fill-opacity="0.5"/>
<path d="M34.7042 269.509C34.7042 269.509 27.1108 269.116 21.031 270.621C14.9513 272.125 12.5806 271.916 12.5806 271.916L12.635 272.992C12.635 272.992 18.8598 272.441 21.3213 271.659C23.7828 270.876 34.7042 269.509 34.7042 269.509Z" fill="#CBCBCB" fill-opacity="0.5"/>
<path d="M36.3962 275.63C36.3962 275.63 16.1689 279.402 15.0512 280.375C13.9335 281.348 13.1481 279.835 14.9838 279.041C16.819 278.238 33.2159 275.084 36.3962 275.63Z" fill="#CBCBCB" fill-opacity="0.5"/>
<path d="M36.9561 281.132C36.9561 281.132 36.6215 280.785 34.857 280.896C33.0925 281.007 17.6556 283.117 15.9713 285.25C15.9713 285.25 31.6561 282.905 34.1916 282.627C36.7229 282.355 37.3616 281.923 36.9561 281.132Z" fill="#CBCBCB" fill-opacity="0.5"/>
<path d="M38.155 288.3C38.155 288.3 31.0037 289.6 26.0936 290.463C21.1835 291.325 17.0501 292.657 17.0501 292.657C17.0501 292.657 14.9592 293.28 15.273 291.996C15.5868 290.713 26.9113 288.869 28.3695 288.795C33.0085 288.231 38.155 288.3 38.155 288.3Z" fill="#CBCBCB" fill-opacity="0.5"/>
<path d="M62.7018 307.267C63.6412 307.036 63.9374 307.582 63.5064 307.766C63.114 307.931 59.0544 309.329 57.8199 309.558C56.5853 309.787 56.3126 310.055 56.3126 310.055C56.3126 310.055 55.3445 310.503 55.3965 309.702C55.4485 308.902 62.4251 307.194 62.7018 307.267Z" fill="#CBCBCB" fill-opacity="0.5"/>
<path d="M61.2858 302.075C62.0094 302.017 62.3604 302.341 62.0988 302.74C61.8126 303.176 57.3473 304.389 56.1059 304.57C54.8646 304.751 54.3338 304.966 54.4352 304.185C54.5367 303.403 60.9865 301.99 61.2858 302.075Z" fill="#CBCBCB" fill-opacity="0.5"/>
<path d="M59.5156 296.932C60.2391 296.874 60.5902 297.198 60.3285 297.597C60.0423 298.033 55.577 299.245 54.3357 299.426C53.0943 299.608 52.5636 299.823 52.665 299.042C52.7664 298.26 59.2206 296.846 59.5156 296.932Z" fill="#CBCBCB" fill-opacity="0.5"/>
<path d="M58.5287 291.433C59.2523 291.375 59.6033 291.699 59.3417 292.098C59.0555 292.534 54.5902 293.747 53.3488 293.928C52.1074 294.109 51.5767 294.324 51.6781 293.543C51.7796 292.761 58.234 291.352 58.5287 291.433Z" fill="#CBCBCB" fill-opacity="0.5"/>
<path d="M57.2674 286.514C57.991 286.456 58.342 286.78 58.0804 287.179C57.7942 287.615 53.3289 288.827 52.0875 289.009C50.8461 289.19 50.3154 289.405 50.4168 288.624C50.5182 287.842 56.9724 286.428 57.2674 286.514Z" fill="#CBCBCB" fill-opacity="0.5"/>
<path d="M55.6767 281.612C56.4003 281.553 56.7513 281.878 56.4897 282.277C56.2035 282.713 51.7382 283.925 50.4968 284.106C49.2554 284.287 48.7247 284.503 48.8261 283.721C48.9275 282.94 55.3817 281.526 55.6767 281.612Z" fill="#CBCBCB" fill-opacity="0.5"/>
<path d="M54.1339 276.703C54.8575 276.644 55.2086 276.969 54.9469 277.368C54.6607 277.803 50.1954 279.016 48.954 279.197C47.7127 279.378 47.182 279.594 47.2834 278.812C47.3848 278.031 53.8392 276.621 54.1339 276.703Z" fill="#CBCBCB" fill-opacity="0.5"/>
<path d="M51.7583 266.462C52.4816 266.399 52.8329 266.728 52.5711 267.123C52.2848 267.559 47.8196 268.771 46.5782 268.952C45.3368 269.134 44.8061 269.349 44.9075 268.567C45.0091 267.79 51.4633 266.376 51.7583 266.462Z" fill="#CBCBCB" fill-opacity="0.5"/>
<path d="M50.7229 261.308C51.4464 261.25 51.7975 261.574 51.5359 261.973C51.2496 262.409 46.7843 263.621 45.543 263.803C44.3016 263.984 43.7709 264.199 43.8723 263.418C43.9693 262.636 50.4237 261.227 50.7229 261.308Z" fill="#CBCBCB" fill-opacity="0.5"/>
<path d="M49.2261 256.436C49.951 256.404 50.2898 256.746 50.0099 257.133C49.7054 257.557 45.1962 258.596 43.9478 258.725C42.6996 258.858 42.1587 259.048 42.2957 258.273C42.4283 257.499 48.9307 256.341 49.2261 256.436Z" fill="#CBCBCB" fill-opacity="0.5"/>
<path d="M48.0587 251.547C48.7836 251.515 49.1224 251.858 48.8425 252.245C48.5381 252.668 44.0288 253.707 42.7804 253.836C41.5322 253.97 40.9914 254.159 41.1284 253.385C41.2607 252.606 47.7633 251.453 48.0587 251.547Z" fill="#CBCBCB" fill-opacity="0.5"/>
<path d="M46.8736 246.655C47.5985 246.623 47.9373 246.966 47.6574 247.353C47.353 247.776 42.8437 248.815 41.5953 248.944C40.3471 249.077 39.8062 249.267 39.9432 248.492C40.0802 247.718 46.5826 246.56 46.8736 246.655Z" fill="#CBCBCB" fill-opacity="0.5"/>
<path d="M53.4174 271.585C54.1902 271.542 54.5594 271.878 54.2666 272.27C53.9448 272.699 49.1349 273.802 47.8039 273.952C46.473 274.103 45.8974 274.303 46.0298 273.524C46.1622 272.746 53.1044 271.491 53.4174 271.585Z" fill="#CBCBCB" fill-opacity="0.5"/>
</g>
<g clip-path="url(#clip5_309_5373)">
<path d="M83.204 331.537C83.204 331.537 86.7293 333.027 86.5085 334.454C86.2876 335.881 82.6829 346.104 82.6829 346.104L82.6532 346.206L82.2033 346.075L86.0681 334.604C86.0681 334.604 86.1665 334.265 85.7843 333.815C85.4021 333.365 83.6053 331.584 80.9659 332.052C80.9659 332.052 80.8533 332.102 80.7277 332.448C80.6014 332.796 76.5398 343.878 76.5398 343.878L76.1109 343.753L80.1282 332.321C80.1282 332.321 80.3049 331.627 80.6355 331.502C80.9662 331.376 81.5508 330.918 83.204 331.537Z" fill="#CBCBCB" fill-opacity="0.78"/>
<path d="M84.0092 336.016C84.0092 336.016 83.7288 337.735 82.8655 339.701C82.0023 341.667 81.2137 343.432 81.2137 343.432C81.2137 343.432 82.219 340.035 82.6388 338.779C83.0585 337.523 84.0092 336.016 84.0092 336.016Z" fill="#CBCBCB" fill-opacity="0.78"/>
<path d="M83.3425 333.516C83.3425 333.516 82.8686 335.963 82.0739 337.882C81.2797 339.799 80.5345 341.226 80.5345 341.226C80.5345 341.226 81.3989 337.686 81.7907 336.526C82.1825 335.366 83.3425 333.516 83.3425 333.516Z" fill="#CBCBCB" fill-opacity="0.78"/>
<path d="M80.8497 335.535C80.8497 335.535 80.469 337.661 79.8244 339.691C79.1793 341.723 78.4443 342.801 78.4443 342.801C78.4443 342.801 78.8269 340.221 79.3526 338.663C79.8804 337.105 80.8497 335.535 80.8497 335.535Z" fill="#CBCBCB" fill-opacity="0.78"/>
<path d="M71.2814 348.94C71.2814 348.94 73.2443 344.037 73.4168 343.522C73.5914 343.008 73.7407 342.847 73.7407 342.847L74.5859 343.092C77.0794 343.904 84.765 347.029 84.765 347.029C85.0585 347.149 84.9787 347.321 84.9787 347.321L84.9047 347.576C84.9047 347.576 82.7037 354.098 82.6355 354.357C82.5672 354.615 82.2185 354.842 82.2185 354.842L75.6696 358.971L72.4926 358.048C72.4926 358.048 71.4184 351.78 71.2 350.703C70.9836 349.627 71.2814 348.94 71.2814 348.94ZM71.6419 350.093L72.8008 357.709L75.6655 358.483C75.6655 358.483 81.4167 354.879 81.7396 354.646C82.0624 354.414 82.1069 354.136 82.1069 354.136L84.2099 347.574C84.2913 347.317 83.7349 347.168 83.7349 347.168C83.7349 347.168 74.2479 343.338 74.1402 343.285C74.0325 343.231 73.9172 343.565 73.9172 343.565C73.9172 343.565 72.0615 348.563 71.8346 349.092C71.6089 349.618 71.6419 350.093 71.6419 350.093Z" fill="#CBCBCB" fill-opacity="0.78"/>
<path d="M80.9811 384.412L81.0168 355.604L80.2746 356.071L80.3419 384.085C80.3419 384.085 78.0643 384.61 77.8669 384.788C77.67 384.963 77.5446 384.555 77.6182 383.713C77.6911 382.874 76.7182 358.313 76.7182 358.313L76.1376 358.679L76.9655 384.782C76.9655 384.782 76.9032 385.499 77.3903 385.384C77.8754 385.269 80.5497 384.602 80.5497 384.602L80.9256 384.509C80.924 384.507 80.9819 384.504 80.9811 384.412Z" fill="#CBCBCB" fill-opacity="0.78"/>
<path d="M80.2384 384.677L78.6673 390.609C78.6673 390.609 78.5867 390.894 78.377 390.894C78.1672 390.894 78.1037 390.352 78.1037 390.352L77.7742 385.287L78.4892 385.11L78.5827 388.837L79.4696 384.867L80.2384 384.677Z" fill="#CBCBCB" fill-opacity="0.78"/>
<path d="M80.4997 373.9L80.473 373.505L82.6743 373.423L82.5705 371.536L85.4909 371.459L85.827 377.498L82.906 377.577L82.8325 376.245L80.6614 376.325L80.6347 375.93L82.8106 375.849L82.6989 373.817L80.4997 373.9ZM83.3182 377.147L85.2804 377.095L84.9246 372.027L83.0311 371.944L83.3182 377.147Z" fill="#CBCBCB" fill-opacity="0.78"/>
<path d="M60.34 368.302L60.1329 368.544L58.7612 367.474L57.7628 368.618L55.9596 367.181L59.5321 363.244L61.1583 364.725L60.2523 365.764L61.6053 366.82L61.3981 367.062L60.043 366.005L58.9693 367.236L60.34 368.302ZM60.6073 364.832L59.6061 363.994L56.7479 367.176L57.8208 368.026L60.6073 364.832Z" fill="#CBCBCB" fill-opacity="0.78"/>
<path d="M72.4404 357.741L57.6544 378.179C57.6544 378.179 57.0163 379.159 56.6577 378.879C56.2985 378.601 54.3986 376.249 54.3986 376.249C54.3986 376.249 54.1217 376.064 54.4109 375.641C54.698 375.218 71.538 352.53 71.538 352.53L71.7089 353.503L55.1311 375.768C55.1311 375.768 54.9668 376.035 55.1305 376.233C55.2916 376.432 56.6299 377.845 56.6299 377.845C56.6299 377.845 56.9965 378.184 57.2143 377.897C57.4321 377.611 72.3009 356.903 72.3009 356.903L72.4404 357.741Z" fill="#CBCBCB" fill-opacity="0.78"/>
<path d="M56.4753 378.706L52.7713 383.551L54.7629 376.698L55.1113 377.123L53.6119 381.663L56.0425 378.226L56.4753 378.706Z" fill="#CBCBCB" fill-opacity="0.78"/>
<path d="M79.2164 352.894C80.3917 353.235 81.6113 352.601 81.9363 351.482C82.2619 350.362 81.5697 349.174 80.3965 348.833C79.2212 348.491 78.0016 349.126 77.6766 350.244C77.3515 351.363 78.0411 352.552 79.2164 352.894ZM80.2806 349.232C81.2225 349.505 81.7773 350.46 81.5164 351.358C81.2554 352.256 80.2754 352.765 79.3335 352.491C78.3894 352.216 77.8367 351.262 78.0977 350.364C78.3586 349.466 79.3386 348.958 80.2806 349.232Z" fill="#CBCBCB" fill-opacity="0.78"/>
<path d="M74.7778 351.15C75.9531 351.491 77.1727 350.856 77.4977 349.738C77.8233 348.617 77.1311 347.429 75.9579 347.089C74.7826 346.747 73.563 347.382 73.238 348.5C72.9108 349.618 73.6025 350.808 74.7778 351.15ZM75.842 347.487C76.7839 347.761 77.3387 348.716 77.0778 349.614C76.8168 350.512 75.8368 351.02 74.8949 350.747C73.9508 350.472 73.3981 349.518 73.6591 348.62C73.9179 347.722 74.8979 347.213 75.842 347.487Z" fill="#CBCBCB" fill-opacity="0.78"/>
</g>
<path d="M-16.1886 198.856L3.17535 202.506L3.20529 202.511L44.0762 222.828L44.1535 222.865L44.196 222.949C46.7905 228.269 41.7137 232.389 41.6613 232.432L41.5466 232.524L-0.491875 211.481C-0.491875 211.481 -9.10612 205.159 -15.6548 199.83C-16.9595 198.856 -16.1886 198.856 -16.1886 198.856ZM1.34922 207.74C1.29434 208.004 1.01992 208.056 0.743008 208.087C0.214127 208.145 -1.54963 208.288 -1.62947 208.297C-1.66439 208.3 -1.69932 208.303 -1.73424 208.305C-1.02824 208.98 1.06982 211.246 1.75337 211.981L29.2277 225.734C32.7951 222.555 32.356 217.832 32.3286 217.625C32.3286 217.625 32.3286 217.623 32.3286 217.617L4.28051 203.674L-0.953396 204.524C-1.10807 204.541 -1.28519 204.599 -1.36502 204.65C-1.35505 204.665 -1.34008 204.682 -1.32012 204.702C-0.811199 205.23 1.08478 207.234 1.24195 207.401C1.33176 207.478 1.37417 207.611 1.34922 207.74ZM39.0643 221.008C39.0643 221.008 39.0643 220.988 39.0643 220.962L33.1119 218.002C33.1868 219.386 33.0795 223.233 29.9836 226.11L35.9734 229.108C39.5308 225.932 39.0918 221.214 39.0643 221.008ZM43.7993 223.316L39.8452 221.349C39.9225 222.699 39.8402 226.584 36.7268 229.487L41.4867 231.87C42.2052 231.252 45.9073 227.778 43.7993 223.316ZM-0.269848 210.967L0.423683 211.314C-0.733864 210.083 -2.01615 208.742 -2.23069 208.584C-2.46519 208.409 -2.4627 208.214 -2.43776 208.113C-2.4153 208.015 -2.35543 207.76 -1.65691 207.72C-1.63944 207.717 0.0220375 207.582 0.62326 207.522C0.0394974 206.904 -1.24778 205.546 -1.65442 205.124C-1.90887 204.86 -1.91137 204.627 -1.86896 204.478C-1.7567 204.079 -1.22781 203.976 -1.01576 203.953L3.36994 203.22L3.06559 203.068L-9.37306 200.725C-8.64709 201.908 -7.52198 203.944 -7.58934 205.075L-0.269848 210.967ZM-8.11323 204.656C-8.29535 203.763 -9.13107 202.083 -10.0766 200.59L-14.108 199.83L-8.11323 204.656Z" fill="#CBCBCB" fill-opacity="0.5"/>
<path d="M35.4496 227.06C36.5996 225.849 37.6424 222.061 37.6424 222.061C37.6424 222.061 38.2062 223.494 37.2058 225.337C36.203 227.184 35.4496 227.06 35.4496 227.06Z" fill="#CBCBCB" fill-opacity="0.5"/>
<path d="M33.7656 226.423C34.9157 225.211 35.9585 221.424 35.9585 221.424C35.9585 221.424 36.5223 222.857 35.5219 224.7C34.519 226.546 33.7656 226.423 33.7656 226.423Z" fill="#CBCBCB" fill-opacity="0.5"/>
<path d="M31.9519 225.521C33.102 224.31 34.1448 220.523 34.1448 220.523C34.1448 220.523 34.7086 221.955 33.7057 223.802C32.7028 225.645 31.9519 225.521 31.9519 225.521Z" fill="#CBCBCB" fill-opacity="0.5"/>
<g clip-path="url(#clip6_309_5373)">
<path d="M47.603 95.2988L80.5338 123.567C80.5338 123.567 89.0108 129.036 85.9676 134.281C82.9244 139.527 64.5942 123.717 64.5942 123.717L41.263 102.737L-0.00281012 162.231C-0.00281012 162.231 -1.9065 164.085 -0.00281012 165.546C1.90088 167.008 36.0794 193.965 36.0794 193.965C36.0794 193.965 40.8268 196.7 44.9554 194.451L85.1257 135.481" stroke="#CBCBCB" stroke-opacity="0.5" stroke-width="2" stroke-miterlimit="10"/>
<path d="M82.7457 131.48L52.3983 106.104" stroke="#CBCBCB" stroke-opacity="0.5" stroke-width="2" stroke-miterlimit="10"/>
<path d="M50.0584 107.426L59.9218 115.601" stroke="#CBCBCB" stroke-opacity="0.5" stroke-width="2" stroke-miterlimit="10"/>
<path d="M69.3963 120.315C69.3963 120.315 65.5483 120.154 63.2389 123.077C60.9294 126.001 56.7433 134.428 56.7433 134.428L63.4282 131.844L63.7258 140.639L71.0633 129.652C71.0633 129.652 72.4226 128.218 74.5224 127.917C76.6222 127.616 78.2791 127.742 78.2791 127.742" stroke="#CBCBCB" stroke-opacity="0.5" stroke-width="2" stroke-miterlimit="10"/>
<path d="M50.5757 148.506C50.5757 148.506 43.0218 140.527 36.5567 137.096C36.5567 137.1 44.3811 145.527 50.5757 148.506Z" stroke="#CBCBCB" stroke-opacity="0.5" stroke-width="2" stroke-miterlimit="10"/>
<path d="M45.0338 153.171C45.0338 153.171 38.6227 146.709 33.6758 144.516C33.6758 144.516 39.3261 150.363 45.0338 153.171Z" stroke="#CBCBCB" stroke-opacity="0.5" stroke-width="2" stroke-miterlimit="10"/>
<path d="M42.0447 159.186C42.0447 159.186 33.6759 151.709 29.7096 149.52C29.7096 149.52 36.337 156.374 42.0447 159.186Z" stroke="#CBCBCB" stroke-opacity="0.5" stroke-width="2" stroke-miterlimit="10"/>
<path d="M77.9105 133.393L36.337 194.234" stroke="#CBCBCB" stroke-opacity="0.5" stroke-width="2" stroke-miterlimit="10"/>
<path d="M43.8333 105.086C43.8333 105.086 50.2748 102.257 49.2029 96.722" stroke="#CBCBCB" stroke-opacity="0.5" stroke-width="2" stroke-miterlimit="10"/>
<path d="M79.9224 125.784C79.9224 125.784 73.3288 119.378 70.103 117.99C70.103 117.99 76.842 124.172 79.9224 125.784Z" stroke="#CBCBCB" stroke-opacity="0.5" stroke-width="2" stroke-miterlimit="10"/>
</g>
<g clip-path="url(#clip7_309_5373)">
<path d="M368.054 559.355C388.855 560.712 405.255 568.916 404.683 577.678C404.112 586.441 386.785 592.444 365.983 591.087C345.181 589.73 328.782 581.526 329.353 572.763C329.925 564.001 347.252 557.997 368.054 559.355Z" stroke="#CBCBCB" stroke-opacity="0.24" stroke-width="3.7811" stroke-miterlimit="10"/>
<path d="M390.161 545.403C397.098 550.787 392.36 568.502 379.578 584.969C366.797 601.436 350.812 610.421 343.875 605.037C336.939 599.653 341.677 581.939 354.458 565.472C367.239 549.004 383.224 540.019 390.161 545.403Z" stroke="#CBCBCB" stroke-opacity="0.24" stroke-width="3.7811" stroke-miterlimit="10"/>
<path d="M381.018 567.684C390.903 586.038 392.649 604.292 384.918 608.456C377.186 612.62 362.906 601.117 353.021 582.763C343.136 564.409 341.39 546.155 349.122 541.991C356.853 537.827 371.134 549.33 381.018 567.684Z" stroke="#CBCBCB" stroke-opacity="0.24" stroke-width="3.7811" stroke-miterlimit="10"/>
<path d="M367.202 567.917C363.055 567.646 359.466 570.711 359.203 574.748C358.939 578.786 362.1 582.291 366.246 582.562C370.392 582.832 373.981 579.768 374.245 575.73C374.508 571.692 371.348 568.187 367.202 567.917ZM366.392 580.318C363.486 580.128 361.267 577.697 361.45 574.899C361.632 572.101 364.148 569.978 367.055 570.168C369.961 570.357 372.18 572.789 371.997 575.587C371.815 578.385 369.299 580.508 366.392 580.318Z" fill="#CBCBCB" fill-opacity="0.24"/>
<path d="M333.634 575.871C331.061 575.703 328.83 577.608 328.667 580.114C328.503 582.619 330.464 584.797 333.041 584.965C335.618 585.133 337.845 583.229 338.008 580.723C338.172 578.217 336.207 576.039 333.634 575.871ZM333.132 583.568C331.327 583.45 329.951 581.939 330.064 580.201C330.178 578.463 331.738 577.143 333.543 577.261C335.349 577.379 336.725 578.89 336.611 580.628C336.498 582.37 334.937 583.686 333.132 583.568Z" fill="#CBCBCB" fill-opacity="0.24"/>
<path d="M357.637 539.07C355.064 538.902 352.834 540.807 352.67 543.313C352.507 545.818 354.467 547.996 357.044 548.164C359.621 548.333 361.848 546.428 362.011 543.922C362.171 541.412 360.211 539.238 357.637 539.07ZM357.135 546.767C355.33 546.65 353.954 545.138 354.067 543.4C354.181 541.662 355.741 540.342 357.547 540.46C359.352 540.578 360.728 542.089 360.615 543.827C360.501 545.569 358.941 546.885 357.135 546.767Z" fill="#CBCBCB" fill-opacity="0.24"/>
</g>
<g clip-path="url(#clip8_309_5373)">
<path d="M337.919 84.6496L337.812 85.4653C337.812 85.4653 337.725 85.8916 337.508 85.9041C337.29 85.9165 337.127 85.9148 336.906 85.5689L305.36 30.2932C305.36 30.2932 304.875 29.6668 305.425 29.2972C305.974 28.9277 345.079 8.889 345.079 8.889C345.079 8.889 345.816 8.55537 345.874 9.48831C345.932 10.4213 337.919 84.6496 337.919 84.6496ZM306.912 29.6014C306.29 29.8627 306.481 30.2598 306.481 30.2598L308.838 33.9764C308.838 33.9764 313.281 31.6504 313.43 31.82C313.579 31.9895 313.44 32.1698 313.44 32.1698L309.13 34.6465L311.648 39.1696L314.685 37.7018C314.685 37.7018 315.519 37.336 315.541 37.5031C315.562 37.6702 315.343 37.8542 315.343 37.8542L312.015 39.8712L314.633 44.3209C314.633 44.3209 318.077 42.708 318.81 42.4363C319.542 42.1674 319.395 42.4744 319.395 42.4744L315.06 45.0442L317.615 49.5076C317.615 49.5076 321.047 47.5744 321.288 47.7972C321.529 48.0201 321.148 48.2171 321.148 48.2171L317.863 50.0801L320.102 54.2447C320.102 54.2447 324.705 51.8818 325.186 51.783C325.67 51.6844 325.355 52.1018 325.355 52.1018L320.599 55.1235L322.563 58.776C322.563 58.776 325.395 57.4072 325.823 57.4352C326.252 57.4631 325.898 57.8839 325.898 57.8839L323.047 59.281L325.331 63.3865L329.972 60.9905C330.492 61.06 330.168 61.4442 330.168 61.4442L325.716 64.0389L327.853 67.9512C327.853 67.9512 330.393 66.5486 330.443 66.8597C330.494 67.1708 330.285 67.3317 330.285 67.3317L328.249 68.563L330.377 72.4304C330.377 72.4304 335.183 69.8559 335.263 70.0978C335.342 70.3397 335.094 70.504 335.094 70.504L330.776 73.0867L336.554 83.1017C337.287 84.3717 337.332 84.052 337.332 84.052L337.368 83.7171L344.882 10.0421C344.885 10.0423 307.535 29.3402 306.912 29.6014Z" fill="#CBCBCB" fill-opacity="0.5"/>
<path d="M319.963 33.5364L335.839 24.1442L332.494 57.5419L319.963 33.5364ZM320.747 33.7592L331.976 54.7502L335.132 25.2492L320.747 33.7592Z" fill="#CBCBCB" fill-opacity="0.5"/>
</g>
<g clip-path="url(#clip9_309_5373)">
<path d="M403.843 208.878L386.638 220.588C386.638 220.588 383.046 223.829 381.001 221.763C378.955 219.697 388.566 213.188 388.566 213.188L401.196 205.011L378.842 178.453C378.842 178.453 378.223 177.34 377.308 178.038C376.393 178.737 359.639 191.189 359.639 191.189C359.639 191.189 357.779 193.045 358.302 195.239L380.551 221.223" stroke="#CBCBCB" stroke-opacity="0.5" stroke-width="2" stroke-miterlimit="10"/>
<path d="M378.854 203.593C378.854 203.593 383.492 201.094 385.89 198.53C385.888 198.529 381.009 201.098 378.854 203.593Z" stroke="#CBCBCB" stroke-opacity="0.5" stroke-width="2" stroke-miterlimit="10"/>
<path d="M377.39 200.443C377.39 200.443 381.183 198.283 382.818 196.267C382.818 196.267 379.405 198.151 377.39 200.443Z" stroke="#CBCBCB" stroke-opacity="0.5" stroke-width="2" stroke-miterlimit="10"/>
<path d="M374.982 198.306C374.982 198.306 379.49 195.366 381 193.804C381 193.804 376.998 196.015 374.982 198.306Z" stroke="#CBCBCB" stroke-opacity="0.5" stroke-width="2" stroke-miterlimit="10"/>
<path d="M382.421 218.143L359.482 191.275" stroke="#CBCBCB" stroke-opacity="0.5" stroke-width="2" stroke-miterlimit="10"/>
</g>
<g clip-path="url(#clip10_309_5373)">
<path d="M408.928 117.891C408.928 117.891 345.233 157.984 343.897 158.63C342.561 159.275 341.725 158.072 341.725 158.072L330.837 140.974C330.591 140.588 331.534 140.046 331.534 140.046C331.534 140.046 394.962 99.0974 396.297 98.3028C397.632 97.5082 397.851 98.293 397.851 98.293C397.851 98.293 408.7 115.76 409.182 116.615C409.664 117.475 408.928 117.891 408.928 117.891ZM407.998 116.813C407.998 116.813 397.721 101.308 397.396 100.702C397.07 100.097 396.056 100.711 396.056 100.711C396.056 100.711 333.278 139.857 332.536 140.296C331.795 140.736 331.988 141.098 331.988 141.098L342.481 156.03C342.745 156.403 343.452 156.024 343.452 156.024L347.172 153.749C347.172 153.749 342.514 146.089 341.829 144.288C341.145 142.488 342.655 143.902 342.655 143.902L348.716 153.054L353.872 149.853C353.872 149.853 351.473 145.323 350.968 144.487C350.462 143.65 351.368 143.787 351.368 143.787L355.231 149.082L360.495 145.892L360.398 145.702C360.398 145.702 354.551 136.548 354.178 135.979C353.805 135.409 353.886 135.01 354.171 134.895C354.457 134.78 354.828 135.081 354.828 135.081L362.265 145.101L362.645 144.89L366.808 142.118C366.808 142.118 363.864 137.109 363.618 136.771C363.366 136.427 363.041 135.864 363.51 135.753C363.98 135.637 364.238 135.981 364.238 135.981L368.323 141.382L374.067 137.956L373.832 137.601C373.832 137.601 366.176 126.749 366.726 126.179C367.271 125.616 367.899 126.101 367.899 126.101L375.727 136.725L376.006 136.568L380.509 133.711L377.405 128.828C377.405 128.828 376.793 128.111 377.243 127.751C377.693 127.391 378.047 127.663 378.047 127.663L381.814 132.839L387.878 129.108C387.878 129.108 380.908 118.562 380.751 118.253C380.594 117.944 380.413 117.463 380.84 117.305C381.268 117.148 381.562 117.461 381.562 117.461L389.433 128.264L394.582 124.974C393.508 123.694 391.227 119.992 391.344 119.61C391.461 119.228 392.017 119.582 392.017 119.582L395.926 124.537L401.549 120.91C401.549 120.91 395.111 110.527 394.954 110.212C394.797 109.897 394.837 109.569 395.045 109.449C395.252 109.334 395.575 109.457 395.575 109.457L403.169 119.893C403.169 119.893 406.958 118.064 407.622 117.613C408.286 117.163 407.998 116.813 407.998 116.813Z" fill="#CBCBCB" fill-opacity="0.5"/>
</g>
<g clip-path="url(#clip11_309_5373)">
<path d="M371.637 281.288L371.272 281.292C371.145 281.294 358.265 281.425 349.012 284.939C339.866 288.411 321.369 291.89 321.184 291.927L320.88 291.983L319.918 292.202C319.908 292.258 320.259 294.16 320.622 296.067C320.797 297.003 321.644 300.446 322.751 305.347C324.279 312.094 326.055 321.448 326.97 327.459C328.499 337.501 333.287 365.181 333.331 365.458L333.404 365.91L333.854 365.821C333.999 365.788 348.631 362.826 360.383 361.049C372.2 359.263 384.97 354.645 385.098 354.594L385.642 354.378L385.397 353.402C385.352 353.204 380.962 333.403 379.835 324.497C378.704 315.556 371.772 281.983 371.707 281.64L371.637 281.288ZM321.465 292.89C323.965 292.41 341.022 289.383 349.571 286.139C357.811 283.013 368.887 282.01 371.038 281.959C371.758 285.636 377.584 316.342 378.644 324.756C379.688 333.029 383.723 350.626 384.364 353.387C382.254 354.219 370.878 358.578 360.25 360.184C349.636 361.785 336.985 364.053 334.426 364.567C333.842 360.922 329.586 336.553 328.161 327.214C327.243 321.172 325.144 311.91 323.612 305.149C322.55 300.472 321.716 296.775 321.654 295.89C321.545 294.328 321.413 293.393 321.465 292.89Z" fill="#CBCBCB" fill-opacity="0.5"/>
<path d="M343.653 337.912C343.653 337.912 351.205 338.798 357.369 337.692C363.534 336.587 365.886 336.95 365.886 336.95L365.902 335.872C365.902 335.872 359.655 336.017 357.147 336.638C354.64 337.258 343.653 337.912 343.653 337.912Z" fill="#CBCBCB" fill-opacity="0.5"/>
<path d="M342.363 331.694C342.363 331.694 362.793 329.246 363.972 328.348C365.15 327.449 365.836 329.01 363.952 329.684C362.069 330.366 345.501 332.445 342.363 331.694Z" fill="#CBCBCB" fill-opacity="0.5"/>
<path d="M342.163 326.166C342.163 326.166 342.474 326.534 344.242 326.538C346.01 326.542 361.551 325.443 363.371 323.423C363.371 323.423 347.567 324.743 345.019 324.854C342.475 324.961 341.81 325.35 342.163 326.166Z" fill="#CBCBCB" fill-opacity="0.5"/>
<path d="M341.433 318.935C341.433 318.935 348.654 318.104 353.609 317.563C358.565 317.022 362.777 315.962 362.777 315.962C362.777 315.962 364.904 315.477 364.507 316.737C364.11 317.997 352.69 319.1 351.23 319.079C346.564 319.339 341.433 318.935 341.433 318.935Z" fill="#CBCBCB" fill-opacity="0.5"/>
<path d="M318.173 298.41C317.221 298.58 316.961 298.016 317.403 297.86C317.805 297.721 321.947 296.59 323.194 296.442C324.441 296.294 324.73 296.044 324.73 296.044C324.73 296.044 325.725 295.66 325.621 296.456C325.517 297.252 318.444 298.502 318.173 298.41Z" fill="#CBCBCB" fill-opacity="0.5"/>
<path d="M319.248 303.683C318.522 303.695 318.193 303.348 318.48 302.967C318.794 302.551 323.329 301.632 324.579 301.532C325.83 301.432 326.374 301.251 326.221 302.024C326.069 302.798 319.541 303.788 319.248 303.683Z" fill="#CBCBCB" fill-opacity="0.5"/>
<path d="M320.68 308.931C319.954 308.942 319.625 308.596 319.912 308.214C320.226 307.798 324.761 306.879 326.011 306.779C327.262 306.679 327.805 306.499 327.653 307.272C327.501 308.045 320.968 309.036 320.68 308.931Z" fill="#CBCBCB" fill-opacity="0.5"/>
<path d="M321.306 314.482C320.581 314.494 320.251 314.147 320.538 313.766C320.852 313.35 325.387 312.431 326.638 312.331C327.888 312.231 328.432 312.05 328.28 312.823C328.128 313.597 321.595 314.583 321.306 314.482Z" fill="#CBCBCB" fill-opacity="0.5"/>
<path d="M322.245 319.473C321.519 319.484 321.19 319.138 321.477 318.757C321.791 318.341 326.326 317.421 327.576 317.321C328.827 317.221 329.37 317.041 329.218 317.814C329.066 318.587 322.534 319.578 322.245 319.473Z" fill="#CBCBCB" fill-opacity="0.5"/>
<path d="M323.513 324.469C322.787 324.48 322.458 324.133 322.745 323.752C323.059 323.336 327.594 322.417 328.844 322.317C330.095 322.217 330.638 322.037 330.486 322.81C330.334 323.583 323.802 324.574 323.513 324.469Z" fill="#CBCBCB" fill-opacity="0.5"/>
<path d="M324.733 329.468C324.007 329.479 323.678 329.133 323.965 328.751C324.279 328.335 328.813 327.416 330.064 327.316C331.315 327.216 331.858 327.036 331.706 327.809C331.554 328.582 325.022 329.569 324.733 329.468Z" fill="#CBCBCB" fill-opacity="0.5"/>
<path d="M326.437 339.841C325.711 339.857 325.382 339.506 325.669 339.129C325.983 338.713 330.517 337.794 331.768 337.694C333.018 337.594 333.562 337.413 333.41 338.187C333.258 338.955 326.725 339.946 326.437 339.841Z" fill="#CBCBCB" fill-opacity="0.5"/>
<path d="M327.134 345.052C326.408 345.063 326.079 344.717 326.366 344.335C326.68 343.919 331.215 343 332.466 342.9C333.716 342.8 334.26 342.62 334.108 343.393C333.96 344.166 327.428 345.153 327.134 345.052Z" fill="#CBCBCB" fill-opacity="0.5"/>
<path d="M328.311 350.011C327.585 349.996 327.27 349.632 327.574 349.264C327.905 348.862 332.473 348.118 333.727 348.071C334.981 348.019 335.533 347.865 335.346 348.629C335.163 349.393 328.599 350.125 328.311 350.011Z" fill="#CBCBCB" fill-opacity="0.5"/>
<path d="M329.157 354.965C328.432 354.95 328.116 354.586 328.421 354.219C328.752 353.816 333.319 353.072 334.573 353.025C335.828 352.973 336.38 352.819 336.193 353.583C336.01 354.352 329.446 355.079 329.157 354.965Z" fill="#CBCBCB" fill-opacity="0.5"/>
<path d="M330.021 359.924C329.296 359.909 328.98 359.545 329.285 359.177C329.616 358.775 334.183 358.031 335.437 357.984C336.692 357.932 337.244 357.778 337.057 358.542C336.869 359.306 330.305 360.038 330.021 359.924Z" fill="#CBCBCB" fill-opacity="0.5"/>
<path d="M325.115 334.621C324.341 334.614 323.994 334.254 324.312 333.882C324.661 333.476 329.532 332.688 330.87 332.625C332.208 332.561 332.796 332.399 332.613 333.167C332.43 333.936 325.421 334.735 325.115 334.621Z" fill="#CBCBCB" fill-opacity="0.5"/>
</g>
<g clip-path="url(#clip12_309_5373)">
<path d="M299.295 272.857C299.295 272.857 295.874 271.141 296.187 269.732C296.5 268.322 300.763 258.355 300.763 258.355L300.799 258.255L301.24 258.415L296.636 269.61C296.636 269.61 296.516 269.942 296.868 270.416C297.22 270.89 298.897 272.784 301.561 272.489C301.561 272.489 301.677 272.447 301.825 272.11C301.974 271.771 306.748 260.977 306.748 260.977L307.168 261.129L302.415 272.275C302.415 272.275 302.193 272.956 301.855 273.06C301.517 273.164 300.904 273.583 299.295 272.857Z" fill="#CBCBCB" fill-opacity="0.78"/>
<path d="M298.783 268.335C298.783 268.335 299.175 266.639 300.164 264.733C301.153 262.827 302.055 261.118 302.055 261.118C302.055 261.118 300.831 264.442 300.33 265.668C299.83 266.894 298.783 268.335 298.783 268.335Z" fill="#CBCBCB" fill-opacity="0.78"/>
<path d="M299.285 270.873C299.285 270.873 299.917 268.462 300.835 266.599C301.753 264.738 302.589 263.363 302.589 263.363C302.589 263.363 301.496 266.839 301.03 267.971C300.563 269.103 299.285 270.873 299.285 270.873Z" fill="#CBCBCB" fill-opacity="0.78"/>
<path d="M301.904 269.021C301.904 269.021 302.423 266.924 303.198 264.94C303.974 262.955 304.778 261.927 304.778 261.927C304.778 261.927 304.228 264.477 303.602 265.997C302.974 267.517 301.904 269.021 301.904 269.021Z" fill="#CBCBCB" fill-opacity="0.78"/>
<path d="M312.325 256.267C312.325 256.267 310.047 261.032 309.841 261.535C309.634 262.037 309.474 262.188 309.474 262.188L308.647 261.888C306.211 260.915 298.745 257.297 298.745 257.297C298.46 257.158 298.551 256.991 298.551 256.991L298.642 256.742C298.642 256.742 301.263 250.376 301.348 250.123C301.433 249.869 301.795 249.666 301.795 249.666L308.599 245.972L311.709 247.1C311.709 247.1 312.373 253.425 312.521 254.513C312.667 255.601 312.325 256.267 312.325 256.267ZM312.04 255.094L311.38 247.418L308.571 246.459C308.571 246.459 302.598 249.681 302.26 249.892C301.923 250.103 301.861 250.378 301.861 250.378L299.335 256.789C299.237 257.04 299.783 257.225 299.783 257.225C299.783 257.225 309 261.665 309.104 261.725C309.208 261.785 309.345 261.459 309.345 261.459C309.345 261.459 311.522 256.593 311.783 256.08C312.042 255.57 312.04 255.094 312.04 255.094Z" fill="#CBCBCB" fill-opacity="0.78"/>
<path d="M304.955 220.239L303.044 248.984L303.815 248.567L305.572 220.607C305.572 220.607 307.879 220.231 308.087 220.067C308.295 219.905 308.394 220.32 308.266 221.155C308.138 221.988 307.51 246.561 307.51 246.561L308.113 246.233L308.987 220.131C308.987 220.131 309.095 219.42 308.602 219.503C308.11 219.587 305.398 220.077 305.398 220.077L305.017 220.146C305.018 220.148 304.961 220.147 304.955 220.239Z" fill="#CBCBCB" fill-opacity="0.78"/>
<path d="M305.714 220.023L307.668 214.206C307.668 214.206 307.767 213.927 307.976 213.94C308.185 213.954 308.214 214.499 308.214 214.499L308.212 219.575L307.488 219.705L307.637 215.98L306.493 219.884L305.714 220.023Z" fill="#CBCBCB" fill-opacity="0.78"/>
<path d="M304.751 230.761L304.752 231.156L302.55 231.095L302.531 232.984L299.612 232.871L299.67 226.823L302.59 226.935L302.576 228.269L304.748 228.33L304.749 228.726L302.572 228.665L302.551 230.7L304.751 230.761ZM302.15 227.337L300.189 227.261L300.214 232.341L302.098 232.547L302.15 227.337Z" fill="#CBCBCB" fill-opacity="0.78"/>
<path d="M324.504 237.659L324.726 237.431L326.025 238.588L327.096 237.511L328.802 239.062L324.981 242.759L323.454 241.175L324.426 240.197L323.145 239.055L323.367 238.828L324.651 239.97L325.802 238.811L324.504 237.659ZM324.011 241.104L324.956 242.006L328.015 239.017L327 238.098L324.011 241.104Z" fill="#CBCBCB" fill-opacity="0.78"/>
<path d="M311.742 247.409L327.827 227.977C327.827 227.977 328.527 227.041 328.867 227.344C329.207 227.645 330.95 230.116 330.95 230.116C330.95 230.116 331.214 230.318 330.898 230.721C330.584 231.125 312.303 252.669 312.303 252.669L312.196 251.686L330.188 230.548C330.188 230.548 330.369 230.292 330.219 230.084C330.071 229.875 328.827 228.378 328.827 228.378C328.827 228.378 328.484 228.016 328.248 228.288C328.012 228.559 311.826 248.255 311.826 248.255L311.742 247.409Z" fill="#CBCBCB" fill-opacity="0.78"/>
<path d="M329.038 227.528L333.049 222.935L330.616 229.644L330.296 229.197L332.088 224.764L329.438 228.036L329.038 227.528Z" fill="#CBCBCB" fill-opacity="0.78"/>
<path d="M304.664 251.805C303.514 251.388 302.255 251.942 301.858 253.037C301.46 254.134 302.074 255.364 303.222 255.781C304.373 256.198 305.631 255.645 306.028 254.55C306.425 253.455 305.815 252.223 304.664 251.805ZM303.364 255.391C302.442 255.056 301.95 254.067 302.269 253.188C302.588 252.309 303.599 251.865 304.521 252.2C305.445 252.535 305.935 253.523 305.616 254.402C305.297 255.281 304.286 255.725 303.364 255.391Z" fill="#CBCBCB" fill-opacity="0.78"/>
<path d="M308.98 253.835C307.829 253.418 306.571 253.972 306.174 255.066C305.776 256.163 306.389 257.394 307.538 257.811C308.689 258.228 309.947 257.674 310.344 256.579C310.743 255.485 310.131 254.252 308.98 253.835ZM307.68 257.42C306.757 257.086 306.266 256.097 306.585 255.218C306.904 254.339 307.915 253.895 308.837 254.229C309.761 254.565 310.251 255.553 309.932 256.432C309.615 257.312 308.604 257.755 307.68 257.42Z" fill="#CBCBCB" fill-opacity="0.78"/>
</g>
<path d="M389.838 411.728L370.752 406.826L370.723 406.818L331.261 383.883L331.187 383.841L331.15 383.755C328.907 378.277 334.241 374.496 334.297 374.456L334.417 374.372L374.996 398.108C374.996 398.108 383.18 404.978 389.368 410.722C390.607 411.778 389.838 411.728 389.838 411.728ZM372.915 401.721C372.987 401.461 373.265 401.428 373.543 401.414C374.074 401.391 375.844 401.363 375.924 401.359C375.959 401.359 375.994 401.358 376.029 401.358C375.369 400.638 373.422 398.241 372.788 397.463L346.268 381.95C342.501 384.89 342.631 389.631 342.645 389.84C342.645 389.84 342.645 389.842 342.645 389.848L369.726 405.587L375.004 405.08C375.159 405.073 375.34 405.027 375.423 404.981C375.414 404.966 375.4 404.948 375.381 404.926C374.908 404.366 373.146 402.243 373 402.066C372.916 401.983 372.882 401.849 372.915 401.721ZM336.144 386.026C336.144 386.026 336.143 386.046 336.141 386.072L341.888 389.413C341.904 388.027 342.261 384.195 345.538 381.526L339.756 378.145C335.999 381.082 336.13 385.818 336.144 386.026ZM331.57 383.414L335.387 385.634C335.398 384.282 335.733 380.411 339.029 377.717L334.434 375.029C333.677 375.599 329.757 378.824 331.57 383.414ZM374.741 398.606L374.072 398.214C375.147 399.519 376.339 400.94 376.543 401.112C376.765 401.302 376.75 401.497 376.719 401.595C376.69 401.691 376.613 401.942 375.914 401.937C375.896 401.939 374.229 401.965 373.626 401.986C374.168 402.64 375.364 404.079 375.742 404.527C375.979 404.807 375.966 405.039 375.914 405.186C375.776 405.577 375.242 405.645 375.029 405.654L370.605 406.099L370.899 406.271L383.158 409.419C382.511 408.191 381.521 406.087 381.661 404.962L374.741 398.606ZM382.157 405.415C382.281 406.317 383.005 408.048 383.851 409.599L387.825 410.621L382.157 405.415Z" fill="#CBCBCB" fill-opacity="0.5"/>
<path d="M340.145 380.222C338.919 381.356 337.632 385.067 337.632 385.067C337.632 385.067 337.162 383.601 338.281 381.826C339.402 380.049 340.145 380.222 340.145 380.222Z" fill="#CBCBCB" fill-opacity="0.5"/>
<path d="M341.784 380.967C340.558 382.101 339.271 385.813 339.271 385.813C339.271 385.813 338.801 384.346 339.919 382.572C341.04 380.795 341.784 380.967 341.784 380.967Z" fill="#CBCBCB" fill-opacity="0.5"/>
<path d="M343.535 381.985C342.309 383.119 341.022 386.83 341.022 386.83C341.022 386.83 340.552 385.364 341.673 383.587C342.794 381.813 343.535 381.985 343.535 381.985Z" fill="#CBCBCB" fill-opacity="0.5"/>
<g clip-path="url(#clip13_309_5373)">
<path d="M319.439 510.912L288.418 480.56C288.418 480.56 280.315 474.55 283.694 469.514C287.072 464.478 304.334 481.447 304.334 481.447L326.25 503.903L371.302 447.221C371.302 447.221 373.322 445.496 371.517 443.913C369.713 442.331 337.362 413.206 337.362 413.206C337.362 413.206 332.803 410.168 328.536 412.143L284.612 468.372" stroke="#CBCBCB" stroke-opacity="0.5" stroke-width="2" stroke-miterlimit="10"/>
<path d="M286.726 472.519L315.357 499.818" stroke="#CBCBCB" stroke-opacity="0.5" stroke-width="2" stroke-miterlimit="10"/>
<path d="M317.778 498.651L308.468 489.851" stroke="#CBCBCB" stroke-opacity="0.5" stroke-width="2" stroke-miterlimit="10"/>
<path d="M299.321 484.53C299.321 484.53 303.15 484.941 305.645 482.174C308.14 479.408 312.866 471.271 312.866 471.271L306.027 473.414L306.302 464.619L298.265 475.105C298.265 475.105 296.815 476.447 294.7 476.61C292.585 476.774 290.94 476.54 290.94 476.54" stroke="#CBCBCB" stroke-opacity="0.5" stroke-width="2" stroke-miterlimit="10"/>
<path d="M319.937 457.624C319.937 457.624 326.955 466.079 333.183 469.923C333.183 469.919 325.924 461 319.937 457.624Z" stroke="#CBCBCB" stroke-opacity="0.5" stroke-width="2" stroke-miterlimit="10"/>
<path d="M325.771 453.33C325.771 453.33 331.747 460.196 336.541 462.706C336.541 462.706 331.283 456.503 325.771 453.33Z" stroke="#CBCBCB" stroke-opacity="0.5" stroke-width="2" stroke-miterlimit="10"/>
<path d="M329.145 447.523C329.145 447.523 337.009 455.528 340.825 457.971C340.825 457.971 334.658 450.7 329.145 447.523Z" stroke="#CBCBCB" stroke-opacity="0.5" stroke-width="2" stroke-miterlimit="10"/>
<path d="M291.676 470.925L337.123 412.92" stroke="#CBCBCB" stroke-opacity="0.5" stroke-width="2" stroke-miterlimit="10"/>
<path d="M323.838 501.391C323.838 501.391 317.226 503.794 317.935 509.388" stroke="#CBCBCB" stroke-opacity="0.5" stroke-width="2" stroke-miterlimit="10"/>
<path d="M289.173 478.387C289.173 478.387 295.335 485.209 298.464 486.804C298.464 486.804 292.142 480.196 289.173 478.387Z" stroke="#CBCBCB" stroke-opacity="0.5" stroke-width="2" stroke-miterlimit="10"/>
</g>
<defs>
<clipPath id="clip0_309_5373">
<rect width="78.8082" height="69.6872" fill="white" transform="matrix(-1 0 0 1 34.8083 0)"/>
</clipPath>
<clipPath id="clip1_309_5373">
<rect width="39.3108" height="77.4303" fill="white" transform="matrix(-1 0 0 1 93.179 520.57)"/>
</clipPath>
<clipPath id="clip2_309_5373">
<rect width="42.2888" height="48.245" fill="white" transform="matrix(-0.197795 0.980243 0.980243 0.197795 -13.1976 383.557)"/>
</clipPath>
<clipPath id="clip3_309_5373">
<rect width="78.693" height="60.5386" fill="white" transform="matrix(-0.997449 0.071377 0.071377 0.997449 59.0771 447.309)"/>
</clipPath>
<clipPath id="clip4_309_5373">
<rect width="69.0916" height="85.1733" fill="white" transform="matrix(-0.998725 0.0504723 0.0504723 0.998725 60.2904 240.034)"/>
</clipPath>
<clipPath id="clip5_309_5373">
<rect width="31.5597" height="58.459" fill="white" transform="matrix(-0.960276 -0.279053 -0.279053 0.960276 97.9438 335.801)"/>
</clipPath>
<clipPath id="clip6_309_5373">
<rect width="88.1514" height="100.659" fill="white" transform="matrix(-1 0 0 1 87.2227 95.2988)"/>
</clipPath>
<clipPath id="clip7_309_5373">
<rect width="78.8082" height="69.6872" fill="white" transform="matrix(0.997878 0.065109 0.065109 -0.997878 326.002 606.842)"/>
</clipPath>
<clipPath id="clip8_309_5373">
<rect width="39.3108" height="77.4303" fill="white" transform="matrix(0.997878 0.065109 0.065109 -0.997878 301.649 83.5762)"/>
</clipPath>
<clipPath id="clip9_309_5373">
<rect width="42.2888" height="48.245" fill="white" transform="matrix(0.261198 -0.965285 -0.965285 -0.261198 398.879 227.224)"/>
</clipPath>
<clipPath id="clip10_309_5373">
<rect width="78.693" height="60.5386" fill="white" transform="matrix(0.99998 -0.00628255 -0.00628255 -0.99998 330.908 158.902)"/>
</clipPath>
<clipPath id="clip11_309_5373">
<rect width="69.0916" height="85.1733" fill="white" transform="matrix(0.999893 0.0146609 0.0146609 -0.999893 316.202 365.658)"/>
</clipPath>
<clipPath id="clip12_309_5373">
<rect width="31.5597" height="58.459" fill="white" transform="matrix(0.940069 0.340983 0.340983 -0.940069 284.864 267.643)"/>
</clipPath>
<clipPath id="clip13_309_5373">
<rect width="88.1514" height="100.659" fill="white" transform="matrix(0.997878 0.065109 0.065109 -0.997878 279.903 508.333)"/>
</clipPath>
</defs>
</svg>
