<svg width="322" height="292" viewBox="0 0 322 292" fill="none" xmlns="http://www.w3.org/2000/svg">
<g clip-path="url(#clip0_171_5585)">
<path d="M112.802 338.295C112.802 338.295 67.8227 335.147 43.768 316.312C19.7385 297.503 32.1571 275.798 32.1571 275.798L125.801 167.901L126.937 224.858L112.802 338.295Z" fill="#507DBD"/>
<path d="M124.438 219.394C124.438 219.394 116.487 323.111 110.859 343.557C110.859 343.557 228.381 343.683 271.972 327.744L250.088 261.017C250.088 261.017 279.822 309.992 304.735 296.773C304.735 296.773 332.677 282.672 317.558 252.859L288.934 254.646L258.165 198.747C258.165 198.747 257.862 169.815 252.789 157.048C247.968 139.372 228.81 127.109 215.836 129.199C202.812 127.865 123.252 150.577 123.252 150.577L123.782 204.865L124.438 219.394Z" fill="white"/>
<path d="M172.901 169.613C172.901 169.613 176.41 192.426 175.93 216.221C175.425 240.017 161.215 271.718 161.215 271.718C161.215 271.718 173.583 263.384 178.454 260.992C183.326 258.6 197.284 194.768 180.701 168.757L177.318 165.333L172.901 169.613Z" fill="#B6B6B7"/>
<path d="M139.835 115.124L140.744 123.383L142.864 142.696C142.864 142.696 144.656 152.994 160.912 155.613C177.167 158.232 200.565 153.095 189.358 142.268L183.477 120.613L139.835 115.124Z" fill="#F3915A"/>
<path d="M140.239 118.624C140.239 118.624 155.283 134.361 170.604 133.379C185.9 132.397 186.279 130.836 186.279 130.836L183.502 120.613L139.835 115.124L140.239 118.624Z" fill="#E17E46"/>
<path d="M72.5175 303.949C72.5175 303.949 75.7988 316.464 65.8539 319.309C55.9089 322.154 26.705 321.374 15.4475 307.273C4.19 293.197 7.67326 275.924 7.67326 275.924C7.67326 275.924 7.79947 261.269 20.5967 240.52C20.5967 240.52 22.7169 238.456 25.443 238.078C28.169 237.675 36.4481 233.243 38.0635 230.071C39.6537 226.898 70.3468 157.879 70.3468 157.879C70.3468 157.879 89.9086 143.401 101.797 143.023C113.686 142.645 72.4418 296.748 72.4418 296.748C72.4418 296.748 72.0884 301.456 72.5175 303.949Z" fill="#4770AB"/>
<path d="M139.154 114.418C139.154 114.418 140.694 123.055 139.936 126.505C139.154 129.955 143.445 152.113 161.063 154.48C178.681 156.847 189.964 153.271 189.964 153.271C189.964 153.271 195.34 151.761 194.785 146.573C194.785 146.573 193.17 143.602 189.055 142.922C184.941 142.217 182.619 122.3 182.619 122.3L139.154 114.418Z" fill="#F3915A"/>
<path d="M127.72 80.828C127.72 80.828 126.281 107.796 145.237 119.303C164.193 130.785 185.017 124.641 194.583 113.839C204.15 103.037 202.509 75.3388 199.884 61.0113C197.309 46.6587 130.521 34.5219 127.72 80.828Z" fill="#F3915A"/>
<path d="M183.2 86.4437C185.118 86.2171 186.481 84.2278 186.228 81.9868C185.976 79.7206 184.234 78.0839 182.316 78.2853C180.398 78.5119 179.06 80.5012 179.287 82.7422C179.54 85.0084 181.281 86.6703 183.2 86.4437Z" fill="#474747"/>
<path d="M188.122 78.7886C188.122 78.7886 181.736 73.4504 177.167 79.9972C172.573 86.544 172.043 75.3389 179.893 74.1051C187.743 72.8964 191.15 77.5799 191.15 77.5799C191.15 77.5799 191.857 78.713 191.403 79.8713C190.923 81.0296 188.626 79.8461 188.122 78.7886Z" fill="#474747"/>
<path d="M198.975 131.289C198.975 131.289 218.865 162.487 222.02 184.973L234.843 189.783C234.843 189.783 225.731 141.714 204.478 130.408C203.392 129.073 198.167 129.778 198.975 131.289Z" fill="#507DBD"/>
<path d="M163.234 103.264C163.234 103.264 174.819 102.836 178.151 102.609C181.483 102.357 182.165 104.321 181.685 106.865C181.231 109.433 176.814 115.174 170.125 114.293C163.411 113.411 161.215 107.318 161.215 107.318C161.215 107.318 159.195 103.113 163.234 103.264Z" fill="#CE7E51"/>
<path d="M161.694 108.426C161.694 108.426 169.847 106.034 176.384 108.778L179.59 110.44C179.59 110.44 175.804 116.131 168.408 113.915C168.459 113.94 164.773 113.89 161.694 108.426Z" fill="#FF77AD"/>
<path d="M165.379 112.706C165.379 112.706 167.676 110.868 172.396 110.818C177.116 110.767 178.025 112.152 178.025 112.152C177.773 112.53 172.068 116.987 165.379 112.706Z" fill="#F9EEF0"/>
<path d="M162.502 103.264C162.502 103.264 166.313 107.62 171.412 106.839C176.511 106.059 179.035 102.357 179.035 102.357C179.035 102.357 166.212 103.214 162.502 103.264Z" fill="#F9EEF0"/>
<path d="M199.152 58.9971C199.152 58.9971 189.232 82.465 168.964 86.4938C148.695 90.5226 147.559 88.0298 147.559 88.0298C147.559 88.0298 142.688 97.6737 129.991 97.9255C129.991 97.9255 132.768 108.476 139.154 114.444C139.154 114.444 140.87 121.519 137.362 125.296C133.853 129.048 126.634 129.854 123.984 126.782C121.334 123.71 114.342 110.541 114.443 96.8428C114.443 96.8428 103.917 90.6233 100.737 72.5188C97.5314 54.4143 103.362 31.6264 122.823 25.5076L130.118 23.9968C130.118 23.9968 150.916 -5.06104 177.369 0.831104C203.821 6.72325 201.55 24.8781 201.55 24.8781C201.55 24.8781 215.104 27.3206 216.543 51.0906C216.543 51.0906 224.368 64.1339 219.471 77.2275C219.471 77.2275 225.302 99.3608 220.682 110.994C220.682 110.994 225.453 121.847 221.112 132.775C221.112 132.775 224.696 140.278 220.834 147.203C220.834 147.203 224.923 150.703 224.746 157.678C224.595 164.653 231.637 176.185 239.765 176.462C239.765 176.462 208.037 184.621 204.882 161.984C204.882 161.984 203.67 155.286 206.245 150.35C206.245 150.35 201.853 139.8 206.27 134.789C206.27 134.789 199.909 123.08 204.528 112.58C204.528 112.58 199.505 105.404 200.237 101.551C200.969 97.7241 202.509 82.616 202.004 77.3282C201.474 71.9649 199.152 58.9971 199.152 58.9971Z" fill="#2D2D2D"/>
<path d="M200.969 69.8496C200.969 69.8496 206.194 69.9755 207.078 75.5151C207.961 81.0799 206.573 91.0512 201.424 91.7563C201.575 89.0368 202.559 78.1339 200.969 69.8496Z" fill="#F3915A"/>
<path d="M139.255 116.357C139.255 116.357 131.733 116.257 129.411 125.699C129.411 125.699 137.614 123.156 140.87 124.44C140.87 124.415 140.214 117.642 139.255 116.357Z" fill="white"/>
<path d="M205.815 149.117C205.815 149.117 215.155 151.383 221.162 146.095C221.162 146.095 221.793 147.631 217.098 149.545C212.025 151.61 206.27 150.275 206.27 150.275L205.815 149.117Z" fill="#F74343"/>
<path d="M206.194 150.3C206.194 150.3 214.902 152.365 220.91 147.077C220.91 147.077 221.844 149.192 217.048 150.829C212.252 152.466 205.664 151.584 205.664 151.584L206.194 150.3Z" fill="#F7D5D5"/>
<path d="M221.086 132.724C221.086 132.724 213.388 136.325 206.27 134.714L205.689 133.455C205.689 133.455 215.483 134.21 221.49 131.717C221.465 131.717 221.743 132.473 221.086 132.724Z" fill="#3F3F3F"/>
<path d="M204.528 112.505C204.528 112.505 212.984 113.084 220.657 110.944L221.263 112.606C221.263 112.606 211.873 116.534 203.746 114.545L204.528 112.505Z" fill="#3F3F3F"/>
<path d="M100.535 157.678C100.535 157.678 125.499 134.386 138.346 148.034C151.169 161.707 143.596 208.642 143.596 208.642C143.596 208.642 133.02 251.449 128.326 255.956C128.326 255.956 139.356 258.373 140.517 261.218C139.962 260.463 155.131 225.11 160.18 192.175C165.228 159.214 160.533 130.71 140.719 123.383C93.2909 121.393 86.8292 176.538 86.8292 176.538L93.9977 167.8L100.535 157.678Z" fill="#507DBD"/>
<path d="M119.314 128.595C119.314 128.595 87.7379 122.174 57.802 159.34C27.8156 190.89 4.29098 260.362 4.29098 260.362C4.29098 260.362 -18.9813 318.402 42.8088 320.341C42.8088 320.341 -8.68292 303.596 16.9115 267.513C39.8304 235.157 72.2146 159.642 83.6488 152.239C91.1707 145.39 95.815 141.311 119.314 128.595Z" fill="#507DBD"/>
<path d="M272.856 202.549C259.352 198.57 199.505 177.394 199.505 177.394C199.505 177.394 193.018 173.566 191.277 178.3C189.535 183.034 152.582 292.643 152.582 292.643L204.932 314.499L219.622 296.445L184.26 285.895L167.676 280.934L204.452 198.822C204.452 198.822 207.784 192.88 215.584 197.588C223.383 202.297 266.268 220.729 266.268 220.729L268.035 236.92L279.418 222.919L285.098 211.488C285.123 211.463 286.36 206.527 272.856 202.549Z" fill="#AEA4EE"/>
<path d="M162.022 279.222L194.911 183.009C194.911 183.009 196.072 180.264 200.868 181.876C205.689 183.487 276.541 207.786 276.541 207.786C276.541 207.786 272.982 208.97 271.089 211.11L201.02 187.264C201.02 187.264 198.092 186.257 196.577 189.581C195.088 192.905 165.682 280.305 165.682 280.305L162.022 279.222Z" fill="white"/>
<path d="M266.293 220.704L213.665 196.556C213.665 196.556 207.027 193.081 203.796 200.283C200.565 207.484 167.676 280.909 167.676 280.909L206.144 291.737L234.565 234.477L284.87 252.707C284.87 252.707 276.238 235.56 272.477 231.455C268.716 227.326 264.577 223.75 266.293 220.704Z" fill="#EBEBEB"/>
<path d="M267.757 226.973L217.578 203.959C217.578 203.959 212.227 201.516 209.299 207.761C206.396 214.006 175.198 283.15 175.198 283.15L216.442 295.488L240.522 246.74L287.899 260.614C287.925 260.589 280.655 230.902 267.757 226.973Z" fill="white"/>
<path d="M286.612 248.704L245.924 228.233L224.393 218.538C224.393 218.538 216.492 212.898 212.782 222.492C209.097 232.06 184.285 285.87 184.285 285.87L163.663 333.939L250.896 364.356L256.676 366.497L297.769 275.924L286.612 248.704Z" fill="#319CA3"/>
<path d="M50.154 294.406C50.154 294.406 51.1889 300.575 45.0553 301.758C38.9469 302.942 18.2745 305.938 10.0964 288.362C1.94357 270.812 23.5751 242.887 23.5751 242.887C23.5751 242.887 32.9648 230.7 46.9231 233.873C60.8562 237.02 50.6588 285.844 50.6588 285.844C50.6588 285.844 49.0686 288.413 50.154 294.406Z" fill="#42689E"/>
<path d="M185.32 127.462C185.32 127.462 196.249 124.239 202.206 135.444C202.206 135.444 203.695 138.012 202.711 143.35C202.711 143.35 194.104 144.483 191.302 143.652C186.355 142.167 186.759 133.303 185.32 127.462Z" fill="white"/>
<path d="M187.819 158.358C192.589 156.142 188.197 164.93 184.411 169.311C178.782 172.257 173.128 171.577 173.128 171.577C173.128 171.577 167.752 171.502 164.445 164.552C159.523 157.35 182.695 161.253 187.819 158.358Z" fill="#B6B6B7"/>
<path d="M124.388 218.261L139.633 196.43C139.633 196.43 134.03 231.405 121.637 253.161L124.388 218.261Z" fill="#EBEBEB"/>
<path d="M235.65 223.6L279.191 316.816L297.895 277.284L281.917 246.337C281.917 246.337 243.349 227.074 235.65 223.6Z" fill="#39B9C1"/>
<path d="M318.618 266.808C318.618 266.808 319.4 276.125 309.127 279.524C298.854 282.924 293.881 281.917 289.792 266.683C285.678 251.474 273.411 237.574 266.646 232.79C262.81 230.071 260.866 228.812 257.61 225.312C256.121 223.7 255.641 222.114 257.888 222.693C258.746 222.794 269.423 226.697 268.842 226.394C266.798 225.387 261.27 221.61 260.134 220.905C250.871 217.556 253.824 213.905 258.09 214.812C260.816 215.391 272.326 220.956 273.966 221.862C269.903 218.941 262.986 214.358 261.775 213.754C254.859 210.279 254.707 204.991 259.756 205.797C263.845 206.024 275.405 212.545 278.712 215.089C276.92 211.211 270.559 208.214 269.372 206.955C265.056 204.034 257.989 196.909 275.481 201.743C278.939 202.423 307.36 215.693 316.952 229.542C321.823 235.988 318.618 266.808 318.618 266.808Z" fill="#F3915A"/>
<path d="M139.154 114.418C139.154 114.418 147.256 128.116 166.995 130.634C166.995 130.634 177.318 131.843 183.931 131.113C183.931 131.113 182.821 123.257 182.543 122.275C182.568 122.3 160.205 129.552 139.154 114.418Z" fill="#E17E46"/>
<path d="M293.78 276.704L252.991 365.036L256.676 366.471L296.708 279.801C296.658 279.902 294.184 277.611 293.78 276.704Z" fill="#39B9C1"/>
<path d="M43.3641 237.499C43.3641 237.499 23.0703 261.344 40.8148 279.222C58.5592 297.1 115.251 309.312 115.251 309.312C115.251 309.312 136.655 316.187 145.59 304.226C154.5 292.266 156.343 275.697 147.13 266.078C137.917 256.485 108.309 247.596 108.309 247.596L144.278 189.732C144.278 189.732 148.771 163.595 138.321 148.009C127.518 131.944 104.271 152.214 100.51 157.653L43.3641 237.499Z" fill="white"/>
<path d="M143.066 306.87C143.066 306.87 158.69 310.597 161.593 315.255C164.471 319.913 181.104 335.5 191.756 344.086C202.408 352.673 239.184 330.489 223.055 313.115C206.926 295.741 207.81 294.507 200.843 290.856C189.686 284.989 152.557 276.453 152.557 276.453C152.557 276.453 156.444 292.291 143.066 306.87Z" fill="#F3915A"/>
<path d="M132.768 105.303C132.768 105.303 129.411 107.569 126.937 103.087C124.438 98.6053 123.732 97.2959 123.732 97.2959C123.732 97.2959 126.609 98.6053 129.966 97.9506C129.966 97.9254 131.354 102.659 132.768 105.303Z" fill="#F3915A"/>
<path d="M175.45 156.57C175.45 156.57 167.55 152.743 160.533 151.584C160.533 151.584 161.29 156.067 161.492 157.804C161.618 159.541 175.45 156.57 175.45 156.57Z" fill="white"/>
<path d="M177.318 156.318C177.318 156.318 192.337 147.178 195.618 145.919C198.899 144.71 194.81 154.38 194.81 154.38L177.318 156.318Z" fill="white"/>
<path d="M198.218 289.571C198.218 289.571 225.15 291.535 229.567 291.737C233.984 291.938 232.546 297.679 227.094 298.057C221.642 298.435 213.438 297.83 211.469 300.172C209.501 302.489 198.218 289.571 198.218 289.571Z" fill="#F3915A"/>
<path d="M84.5322 180.315L91.2463 169.034L91.3221 168.984C92.0036 168.984 107.804 169.135 117.118 180.239L117.497 180.693L117.043 181.297C115.73 183.185 112.07 189.48 112.045 189.556L111.641 190.261L111.111 190.009C110.909 189.909 90.3377 179.635 84.8856 180.239L84.5322 180.315ZM91.0949 170.621L86.2486 178.603C92.5841 179.056 108.234 186.635 111.389 188.196C112.272 186.66 114.418 183.034 115.654 181.121C107.375 171.729 93.6695 170.721 91.0949 170.621Z" fill="#999999"/>
<path d="M90.9182 173.542C90.9182 173.542 102.554 175.027 112.752 182.909L111.641 184.898C111.641 184.898 99.8283 178.099 89.6309 175.908L90.9182 173.542Z" fill="#999999"/>
<path d="M169.065 322.935C177.546 330.665 195.997 347.309 201.827 352.194C209.097 358.288 215.18 360.73 212.757 353.403C210.813 347.561 207.103 342.852 205.487 341.216C209.526 345.295 218.587 353.655 222.475 354.637C227.321 355.845 223.686 344.892 215.205 338.799C223.686 344.892 234.616 354.637 237.039 352.22C239.462 349.777 229.769 337.59 223.686 331.496C234.616 340.032 241.885 344.917 244.308 343.683C246.731 342.475 237.039 329.054 224.898 315.633C215.18 304.906 211.141 300.6 210.334 299.795C212.757 298.989 219.067 297.604 224.898 298.586C230.728 299.568 233.379 294.935 232.167 292.492C231.763 291.687 229.239 290.302 222.449 291.284C213.968 291.284 205.462 290.075 198.193 290.075C192.362 287.154 183.629 284.787 179.994 283.981" stroke="black" stroke-width="0.193" stroke-linecap="round"/>
<path d="M319.526 258.323C320.738 250.189 321.218 232.236 313.469 225.412C305.694 218.588 295.674 211.991 291.635 209.574C286.789 205.923 274.648 199.099 264.955 201.038C263.744 202.246 267.378 204.689 268.59 205.923C269.802 207.157 277.071 212.016 278.308 214.459" stroke="black" stroke-width="0.193" stroke-linecap="round"/>
</g>
<defs>
<clipPath id="clip0_171_5585">
<rect width="322" height="381" fill="white"/>
</clipPath>
</defs>
</svg>
