<svg width="530" height="277" viewBox="0 0 530 277" fill="none" xmlns="http://www.w3.org/2000/svg">
<g clip-path="url(#clip0_171_5642)">
<path d="M367.945 211.057C367.945 211.057 381.073 209.079 396.61 242.23C412.147 275.381 419.612 503.394 396.61 511.676C373.608 519.958 137.99 588.89 115.292 546.131C92.5938 503.372 133.889 306.727 133.889 306.727L367.945 211.057Z" fill="#4F4E63"/>
<path d="M489.313 79.0623C487.685 91.5618 463.902 155.972 463.902 155.972C463.902 155.972 434.932 154.125 425.84 150.581C423.431 149.647 423.019 148.69 425.84 138.69C428.813 128.126 446.477 70.1279 446.477 70.1279C450.73 59.65 492.047 67.9106 489.313 79.0623Z" fill="#515151"/>
<path d="M328.885 171.58L339.192 181.58L358.028 212.905C358.028 212.905 374.064 435.005 371.135 470.438H229.651L242.432 180.102L258.642 168.298L328.885 171.58Z" fill="white"/>
<path d="M339.214 181.58C339.214 181.58 395.569 169.602 419.374 264.142C460.538 261.207 456.719 142.929 456.719 142.929L508.777 135.386C508.777 135.386 547.143 239.643 520.734 327.401C506.976 385.137 417.855 391.137 405.225 374.964C405.225 374.964 412.516 460.265 413.493 470.438C413.493 470.438 366.925 536.458 352.386 527.697C283.271 486.047 362.628 224.078 339.214 181.58Z" fill="#B3A4EE"/>
<path d="M247.466 531.197C305.991 479.916 230.215 210.905 242.454 180.102C242.454 180.102 163.856 172.711 135.863 293.771C135.863 293.771 125.816 302.445 126.489 212.644L65.599 200.775C65.599 200.775 37.1503 329.705 80.3767 392.702C80.3767 392.702 104.442 434.527 150.619 401.071L154.591 505.633C154.547 505.611 229.238 547.174 247.466 531.197Z" fill="#B3A4EE"/>
<path d="M509.537 139.668L459.432 146.886" stroke="#EDEDED" stroke-width="0.75" stroke-miterlimit="10"/>
<path d="M66.8359 220.448L126.164 222.861" stroke="#EDEDED" stroke-width="0.75" stroke-miterlimit="10"/>
<path d="M302.129 203.731L314.91 213.47C314.91 213.47 316.429 223.013 309.55 230.643C306.382 234.035 303.496 236.23 303.496 236.23L293.145 235.708C293.145 235.708 295.337 224.383 282.251 216.774C289.412 209.796 295.228 205.057 302.129 203.731Z" fill="#B6B6B7"/>
<path d="M325.608 150.255L327.908 176.819L299.177 200.775L258.642 168.298L266.194 123.865C266.194 123.865 315.452 149.277 325.608 150.255Z" fill="#F3915A"/>
<path d="M349.391 62.5626C349.391 62.5626 357.138 111.213 348.545 137.06C339.952 162.885 294.013 152.559 275.85 132.06C257.687 111.561 263.069 104.322 263.069 104.322C263.069 104.322 273.875 60.7801 288.848 59.041C303.821 57.3019 349.391 62.5626 349.391 62.5626Z" fill="#F3915A"/>
<path d="M331.836 85.4968C332.422 85.4968 332.964 85.1273 333.138 84.5403C333.16 84.4751 334.331 80.7796 337.651 79.1058C339.821 77.9971 342.469 77.9754 345.529 79.0405C346.245 79.2797 347.004 78.9101 347.243 78.1928C347.482 77.4754 347.113 76.7145 346.397 76.4754C342.599 75.1711 338.715 74.0842 335.872 75.5407C331.532 77.7797 330.599 83.5621 330.534 83.7577C330.317 84.4751 330.729 85.236 331.445 85.4533C331.576 85.4968 331.706 85.4968 331.836 85.4968Z" fill="#474747"/>
<path d="M295.619 92.5179C296.074 92.5179 296.53 92.2788 296.79 91.8658C298.939 88.2572 301.564 86.1486 304.624 85.6269C309.876 84.6921 314.736 88.6268 314.801 88.6703C315.387 89.1485 316.234 89.0615 316.711 88.4746C317.188 87.8877 317.102 87.0399 316.516 86.5616C316.277 86.366 309.789 80.5619 303.322 81.6923C299.46 82.3661 297.051 86.1703 294.49 90.4745C294.1 91.1267 294.317 91.9527 294.968 92.344C295.141 92.4527 295.38 92.5179 295.619 92.5179Z" fill="#474747"/>
<path d="M271.575 128.952C271.575 128.952 281.535 120.061 279.669 94.3659C277.803 68.6713 283.402 61.5194 299.546 62.3019C315.691 63.1063 330.577 79.3447 361.131 69.2147C391.684 59.0847 374.954 27.412 374.954 27.412C374.954 27.412 370.44 36.9986 366.447 38.0637C366.447 38.0637 379.467 22.347 367.771 0C367.771 0 363.648 23.6947 335.547 16.4994C307.445 9.30399 271.836 -6.65192 257.47 25.2816C257.47 25.2816 226.114 26.8685 230.627 63.0845C235.141 99.3005 258.099 114.017 259.141 126.799C260.183 139.582 271.575 128.952 271.575 128.952Z" fill="#2D2D2D"/>
<path d="M508.539 135.755C508.539 135.755 502.636 97.3004 488.228 84.1922C473.819 71.084 459.085 66.4755 455.157 72.8883C451.229 79.3011 467.938 73.084 481.848 94.8875C481.848 94.8875 459.736 74.4317 445.001 81.4532C445.001 81.4532 442.376 84.3879 447.952 87.0834C453.529 89.779 471.866 93.7353 474.47 104.561C474.47 104.561 462.036 89.1268 440.401 97.4961C440.401 97.4961 438.101 101.865 448.582 102.887C459.063 103.909 463.316 108.17 465.291 113.756C465.291 113.756 451.207 103.17 438.426 107.322C438.426 107.322 434.824 110.474 447.258 113.43C459.692 116.387 463.75 133.973 463.858 142.233L508.539 135.755Z" fill="#F3915A"/>
<path d="M338.295 84.3489C337.923 82.4643 338.785 80.7066 340.22 80.423C341.654 80.1395 343.118 81.4374 343.489 83.322C343.86 85.2066 342.999 86.9643 341.564 87.2478C340.13 87.5314 338.666 86.2335 338.295 84.3489Z" fill="#474747"/>
<path d="M304.722 92.3498C304.351 90.4652 305.213 88.7076 306.648 88.424C308.082 88.1405 309.546 89.4384 309.917 91.323C310.288 93.2076 309.426 94.9652 307.992 95.2488C306.557 95.5324 305.094 94.2345 304.722 92.3498Z" fill="#474747"/>
<path d="M122.127 211.796C122.127 211.796 123.061 188.362 124.645 179.428C126.229 170.493 139.205 155.885 124.146 148.103C109.107 140.321 83.176 130.43 75.3206 139.929C67.4652 149.429 66.1198 201.231 66.1198 201.231L122.127 211.796Z" fill="#F3915A"/>
<path d="M352.364 180.015C352.364 180.015 360.697 391.311 413.471 462.2C413.471 462.2 413.862 464.873 413.428 445.678C412.994 426.484 413.471 384.159 406.896 368.008C398.997 360.595 384.632 195.362 384.632 195.362C384.632 195.362 368.704 178.211 352.364 180.015Z" fill="#6B6B6B"/>
<path d="M221.622 182.515C221.622 182.515 247.749 375.268 152.789 459.678L150.576 401.071C150.576 401.071 203.546 256.099 186.294 200.796C186.294 200.796 187.206 197.492 195.907 189.34C204.631 181.167 218.15 178.667 221.622 182.515Z" fill="#6B6B6B"/>
<path opacity="0.18" d="M273.875 221.644C273.875 221.644 264.002 211.492 253.26 203.645C253.26 203.645 265.022 208.101 273.875 221.644Z" fill="#9599BA"/>
<path opacity="0.18" d="M323.677 218.035C323.677 218.035 332.834 211.709 336.306 200.775C339.8 189.819 339.8 189.819 339.8 189.819C339.8 189.819 331.966 211.057 323.677 218.035Z" fill="#9599BA"/>
<path d="M279.843 89.1055C279.843 89.1055 281.904 95.4748 279.691 94.3661C277.477 93.2575 272.356 89.3446 268.472 91.1706C264.588 92.9966 260.964 104.322 269.47 111.452C277.977 118.583 279.148 116.322 279.148 116.322C279.148 116.322 283.575 93.7575 279.843 89.1055Z" fill="#F3915A"/>
<path d="M247.683 250.077L263.568 248.447L264.87 254.99L248.768 257.164L247.683 250.077Z" fill="#FF0000"/>
<path d="M372.48 65.9106C372.48 65.9106 358.418 76.8885 339.583 72.0191L337.152 72.3234C337.152 72.3017 355.619 78.1276 372.48 65.9106Z" fill="#322D4F"/>
<path d="M316.581 11.1954C316.581 11.1954 335.894 18.6299 344.444 12.9562C349.934 9.32594 350.389 2.78271 350.389 2.78271C350.389 2.78271 350.02 18.9777 329.471 15.3474" fill="#322D4F"/>
<path d="M323.503 14.9561C323.503 14.9561 343.337 20.9124 351.431 14.6083C356.617 10.565 356.596 4 356.596 4C356.596 4 357.442 20.1733 336.697 18.1081" fill="#322D4F"/>
<path d="M272.421 128.017C272.421 128.017 279.691 149.82 301.456 156.646C323.221 163.472 326.563 161.428 326.563 161.428L325.478 152.363C325.5 152.385 292.754 153.211 272.421 128.017Z" fill="#BA7149"/>
<path d="M331.098 98.9092C331.098 98.9092 337.478 103.844 334.44 108.365C331.38 112.865 327.93 110.257 327.93 110.257C327.93 110.257 336.306 109.387 331.098 98.9092Z" fill="#BA7149"/>
<path d="M338.368 120.539C338.368 120.539 327.431 124.147 320.183 124.234C312.914 124.321 320.031 130.669 326.585 132.364C333.138 134.06 339.474 130.103 339.93 127.712C340.407 125.321 340.451 121.017 338.368 120.539Z" fill="#BA7149"/>
<path d="M339.973 127.43C339.973 127.43 337.456 125.582 333.811 125.582C330.187 125.582 321.442 126.343 319.944 129.234C319.944 129.234 325.304 133.756 331.879 132.625C338.476 131.495 339.995 128.169 339.973 127.43Z" fill="#FF77AD"/>
<path d="M339.604 128.452C339.604 128.452 337.586 128.473 334.18 129.191C330.773 129.908 323.178 131.147 323.178 131.147C323.178 131.147 327.04 133.56 332.27 132.56C332.27 132.538 338.368 131.647 339.604 128.452Z" fill="#F9F7F8"/>
<path d="M336.935 120.995C336.935 120.995 337.391 123.625 334.809 124.452C332.227 125.278 326.172 126.147 325 126.06C323.829 125.973 321.16 124.212 321.16 124.212C321.16 124.212 331.402 122.756 336.935 120.995Z" fill="#F9F7F8"/>
<path opacity="0.51" d="M333.68 71.8885C333.68 71.8885 321.398 72.3232 311.047 69.8016C300.696 67.2799 278.736 70.1277 279.365 83.8445C279.365 83.8445 278.063 67.3452 288.501 63.6931C298.939 60.0411 310.505 64.6713 313.782 65.9104C317.058 67.1278 327.778 71.758 333.68 71.8885Z" fill="#BA7149"/>
<path d="M293.123 235.708C293.123 235.708 256.494 295.162 304.863 310.531C354.274 321.096 331.727 396.245 331.727 396.245C331.727 396.245 333.702 409.049 339.279 417.897C344.856 412.419 356.01 410.68 357.876 399.963C359.742 389.246 378.686 328.639 348.111 304.466C326.715 286.771 264.935 289.228 303.474 236.23" fill="#B6B6B7"/>
<path opacity="0.28" d="M323.698 418.832C323.698 418.832 337.673 411.158 338.606 403.941C339.539 396.724 344.878 356.943 329.883 344.074C322.418 337.661 296.291 317.77 291.648 300.771C287.004 283.772 280.928 269.077 280.928 269.077C280.928 269.077 269.926 294.25 305.123 343.878C321.16 357.856 325.348 386.029 324.653 395.115C323.959 404.202 322.331 409.332 322.331 409.332L323.698 418.832Z" fill="#B6B6B7"/>
<path d="M278.432 99.8223C278.432 99.8223 276.523 98.1702 273.897 97.7354C271.271 97.3006 270.317 105.257 273.897 107.865C277.477 110.496 278.432 110.409 278.432 110.409C278.432 110.409 279.756 103.931 278.432 99.8223Z" fill="#BA7149"/>
<path d="M419.374 264.142C419.374 264.142 420.676 270.946 420.437 283.271C420.437 283.271 436.994 266.229 443.135 242.729C443.135 242.751 429.464 265.968 419.374 264.142Z" fill="#A296EA"/>
<path d="M128.854 275.663C128.854 275.663 125.86 297.271 131.22 309.836C136.558 322.422 144.478 326.596 144.478 326.596C144.478 326.596 138.576 276.62 150.598 249.316C150.598 249.316 138.164 276.076 135.864 293.771L128.854 275.663Z" fill="#A296EA"/>
</g>
<defs>
<clipPath id="clip0_171_5642">
<rect width="530" height="560" fill="white" transform="matrix(-1 0 0 1 530 0)"/>
</clipPath>
</defs>
</svg>
