<svg width="375" height="282" viewBox="0 0 375 282" fill="none" xmlns="http://www.w3.org/2000/svg">
<g clip-path="url(#clip0_309_5372)">
<path d="M316.305 287.788C316.305 287.788 314.299 279.725 314.501 278.422C314.501 278.422 354.871 240.164 399.766 233.55C399.75 233.555 403.215 235.603 408.053 240.311C408.069 240.306 364.623 250.21 316.305 287.788Z" fill="#D6D6D8"/>
<path d="M398.921 233.053C398.921 233.053 426.408 222.41 437.798 206.006C449.178 189.623 437.235 178.462 437.235 178.462L357.932 129.136L368.21 164.93L398.921 233.053Z" fill="#507DBD"/>
<path d="M368.717 161.035C368.717 161.035 393.691 224.281 401.15 235.965C401.15 235.965 327.772 258.715 297.471 257.169L298.267 211.271C298.267 211.271 289.144 247.596 271.034 244.145C271.034 244.145 250.861 240.728 254.553 219.191L272.776 214.786L281.21 173.936C281.21 173.936 275.818 155.807 276.524 146.855C276.125 134.885 285.725 123.53 294.232 122.332C302.109 118.986 356.182 117.824 356.182 117.824L366.324 151.834L368.717 161.035Z" fill="white"/>
<path d="M328.844 139.292C328.844 139.292 331.054 154.217 335.944 168.987C340.849 183.751 355.841 200.81 355.841 200.81C355.841 200.81 346.508 197.991 343.004 197.436C339.5 196.882 318.468 159.707 323.808 140.261L325.26 137.47L328.844 139.292Z" fill="#B6B6B7"/>
<path d="M338.985 98.8796L340.011 104.213L342.412 116.685C342.412 116.685 343.28 123.463 333.632 128.234C323.984 133.006 308.379 134.311 313.29 125.387L312.786 110.727L338.985 98.8796Z" fill="#F3915A"/>
<path d="M339.408 101.144C339.408 101.144 333.048 113.875 323.289 116.217C313.546 118.555 313.008 117.653 313.008 117.653L312.77 110.732L338.985 98.8796L339.408 101.144Z" fill="#E17E46"/>
<path d="M417.457 203.83C417.457 203.83 417.822 212.28 424.582 212.138C431.342 211.997 449.432 205.876 453.743 194.897C458.059 183.934 452.551 173.817 452.551 173.817C452.551 173.817 449.645 164.688 437.65 154.198C437.65 154.198 435.927 153.317 434.152 153.607C432.371 153.881 426.345 152.711 424.724 151.041C423.119 149.366 390.634 112.179 390.634 112.179C390.634 112.179 375.623 106.91 368.125 108.967C360.627 111.025 416.115 199.318 416.115 199.318C416.115 199.318 417.244 202.191 417.457 203.83Z" fill="#4770AB"/>
<path d="M339.275 98.3078C339.275 98.3078 339.979 103.999 341.118 106.008C342.272 108.011 343.866 122.679 333.319 127.556C322.771 132.433 315.035 132.376 315.035 132.376C315.035 132.376 311.385 132.47 310.731 129.123C310.731 129.123 311.167 126.956 313.606 125.737C316.039 124.503 313.648 111.615 313.648 111.615L339.275 98.3078Z" fill="#F3915A"/>
<path d="M339.936 75.1221C339.936 75.1221 346.037 91.6882 336.418 102.532C326.793 113.361 312.602 113.54 304.543 108.639C296.484 103.737 292.166 86.1212 291.041 76.6661C289.88 67.2051 329.254 46.7406 339.936 75.1221Z" fill="#F3915A"/>
<path d="M306.368 89.3319C305.126 89.5604 303.891 88.5809 303.616 87.1325C303.337 85.6684 304.109 84.3101 305.346 84.0659C306.588 83.8374 307.807 84.8217 308.097 86.2653C308.377 87.7294 307.61 89.1034 306.368 89.3319Z" fill="#474747"/>
<path d="M301.817 85.5004C301.817 85.5004 304.776 80.9343 308.892 84.142C313.024 87.3448 311.194 80.244 306.053 80.9878C300.917 81.7472 299.692 85.3298 299.692 85.3298C299.692 85.3298 299.469 86.1738 299.976 86.8096C300.499 87.4405 301.706 86.2583 301.817 85.5004Z" fill="#474747"/>
<path d="M305.166 120.385C305.166 120.385 298.762 143.708 301.129 158.361L294.048 163.838C294.048 163.838 290.466 132.057 301.559 120.896C301.98 119.853 305.379 119.286 305.166 120.385Z" fill="#507DBD"/>
<path d="M322.083 95.9859C322.083 95.9859 314.764 97.9536 312.639 98.4548C310.51 98.9402 310.463 100.298 311.253 101.794C312.032 103.311 315.899 106.044 319.906 104.204C323.93 102.358 324.126 98.1285 324.126 98.1285C324.126 98.1285 324.576 95.1125 322.083 95.9859Z" fill="#CE7E51"/>
<path d="M324.04 98.913C324.04 98.913 318.487 98.9917 314.933 101.967L313.251 103.623C313.251 103.623 316.714 106.447 320.906 103.637C320.879 103.662 323.171 102.92 324.04 98.913Z" fill="#FF77AD"/>
<path d="M322.564 102.297C322.564 102.297 320.775 101.592 317.817 102.472C314.86 103.351 314.559 104.391 314.559 104.391C314.79 104.578 319.212 106.261 322.564 102.297Z" fill="#F9EEF0"/>
<path d="M322.54 95.8447C322.54 95.8447 321 99.3008 317.665 99.7968C314.33 100.293 312.039 98.4679 312.039 98.4679C312.039 98.4679 320.213 96.5291 322.54 95.8447Z" fill="#F9EEF0"/>
<path d="M291.11 75.2668C291.11 75.2668 301.833 88.0108 315.269 86.6171C328.706 85.2234 328.934 83.4473 328.934 83.4473C328.934 83.4473 333.837 88.531 341.816 86.239C341.816 86.239 342.117 93.3643 339.28 98.3235C339.28 98.3235 339.572 103.074 342.492 104.756C345.408 106.423 350.072 105.533 351.134 103.103C352.197 100.673 354.024 91.0993 351.318 82.5633C351.318 82.5633 356.692 76.6483 355.186 64.727C353.696 52.8009 345.658 39.6927 332.323 39.6252L327.475 40.0888C327.475 40.0888 308.879 25.9521 293.494 34.7352C278.109 43.5183 283.03 54.4192 283.03 54.4192C283.03 54.4192 275.035 58.5596 278.722 73.6834C278.722 73.6834 276.351 83.3395 281.936 90.5729C281.936 90.5729 282.564 105.522 287.693 111.897C287.693 111.897 286.807 119.595 291.626 125.583C291.626 125.583 290.835 130.961 294.583 134.541C294.583 134.541 292.704 137.516 294.16 141.838C295.6 146.166 293.427 154.727 288.404 156.468C288.404 156.468 309.794 155.443 307.398 140.696C307.398 140.696 306.863 136.279 304.303 133.693C304.303 133.693 305.01 126.256 301.285 123.978C301.285 123.978 302.999 115.438 298.088 109.771C298.088 109.771 299.841 104.32 298.641 102.055C297.445 99.8055 293.569 90.6663 292.864 87.2663C292.161 83.8142 291.11 75.2668 291.11 75.2668Z" fill="#2D2D2D"/>
<path d="M292.068 82.3957C292.068 82.3957 288.829 83.4823 289.346 87.1126C289.868 90.7587 292.658 96.7188 296.01 96.1659C295.391 94.4966 292.673 87.8767 292.068 82.3957Z" fill="#F3915A"/>
<path d="M339.586 99.5382C339.586 99.5382 344.264 98.0243 347.536 103.474C347.536 103.474 341.922 103.468 340.136 104.898C340.131 104.882 339.234 100.525 339.586 99.5382Z" fill="white"/>
<path d="M304.333 132.839C304.333 132.839 298.937 136.056 294.165 133.913C294.165 133.913 294.067 134.994 297.368 135.283C300.935 135.594 304.272 133.65 304.272 133.65L304.333 132.839Z" fill="#F74343"/>
<path d="M304.325 133.651C304.325 133.651 299.284 136.621 294.512 134.477C294.512 134.477 294.336 135.978 297.648 136.076C300.959 136.173 304.903 134.351 304.903 134.351L304.325 133.651Z" fill="#F7D5D5"/>
<path d="M291.633 125.547C291.633 125.547 297.135 126.311 301.27 123.931L301.39 123.033C301.39 123.033 295.419 125.394 291.186 124.996C291.202 124.991 291.174 125.516 291.633 125.547Z" fill="#3F3F3F"/>
<path d="M298.074 109.724C298.074 109.724 292.904 111.717 287.699 111.86L287.641 113.015C287.641 113.015 294.263 113.657 298.956 110.847L298.074 109.724Z" fill="#3F3F3F"/>
<path d="M371.74 117.877C371.74 117.877 351.656 108.145 346.264 119.148C340.893 130.161 354.677 158.015 354.677 158.015C354.677 158.015 369.54 182.711 373.342 184.62C373.342 184.62 366.919 188.258 366.742 190.259C366.944 189.68 350.649 170.526 341.142 150.929C331.631 131.316 329.064 112.607 340.026 104.208C369.265 93.8167 383.939 127.012 383.939 127.012L377.776 122.938L371.74 117.877Z" fill="#507DBD"/>
<path d="M354.401 103.335C354.401 103.335 372.884 93.233 398.751 110.671C423.567 124.592 451.662 163.445 451.662 163.445C451.662 163.445 477.394 195.207 439.175 208.337C439.175 208.337 468.105 187.946 445.159 170.346C424.602 154.558 389.808 113.64 381.238 111.222C375.219 108.396 371.531 106.744 354.401 103.335Z" fill="#507DBD"/>
<path d="M272.768 179.145C280.435 174.055 313.729 149.283 313.729 149.283C313.729 149.283 317.042 145.642 319.043 148.262C321.044 150.883 365.269 212.214 365.269 212.214L336.788 235.964L324.13 227.522L344.182 214.11L353.583 207.813L314.773 163.622C314.773 163.622 311.545 160.553 307.582 164.998C303.619 169.444 280.39 189.229 280.39 189.229L282.41 199.682L272.599 193.134L266.846 187.089C266.826 187.079 265.101 184.235 272.768 179.145Z" fill="#AEA4EE"/>
<path d="M356.784 205.653L317.681 151.904C317.681 151.904 316.427 150.414 313.742 152.346C311.042 154.282 271.477 183.127 271.477 183.127C271.477 183.127 273.928 183.179 275.523 184.151L314.687 155.741C314.687 155.741 316.322 154.547 317.909 156.33C319.48 158.119 354.707 207.035 354.707 207.035L356.784 205.653Z" fill="white"/>
<path d="M280.369 189.218L308.581 163.983C308.581 163.983 312.057 160.532 315.464 164.407C318.871 168.282 353.578 207.797 353.578 207.797L331.641 221.98L302.843 191.7L274.94 212.791C274.94 212.791 277.024 200.415 278.581 197.126C280.133 193.822 282.029 190.79 280.369 189.218Z" fill="#EBEBEB"/>
<path d="M280.665 193.416L307.566 169.362C307.566 169.362 310.437 166.804 313.47 170.139C316.488 173.48 349.312 210.648 349.312 210.648L325.932 226.31L301.488 200.508L274.574 218.313C274.553 218.302 273.366 198.358 280.665 193.416Z" fill="white"/>
<path d="M273.08 210.626L294.544 189.991L306.122 179.782C306.122 179.782 309.968 174.736 314.136 180.012C318.284 185.277 344.161 214.099 344.161 214.099L366.314 240.144L317.698 275.97L314.501 278.422L271.363 229.779L273.08 210.626Z" fill="#319CA3"/>
<path d="M314.501 278.422L366.983 243.538L366.33 240.139L314.501 278.422Z" fill="#AC92EA"/>
<path d="M312.956 115.36C312.956 115.36 305.508 115.456 303.949 123.603C303.949 123.603 303.515 125.495 305.159 128.639C305.159 128.639 310.754 127.686 312.343 126.627C315.147 124.744 313.185 119.286 312.956 115.36Z" fill="white"/>
<path d="M317.356 135.139C313.949 134.676 318.387 139.317 321.597 141.323C325.681 142.077 329.081 140.562 329.081 140.562C329.081 140.562 332.425 139.478 333.149 134.499C334.834 129.052 321.115 135.959 317.356 135.139Z" fill="#B6B6B7"/>
<path d="M368.53 160.318L354.796 149.623C354.796 149.623 365.043 170.387 376.98 181.584L368.53 160.318Z" fill="#EBEBEB"/>
<path d="M300.067 185.115L290.854 251.736L271.546 230.653L275.556 208.242C275.556 208.242 295.929 188.771 300.067 185.115Z" fill="#39B9C1"/>
<path d="M256.582 228.108C256.582 228.108 257.891 234.078 264.963 234.219C272.035 234.361 274.947 232.772 274.562 222.469C274.198 212.176 279.178 201.128 282.48 196.835C284.352 194.396 285.323 193.235 286.681 190.421C287.301 189.127 287.294 188.044 286.003 188.839C285.486 189.067 279.571 193.565 279.875 193.264C280.958 192.241 283.681 188.815 284.255 188.156C289.395 184.277 286.846 182.566 284.356 183.955C282.765 184.843 276.65 190.539 275.8 191.422C277.775 188.813 281.21 184.617 281.851 184.006C285.5 180.501 284.574 177.169 281.577 178.646C279.067 179.577 273.104 185.88 271.53 188.106C271.901 185.339 275.296 182.24 275.794 181.225C277.926 178.568 280.966 172.754 270.973 179.148C268.944 180.24 253.753 194.011 250.434 204.511C248.635 209.477 256.582 228.108 256.582 228.108Z" fill="#F3915A"/>
<path d="M339.275 98.3078C339.275 98.3078 336.857 108.426 325.014 113.807C325.014 113.807 318.799 116.553 314.528 117.373C314.528 117.373 313.706 112.252 313.69 111.585C313.679 111.605 329.046 111.821 339.275 98.3078Z" fill="#E17E46"/>
<path d="M274.004 229.497L316.521 276.799L314.496 278.406L272.773 231.997C272.824 232.05 273.927 230.142 274.004 229.497Z" fill="#39B9C1"/>
<path d="M422.847 156.703C422.847 156.703 440.122 167.681 432.488 182.271C424.854 196.86 391.801 215.424 391.801 215.424C391.801 215.424 379.758 223.846 371.87 218.1C363.998 212.348 359.651 202.355 363.55 194.57C367.453 186.801 384.231 175.538 384.231 175.538L350.603 146.336C350.603 146.336 342.755 130.878 346.275 119.127C349.923 107.009 368.353 115.185 371.751 117.856L422.847 156.703Z" fill="white"/>
<path d="M371.485 220.82L374.666 224.747L361.305 234.214C361.305 234.214 363.35 230.379 364.019 228.07C364.687 225.762 368.738 222.271 371.485 220.82Z" fill="#B3A4EE"/>
<path d="M373.957 219.264C373.957 219.264 364.917 224.606 364.003 228.075C363.104 231.54 355.722 244.484 350.725 251.901C345.729 259.319 318.48 252.558 325.202 238.595C331.924 224.632 331.134 224.032 334.781 220.407C340.618 214.591 362.161 202.097 362.161 202.097C362.161 202.097 362.789 212.739 373.957 219.264Z" fill="#F3915A"/>
<path d="M328.668 249.704C328.668 249.704 322.37 259.281 319.497 261.443C316.645 263.616 316.413 258.503 318.566 253.565C320.724 248.643 326.556 235.989 326.556 235.989C326.556 235.989 332.779 238.805 328.668 249.704Z" fill="#F3915A"/>
<path d="M335.037 252.268C335.037 252.268 328.85 263.378 325.836 265.584C322.817 267.774 322.621 262.666 324.93 257.732C327.24 252.798 333.469 240.09 333.469 240.09C333.469 240.09 339.467 241.338 335.037 252.268Z" fill="#F3915A"/>
<path d="M341.227 253.354C341.227 253.354 336.006 262.615 333.475 264.43C330.929 266.251 330.796 262.019 332.733 257.889C334.69 253.771 339.92 243.197 339.92 243.197C339.92 243.197 344.947 244.263 341.227 253.354Z" fill="#F3915A"/>
<path d="M350.872 250.978C350.872 250.978 344.684 262.088 341.675 264.31C338.656 266.5 338.46 261.392 340.77 256.458C343.079 251.524 349.304 238.8 349.304 238.8C349.304 238.8 355.281 240.037 350.872 250.978Z" fill="#F3915A"/>
<path d="M341.505 91.3827C341.505 91.3827 344.039 92.1505 344.719 88.8739C345.415 85.5924 345.604 84.6383 345.604 84.6383C345.604 84.6383 344.059 86.0112 341.836 86.2499C341.831 86.2342 341.878 89.4586 341.505 91.3827Z" fill="#F3915A"/>
<path d="M324.736 131.637C324.736 131.637 328.932 127.722 333.091 125.645C333.091 125.645 333.483 128.591 333.692 129.715C333.948 130.824 324.736 131.637 324.736 131.637Z" fill="white"/>
<path d="M323.521 131.84C323.521 131.84 312.377 129.028 310.085 128.875C307.802 128.753 312.221 134.003 312.221 134.003L323.521 131.84Z" fill="white"/>
<path d="M336.173 219.099C336.173 219.099 319.731 225.521 317.011 226.499C314.291 227.477 316.297 230.785 319.775 229.969C323.253 229.154 328.26 227.194 329.941 228.276C331.618 229.343 336.173 219.099 336.173 219.099Z" fill="#F3915A"/>
<path d="M386.102 128.928L379.733 123.178L379.676 123.161C379.25 123.292 369.41 126.435 365.735 135.167L365.586 135.523L365.986 135.813C367.17 136.74 370.671 139.965 370.701 140.008L371.089 140.37L371.372 140.111C371.479 140.009 382.345 129.624 385.867 128.949L386.102 128.928ZM380.133 124.139L384.7 128.19C380.83 129.695 372.518 137.448 370.849 139.032C370.001 138.243 367.961 136.392 366.819 135.435C370.179 127.972 378.545 124.699 380.133 124.139Z" fill="#999999"/>
<path d="M380.807 125.93C380.807 125.93 373.826 129.102 368.977 135.992L370.055 137.02C370.055 137.02 376.121 130.495 382.068 127.16L380.807 125.93Z" fill="#999999"/>
</g>
<g clip-path="url(#clip1_309_5372)">
<path d="M74.9493 199.443C74.9493 199.443 81.7675 199.568 87.1799 216.455C92.5923 233.342 79.3176 341.475 67.0112 343.526C54.7048 345.577 -70.1637 359.085 -78.4952 337.089C-86.8267 315.094 -51.1269 225.686 -51.1269 225.686L74.9493 199.443Z" fill="#4F4E63"/>
<path d="M146.492 146.981C144.729 152.745 127.824 181.203 127.824 181.203C127.824 181.203 113.244 177.995 108.89 175.591C107.736 174.956 107.599 174.472 109.78 169.983C112.082 165.241 125.397 139.314 125.397 139.314C128.342 134.715 148.715 141.943 146.492 146.981Z" fill="#515151"/>
<path d="M58.0592 177.676L62.5476 183.223L69.7725 199.514C69.7725 199.514 61.2952 305.55 57.1546 322.024L-14.7281 310.614L13.498 174.723L22.6172 170.463L58.0592 177.676Z" fill="white"/>
<path d="M62.5586 183.225C62.5586 183.225 92.0869 182.12 97.1047 228.625C118.239 230.56 125.152 174.473 125.152 174.473L152.165 175.113C152.165 175.113 163.853 227.374 143.867 266.631C132.556 292.75 86.8271 288.393 81.6212 279.747C81.6212 279.747 78.9406 320.563 78.6752 325.44C78.6752 325.44 50.074 352.819 43.343 347.515C11.3462 322.299 71.2734 205.155 62.5586 183.225Z" fill="#B3A4EE"/>
<path d="M-10.2244 340.705C23.3484 321.24 4.98538 188.264 13.5091 174.725C13.5091 174.725 -25.87 164.901 -49.1538 219.736C-49.1538 219.736 -54.9076 223.016 -47.8441 180.72L-77.8916 170.212C-77.8916 170.212 -101.996 228.721 -84.7498 261.917C-84.7498 261.917 -75.6538 283.582 -49.6885 271.528L-55.4976 321.159C-55.518 321.145 -20.6813 346.77 -10.2244 340.705Z" fill="#B3A4EE"/>
<path d="M152.23 177.194L126.234 176.557" stroke="#EDEDED" stroke-width="0.802919" stroke-miterlimit="10"/>
<path d="M42.0589 190.68L47.8236 196.304C47.8236 196.304 47.881 200.927 43.815 203.971C41.9515 205.314 40.3209 206.117 40.3209 206.117L35.101 205.036C35.101 205.036 37.0623 199.872 30.9837 195.229C35.1443 192.515 38.4537 190.749 42.0589 190.68Z" fill="#B6B6B7"/>
<path d="M57.9906 167.355L57.1709 180.068L40.7807 189.048L22.6171 170.463L29.7797 150.118C29.7797 150.118 52.9042 166.074 57.9906 167.355Z" fill="#F3915A"/>
<path d="M76.6379 127.917C76.6379 127.917 76.9322 151.485 70.6316 162.982C64.3327 174.468 41.7658 165.894 34.0723 154.762C26.3788 143.63 29.6549 140.65 29.6549 140.65C29.6549 140.65 38.4045 120.987 46.1419 121.374C53.8793 121.761 76.6379 127.917 76.6379 127.917Z" fill="#F3915A"/>
<path d="M66.0022 137.317C66.2998 137.364 66.6031 137.234 66.7352 136.971C66.7512 136.942 67.6231 135.294 69.4352 134.772C70.6207 134.424 71.9674 134.627 73.4422 135.376C73.7881 135.547 74.2016 135.434 74.3766 135.115C74.5516 134.796 74.4211 134.407 74.0752 134.237C72.2434 133.315 70.3513 132.49 68.798 132.947C66.4255 133.653 65.5186 136.305 65.4708 136.392C65.3069 136.713 65.4594 137.105 65.807 137.265C65.8699 137.296 65.936 137.307 66.0022 137.317Z" fill="#474747"/>
<path d="M47.0759 137.708C47.3074 137.744 47.5568 137.668 47.72 137.495C49.0816 135.966 50.5735 135.183 52.167 135.184C54.905 135.167 57.0801 137.414 57.1099 137.44C57.3718 137.713 57.8083 137.74 58.0948 137.502C58.3813 137.263 58.4006 136.857 58.1387 136.584C58.0321 136.472 55.1701 133.212 51.8001 133.224C49.7872 133.23 48.2787 134.83 46.6555 136.653C46.4083 136.929 46.4567 137.336 46.7581 137.573C46.8382 137.638 46.9546 137.688 47.0759 137.708Z" fill="#474747"/>
<path d="M32.1331 152.951C32.1331 152.951 37.859 149.561 38.8342 137.293C39.8093 125.025 43.1891 122.104 51.3331 123.775C59.4755 125.456 65.8231 134.314 82.1045 132.001C98.3858 129.687 92.2564 113.401 92.2564 113.401C92.2564 113.401 89.2456 117.558 87.1373 117.739C87.1373 117.739 94.9287 111.377 90.659 99.8947C90.659 99.8947 86.7906 110.737 73.0519 105.077C59.3132 99.4178 42.4156 89.0214 32.7268 102.923C32.7268 102.923 16.6769 101.143 16.2593 118.586C15.8416 136.029 26.4044 144.821 25.9769 150.933C25.5493 157.045 32.1331 152.951 32.1331 152.951Z" fill="#2D2D2D"/>
<path d="M152.016 175.268C152.016 175.268 151.896 156.657 145.556 149.313C139.217 141.969 132.076 138.608 129.601 141.315C127.125 144.023 136.08 142.438 141.515 153.843C141.515 153.843 131.811 142.413 123.8 144.536C123.8 144.536 122.246 145.708 124.878 147.429C127.509 149.15 136.529 152.494 137.042 157.81C137.042 157.81 131.88 149.528 120.262 151.73C120.262 151.73 118.766 153.606 124.014 154.933C129.263 156.26 131.105 158.612 131.69 161.406C131.69 161.406 125.327 155.278 118.523 156.205C118.523 156.205 116.457 157.401 122.553 159.798C128.649 162.195 129.394 170.816 128.831 174.72L152.016 175.268Z" fill="#F3915A"/>
<path d="M69.3694 137.296C69.3219 136.378 69.8914 135.618 70.6414 135.6C71.3914 135.582 72.038 136.312 72.0855 137.231C72.1331 138.15 71.5636 138.909 70.8136 138.927C70.0635 138.945 69.417 138.215 69.3694 137.296Z" fill="#474747"/>
<path d="M51.7139 138.362C51.6664 137.444 52.2359 136.684 52.9859 136.666C53.7359 136.648 54.3825 137.378 54.43 138.297C54.4776 139.216 53.9081 139.975 53.1581 139.993C52.408 140.011 51.7615 139.281 51.7139 138.362Z" fill="#474747"/>
<path d="M69.3568 183.547C69.3568 183.547 57.7744 283.866 79.2808 321.552C79.2808 321.552 79.2792 322.845 80.4954 313.757C81.7117 304.67 85.1224 284.749 82.9908 276.601C79.5326 272.468 84.6021 193.387 84.6021 193.387C84.6021 193.387 77.7936 184.014 69.3568 183.547Z" fill="#6B6B6B"/>
<path d="M2.74428 174.183C2.74428 174.183 1.59027 267.192 -52.9731 299.342L-49.7109 271.525C-49.7109 271.525 -11.9474 207.427 -16.5728 179.956C-16.5728 179.956 -15.8624 178.471 -10.8312 175.328C-5.78737 172.177 1.2683 172.088 2.74428 174.183Z" fill="#6B6B6B"/>
<path opacity="0.18" d="M26.3636 196.85C26.3636 196.85 22.1071 191.266 17.2372 186.699C17.2372 186.699 22.8791 189.749 26.3636 196.85Z" fill="#9599BA"/>
<path opacity="0.18" d="M51.9358 199.164C51.9358 199.164 57.0618 196.919 59.6443 192.042C62.2394 187.157 62.2394 187.157 62.2394 187.157C62.2394 187.157 56.6696 196.541 51.9358 199.164Z" fill="#9599BA"/>
<path d="M39.3163 134.826C39.3163 134.826 39.8869 137.996 38.8453 137.295C37.8038 136.593 35.4948 134.335 33.3846 134.883C31.2745 135.431 28.5855 140.48 32.3736 144.528C36.1617 148.577 36.9263 147.605 36.9263 147.605C36.9263 147.605 40.8644 137.321 39.3163 134.826Z" fill="#F3915A"/>
<path d="M10.9279 208.147L19.1202 208.659L19.292 211.85L10.9487 211.576L10.9279 208.147Z" fill="#FF0000"/>
<path d="M88.1177 131.358C88.1177 131.358 80.1518 135.401 70.9466 131.586L69.689 131.533C69.6907 131.523 78.6368 135.759 88.1177 131.358Z" fill="#322D4F"/>
<path d="M63.813 101.046C63.813 101.046 73.0688 106.11 77.8373 104.124C80.8983 102.854 81.6196 99.8052 81.6196 99.8052C81.6196 99.8052 80.22 107.413 70.0511 104.044" fill="#322D4F"/>
<path d="M67.0486 103.378C67.0486 103.378 76.6796 107.786 81.2638 105.466C84.2014 103.978 84.6818 100.88 84.6818 100.88C84.6818 100.88 83.9011 108.575 73.5159 105.928" fill="#322D4F"/>
<path d="M32.633 152.578C32.633 152.578 34.6943 163.447 45.2414 168.421C55.7885 173.395 57.6393 172.701 57.6393 172.701L57.7666 168.339C57.776 168.351 41.0775 166.1 32.633 152.578Z" fill="#BA7149"/>
<path d="M64.6233 143.583C64.6233 143.583 67.4952 146.424 65.6133 148.312C63.7219 150.187 62.1642 148.679 62.1642 148.679C62.1642 148.679 66.4849 148.944 64.6233 143.583Z" fill="#BA7149"/>
<path d="M66.6977 154.369C66.6977 154.369 60.871 155.189 57.1821 154.646C53.4823 154.101 56.6233 157.668 59.826 158.996C63.0286 160.324 66.544 158.969 66.9545 157.878C67.376 156.789 67.7203 154.763 66.6977 154.369Z" fill="#BA7149"/>
<path d="M66.9977 157.749C66.9977 157.749 65.8571 156.674 64.0049 156.38C62.1637 156.088 57.6637 155.742 56.6866 156.984C56.6866 156.984 59.0713 159.549 62.4965 159.546C65.9327 159.545 66.9534 158.099 66.9977 157.749Z" fill="#FF77AD"/>
<path d="M66.7338 158.201C66.7338 158.201 65.7068 158.048 63.9222 158.112C62.1376 158.175 58.1861 158.147 58.1861 158.147C58.1861 158.147 59.9679 159.597 62.6998 159.547C62.7014 159.537 65.8662 159.608 66.7338 158.201Z" fill="#F9F7F8"/>
<path d="M65.936 154.469C65.936 154.469 65.9707 155.746 64.5969 155.928C63.2231 156.109 60.082 156.031 59.4932 155.895C58.9043 155.76 57.6801 154.714 57.6801 154.714C57.6801 154.714 62.9929 154.853 65.936 154.469Z" fill="#F9F7F8"/>
<path opacity="0.51" d="M67.9579 131.048C67.9579 131.048 61.6853 130.263 56.6151 128.239C51.545 126.215 40.1746 125.787 39.4676 132.307C39.4676 132.307 40.0411 124.42 45.6175 123.54C51.1938 122.659 56.7235 125.776 58.2955 126.624C59.8692 127.462 64.9689 130.511 67.9579 131.048Z" fill="#BA7149"/>
<path d="M35.0899 205.035C35.0899 205.035 12.0295 230.119 35.4537 241.268C59.7667 250.235 42.6867 283.857 42.6867 283.857C42.6867 283.857 42.7316 290.054 44.9027 294.676C48.1462 292.543 53.9432 292.622 55.6935 287.718C57.4439 282.815 71.6052 255.761 57.8804 241.895C48.3343 231.825 16.7624 228.001 40.3097 206.115" fill="#B6B6B7"/>
<path opacity="0.28" d="M36.9167 293.861C36.9167 293.861 44.5912 291.369 45.6055 288.041C46.6198 284.712 52.3096 266.382 45.6546 259.104C42.3421 255.478 30.5569 243.99 29.47 235.599C28.3831 227.208 26.3961 219.788 26.3961 219.788C26.3961 219.788 18.9222 230.772 33.0898 257.015C40.191 264.9 40.21 278.524 39.1771 282.753C38.1441 286.982 36.9332 289.271 36.9332 289.271L36.9167 293.861Z" fill="#B6B6B7"/>
<path d="M19.5675 314.439C27.8937 289.255 30.2176 255.529 30.1003 237.896L29.8523 237.678C29.9712 255.301 27.6116 289.252 19.2902 314.406L19.5675 314.439Z" fill="#E5E5E5"/>
<path d="M26.9858 241.069C26.2612 240.954 25.7605 240.315 25.8675 239.641C25.9744 238.967 26.6485 238.514 27.3731 238.629C28.0977 238.744 28.5984 239.384 28.4914 240.058C28.3845 240.731 27.7104 241.184 26.9858 241.069Z" fill="#E5E5E5"/>
<path d="M37.7975 139.766C37.7975 139.766 36.951 138.833 35.6495 138.416C34.348 138 33.2674 141.675 34.8913 143.194C36.5135 144.723 37.0051 144.759 37.0051 144.759C37.0051 144.759 38.1625 141.811 37.7975 139.766Z" fill="#BA7149"/>
<path d="M97.1046 228.625C97.1046 228.625 97.2568 231.938 96.2129 237.732C96.2129 237.732 105.901 231.03 110.78 220.443C110.778 220.453 102.095 230.3 97.1046 228.625Z" fill="#A296EA"/>
<path d="M106.857 171.274L122.523 138.011C115.014 137.37 108.915 129.78 106.804 126.065C93.948 140.893 91.8818 161.496 92.4558 169.943C97.6033 169.033 104.201 170.451 106.857 171.274Z" fill="#0C75F0" fill-opacity="0.1"/>
</g>
<g clip-path="url(#clip2_309_5372)">
<path d="M228.564 240.142C228.564 240.142 266.73 241.461 272.387 268.665C278.007 295.749 277.048 301.93 277.048 301.93L246.688 317.28L246.555 305.825L249.225 359H165.21V302.196L159.359 315.695L132.835 309.611L126.073 307.93C126.073 307.93 132.835 272.887 141.684 257.379C153.131 236.562 195.643 236.84 195.643 236.84L228.564 240.142Z" fill="white"/>
<path d="M228.334 231.977L228.989 244.146C228.989 244.146 222.288 259.992 204.602 252.529C204.602 252.529 196.298 246.263 195.631 236.852L197.197 218.224L217.445 232.957L228.334 231.977Z" fill="#DC8655"/>
<path d="M215.211 235.715L214.701 254.488C214.701 254.488 223.405 252.637 228.989 244.146L228.346 232.122L215.211 235.715Z" fill="#F3915A"/>
<path d="M235.751 194.116C235.751 194.116 236.734 220.728 231.733 228.808C228.589 233.876 222.191 239.658 211.909 234.65C201.615 229.618 197.597 220.099 197.597 220.099C197.597 220.099 189.5 220.582 187.522 213.192C185.822 206.526 187.801 205.317 187.801 205.317C187.801 205.317 191.054 201.337 197.1 205.208C197.1 205.208 198.896 202.087 196.529 201.216C194.162 200.345 192.511 193.91 197.792 194.636C203.072 195.362 212.541 191.721 212.541 191.721C212.541 191.721 223.466 196.777 235.751 194.116Z" fill="#F3915A"/>
<path d="M196.638 197.2C196.638 197.2 201.106 198.821 205.245 197.745C209.372 196.668 213.16 200.503 216.462 200.357C219.764 200.224 229.014 199.269 232.121 197.285C235.229 195.301 228.674 191.249 228.674 191.249L208.389 188.902L194.295 193.692L196.638 197.2Z" fill="#BA7149"/>
<path d="M222.252 216.687L211.388 216.724C211.388 216.724 208.45 216.385 209.069 218.345C209.688 220.304 210.052 224.889 216.34 225.203C222.628 225.53 224.51 219.3 224.51 219.3C224.51 219.3 225.53 216.518 222.252 216.687Z" fill="#CE7E51"/>
<path d="M215.575 220.461C215.575 220.461 218.926 220.304 220.383 218.961C221.839 217.619 221.803 216.675 221.803 216.675L210.89 216.687C210.89 216.687 209.991 216.663 209.494 216.978C208.984 217.316 212.626 220.34 215.575 220.461Z" fill="white"/>
<path d="M221.852 223.34C221.852 223.34 218.902 220.546 216.085 221.139C213.257 221.732 211.266 223.111 211.266 223.111C210.744 223.292 216.365 227.84 221.852 223.34Z" fill="white"/>
<path d="M191.467 213.796C189.67 211.788 189.379 209.127 190.811 207.833C192.244 206.539 194.866 207.119 196.663 209.115C198.459 211.123 198.751 213.784 197.318 215.079C195.886 216.373 193.264 215.792 191.467 213.796Z" fill="#CE7E51"/>
<path d="M192.171 214.45C190.994 213.131 191.576 211.571 193.021 210.276C194.465 208.982 195.849 208.885 197.039 210.204C198.216 211.522 198.738 213.748 197.306 215.03C195.861 216.324 193.349 215.756 192.171 214.45Z" fill="#CE7E51"/>
<path d="M225.226 208.244C224.328 208.317 223.515 207.168 223.405 205.704C223.296 204.24 223.927 202.982 224.826 202.91C225.724 202.837 226.537 203.974 226.646 205.45C226.756 206.926 226.124 208.172 225.226 208.244Z" fill="#474747"/>
<path d="M209.19 208.22C208.256 208.293 207.394 207.168 207.284 205.704C207.175 204.24 207.843 202.994 208.79 202.922C209.736 202.849 210.586 203.974 210.696 205.438C210.805 206.901 210.125 208.147 209.19 208.22Z" fill="#474747"/>
<path d="M212.868 204.41C212.868 204.41 209.894 200.72 206.471 204.809C206.471 204.809 205.379 204.688 206.131 203.273C206.884 201.857 209.069 200.611 211.048 201.192C213.026 201.761 214.568 204.398 212.868 204.41Z" fill="#474747"/>
<path d="M229.827 203.212C229.827 203.212 226.379 199.958 223.527 204.458C223.527 204.458 222.434 204.482 222.993 202.982C223.551 201.482 225.542 199.946 227.593 200.249C229.633 200.563 231.514 202.97 229.827 203.212Z" fill="#474747"/>
<path d="M220.213 209.236C220.213 209.236 223.296 213.143 219.933 213.397C216.571 213.663 221.208 212.478 220.237 211.292C219.278 210.119 219.169 208.776 220.213 209.236Z" fill="#BA7149"/>
<path d="M236.54 165.23C236.54 165.23 248.558 163.585 247.283 178.79C246.008 194.007 235.884 198.132 225.857 198.882C215.83 199.632 212.565 194.563 212.565 194.563C212.565 194.563 203.023 197.696 197.791 195.93C197.791 195.93 197.015 195.894 197.391 197.188C197.767 198.495 201.385 205.801 197.039 205.389C197.039 205.389 192.657 202.111 188.93 204.543C188.93 204.543 184.56 196.668 186.538 193.317C188.517 189.967 188.881 189.991 187.777 186.943C186.66 183.894 185.264 169.851 199.527 167.032C213.803 164.214 216.401 163.875 220.759 168.919C220.747 168.907 232.68 164.927 236.54 165.23Z" fill="#232323"/>
<path d="M238.312 165.169C238.312 165.169 254.324 187.971 227.096 198.47C227.096 198.47 237.948 199.003 244.88 186.302C251.799 173.588 243.678 165.109 238.312 165.169Z" fill="black"/>
<path d="M235.496 200.684C235.496 200.684 235.52 199.341 237.511 199.124C239.514 198.906 240.133 210.301 235.132 211.716L235.496 200.684Z" fill="#CE7E51"/>
<path d="M246.361 314.679C246.361 314.679 244.528 334.953 252.333 342.21C260.139 349.468 327.548 359.218 320.786 280.931L314.801 246.964L283.846 255.008C283.846 255.008 290.474 297.672 280.593 300.781L246.361 314.679Z" fill="#F3915A"/>
<path d="M165.562 299.474C165.562 299.474 164.263 321.804 156.457 329.062C146.151 340.916 79.8591 342.319 90.056 264.407C91.1728 255.855 98.2136 232.134 98.2136 232.134L126.996 238.485C126.996 238.485 120.368 281.148 130.249 284.257L165.562 299.474Z" fill="#F3915A"/>
<path d="M220.103 260.44H204.614C204.614 260.44 206.374 265.689 206.957 268.411C207.539 271.133 212.31 270.165 214.701 270.939C217.105 271.713 220.37 264.528 220.103 260.44Z" fill="#B5B5B5"/>
<path d="M215.624 271C215.624 271 212.48 291.721 209.445 296.414C201.579 308.546 205.172 332.316 209.445 340.348C209.445 340.348 209.433 344.751 208.523 347.351C207.612 349.952 207.054 350.847 207.054 350.847C207.054 350.847 200.207 349.166 197.986 347.992C195.776 346.831 188.347 309.127 197.986 294.079C205.075 283.011 208.498 272.705 208.608 270.08L215.624 271Z" fill="#B5B5B5"/>
<path d="M241.019 245.731C241.019 245.731 230.689 256.533 220.808 260.44C220.808 260.44 227.569 258.117 232.388 255.008C237.183 251.9 241.019 245.731 241.019 245.731Z" fill="#D1D1D1"/>
<path d="M183.564 242.271C183.564 242.271 193.895 253.073 203.776 256.98C203.776 256.98 197.015 254.658 192.195 251.549C187.4 248.452 183.564 242.271 183.564 242.271Z" fill="#D1D1D1"/>
<path d="M220.795 260.44C220.795 260.44 231.854 255.141 237.183 249.698C242.512 244.255 242.719 243.589 244.758 243.009C246.81 242.44 246.81 242.44 246.81 242.44C246.81 242.44 236.054 236.15 228.552 240.142C228.552 240.142 229.39 249.722 226.258 254.488C223.126 259.254 220.795 260.44 220.795 260.44Z" fill="white"/>
<path d="M204.492 257.391C204.492 257.391 192.329 251.815 187 246.372C181.671 240.928 181.464 240.263 179.425 239.682C177.386 239.102 177.373 239.114 177.373 239.114C177.373 239.114 188.129 232.824 195.631 236.816C195.631 236.816 194.793 246.396 197.925 251.162C201.057 255.928 204.492 257.391 204.492 257.391Z" fill="white"/>
<path d="M103.359 204.223C106.418 200.948 113.16 201.537 113.976 204.276C118.85 199.602 125.614 204.002 125.463 204.732C125.463 204.732 125.971 205.212 127.114 204.325C129.642 203.604 133.716 204.277 135.393 207.49C136.231 209.097 135.773 210.346 135.773 210.346C136.174 210.532 136.994 210.28 137.855 210.346C139.738 210.489 140.782 211.809 141.613 213.169C142.718 216.704 143.328 218.751 140.95 221.344C138.518 223.995 137.271 225.661 134.318 227.752C129.012 231.508 127.023 238.8 127.023 238.8L97.7337 232.97C97.7337 232.97 97.088 225.117 98.0636 219.355C98.2846 210.075 103.359 204.223 103.359 204.223Z" fill="#F3915A"/>
<path d="M305.506 219.392C302.245 216.318 295.554 217.335 294.913 220.12C289.753 215.765 283.282 220.586 283.479 221.305C283.479 221.305 283.002 221.815 281.805 221.003C279.237 220.445 275.213 221.374 273.745 224.688C273.01 226.344 273.547 227.562 273.547 227.562C273.159 227.773 271.809 226.839 270.954 226.959C269.084 227.221 267.636 228.26 266.893 229.67C264.736 233.106 265.681 235.655 267.693 238.541C267.019 241.926 269.329 245.331 273.628 247.136C279.738 249.701 284.088 255.402 284.088 255.402L314.705 247.196C314.705 247.196 312.543 235.551 311.203 229.863C309.842 224.186 305.506 219.392 305.506 219.392Z" fill="#F3915A"/>
<path d="M112.212 208.087C113.759 204.33 115.306 203.667 116.854 202.563C115.793 202.739 114.496 203.815 113.98 204.33C113.803 203.446 113.022 203.078 112.654 203.005C112.212 204.109 111.991 205.877 112.212 208.087Z" fill="#DC8351"/>
<path d="M123.486 207.866C124.724 206.275 126.507 204.846 127.244 204.33C127.067 204.33 126.138 204.625 125.696 204.772C125.368 204.419 125.117 204.33 125.033 204.33C124.326 204.684 123.707 206.834 123.486 207.866Z" fill="#DC8351"/>
<path d="M132.549 212.727C133.964 211.666 136.528 210.664 137.634 210.296C137.28 210.119 136.307 210.222 135.865 210.296C136.042 209.766 135.939 209.339 135.865 209.191C134.804 209.898 133.213 211.843 132.549 212.727Z" fill="#DC8351"/>
</g>
<defs>
<clipPath id="clip0_309_5372">
<rect width="210.49" height="249.058" fill="white" transform="matrix(-0.955464 0.295107 0.295107 0.955464 404.115 0)"/>
</clipPath>
<clipPath id="clip1_309_5372">
<rect width="272.644" height="267.401" fill="white" transform="matrix(-0.987637 -0.156758 -0.156758 0.987637 173.082 112.977)"/>
</clipPath>
<clipPath id="clip2_309_5372">
<rect width="233" height="194" fill="white" transform="matrix(-1 0 0 1 322 165)"/>
</clipPath>
</defs>
</svg>
