<svg width="1728" height="291" viewBox="0 0 1728 291" fill="none" xmlns="http://www.w3.org/2000/svg">
<g clip-path="url(#clip0_321_5571)">
<path d="M1520.67 198.038C1520.67 198.038 1606.99 201.022 1619.79 262.582C1632.5 323.869 1630.33 337.857 1630.33 337.857L1561.66 372.592L1561.36 346.671L1567.4 467H1377.37V338.459L1364.14 369.006L1304.15 355.238L1288.85 351.433C1288.85 351.433 1304.15 272.135 1324.16 237.044C1350.05 189.936 1446.21 190.565 1446.21 190.565L1520.67 198.038Z" fill="white"/>
<path d="M1520.15 179.561L1521.63 207.098C1521.63 207.098 1506.47 242.956 1466.47 226.067C1466.47 226.067 1447.69 211.888 1446.18 190.593L1449.72 148.439L1495.52 181.779L1520.15 179.561Z" fill="#DC8655"/>
<path d="M1490.47 188.02L1489.31 230.502C1489.31 230.502 1509 226.314 1521.63 207.098L1520.17 179.89L1490.47 188.02Z" fill="#F3915A"/>
<path d="M1536.92 93.8856C1536.92 93.8856 1539.15 154.105 1527.83 172.39C1520.72 183.859 1506.25 196.943 1483 185.611C1459.71 174.224 1450.63 152.682 1450.63 152.682C1450.63 152.682 1432.31 153.777 1427.84 137.052C1423.99 121.97 1428.47 119.232 1428.47 119.232C1428.47 119.232 1435.83 110.227 1449.5 118.986C1449.5 118.986 1453.56 111.924 1448.21 109.953C1442.86 107.982 1439.12 93.4202 1451.07 95.0626C1463.01 96.7049 1484.42 88.4658 1484.42 88.4658C1484.42 88.4658 1509.14 99.9075 1536.92 93.8856Z" fill="#F3915A"/>
<path d="M1448.46 100.866C1448.46 100.866 1458.56 104.533 1467.92 102.097C1477.26 99.6612 1485.83 108.338 1493.29 108.01C1500.76 107.709 1521.68 105.546 1528.71 101.057C1535.74 96.5681 1520.91 87.3983 1520.91 87.3983L1475.03 82.088L1443.16 92.9275L1448.46 100.866Z" fill="#BA7149"/>
<path d="M1506.39 144.963L1481.82 145.045C1481.82 145.045 1475.17 144.278 1476.57 148.713C1477.97 153.147 1478.8 163.521 1493.02 164.233C1507.24 164.972 1511.5 150.875 1511.5 150.875C1511.5 150.875 1513.8 144.579 1506.39 144.963Z" fill="#CE7E51"/>
<path d="M1491.29 153.503C1491.29 153.503 1498.87 153.147 1502.16 150.109C1505.46 147.07 1505.37 144.935 1505.37 144.935L1480.69 144.963C1480.69 144.963 1478.66 144.908 1477.53 145.62C1476.38 146.386 1484.62 153.229 1491.29 153.503Z" fill="white"/>
<path d="M1505.48 160.018C1505.48 160.018 1498.81 153.694 1492.44 155.036C1486.04 156.377 1481.54 159.497 1481.54 159.497C1480.36 159.908 1493.07 170.2 1505.48 160.018Z" fill="white"/>
<path d="M1436.76 138.421C1432.7 133.877 1432.04 127.855 1435.28 124.926C1438.52 121.997 1444.45 123.311 1448.51 127.827C1452.58 132.371 1453.23 138.393 1449.99 141.322C1446.75 144.251 1440.82 142.937 1436.76 138.421Z" fill="#CE7E51"/>
<path d="M1438.35 139.899C1435.69 136.915 1437.01 133.384 1440.27 130.455C1443.54 127.526 1446.67 127.307 1449.36 130.291C1452.03 133.275 1453.21 138.311 1449.97 141.213C1446.7 144.141 1441.02 142.855 1438.35 139.899Z" fill="#CE7E51"/>
<path d="M1513.12 125.857C1511.09 126.021 1509.25 123.421 1509 120.108C1508.75 116.796 1510.18 113.95 1512.21 113.785C1514.24 113.621 1516.08 116.194 1516.33 119.534C1516.58 122.873 1515.15 125.692 1513.12 125.857Z" fill="#474747"/>
<path d="M1476.85 125.802C1474.73 125.966 1472.78 123.421 1472.54 120.108C1472.29 116.796 1473.8 113.977 1475.94 113.813C1478.08 113.649 1480 116.194 1480.25 119.506C1480.5 122.818 1478.96 125.638 1476.85 125.802Z" fill="#474747"/>
<path d="M1485.17 117.18C1485.17 117.18 1478.44 108.831 1470.7 118.083C1470.7 118.083 1468.23 117.809 1469.93 114.607C1471.63 111.404 1476.57 108.585 1481.05 109.899C1485.52 111.185 1489.01 117.152 1485.17 117.18Z" fill="#474747"/>
<path d="M1523.52 114.47C1523.52 114.47 1515.73 107.107 1509.27 117.289C1509.27 117.289 1506.8 117.344 1508.06 113.95C1509.33 110.555 1513.83 107.079 1518.47 107.763C1523.08 108.475 1527.34 113.922 1523.52 114.47Z" fill="#474747"/>
<path d="M1501.78 128.101C1501.78 128.101 1508.75 136.943 1501.15 137.517C1493.54 138.12 1504.03 135.437 1501.83 132.755C1499.66 130.099 1499.42 127.061 1501.78 128.101Z" fill="#BA7149"/>
<path d="M1538.71 28.5201C1538.71 28.5201 1565.89 24.7974 1563.01 59.2046C1560.12 93.6392 1537.22 102.973 1514.54 104.67C1491.87 106.367 1484.48 94.8983 1484.48 94.8983C1484.48 94.8983 1462.9 101.988 1451.07 97.9914C1451.07 97.9914 1449.31 97.9093 1450.16 100.838C1451.01 103.794 1459.19 120.327 1449.36 119.397C1449.36 119.397 1439.45 111.979 1431.02 117.481C1431.02 117.481 1421.14 99.6612 1425.61 92.079C1430.09 84.4968 1430.91 84.5515 1428.41 77.6537C1425.89 70.7558 1422.73 38.9764 1454.99 32.5986C1487.28 26.2208 1493.16 25.4544 1503.01 36.8687C1502.99 36.8413 1529.98 27.8358 1538.71 28.5201Z" fill="#232323"/>
<path d="M1542.71 28.3832C1542.71 28.3832 1578.93 79.9803 1517.35 103.74C1517.35 103.74 1541.89 104.944 1557.57 76.2029C1573.22 47.4345 1554.85 28.2463 1542.71 28.3832Z" fill="black"/>
<path d="M1536.35 108.749C1536.35 108.749 1536.4 105.71 1540.9 105.218C1545.43 104.725 1546.83 130.51 1535.52 133.713L1536.35 108.749Z" fill="#CE7E51"/>
<path d="M1560.92 366.707C1560.92 366.707 1556.77 412.583 1574.43 429.007C1592.08 445.43 1744.55 467.493 1729.25 290.338L1715.72 213.476L1645.7 231.679C1645.7 231.679 1660.7 328.221 1638.35 335.256L1560.92 366.707Z" fill="#F3915A"/>
<path d="M1378.17 332.3C1378.17 332.3 1375.23 382.83 1357.58 399.253C1334.27 426.078 1184.33 429.253 1207.39 252.947C1209.91 233.595 1225.84 179.917 1225.84 179.917L1290.94 194.288C1290.94 194.288 1275.95 290.831 1298.3 297.865L1378.17 332.3Z" fill="#F3915A"/>
<path d="M1501.53 243.969H1466.5C1466.5 243.969 1470.48 255.849 1471.79 262.007C1473.11 268.166 1483.9 265.976 1489.31 267.728C1494.75 269.48 1502.13 253.221 1501.53 243.969Z" fill="#B5B5B5"/>
<path d="M1491.4 267.865C1491.4 267.865 1484.29 314.754 1477.42 325.375C1459.63 352.829 1467.76 406.616 1477.42 424.792C1477.42 424.792 1477.4 434.755 1475.34 440.64C1473.28 446.525 1472.01 448.551 1472.01 448.551C1472.01 448.551 1456.53 444.746 1451.5 442.091C1446.51 439.463 1429.7 354.143 1451.5 320.092C1467.54 295.046 1475.28 271.725 1475.53 265.785L1491.4 267.865Z" fill="#B5B5B5"/>
<path d="M1548.84 210.684C1548.84 210.684 1525.47 235.128 1503.12 243.969C1503.12 243.969 1518.42 238.713 1529.32 231.679C1540.16 224.644 1548.84 210.684 1548.84 210.684Z" fill="#D1D1D1"/>
<path d="M1418.89 202.855C1418.89 202.855 1442.25 227.299 1464.6 236.14C1464.6 236.14 1449.31 230.885 1438.41 223.85C1427.56 216.843 1418.89 202.855 1418.89 202.855Z" fill="#D1D1D1"/>
<path d="M1503.1 243.969C1503.1 243.969 1528.11 231.98 1540.16 219.662C1552.21 207.345 1552.68 205.839 1557.29 204.525C1561.93 203.239 1561.93 203.239 1561.93 203.239C1561.93 203.239 1537.61 189.005 1520.64 198.038C1520.64 198.038 1522.53 219.717 1515.45 230.502C1508.37 241.286 1503.1 243.969 1503.1 243.969Z" fill="white"/>
<path d="M1466.22 237.071C1466.22 237.071 1438.71 224.452 1426.66 212.135C1414.6 199.817 1414.14 198.312 1409.52 196.998C1404.91 195.684 1404.88 195.711 1404.88 195.711C1404.88 195.711 1429.21 181.478 1446.18 190.51C1446.18 190.51 1444.28 212.189 1451.37 222.974C1458.45 233.759 1466.22 237.071 1466.22 237.071Z" fill="white"/>
<path d="M1237.48 116.757C1244.4 109.346 1259.65 110.68 1261.49 116.877C1272.51 106.301 1287.81 116.258 1287.47 117.909C1287.47 117.909 1288.62 118.994 1291.21 116.987C1296.92 115.358 1306.14 116.878 1309.93 124.15C1311.83 127.786 1310.79 130.612 1310.79 130.612C1311.7 131.033 1313.55 130.464 1315.5 130.612C1319.76 130.935 1322.12 133.923 1324 137C1326.5 145 1327.88 149.633 1322.5 155.5C1317 161.5 1314.18 165.268 1307.5 170C1295.5 178.5 1291 195 1291 195L1224.75 181.807C1224.75 181.807 1223.29 164.038 1225.5 151C1226 130 1237.48 116.757 1237.48 116.757Z" fill="#F3915A"/>
<path d="M1694.69 151.084C1687.32 144.128 1672.18 146.428 1670.74 152.73C1659.06 142.876 1644.43 153.785 1644.87 155.411C1644.87 155.411 1643.79 156.567 1641.09 154.728C1635.28 153.465 1626.18 155.569 1622.86 163.066C1621.2 166.815 1622.41 169.57 1622.41 169.57C1621.53 170.048 1618.48 167.935 1616.54 168.206C1612.31 168.799 1609.04 171.15 1607.36 174.34C1602.48 182.115 1604.62 187.884 1609.17 194.414C1607.64 202.074 1612.87 209.779 1622.59 213.864C1636.41 219.669 1646.25 232.57 1646.25 232.57L1715.5 214C1715.5 214 1710.61 187.649 1707.58 174.778C1704.5 161.932 1694.69 151.084 1694.69 151.084Z" fill="#F3915A"/>
<path d="M1257.5 125.5C1261 117 1264.5 115.5 1268 113C1265.6 113.4 1262.67 115.833 1261.5 117C1261.1 115 1259.33 114.167 1258.5 114C1257.5 116.5 1257 120.5 1257.5 125.5Z" fill="#DC8351"/>
<path d="M1283 125C1285.8 121.4 1289.83 118.167 1291.5 117C1291.1 117 1289 117.667 1288 118C1287.26 117.2 1286.69 117 1286.5 117C1284.9 117.8 1283.5 122.667 1283 125Z" fill="#DC8351"/>
<path d="M1303.5 136C1306.7 133.6 1312.5 131.333 1315 130.5C1314.2 130.1 1312 130.333 1311 130.5C1311.4 129.3 1311.17 128.333 1311 128C1308.6 129.6 1305 134 1303.5 136Z" fill="#DC8351"/>
</g>
<path d="M50.0356 239.497C50.0356 239.497 -14.0075 216.506 -52.6117 256.52C-91.2159 296.534 -116.655 367.611 -103.499 519.389C-90.3425 671.167 84.2544 547.521 84.2544 547.521L50.0356 239.497Z" fill="#F8A80E"/>
<path d="M232.557 247.167C232.557 247.167 198.138 294.014 187.793 301.029C177.448 308.044 127.926 263.598 127.926 263.598C127.926 263.598 150.563 224.757 148.015 214.349C145.467 203.94 232.557 247.167 232.557 247.167Z" fill="#F3915A"/>
<path d="M153.246 222.465C153.246 222.465 194.471 279.084 232.547 247.167C232.547 247.167 222.667 263.599 210.575 265.355C198.502 267.111 174.873 266.538 153.246 222.465Z" fill="#BA7149"/>
<path d="M185.291 301.775C192.634 280.594 138.044 209.7 72.5539 228.506C56.9685 232.983 44.1308 239.806 33.6495 248.295C0.522522 275.117 -9.0762 318.516 -7.76605 356.793C-6.03737 407.179 -1.08791 426.322 -1.08791 426.322L183.708 290.184L185.291 301.775Z" fill="#FFB62A"/>
<path d="M266.293 131.018C266.293 131.018 261.17 212.921 243.283 236.204C232.074 250.806 210.638 266.637 180.532 248.168C150.425 229.698 140.981 199.255 140.981 199.255C140.981 199.255 115.934 198.3 112.103 175.026C108.946 154.073 115.351 150.97 115.351 150.97C115.351 150.97 126.579 139.743 143.993 153.4C143.993 153.4 150.471 144.365 143.447 140.99C136.423 137.614 133.339 117.379 149.352 121.21C165.365 125.04 195.617 116.697 195.617 116.697C195.617 116.697 227.725 135.512 266.293 131.018Z" fill="#F3915A"/>
<path d="M148.269 130.927C148.269 130.927 161.534 137.268 174.554 135.194C187.574 133.12 198.046 146.012 208.245 146.594C218.444 147.176 247.141 147.013 257.322 141.845C267.503 136.677 248.569 122.293 248.569 122.293L186.928 109.036L142.1 119.472L148.269 130.927Z" fill="#BA7149"/>
<path d="M277.738 42.0997C277.738 42.0997 315.196 40.644 306.616 86.8999C298.037 133.165 265.647 142.791 234.603 142.081C203.56 141.372 195.071 124.858 195.071 124.858C195.071 124.858 164.801 131.6 149.215 124.603C149.215 124.603 146.841 124.248 147.605 128.37C148.378 132.492 157.267 155.974 143.993 153.4C143.993 153.4 131.519 142.036 119.327 148.359C119.327 148.359 108.3 122.911 115.424 113.24C122.557 103.559 123.667 103.75 121.183 94.0512C118.7 84.3523 118.7 40.8624 163.427 36.5134C208.154 32.1644 216.225 31.8914 228.061 48.6596C228.061 48.6596 265.965 39.9889 277.738 42.0997Z" fill="#232323"/>
<path d="M219.564 197.581L186.164 194.433C186.164 194.433 177.22 192.513 178.53 198.709C179.841 204.905 179.55 219.071 198.774 221.919C218.008 224.767 225.714 206.252 225.714 206.252C225.714 206.252 229.69 198.018 219.564 197.581Z" fill="#BA7149"/>
<path d="M197.874 207.162C197.874 207.162 208.219 207.671 213.114 204.014C218.009 200.356 218.2 197.454 218.2 197.454L184.627 194.215C184.627 194.215 181.888 193.869 180.233 194.706C178.577 195.543 188.821 205.888 197.874 207.162Z" fill="white"/>
<path d="M216.288 217.852C216.288 217.852 208.091 208.399 199.238 209.381C190.385 210.364 183.825 213.976 183.825 213.976C182.16 214.367 198.046 230.007 216.288 217.852Z" fill="white"/>
<path d="M125.753 179.427C120.839 172.748 120.748 164.471 125.548 160.94C130.349 157.408 138.223 159.959 143.136 166.637C148.05 173.316 148.141 181.593 143.341 185.124C138.54 188.656 130.666 186.105 125.753 179.427Z" fill="#BA7149"/>
<path d="M238.044 160.776C237.541 156.247 239.372 152.326 242.134 152.019C244.896 151.712 247.542 155.136 248.046 159.665C248.549 164.195 246.718 168.116 243.956 168.423C241.194 168.729 238.547 165.306 238.044 160.776Z" fill="#474747"/>
<path d="M186.282 160.766C185.783 156.271 187.722 152.367 190.614 152.046C193.506 151.724 196.254 155.108 196.754 159.603C197.253 164.097 195.314 168.002 192.422 168.323C189.53 168.644 186.781 165.261 186.282 160.766Z" fill="#474747"/>
<path d="M194.953 158.75C194.953 158.75 185.727 147.404 175.173 160.014C175.173 160.014 171.807 159.632 174.127 155.283C176.447 150.934 183.189 147.04 189.312 148.814C195.435 150.598 200.212 158.686 194.953 158.75Z" fill="#474747"/>
<path d="M247.359 154.927C247.359 154.927 236.696 144.919 227.925 158.821C227.925 158.821 224.532 158.885 226.26 154.272C227.98 149.65 234.139 144.892 240.445 145.838C246.75 146.784 252.564 154.163 247.359 154.927Z" fill="#474747"/>
<path d="M215.607 174.125C215.607 174.125 223.904 187.027 213.487 186.826C203.069 186.626 217.681 184.379 215.07 180.467C212.459 176.554 212.495 172.387 215.607 174.125Z" fill="#BA7149"/>
<path d="M286.564 43.2911C286.564 43.2911 328.771 117.997 241.873 142.053C241.873 142.053 275.1 146.939 300.285 110.064C325.469 73.1882 303.069 44.7195 286.564 43.2911Z" fill="black"/>
<path d="M264.765 148.741C264.765 148.741 265.22 144.629 271.452 144.547C277.675 144.465 276.101 179.639 260.298 182.45L264.765 148.741Z" fill="#BA7149"/>
<path d="M157.067 256.53C157.067 256.53 186.255 274.617 185.263 302.694C184.271 330.772 142.346 405.542 142.346 405.542L7.80917 378.474C7.80917 378.474 11.3302 319.372 24.359 289.929C28.7535 259.214 121.102 214.75 157.067 256.53Z" fill="white"/>
<path d="M132.602 233.965L130.655 222.219C130.655 222.219 193.161 263.599 192.906 281.14C192.651 298.691 185.291 301.766 185.291 301.766C185.291 301.766 190.704 285.871 166.694 260.351C158.942 251.844 148.142 242.463 132.602 233.965Z" fill="white"/>
<g clip-path="url(#clip1_321_5571)">
<path d="M934.923 407.635C934.923 407.635 880.724 403.842 851.739 381.147C822.784 358.482 837.748 332.328 837.748 332.328L950.587 202.315L951.955 270.947L934.923 407.635Z" fill="#507DBD"/>
<path d="M948.944 264.363C948.944 264.363 939.364 389.339 932.581 413.976C932.581 413.976 1074.19 414.128 1126.72 394.922L1100.35 314.517C1100.35 314.517 1136.18 373.531 1166.2 357.602C1166.2 357.602 1199.87 340.611 1181.65 304.687L1147.16 306.841L1110.08 239.483C1110.08 239.483 1109.72 204.621 1103.6 189.238C1097.79 167.939 1074.71 153.163 1059.08 155.681C1043.38 154.073 947.515 181.441 947.515 181.441L948.153 246.856L948.944 264.363Z" fill="white"/>
<path d="M1007.34 204.379C1007.34 204.379 1011.57 231.868 1010.99 260.54C1010.38 289.213 993.258 327.412 993.258 327.412C993.258 327.412 1008.16 317.369 1014.03 314.487C1019.9 311.605 1036.72 234.689 1016.74 203.347L1012.66 199.221L1007.34 204.379Z" fill="#B6B6B7"/>
<path d="M967.497 138.72L968.592 148.672L971.147 171.944C971.147 171.944 973.306 184.354 992.894 187.509C1012.48 190.665 1040.67 184.475 1027.17 171.428L1020.08 145.335L967.497 138.72Z" fill="#F3915A"/>
<path d="M967.984 142.938C967.984 142.938 986.111 161.901 1004.57 160.718C1023 159.534 1023.46 157.653 1023.46 157.653L1020.11 145.335L967.497 138.72L967.984 142.938Z" fill="#E17E46"/>
<path d="M886.381 366.249C886.381 366.249 890.335 381.329 878.352 384.757C866.368 388.186 831.179 387.245 817.614 370.254C804.049 353.293 808.246 332.479 808.246 332.479C808.246 332.479 808.398 314.821 823.818 289.819C823.818 289.819 826.373 287.331 829.658 286.876C832.943 286.391 842.919 281.051 844.865 277.228C846.781 273.405 883.766 190.24 883.766 190.24C883.766 190.24 907.337 172.793 921.662 172.338C935.988 171.883 886.29 357.571 886.29 357.571C886.29 357.571 885.864 363.245 886.381 366.249Z" fill="#4770AB"/>
<path d="M966.676 137.871C966.676 137.871 968.531 148.278 967.619 152.434C966.676 156.591 971.847 183.292 993.076 186.144C1014.31 188.996 1027.9 184.687 1027.9 184.687C1027.9 184.687 1034.38 182.867 1033.71 176.616C1033.71 176.616 1031.76 173.036 1026.81 172.217C1021.85 171.367 1019.05 147.368 1019.05 147.368L966.676 137.871Z" fill="#F3915A"/>
<path d="M952.898 97.3954C952.898 97.3954 951.165 129.891 974.006 143.757C996.847 157.592 1021.94 150.189 1033.47 137.173C1044.99 124.156 1043.02 90.7811 1039.85 73.5169C1036.75 56.2224 956.274 41.5979 952.898 97.3954Z" fill="#F3915A"/>
<path d="M1019.75 104.162C1022.06 103.888 1023.7 101.491 1023.4 98.7911C1023.1 96.0604 1021 94.0882 1018.69 94.331C1016.37 94.604 1014.76 97.001 1015.04 99.7014C1015.34 102.432 1017.44 104.435 1019.75 104.162Z" fill="#474747"/>
<path d="M1025.68 94.9378C1025.68 94.9378 1017.99 88.5055 1012.48 96.3942C1006.95 104.283 1006.31 90.781 1015.77 89.2943C1025.22 87.8379 1029.33 93.4814 1029.33 93.4814C1029.33 93.4814 1030.18 94.8468 1029.63 96.2425C1029.06 97.6381 1026.29 96.2121 1025.68 94.9378Z" fill="#474747"/>
<path d="M1038.76 158.199C1038.76 158.199 1062.73 195.792 1066.53 222.887L1081.98 228.682C1081.98 228.682 1071 170.761 1045.39 157.137C1044.08 155.529 1037.79 156.379 1038.76 158.199Z" fill="#507DBD"/>
<path d="M995.692 124.43C995.692 124.43 1009.65 123.914 1013.67 123.641C1017.68 123.337 1018.5 125.704 1017.92 128.768C1017.38 131.863 1012.05 138.781 1003.99 137.719C995.904 136.657 993.258 129.314 993.258 129.314C993.258 129.314 990.825 124.247 995.692 124.43Z" fill="#CE7E51"/>
<path d="M993.836 130.65C993.836 130.65 1003.66 127.767 1011.54 131.074L1015.4 133.077C1015.4 133.077 1010.84 139.934 1001.93 137.264C1001.99 137.294 997.547 137.234 993.836 130.65Z" fill="#FF77AD"/>
<path d="M998.277 135.808C998.277 135.808 1001.04 133.593 1006.73 133.532C1012.42 133.471 1013.51 135.14 1013.51 135.14C1013.21 135.595 1006.34 140.966 998.277 135.808Z" fill="#F9EEF0"/>
<path d="M994.809 124.43C994.809 124.43 999.402 129.679 1005.55 128.738C1011.69 127.797 1014.73 123.337 1014.73 123.337C1014.73 123.337 999.28 124.369 994.809 124.43Z" fill="#F9EEF0"/>
<path d="M1038.97 71.0896C1038.97 71.0896 1027.02 99.3676 1002.6 104.222C978.173 109.077 976.804 106.073 976.804 106.073C976.804 106.073 970.934 117.694 955.636 117.997C955.636 117.997 958.981 130.71 966.676 137.901C966.676 137.901 968.744 146.427 964.517 150.978C960.289 155.499 951.59 156.47 948.397 152.768C945.203 149.067 936.778 133.198 936.9 116.692C936.9 116.692 924.217 109.198 920.385 87.3828C916.522 65.5675 923.548 38.1087 946.998 30.7357L955.788 28.9153C955.788 28.9153 980.849 -6.09852 1012.72 1.00132C1044.6 8.10117 1041.86 29.9772 1041.86 29.9772C1041.86 29.9772 1058.19 32.9203 1059.93 61.5624C1059.93 61.5624 1069.36 77.2792 1063.46 93.0566C1063.46 93.0566 1070.48 119.727 1064.92 133.744C1064.92 133.744 1070.66 146.821 1065.43 159.989C1065.43 159.989 1069.75 169.031 1065.1 177.375C1065.1 177.375 1070.03 181.592 1069.81 189.997C1069.63 198.401 1078.12 212.298 1087.91 212.631C1087.91 212.631 1049.68 222.462 1045.88 195.185C1045.88 195.185 1044.42 187.114 1047.52 181.168C1047.52 181.168 1042.23 168.455 1047.55 162.417C1047.55 162.417 1039.88 148.308 1045.45 135.656C1045.45 135.656 1039.4 127.008 1040.28 122.366C1041.16 117.754 1043.02 99.5496 1042.41 93.178C1041.77 86.7153 1038.97 71.0896 1038.97 71.0896Z" fill="#2D2D2D"/>
<path d="M1041.16 84.1666C1041.16 84.1666 1047.46 84.3183 1048.52 90.9934C1049.59 97.6988 1047.91 109.714 1041.71 110.563C1041.89 107.287 1043.08 94.1489 1041.16 84.1666Z" fill="#F3915A"/>
<path d="M966.798 140.207C966.798 140.207 957.734 140.085 954.936 151.463C954.936 151.463 964.821 148.399 968.744 149.946C968.744 149.916 967.953 141.754 966.798 140.207Z" fill="white"/>
<path d="M1047 179.681C1047 179.681 1058.25 182.412 1065.49 176.04C1065.49 176.04 1066.25 177.891 1060.6 180.197C1054.48 182.685 1047.55 181.077 1047.55 181.077L1047 179.681Z" fill="#F74343"/>
<path d="M1047.46 181.107C1047.46 181.107 1057.95 183.595 1065.19 177.223C1065.19 177.223 1066.31 179.772 1060.54 181.744C1054.76 183.716 1046.82 182.654 1046.82 182.654L1047.46 181.107Z" fill="#F7D5D5"/>
<path d="M1065.4 159.929C1065.4 159.929 1056.13 164.267 1047.55 162.326L1046.85 160.808C1046.85 160.808 1058.65 161.719 1065.89 158.715C1065.86 158.715 1066.19 159.625 1065.4 159.929Z" fill="#3F3F3F"/>
<path d="M1045.45 135.565C1045.45 135.565 1055.64 136.263 1064.88 133.684L1065.61 135.686C1065.61 135.686 1054.3 140.419 1044.51 138.022L1045.45 135.565Z" fill="#3F3F3F"/>
<path d="M920.142 189.997C920.142 189.997 950.222 161.931 965.703 178.376C981.153 194.851 972.029 251.407 972.029 251.407C972.029 251.407 959.285 302.987 953.628 308.419C953.628 308.419 966.919 311.331 968.318 314.76C967.649 313.85 985.928 271.251 992.011 231.564C998.094 191.848 992.437 157.501 968.562 148.672C911.413 146.275 903.626 212.722 903.626 212.722L912.264 202.194L920.142 189.997Z" fill="#507DBD"/>
<path d="M942.77 154.953C942.77 154.953 904.721 147.216 868.65 191.999C832.517 230.017 804.17 313.728 804.17 313.728C804.17 313.728 776.128 383.665 850.583 386.001C850.583 386.001 788.537 365.824 819.378 322.345C846.994 283.357 886.016 192.364 899.794 183.443C908.858 175.19 914.454 170.275 942.77 154.953Z" fill="#507DBD"/>
<path d="M1127.78 244.065C1111.51 239.271 1039.4 213.754 1039.4 213.754C1039.4 213.754 1031.58 209.142 1029.48 214.846C1027.38 220.551 982.857 352.626 982.857 352.626L1045.94 378.962L1063.64 357.207L1021.03 344.494L1001.04 338.517L1045.36 239.574C1045.36 239.574 1049.37 232.414 1058.77 238.088C1068.17 243.762 1119.84 265.971 1119.84 265.971L1121.97 285.481L1135.69 268.611L1142.53 254.836C1142.56 254.806 1144.05 248.859 1127.78 244.065Z" fill="#AEA4EE"/>
<path d="M994.232 336.454L1033.86 220.52C1033.86 220.52 1035.26 217.213 1041.04 219.155C1046.85 221.096 1132.22 250.376 1132.22 250.376C1132.22 250.376 1127.93 251.802 1125.65 254.381L1041.22 225.648C1041.22 225.648 1037.69 224.434 1035.87 228.439C1034.07 232.444 998.642 337.758 998.642 337.758L994.232 336.454Z" fill="white"/>
<path d="M1119.87 265.941L1056.46 236.844C1056.46 236.844 1048.46 232.657 1044.57 241.334C1040.67 250.012 1001.04 338.487 1001.04 338.487L1047.4 351.534L1081.64 282.538L1142.26 304.505C1142.26 304.505 1131.86 283.842 1127.33 278.897C1122.79 273.921 1117.81 269.612 1119.87 265.941Z" fill="#EBEBEB"/>
<path d="M1121.64 273.496L1061.17 245.764C1061.17 245.764 1054.73 242.821 1051.2 250.346C1047.7 257.87 1010.11 341.187 1010.11 341.187L1059.81 356.054L1088.82 297.314L1145.91 314.032C1145.94 314.001 1137.18 278.229 1121.64 273.496Z" fill="white"/>
<path d="M1144.36 299.68L1095.33 275.013L1069.39 263.332C1069.39 263.332 1059.87 256.535 1055.4 268.095C1050.96 279.625 1021.06 344.464 1021.06 344.464L996.209 402.386L1101.32 439.038L1108.29 441.617L1157.8 332.479L1144.36 299.68Z" fill="#319CA3"/>
<path d="M859.434 354.75C859.434 354.75 860.681 362.183 853.29 363.609C845.93 365.035 821.02 368.646 811.166 347.468C801.342 326.32 827.407 292.672 827.407 292.672C827.407 292.672 838.721 277.986 855.541 281.809C872.33 285.602 860.042 344.434 860.042 344.434C860.042 344.434 858.126 347.529 859.434 354.75Z" fill="#42689E"/>
<path d="M1022.3 153.587C1022.3 153.587 1035.47 149.704 1042.65 163.205C1042.65 163.205 1044.45 166.3 1043.26 172.733C1043.26 172.733 1032.89 174.098 1029.51 173.097C1023.55 171.307 1024.04 160.626 1022.3 153.587Z" fill="white"/>
<path d="M1025.32 190.816C1031.06 188.146 1025.77 198.735 1021.21 204.015C1014.43 207.565 1007.61 206.745 1007.61 206.745C1007.61 206.745 1001.14 206.654 997.151 198.28C991.221 189.603 1019.14 194.305 1025.32 190.816Z" fill="#B6B6B7"/>
<path d="M948.883 262.998L967.254 236.692C967.254 236.692 960.502 278.836 945.568 305.051L948.883 262.998Z" fill="#EBEBEB"/>
<path d="M1082.95 269.43L1135.42 381.754L1157.95 334.118L1138.7 296.828C1138.7 296.828 1092.23 273.617 1082.95 269.43Z" fill="#39B9C1"/>
<path d="M1182.92 321.496C1182.92 321.496 1183.87 332.722 1171.49 336.818C1159.11 340.914 1153.12 339.7 1148.19 321.344C1143.23 303.018 1128.45 286.269 1120.3 280.505C1115.68 277.228 1113.34 275.711 1109.41 271.493C1107.62 269.551 1107.04 267.64 1109.75 268.338C1110.78 268.459 1123.65 273.162 1122.95 272.798C1120.48 271.584 1113.82 267.033 1112.45 266.184C1101.29 262.148 1104.85 257.749 1109.99 258.841C1113.27 259.539 1127.14 266.244 1129.12 267.337C1124.22 263.817 1115.89 258.295 1114.43 257.567C1106.1 253.38 1105.91 247.008 1112 247.979C1116.92 248.252 1130.85 256.11 1134.84 259.175C1132.68 254.502 1125.01 250.892 1123.59 249.375C1118.38 245.855 1109.87 237.268 1130.95 243.094C1135.11 243.913 1169.36 259.903 1180.92 276.591C1186.79 284.358 1182.92 321.496 1182.92 321.496Z" fill="#F3915A"/>
<path d="M966.676 137.871C966.676 137.871 976.439 154.376 1000.22 157.41C1000.22 157.41 1012.66 158.867 1020.63 157.987C1020.63 157.987 1019.29 148.52 1018.96 147.337C1018.99 147.368 992.042 156.106 966.676 137.871Z" fill="#E17E46"/>
<path d="M851.252 286.179C851.252 286.179 826.799 314.912 848.18 336.454C869.562 357.996 937.873 372.712 937.873 372.712C937.873 372.712 963.665 380.995 974.432 366.583C985.168 352.171 987.388 332.206 976.287 320.616C965.186 309.056 929.509 298.345 929.509 298.345L972.85 228.621C972.85 228.621 978.264 197.127 965.672 178.346C952.655 158.988 924.643 183.413 920.111 189.966L851.252 286.179Z" fill="white"/>
<path d="M958.981 126.887C958.981 126.887 954.936 129.618 951.955 124.217C948.944 118.816 948.093 117.239 948.093 117.239C948.093 117.239 951.56 118.816 955.605 118.027C955.605 117.997 957.278 123.701 958.981 126.887Z" fill="#F3915A"/>
<path d="M1010.41 188.662C1010.41 188.662 1000.89 184.05 992.437 182.654C992.437 182.654 993.35 188.055 993.593 190.149C993.745 192.242 1010.41 188.662 1010.41 188.662Z" fill="white"/>
<path d="M1012.66 188.359C1012.66 188.359 1030.76 177.345 1034.71 175.828C1038.67 174.371 1033.74 186.022 1033.74 186.022L1012.66 188.359Z" fill="white"/>
<path d="M900.859 217.274L908.949 203.681L909.04 203.62C909.861 203.62 928.901 203.802 940.124 217.183L940.58 217.729L940.033 218.457C938.451 220.733 934.041 228.318 934.011 228.409L933.524 229.258L932.885 228.955C932.642 228.834 907.854 216.454 901.284 217.183L900.859 217.274ZM908.766 205.592L902.927 215.21C910.561 215.757 929.418 224.889 933.22 226.77C934.284 224.92 936.87 220.55 938.36 218.245C928.384 206.927 911.869 205.714 908.766 205.592Z" fill="#999999"/>
<path d="M908.554 209.112C908.554 209.112 922.575 210.902 934.862 220.399L933.524 222.796C933.524 222.796 919.29 214.604 907.002 211.964L908.554 209.112Z" fill="#999999"/>
<path d="M1184.02 311.271C1185.48 301.47 1186.06 279.837 1176.72 271.615C1167.35 263.392 1155.28 255.443 1150.41 252.53C1144.57 248.131 1129.94 239.908 1118.26 242.244C1116.8 243.701 1121.18 246.644 1122.64 248.131C1124.1 249.617 1132.86 255.473 1134.35 258.416" stroke="black" stroke-width="0.232559" stroke-linecap="round"/>
</g>
<g clip-path="url(#clip2_321_5571)">
<path d="M600.945 225.057C600.945 225.057 614.073 223.079 629.61 256.23C645.147 289.381 652.612 517.394 629.61 525.676C606.608 533.958 370.99 602.89 348.292 560.131C325.594 517.372 366.889 320.727 366.889 320.727L600.945 225.057Z" fill="#4F4E63"/>
<path d="M722.313 93.0621C720.685 105.562 696.902 169.972 696.902 169.972C696.902 169.972 667.932 168.124 658.84 164.581C656.431 163.646 656.019 162.69 658.84 152.69C661.813 142.125 679.477 84.1277 679.477 84.1277C683.73 73.6499 725.047 81.9104 722.313 93.0621Z" fill="#515151"/>
<path d="M561.885 185.58L572.192 195.58L591.028 226.905C591.028 226.905 607.064 449.005 604.135 484.438H462.651L475.432 194.102L491.642 182.298L561.885 185.58Z" fill="white"/>
<path d="M572.214 195.58C572.214 195.58 628.569 183.602 652.374 278.142C693.538 275.207 689.719 156.929 689.719 156.929L741.777 149.386C741.777 149.386 780.143 253.643 753.734 341.4C739.976 399.137 650.855 405.137 638.225 388.964C638.225 388.964 645.516 474.265 646.493 484.438C646.493 484.438 599.925 550.457 585.386 541.697C516.271 500.046 595.628 238.078 572.214 195.58Z" fill="#B3A4EE"/>
<path d="M480.466 545.197C538.991 493.916 463.215 224.905 475.454 194.102C475.454 194.102 396.856 186.711 368.863 307.771C368.863 307.771 358.816 316.445 359.489 226.644L298.599 214.775C298.599 214.775 270.15 343.705 313.377 406.702C313.377 406.702 337.442 448.527 383.619 415.071L387.591 519.633C387.547 519.611 462.238 561.174 480.466 545.197Z" fill="#B3A4EE"/>
<path d="M742.537 153.669L692.432 160.886" stroke="#EDEDED" stroke-width="0.75" stroke-miterlimit="10"/>
<path d="M299.836 234.448L359.164 236.861" stroke="#EDEDED" stroke-width="0.75" stroke-miterlimit="10"/>
<path d="M535.129 217.731L547.91 227.47C547.91 227.47 549.429 237.013 542.55 244.643C539.382 248.034 536.496 250.23 536.496 250.23L526.145 249.708C526.145 249.708 528.337 238.383 515.252 230.774C522.412 223.796 528.228 219.057 535.129 217.731Z" fill="#B6B6B7"/>
<path d="M558.608 164.255L560.908 190.819L532.177 214.775L491.642 182.298L499.193 137.865C499.193 137.865 548.452 163.277 558.608 164.255Z" fill="#F3915A"/>
<path d="M582.391 76.5628C582.391 76.5628 590.138 125.213 581.545 151.06C572.952 176.885 527.013 166.559 508.85 146.06C490.687 125.561 496.069 118.322 496.069 118.322C496.069 118.322 506.875 74.7802 521.848 73.0412C536.821 71.3021 582.391 76.5628 582.391 76.5628Z" fill="#F3915A"/>
<path d="M564.836 99.4967C565.422 99.4967 565.964 99.1271 566.138 98.5402C566.16 98.475 567.331 94.7795 570.651 93.1056C572.821 91.997 575.469 91.9752 578.529 93.0404C579.245 93.2795 580.004 92.91 580.243 92.1926C580.482 91.4753 580.113 90.7144 579.397 90.4753C575.599 89.171 571.715 88.0841 568.872 89.5406C564.532 91.7796 563.599 97.562 563.534 97.7576C563.317 98.475 563.729 99.2358 564.445 99.4532C564.575 99.4967 564.706 99.4967 564.836 99.4967Z" fill="#474747"/>
<path d="M528.619 106.518C529.074 106.518 529.53 106.279 529.79 105.866C531.939 102.257 534.564 100.149 537.624 99.6271C542.876 98.6924 547.736 102.627 547.801 102.67C548.387 103.149 549.234 103.062 549.711 102.475C550.188 101.888 550.102 101.04 549.516 100.562C549.277 100.366 542.789 94.5621 536.322 95.6925C532.46 96.3664 530.051 100.171 527.49 104.475C527.1 105.127 527.317 105.953 527.968 106.344C528.141 106.453 528.38 106.518 528.619 106.518Z" fill="#474747"/>
<path d="M504.575 142.952C504.575 142.952 514.535 134.061 512.669 108.366C510.803 82.6713 516.402 75.5194 532.546 76.3019C548.691 77.1063 563.577 93.3447 594.131 83.2147C624.684 73.0847 607.954 41.412 607.954 41.412C607.954 41.412 603.44 50.9986 599.447 52.0637C599.447 52.0637 612.467 36.347 600.771 14C600.771 14 596.648 37.6947 568.547 30.4994C540.445 23.304 504.836 7.34808 490.47 39.2816C490.47 39.2816 459.114 40.8685 463.627 77.0845C468.141 113.3 491.099 128.017 492.141 140.799C493.183 153.582 504.575 142.952 504.575 142.952Z" fill="#2D2D2D"/>
<path d="M741.539 149.756C741.539 149.756 735.636 111.301 721.228 98.1924C706.819 85.0842 692.085 80.4757 688.157 86.8885C684.229 93.3013 700.938 87.0841 714.848 108.888C714.848 108.888 692.736 88.4319 678.001 95.4534C678.001 95.4534 675.376 98.388 680.952 101.084C686.529 103.779 704.866 107.735 707.47 118.561C707.47 118.561 695.036 103.127 673.401 111.496C673.401 111.496 671.101 115.866 681.582 116.887C692.063 117.909 696.316 122.17 698.291 127.756C698.291 127.756 684.207 117.17 671.426 121.322C671.426 121.322 667.824 124.474 680.258 127.43C692.692 130.387 696.75 147.973 696.858 156.234L741.539 149.756Z" fill="#F3915A"/>
<path d="M571.295 98.3487C570.923 96.464 571.785 94.7064 573.22 94.4228C574.654 94.1393 576.118 95.4372 576.489 97.3218C576.86 99.2064 575.999 100.964 574.564 101.248C573.13 101.531 571.666 100.233 571.295 98.3487Z" fill="#474747"/>
<path d="M537.722 106.35C537.351 104.465 538.213 102.708 539.648 102.424C541.082 102.141 542.546 103.438 542.917 105.323C543.288 107.208 542.426 108.965 540.992 109.249C539.557 109.532 538.094 108.235 537.722 106.35Z" fill="#474747"/>
<path d="M355.127 225.796C355.127 225.796 356.061 202.362 357.645 193.428C359.229 184.493 372.205 169.885 357.146 162.103C342.107 154.321 316.176 144.43 308.321 153.929C300.465 163.429 299.12 215.231 299.12 215.231L355.127 225.796Z" fill="#F3915A"/>
<path d="M585.364 194.015C585.364 194.015 593.697 405.311 646.471 476.199C646.471 476.199 646.862 478.873 646.428 459.678C645.994 440.483 646.471 398.159 639.896 382.007C631.997 374.595 617.632 209.362 617.632 209.362C617.632 209.362 601.704 192.21 585.364 194.015Z" fill="#6B6B6B"/>
<path d="M454.622 196.515C454.622 196.515 480.749 389.268 385.789 473.678L383.576 415.071C383.576 415.071 436.546 270.099 419.294 214.797C419.294 214.797 420.206 211.492 428.907 203.34C437.631 195.167 451.15 192.667 454.622 196.515Z" fill="#6B6B6B"/>
<path opacity="0.18" d="M506.875 235.644C506.875 235.644 497.002 225.492 486.26 217.644C486.26 217.644 498.022 222.101 506.875 235.644Z" fill="#9599BA"/>
<path opacity="0.18" d="M556.677 232.035C556.677 232.035 565.834 225.709 569.306 214.775C572.8 203.819 572.8 203.819 572.8 203.819C572.8 203.819 564.966 225.057 556.677 232.035Z" fill="#9599BA"/>
<path d="M512.843 103.105C512.843 103.105 514.904 109.475 512.691 108.366C510.477 107.257 505.356 103.344 501.472 105.17C497.588 106.996 493.964 118.322 502.47 125.452C510.977 132.582 512.148 130.322 512.148 130.322C512.148 130.322 516.575 107.757 512.843 103.105Z" fill="#F3915A"/>
<path d="M480.683 264.077L496.568 262.447L497.87 268.99L481.768 271.164L480.683 264.077Z" fill="#FF0000"/>
<path d="M605.48 79.9105C605.48 79.9105 591.418 90.8883 572.583 86.019L570.152 86.3233C570.152 86.3015 588.619 92.1274 605.48 79.9105Z" fill="#322D4F"/>
<path d="M549.581 25.1952C549.581 25.1952 568.894 32.6297 577.444 26.956C582.934 23.3257 583.389 16.7825 583.389 16.7825C583.389 16.7825 583.02 32.9775 562.471 29.3472" fill="#322D4F"/>
<path d="M556.503 28.9559C556.503 28.9559 576.337 34.9122 584.431 28.6081C589.617 24.5648 589.596 17.9998 589.596 17.9998C589.596 17.9998 590.442 34.1731 569.697 32.108" fill="#322D4F"/>
<path d="M505.421 142.017C505.421 142.017 512.691 163.82 534.456 170.646C556.221 177.472 559.563 175.429 559.563 175.429L558.478 166.364C558.5 166.385 525.754 167.211 505.421 142.017Z" fill="#BA7149"/>
<path d="M564.098 112.909C564.098 112.909 570.478 117.844 567.44 122.365C564.38 126.865 560.93 124.257 560.93 124.257C560.93 124.257 569.306 123.387 564.098 112.909Z" fill="#BA7149"/>
<path d="M571.368 134.539C571.368 134.539 560.431 138.147 553.183 138.234C545.914 138.321 553.031 144.669 559.585 146.364C566.138 148.06 572.474 144.104 572.93 141.712C573.407 139.321 573.451 135.017 571.368 134.539Z" fill="#BA7149"/>
<path d="M572.973 141.43C572.973 141.43 570.456 139.582 566.811 139.582C563.187 139.582 554.442 140.343 552.944 143.234C552.944 143.234 558.304 147.756 564.879 146.625C571.476 145.495 572.995 142.169 572.973 141.43Z" fill="#FF77AD"/>
<path d="M572.604 142.452C572.604 142.452 570.586 142.473 567.18 143.191C563.773 143.908 556.178 145.147 556.178 145.147C556.178 145.147 560.04 147.56 565.27 146.56C565.27 146.538 571.368 145.647 572.604 142.452Z" fill="#F9F7F8"/>
<path d="M569.935 134.995C569.935 134.995 570.391 137.626 567.809 138.452C565.227 139.278 559.172 140.147 558 140.06C556.829 139.973 554.16 138.213 554.16 138.213C554.16 138.213 564.402 136.756 569.935 134.995Z" fill="#F9F7F8"/>
<path opacity="0.51" d="M566.68 85.8885C566.68 85.8885 554.398 86.3233 544.047 83.8016C533.696 81.28 511.736 84.1277 512.365 97.8446C512.365 97.8446 511.063 81.3452 521.501 77.6932C531.939 74.0412 543.505 78.6714 546.782 79.9105C550.058 81.1278 560.778 85.7581 566.68 85.8885Z" fill="#BA7149"/>
<path d="M526.123 249.708C526.123 249.708 489.494 309.162 537.863 324.531C587.274 335.096 564.727 410.246 564.727 410.246C564.727 410.246 566.702 423.049 572.279 431.897C577.856 426.419 589.01 424.68 590.876 413.963C592.742 403.246 611.686 342.639 581.111 318.466C559.715 300.771 497.935 303.228 536.474 250.23" fill="#B6B6B7"/>
<path opacity="0.28" d="M556.698 432.832C556.698 432.832 570.673 425.158 571.606 417.941C572.539 410.724 577.878 370.943 562.883 358.074C555.418 351.661 529.291 331.77 524.648 314.771C520.004 297.772 513.928 283.077 513.928 283.077C513.928 283.077 502.926 308.249 538.123 357.878C554.16 371.856 558.348 400.029 557.653 409.115C556.959 418.202 555.331 423.332 555.331 423.332L556.698 432.832Z" fill="#B6B6B7"/>
<path d="M511.432 113.822C511.432 113.822 509.523 112.17 506.897 111.735C504.271 111.301 503.316 119.257 506.897 121.865C510.477 124.496 511.432 124.409 511.432 124.409C511.432 124.409 512.756 117.931 511.432 113.822Z" fill="#BA7149"/>
<path d="M652.374 278.142C652.374 278.142 653.676 284.946 653.437 297.272C653.437 297.272 669.994 280.229 676.135 256.73C676.135 256.751 662.464 279.968 652.374 278.142Z" fill="#A296EA"/>
<path d="M361.854 289.663C361.854 289.663 358.86 311.271 364.22 323.836C369.558 336.422 377.478 340.596 377.478 340.596C377.478 340.596 371.576 290.62 383.598 263.316C383.598 263.316 371.164 290.076 368.864 307.771L361.854 289.663Z" fill="#A296EA"/>
</g>
<defs>
<clipPath id="clip0_321_5571">
<rect width="527" height="439" fill="white" transform="matrix(-1 0 0 1 1732 28)"/>
</clipPath>
<clipPath id="clip1_321_5571">
<rect width="388" height="459.093" fill="white" transform="translate(799)"/>
</clipPath>
<clipPath id="clip2_321_5571">
<rect width="530" height="560" fill="white" transform="matrix(-1 0 0 1 763 14)"/>
</clipPath>
</defs>
</svg>
