<svg width="523" height="263" viewBox="0 0 523 263" fill="none" xmlns="http://www.w3.org/2000/svg">
<g clip-path="url(#clip0_258_5769)">
<path d="M315.667 170.038C315.667 170.038 401.991 173.022 414.785 234.582C427.498 295.869 425.329 309.857 425.329 309.857L356.66 344.592L356.358 318.671L362.398 439H172.372V310.459L159.138 341.006L99.1454 327.238L83.8522 323.433C83.8522 323.433 99.1455 244.135 119.161 209.044C145.053 161.936 241.205 162.565 241.205 162.565L315.667 170.038Z" fill="white"/>
<path d="M315.146 151.561L316.628 179.098C316.628 179.098 301.472 214.956 261.468 198.067C261.468 198.067 242.688 183.888 241.178 162.593L244.72 120.439L290.517 153.779L315.146 151.561Z" fill="#DC8655"/>
<path d="M285.465 160.02L284.312 202.502C284.312 202.502 303.998 198.314 316.628 179.098L315.173 151.89L285.465 160.02Z" fill="#F3915A"/>
<path d="M331.922 65.8856C331.922 65.8856 334.146 126.105 322.834 144.39C315.722 155.859 301.253 168.943 277.997 157.611C254.714 146.224 245.626 124.682 245.626 124.682C245.626 124.682 227.312 125.777 222.837 109.052C218.993 93.9697 223.468 91.2325 223.468 91.2325C223.468 91.2325 230.827 82.2269 244.5 90.9861C244.5 90.9861 248.564 83.924 243.21 81.9532C237.856 79.9824 234.122 65.4202 246.065 67.0626C258.009 68.7049 279.425 60.4658 279.425 60.4658C279.425 60.4658 304.136 71.9075 331.922 65.8856Z" fill="#F3915A"/>
<path d="M243.457 72.8656C243.457 72.8656 253.561 76.5335 262.923 74.0973C272.259 71.6612 280.825 80.3383 288.293 80.0098C295.761 79.7087 316.683 77.5463 323.712 73.0572C330.741 68.5681 315.914 59.3983 315.914 59.3983L270.035 54.088L238.158 64.9275L243.457 72.8656Z" fill="#BA7149"/>
<path d="M301.39 116.963L276.816 117.045C276.816 117.045 270.172 116.278 271.572 120.713C272.973 125.147 273.796 135.521 288.019 136.233C302.241 136.972 306.497 122.875 306.497 122.875C306.497 122.875 308.803 116.579 301.39 116.963Z" fill="#CE7E51"/>
<path d="M286.289 125.503C286.289 125.503 293.867 125.147 297.162 122.109C300.456 119.07 300.374 116.935 300.374 116.935L275.691 116.963C275.691 116.963 273.659 116.908 272.533 117.62C271.38 118.386 279.617 125.229 286.289 125.503Z" fill="white"/>
<path d="M300.484 132.018C300.484 132.018 293.812 125.694 287.442 127.036C281.045 128.377 276.542 131.497 276.542 131.497C275.361 131.908 288.074 142.2 300.484 132.018Z" fill="white"/>
<path d="M231.76 110.421C227.697 105.877 227.038 99.8548 230.278 96.926C233.518 93.9971 239.448 95.311 243.512 99.8275C247.575 104.371 248.234 110.393 244.994 113.322C241.755 116.251 235.824 114.937 231.76 110.421Z" fill="#CE7E51"/>
<path d="M233.353 111.899C230.69 108.915 232.007 105.384 235.275 102.455C238.542 99.5264 241.672 99.3074 244.363 102.291C247.026 105.275 248.207 110.311 244.967 113.213C241.7 116.141 236.016 114.855 233.353 111.899Z" fill="#CE7E51"/>
<path d="M308.117 97.8567C306.085 98.0209 304.245 95.4205 303.998 92.1084C303.751 88.7964 305.179 85.9496 307.211 85.7854C309.243 85.6212 311.082 88.1942 311.329 91.5336C311.576 94.8731 310.149 97.6924 308.117 97.8567Z" fill="#474747"/>
<path d="M271.847 97.8019C269.733 97.9662 267.783 95.4205 267.536 92.1084C267.289 88.7964 268.799 85.977 270.941 85.8128C273.082 85.6485 275.004 88.1942 275.251 91.5062C275.498 94.8183 273.961 97.6377 271.847 97.8019Z" fill="#474747"/>
<path d="M280.166 89.1796C280.166 89.1796 273.439 80.831 265.697 90.0829C265.697 90.0829 263.225 89.8092 264.928 86.6066C266.63 83.404 271.572 80.5846 276.048 81.8985C280.523 83.185 284.01 89.1522 280.166 89.1796Z" fill="#474747"/>
<path d="M318.523 86.4697C318.523 86.4697 310.725 79.1065 304.273 89.2891C304.273 89.2891 301.802 89.3438 303.065 85.9496C304.328 82.5554 308.831 79.0791 313.471 79.7634C318.084 80.4751 322.339 85.9223 318.523 86.4697Z" fill="#474747"/>
<path d="M296.777 100.101C296.777 100.101 303.751 108.943 296.146 109.517C288.54 110.12 299.029 107.437 296.832 104.755C294.663 102.099 294.416 99.061 296.777 100.101Z" fill="#BA7149"/>
<path d="M333.706 0.520072C333.706 0.520072 360.888 -3.20259 358.005 31.2046C355.122 65.6392 332.224 74.9732 309.545 76.6703C286.865 78.3674 279.48 66.8983 279.48 66.8983C279.48 66.8983 257.899 73.9878 246.065 69.9914C246.065 69.9914 244.308 69.9093 245.159 72.8382C246.01 75.7944 254.192 92.3274 244.363 91.3967C244.363 91.3967 234.451 83.9788 226.022 89.4806C226.022 89.4806 216.138 71.6612 220.613 64.079C225.088 56.4968 225.912 56.5515 223.413 49.6537C220.887 42.7558 217.73 10.9764 249.991 4.59857C282.28 -1.77922 288.156 -2.54565 298.013 8.86868C297.985 8.84131 324.975 -0.16424 333.706 0.520072Z" fill="#232323"/>
<path d="M337.715 0.383204C337.715 0.383204 373.93 51.9803 312.345 75.7397C312.345 75.7397 336.891 76.9441 352.569 48.2029C368.219 19.4345 349.851 0.246342 337.715 0.383204Z" fill="black"/>
<path d="M331.345 80.7488C331.345 80.7488 331.4 77.7105 335.903 77.2178C340.433 76.7251 341.833 102.51 330.521 105.713L331.345 80.7488Z" fill="#CE7E51"/>
<path d="M355.919 338.707C355.919 338.707 351.773 384.583 369.427 401.007C387.082 417.43 539.548 439.493 524.254 262.338L510.718 185.476L440.704 203.679C440.704 203.679 455.695 300.221 433.346 307.256L355.919 338.707Z" fill="#F3915A"/>
<path d="M173.168 304.3C173.168 304.3 170.23 354.83 152.576 371.253C129.265 398.078 -20.6747 401.253 2.38877 224.947C4.91477 205.595 20.8395 151.917 20.8395 151.917L85.9389 166.288C85.9389 166.288 70.9476 262.831 93.2972 269.865L173.168 304.3Z" fill="#F3915A"/>
<path d="M296.53 215.969H261.496C261.496 215.969 265.477 227.849 266.795 234.007C268.113 240.166 278.903 237.976 284.312 239.728C289.748 241.48 297.134 225.221 296.53 215.969Z" fill="#B5B5B5"/>
<path d="M286.399 239.865C286.399 239.865 279.287 286.754 272.423 297.375C254.632 324.829 262.759 378.616 272.423 396.792C272.423 396.792 272.396 406.755 270.337 412.64C268.277 418.525 267.014 420.551 267.014 420.551C267.014 420.551 251.529 416.746 246.504 414.091C241.507 411.463 224.704 326.143 246.504 292.092C262.539 267.046 270.282 243.725 270.529 237.785L286.399 239.865Z" fill="#B5B5B5"/>
<path d="M343.838 182.684C343.838 182.684 320.472 207.128 298.123 215.969C298.123 215.969 313.416 210.713 324.316 203.679C335.161 196.644 343.838 182.684 343.838 182.684Z" fill="#D1D1D1"/>
<path d="M213.886 174.855C213.886 174.855 237.252 199.299 259.601 208.14C259.601 208.14 244.308 202.885 233.408 195.85C222.562 188.843 213.886 174.855 213.886 174.855Z" fill="#D1D1D1"/>
<path d="M298.095 215.969C298.095 215.969 323.108 203.98 335.161 191.662C347.215 179.345 347.682 177.839 352.294 176.525C356.934 175.239 356.934 175.239 356.934 175.239C356.934 175.239 332.608 161.005 315.64 170.038C315.64 170.038 317.534 191.717 310.451 202.502C303.367 213.286 298.095 215.969 298.095 215.969Z" fill="white"/>
<path d="M261.221 209.071C261.221 209.071 233.71 196.452 221.656 184.135C209.603 171.817 209.136 170.312 204.523 168.998C199.911 167.684 199.883 167.711 199.883 167.711C199.883 167.711 224.21 153.478 241.178 162.51C241.178 162.51 239.283 184.189 246.367 194.974C253.451 205.759 261.221 209.071 261.221 209.071Z" fill="white"/>
<path d="M32.4767 88.7571C39.3967 81.3464 54.6459 82.6796 56.4917 88.8774C67.5143 78.3009 82.8138 88.2578 82.4712 89.9094C82.4712 89.9094 83.6214 90.9942 86.2066 88.9869C91.9237 87.3575 101.14 88.8784 104.931 96.15C106.827 99.7857 105.791 102.612 105.791 102.612C106.698 103.033 108.553 102.464 110.5 102.612C114.76 102.935 117.121 105.923 119 109C121.5 117 122.878 121.633 117.5 127.5C112 133.5 109.18 137.268 102.5 142C90.5 150.5 86 167 86 167L19.754 153.807C19.754 153.807 18.2935 136.038 20.5 123C21 102 32.4767 88.7571 32.4767 88.7571Z" fill="#F3915A"/>
<path d="M489.694 123.084C482.317 116.128 467.183 118.428 465.735 124.73C454.063 114.876 439.427 125.785 439.874 127.411C439.874 127.411 438.795 128.567 436.087 126.728C430.278 125.465 421.177 127.569 417.856 135.066C416.195 138.815 417.409 141.57 417.409 141.57C416.53 142.048 413.479 139.935 411.545 140.206C407.314 140.799 404.039 143.15 402.359 146.34C397.481 154.115 399.618 159.884 404.169 166.414C402.643 174.074 407.868 181.779 417.593 185.864C431.412 191.669 441.252 204.57 441.252 204.57L510.5 186C510.5 186 505.61 159.649 502.579 146.778C499.5 133.932 489.694 123.084 489.694 123.084Z" fill="#F3915A"/>
<path d="M52.5 97.5C56 89 59.5 87.5 63.0001 85C60.6001 85.4 57.6667 87.8333 56.5001 89C56.1001 87 54.3334 86.1667 53.5001 86C52.5 88.5 52 92.5 52.5 97.5Z" fill="#DC8351"/>
<path d="M78 97C80.8 93.4 84.8333 90.1667 86.5 89C86.1 89 84 89.6667 83 90C82.2568 89.2 81.6903 89 81.5 89C79.9 89.8 78.5 94.6667 78 97Z" fill="#DC8351"/>
<path d="M98.5 108C101.7 105.6 107.5 103.333 110 102.5C109.2 102.1 107 102.333 106 102.5C106.4 101.3 106.167 100.333 106 100C103.6 101.6 100 106 98.5 108Z" fill="#DC8351"/>
</g>
<defs>
<clipPath id="clip0_258_5769">
<rect width="527" height="439" fill="white" transform="matrix(-1 0 0 1 527 0)"/>
</clipPath>
</defs>
</svg>
