<svg width="387" height="257" viewBox="0 0 387 257" fill="none" xmlns="http://www.w3.org/2000/svg">
<path d="M50.0356 205.497C50.0356 205.497 -14.0075 182.506 -52.6117 222.52C-91.2159 262.535 -116.655 333.611 -103.499 485.389C-90.3425 637.167 84.2544 513.521 84.2544 513.521L50.0356 205.497Z" fill="#F8A80E"/>
<path d="M232.557 213.167C232.557 213.167 198.138 260.014 187.793 267.029C177.448 274.044 127.926 229.598 127.926 229.598C127.926 229.598 150.563 190.758 148.015 180.349C145.467 169.941 232.557 213.167 232.557 213.167Z" fill="#F3915A"/>
<path d="M153.246 188.465C153.246 188.465 194.471 245.084 232.547 213.167C232.547 213.167 222.667 229.599 210.575 231.355C198.502 233.111 174.873 232.538 153.246 188.465Z" fill="#BA7149"/>
<path d="M185.291 267.775C192.634 246.594 138.044 175.7 72.5539 194.506C56.9685 198.982 44.1308 205.806 33.6495 214.295C0.522537 241.117 -9.07619 284.516 -7.76604 322.792C-6.03735 373.179 -1.08789 392.322 -1.08789 392.322L183.708 256.184L185.291 267.775Z" fill="#FFB62A"/>
<path d="M266.293 97.018C266.293 97.018 261.17 178.921 243.283 202.204C232.074 216.807 210.638 232.638 180.532 214.168C150.425 195.698 140.981 165.255 140.981 165.255C140.981 165.255 115.934 164.3 112.103 141.027C108.946 120.073 115.351 116.971 115.351 116.971C115.351 116.971 126.579 105.743 143.993 119.4C143.993 119.4 150.471 110.365 143.447 106.99C136.423 103.614 133.339 83.3796 149.352 87.21C165.365 91.0404 195.617 82.6973 195.617 82.6973C195.617 82.6973 227.725 101.513 266.293 97.018Z" fill="#F3915A"/>
<path d="M148.269 96.9267C148.269 96.9267 161.534 103.268 174.554 101.194C187.574 99.1194 198.046 112.012 208.245 112.594C218.444 113.176 247.141 113.013 257.322 107.845C267.503 102.677 248.569 88.2924 248.569 88.2924L186.928 75.0361L142.1 85.4719L148.269 96.9267Z" fill="#BA7149"/>
<path d="M277.738 8.09974C277.738 8.09974 315.196 6.64401 306.616 52.8999C298.037 99.1648 265.647 108.791 234.603 108.081C203.56 107.372 195.071 90.8581 195.071 90.8581C195.071 90.8581 164.801 97.5999 149.215 90.6033C149.215 90.6033 146.841 90.2485 147.605 94.37C148.378 98.4916 157.267 121.974 143.993 119.4C143.993 119.4 131.519 108.036 119.327 114.359C119.327 114.359 108.3 88.911 115.424 79.2395C122.557 69.5589 123.667 69.75 121.183 60.0512C118.7 50.3523 118.7 6.86237 163.427 2.51337C208.154 -1.83563 216.225 -2.10858 228.061 14.6596C228.061 14.6596 265.965 5.98893 277.738 8.09974Z" fill="#232323"/>
<path d="M219.564 163.581L186.164 160.433C186.164 160.433 177.22 158.514 178.531 164.71C179.841 170.906 179.55 185.072 198.774 187.919C218.008 190.767 225.714 172.252 225.714 172.252C225.714 172.252 229.69 164.018 219.564 163.581Z" fill="#BA7149"/>
<path d="M197.874 173.162C197.874 173.162 208.219 173.671 213.114 170.014C218.009 166.356 218.2 163.454 218.2 163.454L184.627 160.215C184.627 160.215 181.888 159.869 180.233 160.706C178.577 161.543 188.821 171.888 197.874 173.162Z" fill="white"/>
<path d="M216.288 183.852C216.288 183.852 208.091 174.399 199.238 175.382C190.385 176.364 183.825 179.976 183.825 179.976C182.16 180.368 198.046 196.008 216.288 183.852Z" fill="white"/>
<path d="M125.753 145.427C120.839 138.748 120.748 130.471 125.548 126.94C130.349 123.408 138.223 125.959 143.136 132.638C148.05 139.316 148.141 147.593 143.341 151.124C138.54 154.656 130.666 152.105 125.753 145.427Z" fill="#BA7149"/>
<path d="M238.044 126.776C237.541 122.247 239.372 118.326 242.134 118.019C244.896 117.712 247.542 121.136 248.046 125.665C248.549 130.195 246.718 134.116 243.956 134.423C241.194 134.729 238.547 131.306 238.044 126.776Z" fill="#474747"/>
<path d="M186.282 126.766C185.783 122.271 187.722 118.367 190.614 118.046C193.506 117.724 196.254 121.108 196.754 125.603C197.253 130.097 195.314 134.002 192.422 134.323C189.53 134.644 186.781 131.261 186.282 126.766Z" fill="#474747"/>
<path d="M194.953 124.75C194.953 124.75 185.727 113.404 175.173 126.015C175.173 126.015 171.807 125.632 174.127 121.283C176.447 116.934 183.189 113.04 189.312 114.814C195.435 116.598 200.212 124.686 194.953 124.75Z" fill="#474747"/>
<path d="M247.359 120.927C247.359 120.927 236.696 110.919 227.925 124.821C227.925 124.821 224.532 124.885 226.26 120.272C227.98 115.65 234.139 110.892 240.445 111.838C246.75 112.784 252.564 120.163 247.359 120.927Z" fill="#474747"/>
<path d="M215.607 140.125C215.607 140.125 223.904 153.027 213.487 152.826C203.069 152.626 217.681 150.379 215.07 146.467C212.459 142.554 212.495 138.387 215.607 140.125Z" fill="#BA7149"/>
<path d="M286.564 9.29102C286.564 9.29102 328.771 83.9974 241.873 108.053C241.873 108.053 275.1 112.939 300.285 76.0636C325.469 39.1881 303.069 10.7195 286.564 9.29102Z" fill="black"/>
<path d="M264.765 114.741C264.765 114.741 265.22 110.628 271.452 110.547C277.675 110.465 276.101 145.639 260.298 148.45L264.765 114.741Z" fill="#BA7149"/>
<path d="M157.067 222.53C157.067 222.53 186.255 240.617 185.263 268.694C184.271 296.772 142.346 371.542 142.346 371.542L7.80914 344.474C7.80914 344.474 11.3302 285.372 24.359 255.93C28.7535 225.214 121.101 180.75 157.067 222.53Z" fill="white"/>
<path d="M132.602 199.966L130.655 188.22C130.655 188.22 193.161 229.599 192.906 247.141C192.651 264.691 185.291 267.766 185.291 267.766C185.291 267.766 190.704 251.872 166.694 226.351C158.942 217.844 148.142 208.464 132.602 199.966Z" fill="white"/>
</svg>
