<svg width="468" height="130" viewBox="0 0 468 130" fill="none" xmlns="http://www.w3.org/2000/svg">
<path d="M94.0386 110.185V65.3443C94.0386 65.3443 93.3649 51.9035 107.189 51.9035C121.013 51.9035 135.139 42.8327 135.139 42.8327C135.139 42.8327 138.385 44.3429 140.469 46.4427C142.552 48.5426 147.521 38.5668 166.175 40.7707C184.826 42.9746 188.519 57.0459 189.088 66.4983C189.656 75.9506 189.088 110.182 189.088 110.182H170.152V65.1362C170.152 65.1362 167.784 56.2104 160.78 56.841C153.775 57.4715 151.692 64.6507 151.692 64.6507V110.188H131.619V66.2902C131.619 66.2902 130.482 56.1032 121.016 57.8909C111.55 59.6786 113.139 63.4936 113.139 63.4936C113.139 63.4936 112.684 67.132 112.684 68.39C112.684 69.6512 112.684 110.708 112.684 110.708L94.0386 110.185Z" fill="#F87F12"/>
<path d="M104.568 22.7803L69.0965 45.4622H113.153L146.481 19L104.568 22.7803Z" fill="#666767"/>
<path d="M128.777 34.052L113.438 46.1276H94.5022C94.5022 46.1276 93.4617 55.0534 94.5022 58.4144C94.5022 58.4144 95.3067 59.3066 96.9156 59.3602C98.5246 59.4138 111.513 62.614 115.047 64.2251C118.58 65.8363 120.539 62.3334 120.539 62.3334C120.539 62.3334 132.217 46.3703 134.803 43.9931C134.803 43.9931 135.75 42.8738 134.488 41.4014C133.226 39.929 129.306 33.6358 128.777 34.052Z" fill="#040707"/>
<path d="M79.5094 45.4624C79.5094 45.4624 79.1313 46.7236 79.5094 47.4929C79.8875 48.2622 79.8875 48.8234 79.5094 49.6621C79.1313 50.5007 77.4882 50.0814 77.9317 52.3925C78.3723 54.7035 78.9608 55.4728 78.8243 58.2726C78.6879 61.0724 79.0659 79.5199 78.1193 84.4542C77.1727 89.3884 78.1193 100.575 80.2968 102.779C80.2968 102.779 81.3856 92.3837 82.3322 90.596C83.2788 88.8115 82.3805 80.5162 81.8575 78.2052C81.3373 75.8941 79.8221 64.5721 81.0843 59.6C82.3464 54.6279 79.5378 53.7198 80.2485 52.1087C80.9592 50.4976 82.0934 50.8475 81.3998 48.7477C80.7062 46.6479 80.2229 46.0268 80.4617 45.4561H79.5094V45.4624Z" fill="#040707"/>
<path d="M113.437 46.1275H69L69.0967 45.4622H113.153L146.481 19V19.9112L113.437 46.1275Z" fill="#CCCCCC"/>
<path d="M349.251 24.9266C349.21 25.7607 349.13 26.5991 349.13 27.4332C349.122 52.8016 349.103 78.1743 349.164 103.543C349.168 105.552 348.871 106.399 346.832 106.243C343.873 106.016 340.888 106.075 337.921 106.226C336.277 106.31 335.969 105.662 335.977 103.977C336.03 84.3542 336.015 64.7318 336.007 45.1052C336.003 38.3776 335.98 31.65 335.965 24.9224C340.39 24.9267 344.819 24.9266 349.251 24.9266Z" fill="#F87F12"/>
<path d="M332.163 24.9263C327.859 24.9263 323.556 24.9263 319.253 24.9263C319.276 37.6189 319.298 50.3116 319.306 63C319.306 63.1601 319.135 63.316 319.04 63.4845C307.091 52.5148 290.352 58.3998 286.444 74.9049C285.566 78.6078 285.498 82.3739 285.836 86.1779C286.698 95.9639 292.977 104.368 301.188 106.394C307.691 107.995 313.707 106.626 319.241 102.026C319.279 102.835 319.412 103.517 319.329 104.162C319.101 105.901 319.815 106.272 321.247 106.217C324.027 106.108 326.815 106.205 329.599 106.18C332.512 106.154 332.132 106.563 332.136 103.412C332.148 77.2471 332.151 51.0867 332.163 24.9263ZM319.34 82.9932C319.34 83.9031 319.34 84.8173 319.34 85.7272C319.329 92.6949 312.462 98.4156 306.407 96.461C303.175 95.4162 301.162 92.8423 299.965 89.527C298.055 84.2401 298.18 78.9448 300.642 73.8939C302.788 69.4833 306.992 67.3433 310.995 68.4006C315.265 69.5254 319.222 74.6438 319.333 79.206C319.363 80.4656 319.336 81.7294 319.336 82.9932C319.336 82.9932 319.336 82.9932 319.34 82.9932Z" fill="#F87F12"/>
<path d="M369.697 87.8297C378.418 87.7833 387.134 87.8213 395.855 87.7918C396.972 87.7875 398.168 87.9729 398.996 86.7934C398.996 85.1083 398.996 83.4275 398.996 81.7424C398.882 81.0136 398.844 80.7188 398.784 80.268C397.238 68.6875 390.834 60.8099 381.433 58.4002C377.76 57.4608 374.046 57.4861 370.316 58.0801C359.913 59.7356 352.605 68.1988 351.591 79.8257C350.493 92.4004 356.13 102.46 366.434 106.239C368.147 106.867 369.913 107.309 371.657 107.835C374.061 107.835 376.465 107.835 378.873 107.835C379.477 107.835 380.017 107.709 380.56 107.726C388.502 108.012 398.134 100.569 399 92.6826C399 92.4004 399 92.1224 399 91.8401C398.343 90.8754 397.386 90.8544 396.429 90.8417C393.648 90.808 390.868 90.8881 388.088 90.8122C386.136 90.7575 384.453 91.0566 383.484 93.2556C383.211 93.8748 382.603 94.2413 382.079 94.6415C377.483 98.138 371.718 97.2239 367.969 92.3498C367.163 91.3009 366.058 90.1256 366.617 88.6722C367.16 87.2526 368.626 87.8339 369.697 87.8297ZM365.28 76.4092C366.749 70.8991 370.738 67.1709 375.341 67.1372C379.99 67.1035 384.054 70.7727 385.528 76.2112C385.904 77.5972 385.71 78.0774 384.32 78.0311C381.35 77.9384 378.38 78.0016 375.406 78.0016C372.435 78.0016 369.461 77.9553 366.491 78.0269C365.333 78.0564 364.896 77.85 365.28 76.4092Z" fill="#F87F12"/>
<path d="M236.342 77.1C234.526 65.6669 225.703 57.9535 214.441 57.5828C204.619 57.2627 196.271 62.8023 192.742 71.99C189.005 81.7254 190.911 93.4028 197.338 100.476C201.041 104.549 205.58 106.58 210.639 107.439C212.671 107.444 214.703 107.452 216.735 107.456C217.108 107.368 217.472 107.25 217.848 107.199C228.267 105.801 239.255 95.4291 236.342 77.1ZM221.02 92.1138C217.237 97.6744 209.861 97.4891 206.309 91.7389C204.604 88.9754 203.996 85.8706 204.042 82.6353C204.004 79.5011 204.593 76.5987 206.07 73.9615C209.678 67.5204 218.141 67.5626 221.715 74.0374C224.628 79.3074 224.321 87.2608 221.02 92.1138Z" fill="#F87F12"/>
<path d="M279.953 67.7015C274.814 59.984 267.67 57.0731 259.207 57.6586C250.692 58.2484 244.071 62.5116 240.455 71.0927C236.714 79.9687 237.105 88.988 242.176 97.2784C245.951 103.454 251.542 106.466 258.106 107.452C260.138 107.448 262.17 107.439 264.202 107.435C264.696 107.313 265.186 107.174 265.683 107.073C285.065 103.134 287.933 79.6907 279.953 67.7015ZM268.349 91.9958C264.509 97.7629 256.951 97.5143 253.415 91.5071C251.991 89.0891 251.265 86.1402 251.254 82.7196C251.22 79.716 251.785 76.8766 253.153 74.2648C256.693 67.5078 265.334 67.4151 268.995 74.0837C271.848 79.2821 271.563 87.1681 268.349 91.9958Z" fill="#F87F12"/>
</svg>
