<svg width="2582" height="3781" viewBox="0 0 2582 3781" fill="none" xmlns="http://www.w3.org/2000/svg">
<g clip-path="url(#clip0_385_1128)">
<rect width="2582" height="3781" fill="#E3E3E5"/>
<path d="M163 3777.5C974.6 2920.7 2118.5 2230.17 2589 1992L2889.5 3964C1642.5 4258.83 -648.6 4634.3 163 3777.5Z" fill="#1E5982"/>
<path d="M2580 2723C1913.81 2808.17 703.486 3466.57 181.601 3785.13C142.472 3838.61 139.161 3913.48 438.948 3785.13C1333.09 3273.31 2238.88 3159.68 2580 3166.84V2723Z" fill="#FFCB43"/>
<path d="M1679.5 3557C1865.1 3497.4 2363.83 3476.83 2590 3474L2755.5 3813.5L1439 3962.5C1163.17 3921.17 664.4 3833.5 876 3813.5C1140.5 3788.5 1447.5 3631.5 1679.5 3557Z" fill="#063F69"/>
<path d="M6.5 2786L1667 2.5H1939L6.5 2891V2786Z" fill="#1C5B7D"/>
<path d="M3.5 2711.5L1462 12.5L1500.5 -94.5H-97V2488.5L3.5 2711.5Z" fill="#1E5987"/>
<path d="M-4.5 2550L1005 -27H-51V1944.12L-4.5 2550Z" fill="#1B5B81"/>
<path d="M57.4046 421.652L255.262 -30.9662L619 -59C562.208 113.11 419.544 521.758 303.228 779.465C186.911 1037.17 43.5812 1745.87 -13.5443 2068L-75 1750.45L57.4046 421.652Z" fill="#094167"/>
<path d="M11 1692C11 1461.2 172.667 468.5 253.5 1V-120H-87V1340C-54.3333 1553.5 11 1922.8 11 1692Z" fill="#00111F"/>
<path d="M1446 100L1525 0H1430L1356 100H1446Z" fill="#FCA535"/>
<path d="M1227 100L1319.5 0H1457L1376.2 100H1227Z" fill="#F5CD53"/>
<path d="M11 1692C11 1461.2 172.667 468.5 253.5 1V-120H-87V1340C-54.3333 1553.5 11 1922.8 11 1692Z" fill="#00111F"/>
<rect x="115" y="100" width="2352" height="3562" fill="white"/>
<path d="M1370 3660.73C1705.05 3253.68 2242.27 2832.79 2463 2674L2464 3670H2451.01C2276.09 3670 1815 3660.73 1370 3660.73Z" fill="#F7F7F7"/>
<rect x="57.5" y="49.5" width="2467" height="3670" stroke="white" stroke-width="31"/>
<path d="M115 1945L1294 100H115V1945Z" fill="#F7F7F7"/>
<path d="M0 2113.57L115 1857V2091.22L0 2298V2113.57Z" fill="#F5CD53"/>
</g>
<defs>
<clipPath id="clip0_385_1128">
<rect width="2582" height="3781" fill="white"/>
</clipPath>
</defs>
</svg>
