<svg width="1308" height="1288" viewBox="0 0 1308 1288" fill="none" xmlns="http://www.w3.org/2000/svg">
<path d="M156.404 939.241C166.782 926.953 177.128 914.632 187.561 902.387C193.142 895.833 193.185 895.908 189.28 888.447C183.003 876.461 177.106 864.291 171.917 851.798C170.786 849.066 169.404 847.954 166.325 847.976C133.743 848.191 101.149 848.051 68.5778 848.461C57.1548 848.613 45.7319 848.429 34.309 848.861C31.3608 848.969 30.3056 847.932 29.5984 845.308C24.0502 824.468 18.4366 803.639 12.6925 782.841C11.9093 780.001 12.9101 778.857 15.2709 777.593C50.2793 758.967 85.2443 740.243 120.209 721.551C123.636 719.726 126.987 717.75 130.512 716.131C133.253 714.867 134.2 713.096 133.775 710.159C132.644 702.287 131.861 694.362 131.425 686.414C131.034 679.19 130.403 671.977 130.218 664.753C130.153 662.14 129.239 660.974 126.878 660.034C86.0058 643.675 45.188 627.187 4.29398 610.881C0.801835 609.489 -0.362213 608.052 0.0947028 604.143C2.36841 584.761 4.26134 565.324 6.24131 545.898C6.52417 543.123 7.50327 541.936 10.6582 541.525C40.2598 537.681 69.8288 533.578 99.4087 529.572C113.834 527.617 128.271 525.706 142.696 523.719C144.872 523.417 146.765 524.173 148.712 524.799C166.63 530.5 184.537 536.213 202.454 541.914C203.379 542.206 204.314 542.432 205.25 542.691C207.687 543.62 206.632 545.51 206.284 547C203.477 559.245 201.432 571.62 199.615 584.027C197.874 595.948 196.928 607.955 196.09 619.995C195.231 632.305 195.6 644.593 195.546 656.881C195.47 673.295 196.993 689.61 199.169 705.872C202.28 729.11 206.936 752.013 213.54 774.527C219.969 796.469 228.009 817.784 237.571 838.57C251.932 869.766 269.828 898.835 290.835 926.035C305.347 944.824 321.144 962.533 338.485 978.784C368.228 1006.66 400.984 1030.45 436.972 1049.89C470.697 1068.11 506.195 1081.72 543.314 1091.2C564.996 1096.74 587.015 1100.56 609.284 1102.84C610.992 1103.02 612.656 1103.32 613.994 1104.52C615.681 1108.2 615.485 1112.17 614.952 1115.92C613.951 1122.88 614.353 1129.89 613.896 1136.86C613.418 1144.29 612.569 1151.78 612.983 1159.24C613.363 1166.12 610.448 1171.94 607.598 1177.78C597.817 1197.88 588.353 1218.12 578.725 1238.29C571.697 1253.01 564.571 1267.68 557.761 1282.5C555.574 1287.26 554.247 1288.06 548.906 1286.96C530.107 1283.06 511.319 1279.1 492.553 1275.06C488.614 1274.22 487.396 1272.85 487.505 1268.78C487.853 1254.42 486.591 1240.1 486.634 1225.74C486.678 1211.27 486.21 1196.8 485.753 1182.34C485.427 1171.84 485.449 1161.36 485.275 1150.87C485.22 1147.25 484.437 1143.69 484.393 1140.06C484.361 1137.38 482.446 1136.12 480.118 1135.26C469.195 1131.19 458.273 1127.09 447.612 1122.36C443.173 1120.39 438.658 1118.58 434.35 1116.33C431.337 1114.76 428.889 1115.29 426.441 1117.6C412.494 1130.69 398.33 1143.55 384.252 1156.5C368.13 1171.34 351.811 1185.97 335.841 1200.98C334.688 1202.06 333.372 1202.94 332.186 1203.97C327.943 1207.65 327.671 1207.68 323.091 1204.71C309.558 1195.92 295.991 1187.2 282.415 1178.49C277.66 1175.45 277.552 1174.91 279.238 1169.61C291.999 1129.32 304.542 1088.97 317.412 1048.72C318.631 1044.9 318.478 1041.83 315.117 1039C303.237 1029.02 291.999 1018.36 281.087 1007.33C276.398 1002.6 276.083 1002.57 269.991 1005C231.425 1020.42 192.707 1035.46 154.13 1050.86C147.646 1053.45 147.363 1053.43 143.262 1047.88C132.84 1033.78 122.483 1019.61 112.159 1005.44C109.711 1002.1 109.82 1000.76 112.583 997.497C125.855 981.786 139.139 966.074 152.672 950.59C155.686 947.135 156.991 943.636 156.404 939.241Z" fill="#446AA1" fill-opacity="0.32"/>
<path d="M903.756 186.138C902.559 189.129 903.484 191.051 906.41 192.584C922.228 200.888 937.383 210.283 952.069 220.4C954.408 222.009 955.986 221.847 958.227 220.4C992.376 198.372 1026.57 176.42 1060.76 154.445C1063.51 152.675 1066.34 151.001 1069.05 149.165C1071.05 147.805 1072.67 147.794 1074.57 149.5C1080.76 155.093 1087.09 160.546 1093.34 166.075C1100.05 172.014 1106.65 178.061 1113.45 183.892C1116 186.084 1116.92 187.93 1115.08 191.245C1104.18 210.898 1093.46 230.659 1082.71 250.387C1074.1 266.195 1065.52 282.025 1056.92 297.844C1056.57 298.482 1056.27 299.14 1055.93 299.788C1051.42 308.556 1051.38 308.589 1057.89 316.223C1067.79 327.842 1077 339.979 1085.67 352.515C1087.71 355.452 1089.67 356.349 1093.19 355.571C1118.71 349.967 1144.27 344.535 1169.81 339.05C1186.57 335.454 1203.33 331.923 1220.05 328.187C1223.47 327.42 1225.29 328.101 1226.92 331.362C1235.93 349.416 1245.14 367.384 1254.45 385.298C1255.97 388.225 1255.68 389.844 1252.97 391.853C1219.77 416.483 1186.65 441.233 1153.52 465.96C1149.71 468.8 1145.04 469.545 1140.73 471.111C1126 476.456 1111.16 481.499 1096.36 486.628C1095.21 487.027 1094.01 487.211 1092.83 487.502C1087.98 476.197 1083.6 464.697 1078.36 453.542C1056.51 406.97 1027.84 365.009 991.843 328.079C922.696 257.146 839.244 212.431 741.529 194.064C711.089 188.341 680.335 185.836 649.384 186.483C560.59 188.341 478.628 212.809 404.172 261.044C336.059 305.166 283.242 363.216 245.513 434.775C236.821 451.253 229.282 468.239 222.668 485.634C222.33 486.531 221.884 487.384 221.482 488.258C215.444 485.04 208.764 483.475 202.389 481.142C191.206 477.05 179.968 473.109 168.632 469.491C162.072 467.396 157.535 462.656 152.564 458.52C136.191 444.882 119.992 431.05 103.728 417.282C90.6079 406.182 77.4987 395.06 64.3352 384.003C62.3334 382.329 62.4531 380.677 63.5192 378.593C71.7655 362.579 79.9682 346.544 88.1383 330.498C89.3024 328.209 90.7819 327.474 93.4146 328.047C135.462 337.15 177.531 346.166 219.6 355.226C226.051 356.619 226.018 356.673 229.685 351.349C239.334 337.268 250.05 323.997 261.081 310.975C262.659 309.107 262.963 307.584 261.821 305.479C252.302 287.953 242.848 270.406 233.351 252.87C225.529 238.422 217.663 223.985 209.83 209.537C206.599 203.588 203.499 197.573 200.105 191.721C198.418 188.805 198.212 186.699 201.029 184.227C211.854 174.724 222.504 165.028 233.166 155.353C235.189 153.517 237.06 153.981 239.138 155.137C249.832 161.13 260.537 167.09 271.242 173.051C292.554 184.907 313.866 196.752 335.178 208.609C342.282 212.561 349.418 216.459 356.446 220.541C358.611 221.804 360.297 221.88 362.419 220.422C377.04 210.412 392.14 201.158 407.73 192.714C410.384 191.278 411.418 189.518 411.156 186.656C410.286 177.176 409.492 167.695 408.654 158.214C407.795 148.496 406.914 138.777 406.054 129.059C404.923 116.339 403.802 103.619 402.693 90.8986C401.855 81.2991 401.039 71.6888 400.223 62.0892C400.169 61.4846 400.212 60.8799 400.169 60.2752C399.581 52.2306 399.57 52.1874 407.033 49.3367C420.534 44.1752 434.1 39.1757 447.547 33.8846C450.756 32.6212 452.616 33.1611 454.564 35.9146C467.237 53.7747 480.042 71.5268 492.781 89.3329C505.107 106.545 517.433 123.757 529.683 141.023C531.554 143.669 533.599 144.446 536.808 143.647C553.921 139.382 571.284 136.348 588.777 134.113C591.725 133.735 592.998 132.363 593.629 129.685C597.459 113.467 601.364 97.2695 605.226 81.0723C611.362 55.3512 617.541 29.6409 623.579 3.90903C624.319 0.745182 625.983 -0.0106846 628.975 0.000113498C649.036 0.0864984 669.108 0.0433051 689.179 0.0541032C690.093 0.939548 690.376 2.10574 690.67 3.28274C697.719 31.5414 704.497 59.8648 711.427 88.1559C714.745 101.718 718.106 115.27 721.327 128.854C721.925 131.392 723.274 133.098 725.689 134.015C726.179 134.026 726.668 134.026 727.169 134.037C728.528 133.497 729.714 133.908 730.802 134.739C731.292 134.739 731.781 134.75 732.271 134.75C735.328 134.35 738.189 135.138 741.007 136.186C741.257 136.186 741.507 136.197 741.757 136.197C751.799 137.039 761.546 139.566 771.392 141.466C784.338 143.95 780.302 146.023 787.993 134.977C803.104 113.283 817.79 91.3089 832.716 69.486C840.691 57.8348 848.698 46.216 856.519 34.4569C857.118 33.5606 857.749 32.6644 858.565 31.9301C859.032 31.6818 859.511 31.4226 859.979 31.1743C862.035 30.8287 863.71 31.9301 865.495 32.6212C882.52 39.1433 899.546 45.6221 916.582 52.1226C921.684 54.0663 922.011 54.8653 919.835 60.1564C919.835 60.6423 919.824 61.139 919.824 61.6249C920.771 63.0611 919.813 64.1193 919.117 65.2315C919.117 65.7174 919.106 66.2141 919.106 66.7001C919.857 68.309 919.291 69.6911 918.388 71.0301C918.388 71.516 918.377 72.0127 918.377 72.4986C919.226 74.1183 918.388 75.4573 917.659 76.8179C917.659 77.3038 917.659 77.8005 917.648 78.2864C918.715 79.9385 917.583 81.2343 916.919 82.6057C916.919 83.0916 916.909 83.5883 916.909 84.0742C917.844 85.7047 916.734 87.0113 916.191 88.3935C916.191 88.8794 916.18 89.3761 916.18 89.862C917.126 91.5033 916.016 92.7991 915.462 94.192C915.451 94.678 915.451 95.1747 915.44 95.6606C915.984 97.0103 915.57 98.1873 914.733 99.2672C914.733 99.7531 914.722 100.25 914.722 100.736C915.56 102.355 914.733 103.694 914.004 105.055C914.004 105.552 913.993 106.038 913.993 106.534C914.755 108.143 914.178 109.525 913.275 110.864C913.275 111.35 913.264 111.836 913.264 112.333C914.33 113.985 913.199 115.281 912.546 116.652C912.546 117.138 912.535 117.635 912.535 118.121C913.482 119.762 912.372 121.058 911.817 122.451C911.817 122.937 911.806 123.433 911.806 123.919C912.753 125.355 911.795 126.414 911.099 127.526C911.099 128.012 911.088 128.508 911.088 128.994C911.839 130.603 911.273 131.985 910.37 133.324C910.37 133.81 910.359 134.307 910.359 134.793C911.121 136.402 910.544 137.784 909.641 139.123C909.641 139.609 909.631 140.095 909.631 140.592C910.697 142.244 909.565 143.539 908.913 144.911C908.913 145.397 908.902 145.893 908.902 146.379C909.837 148.01 908.728 149.316 908.184 150.699C908.184 151.184 908.173 151.681 908.173 152.167C909.119 153.808 908.01 155.104 907.455 156.497C907.455 156.745 907.455 156.994 907.455 157.253C908.205 158.862 907.64 160.244 906.737 161.583C906.737 162.069 906.726 162.566 906.726 163.052C907.564 164.671 906.737 166.01 906.008 167.371C906.008 167.868 905.997 168.353 905.997 168.85C906.748 170.459 905.91 171.798 905.279 173.169C905.279 173.655 905.268 174.152 905.268 174.638C906.334 176.29 905.203 177.586 904.55 178.957C904.55 179.443 904.539 179.94 904.539 180.426C905.486 182.056 904.376 183.363 903.821 184.756C903.767 185.166 903.756 185.652 903.756 186.138Z" fill="#446AA1" fill-opacity="0.32"/>
<path d="M1110.47 548.339C1112.74 549.17 1114.79 548.101 1116.82 547.443C1131.85 542.594 1146.94 537.908 1161.85 532.703C1167.92 530.587 1173.77 530.252 1180.05 531.051C1216.43 535.673 1252.83 540.111 1289.22 544.581C1292.23 544.948 1295.26 545.186 1298.28 545.521C1300.63 545.78 1301.92 546.914 1302.19 549.44C1303.98 566.825 1305.82 584.199 1307.78 601.563C1308.09 604.327 1306.56 605.105 1304.5 605.936C1285.36 613.657 1266.23 621.421 1247.1 629.174C1225.37 637.974 1203.67 646.829 1181.92 655.543C1179.11 656.666 1178.13 658.296 1178.07 661.255C1177.69 678.737 1176.34 696.144 1173.94 713.475C1173.58 716.174 1174.15 717.999 1176.78 719.392C1195.55 729.326 1214.25 739.379 1232.97 749.389C1252.45 759.798 1271.92 770.208 1291.43 780.563C1294.05 781.956 1295.08 783.543 1294.22 786.642C1288.99 805.485 1283.89 824.371 1278.86 843.268C1278.11 846.075 1276.52 846.885 1273.86 846.756C1257.97 846.032 1242.09 845.406 1226.21 844.661C1219.66 844.358 1213.1 844.369 1206.55 844.088C1198.06 843.721 1189.58 843.019 1181.07 843.16C1179.36 843.16 1177.65 843.149 1175.95 843.149C1172.2 844.391 1168.59 843.765 1165.01 842.447C1162.33 842.436 1159.65 842.436 1156.96 842.426C1153.23 843.57 1149.61 843.095 1146.04 841.713C1144.57 841.713 1143.11 841.713 1141.65 841.702C1138.69 845.039 1137.78 849.369 1136 853.267C1129.72 867.034 1123.36 880.748 1115.8 893.889C1114.8 895.628 1114.92 897.302 1116.09 898.921C1116.33 899.159 1116.56 899.396 1116.8 899.634C1118.21 900.93 1119.64 902.225 1120.47 903.996C1120.71 904.234 1120.94 904.471 1121.18 904.709C1123.06 906.048 1124.28 907.959 1125.59 909.795C1125.82 910.033 1126.06 910.27 1126.3 910.508C1127.71 911.803 1129.13 913.099 1129.97 914.87C1130.21 915.108 1130.44 915.345 1130.68 915.583C1132.56 916.922 1133.78 918.833 1135.09 920.669C1135.31 920.906 1135.55 921.144 1135.79 921.381C1138.99 924.545 1142.02 927.839 1144.58 931.542C1144.82 931.78 1145.05 932.017 1145.29 932.255C1148.48 935.419 1151.51 938.712 1154.08 942.416C1154.32 942.654 1154.55 942.891 1154.79 943.129C1157.97 946.293 1161.01 949.586 1163.58 953.29C1163.82 953.527 1164.05 953.765 1164.28 954.002C1167.5 957.145 1170.53 960.438 1173.06 964.163C1173.3 964.401 1173.53 964.639 1173.77 964.876C1176.99 968.018 1180.02 971.312 1182.55 975.037C1182.79 975.275 1183.02 975.512 1183.26 975.75C1186.48 978.892 1189.5 982.185 1192.04 985.911C1192.28 986.148 1192.5 986.386 1192.74 986.624C1194.63 987.962 1195.84 989.874 1197.15 991.699H1197.14C1198.91 993.124 1200.41 994.787 1201.52 996.785C1201.76 997.022 1201.99 997.26 1202.23 997.497C1204.7 998.977 1204.58 1000.61 1202.96 1002.83C1194.52 1014.45 1185.97 1025.99 1177.5 1037.6C1174.16 1042.19 1170.87 1046.81 1167.46 1051.35C1166.74 1052.31 1166.12 1053.38 1165 1053.97C1154.77 1050.47 1145.02 1045.78 1135.06 1041.6C1103.72 1028.44 1072.42 1015.16 1041.17 1001.81C1038.63 1000.73 1037.05 1000.92 1035.11 1002.86C1025.44 1012.54 1015.95 1022.41 1005.65 1031.45C1002.64 1034.08 999.664 1036.75 996.52 1039.21C994.116 1041.1 993.398 1043.05 994.366 1046.1C1007.28 1086.72 1020.08 1127.37 1032.93 1168.01C1035.04 1174.71 1034.93 1174.64 1029.04 1178.4C1016.24 1186.54 1003.49 1194.75 990.863 1203.13C987.795 1205.16 985.75 1205.12 982.965 1202.55C964.416 1185.36 945.693 1168.37 927.069 1151.25C915.668 1140.77 904.353 1130.18 892.974 1119.68C890.842 1117.71 888.568 1115.89 886.436 1113.92C884.858 1112.46 883.368 1113.06 881.747 1113.8C867.746 1120.26 853.581 1126.35 839.101 1131.67C836.708 1132.56 834.336 1133.51 831.889 1134.21C828.81 1135.1 827.842 1136.99 827.853 1140.11C827.94 1164.61 828.342 1189.12 827.733 1213.61C827.287 1231.83 827.298 1250.03 827.211 1268.25C827.2 1271.23 826.068 1272.48 823.142 1273.09C806.116 1276.57 789.113 1280.17 772.141 1283.9C769.095 1284.57 767.888 1282.91 766.745 1280.84C762.122 1272.49 757.542 1264.11 752.929 1255.76C740.788 1233.75 728.626 1211.76 716.485 1189.76C712.579 1182.66 708.728 1175.55 704.822 1168.45C704.224 1167.36 703.898 1166.24 703.854 1165.01C703.604 1157.18 703.419 1149.34 703.082 1141.52C702.571 1129.48 702.712 1117.42 701.657 1105.4C710.316 1104.25 718.998 1103.18 727.647 1101.91C766.811 1096.16 804.55 1085.37 840.864 1069.8C890.102 1048.69 934.369 1019.97 973.565 983.622C1013.21 946.854 1045.49 904.569 1070.26 856.614C1094.9 808.908 1110.54 758.449 1117.43 705.322C1121.91 670.725 1122.36 636.02 1118.9 601.304C1117.1 583.422 1114.28 565.799 1110.47 548.339Z" fill="#446AA1" fill-opacity="0.32"/>
<path d="M657.206 456.609C732.477 456.609 807.749 456.609 883.009 456.609C887.676 456.609 887.676 456.609 887.687 461.252C887.687 487.438 887.622 513.634 887.774 539.82C887.796 543.243 886.752 543.923 883.521 543.923C732.618 543.847 581.716 543.847 430.814 543.923C427.681 543.923 426.68 543.243 426.702 539.971C426.844 513.537 426.844 487.103 426.691 460.68C426.669 457.203 427.844 456.545 431.043 456.555C506.423 456.631 581.814 456.609 657.206 456.609Z" fill="black" fill-opacity="0.32"/>
<path d="M590.984 752.04C590.984 811.537 590.984 871.035 590.984 930.543C590.984 931.872 590.929 933.2 590.973 934.528C591.071 937.119 589.896 938.178 587.252 938.167C566.343 938.113 545.423 938.113 524.513 938.156C521.989 938.156 520.967 937.098 521.119 934.668C521.195 933.351 521.119 932.012 521.119 930.684C521.119 847.042 521.13 763.41 521.108 679.768C521.097 659.165 510.022 642.709 490.93 634.805C485.947 632.742 480.714 631.662 475.308 631.662C460.719 631.684 446.13 631.479 431.552 632.202C426.668 632.44 426.396 632.008 426.385 627.149C426.363 608.446 426.363 589.733 426.385 571.031C426.396 566.366 426.853 565.934 431.694 565.923C483.01 565.913 534.315 565.913 585.631 565.923C590.646 565.923 590.984 566.312 590.984 571.711C590.984 631.835 590.984 691.937 590.984 752.04Z" fill="#1F74A1" fill-opacity="0.32"/>
<path d="M701.026 752.196C701.026 812.666 700.993 873.135 701.102 933.604C701.113 937.081 700.493 938.291 696.62 938.258C670.358 938.064 644.085 938.096 617.824 938.226C614.451 938.248 613.32 937.589 613.32 933.939C613.429 812.633 613.418 691.327 613.342 570.021C613.342 566.976 613.918 565.875 617.28 565.896C643.911 566.037 670.543 566.047 697.175 565.896C700.601 565.875 701.091 567.073 701.091 570.054C701.004 630.771 701.026 691.489 701.026 752.196Z" fill="black" fill-opacity="0.32"/>
<path d="M723.491 752.002C723.491 691.77 723.491 631.527 723.491 571.295C723.491 565.875 723.502 565.853 728.898 565.853C779.974 565.853 831.062 565.853 882.139 565.853C887.665 565.853 887.676 565.864 887.676 571.166C887.676 589.998 887.611 608.83 887.741 627.662C887.763 631.074 886.827 632.434 883.237 632.229C868.67 631.398 854.071 631.527 839.482 631.603C816.006 631.722 795.564 650.575 793.432 673.813C793.018 678.272 792.877 682.721 792.877 687.181C792.877 768.426 792.877 849.66 792.877 930.905C792.877 932.233 792.812 933.562 792.866 934.89C792.964 937.233 791.811 938.086 789.537 938.086C768.617 938.053 747.697 938.053 726.787 938.086C724.514 938.086 723.36 937.244 723.491 934.89C723.556 933.691 723.491 932.471 723.491 931.272C723.491 871.505 723.491 811.759 723.491 752.002Z" fill="#1F74A1" fill-opacity="0.32"/>
<path d="M711.231 388.992C711.198 418.697 687.123 442.572 657.249 442.561C627.419 442.539 603.214 418.546 603.192 388.981C603.17 359.513 627.517 335.379 657.271 335.379C687.09 335.368 711.264 359.394 711.231 388.992Z" fill="black" fill-opacity="0.32"/>
</svg>
