<svg width="135" height="36" viewBox="0 0 135 36" fill="none" xmlns="http://www.w3.org/2000/svg">
<path d="M51.0351 9.19998C50.998 8.82598 50.8389 8.53543 50.5576 8.32834C50.2763 8.12125 49.8946 8.01771 49.4124 8.01771C49.0848 8.01771 48.8081 8.06407 48.5825 8.1568C48.3569 8.24643 48.1838 8.37162 48.0632 8.53234C47.9458 8.69307 47.887 8.87543 47.887 9.07943C47.8809 9.24943 47.9164 9.39779 47.9937 9.52452C48.074 9.65125 48.1838 9.76098 48.3229 9.8537C48.462 9.94334 48.6227 10.0222 48.805 10.0902C48.9874 10.1551 49.1821 10.2107 49.3892 10.2571L50.2423 10.4611C50.6565 10.5538 51.0367 10.6774 51.3829 10.832C51.729 10.9865 52.0289 11.1766 52.2823 11.4022C52.5358 11.6279 52.732 11.8937 52.8711 12.1997C53.0133 12.5057 53.0859 12.8565 53.089 13.2521C53.0859 13.8332 52.9376 14.3371 52.6439 14.7636C52.3534 15.1871 51.933 15.5162 51.3829 15.7511C50.8358 15.983 50.1759 16.0989 49.4031 16.0989C48.6366 16.0989 47.969 15.9814 47.4002 15.7465C46.8346 15.5116 46.3926 15.1639 46.0742 14.7033C45.759 14.2397 45.5936 13.6663 45.5781 12.9832H47.5208C47.5424 13.3016 47.6336 13.5674 47.7943 13.7807C47.9581 13.9909 48.176 14.1501 48.448 14.2582C48.7231 14.3633 49.0338 14.4159 49.3799 14.4159C49.7199 14.4159 50.0151 14.3664 50.2655 14.2675C50.5189 14.1686 50.7152 14.0311 50.8543 13.8549C50.9934 13.6787 51.0629 13.4762 51.0629 13.2475C51.0629 13.0342 50.9996 12.855 50.8729 12.7097C50.7492 12.5644 50.5669 12.4408 50.3258 12.3388C50.0878 12.2368 49.7957 12.1441 49.4495 12.0606L48.4156 11.801C47.615 11.6062 46.983 11.3018 46.5193 10.8876C46.0557 10.4734 45.8254 9.91552 45.8285 9.21389C45.8254 8.63898 45.9784 8.13671 46.2875 7.70707C46.5997 7.27744 47.0278 6.94207 47.5718 6.70098C48.1158 6.45989 48.734 6.33935 49.4263 6.33935C50.131 6.33935 50.7461 6.45989 51.2716 6.70098C51.8001 6.94207 52.2112 7.27744 52.5049 7.70707C52.7985 8.13671 52.9499 8.63434 52.9592 9.19998H51.0351ZM54.4394 6.46916H56.9152L59.5301 12.8488H59.6414L62.2563 6.46916H64.7321V15.9644H62.7848V9.78416H62.706L60.2487 15.9181H58.9227L56.4655 9.76098H56.3866V15.9644H54.4394V6.46916ZM66.3861 15.9644V6.46916H68.3936V10.6558H68.5188L71.9358 6.46916H74.3421L70.8184 10.7207L74.3838 15.9644H71.9822L69.3812 12.0606L68.3936 13.2661V15.9644H66.3861ZM86.3514 6.46916V15.9644H84.6174L80.4864 9.98816H80.4169V15.9644H78.4093V6.46916H80.1711L84.2697 12.4408H84.3531V6.46916H86.3514ZM88.01 15.9644V6.46916H94.4082V8.12434H90.0176V10.3869H94.079V12.0421H90.0176V14.3092H94.4268V15.9644H88.01ZM102.3 9.53843C102.236 9.31279 102.144 9.11343 102.027 8.94034C101.909 8.76416 101.766 8.6158 101.596 8.49525C101.429 8.37162 101.237 8.27734 101.021 8.21243C100.808 8.14752 100.571 8.11507 100.311 8.11507C99.8262 8.11507 99.3996 8.23562 99.0318 8.47671C98.6671 8.7178 98.3827 9.06861 98.1787 9.52916C97.9747 9.98661 97.8727 10.5461 97.8727 11.2075C97.8727 11.869 97.9732 12.4315 98.1741 12.8952C98.375 13.3588 98.6594 13.7127 99.0272 13.9569C99.395 14.198 99.8293 14.3185 100.33 14.3185C100.784 14.3185 101.172 14.2381 101.494 14.0774C101.818 13.9136 102.066 13.6833 102.236 13.3866C102.409 13.0899 102.495 12.7391 102.495 12.3342L102.903 12.3944H100.455V10.883H104.429V12.0792C104.429 12.9137 104.252 13.6308 103.9 14.2304C103.548 14.827 103.062 15.2875 102.444 15.6121C101.826 15.9335 101.118 16.0942 100.321 16.0942C99.4305 16.0942 98.6485 15.898 97.9747 15.5054C97.3009 15.1098 96.7755 14.5488 96.3984 13.8224C96.0244 13.093 95.8374 12.2275 95.8374 11.2261C95.8374 10.4564 95.9486 9.77025 96.1712 9.16752C96.3968 8.56171 96.7121 8.04862 97.117 7.62825C97.5219 7.20789 97.9933 6.88798 98.5311 6.66853C99.0689 6.44907 99.6515 6.33935 100.279 6.33935C100.817 6.33935 101.318 6.41816 101.781 6.5758C102.245 6.73035 102.656 6.9498 103.014 7.23416C103.376 7.51853 103.671 7.85698 103.9 8.24952C104.129 8.63898 104.276 9.06861 104.34 9.53843H102.3ZM105.937 15.9644V6.46916H112.335V8.12434H107.944V10.3869H112.005V12.0421H107.944V14.3092H112.353V15.9644H105.937ZM113.931 15.9644V6.46916H117.677C118.394 6.46916 119.006 6.59744 119.513 6.85398C120.023 7.10744 120.411 7.46753 120.677 7.93425C120.946 8.39789 121.08 8.94343 121.08 9.57089C121.08 10.2014 120.944 10.7439 120.672 11.1982C120.4 11.6495 120.006 11.9957 119.49 12.2368C118.977 12.4779 118.355 12.5984 117.626 12.5984H115.118V10.985H117.301C117.685 10.985 118.003 10.9324 118.256 10.8273C118.51 10.7222 118.698 10.5646 118.822 10.3544C118.949 10.1442 119.012 9.88307 119.012 9.57089C119.012 9.25561 118.949 8.9898 118.822 8.77343C118.698 8.55707 118.508 8.39325 118.252 8.28198C117.998 8.16762 117.678 8.11043 117.292 8.11043H115.938V15.9644H113.931ZM119.059 11.6433L121.418 15.9644H119.202L116.893 11.6433H119.059ZM124.506 6.46916V15.9644H122.499V6.46916H124.506ZM133.255 6.46916V15.9644H131.248V8.37471H131.192L129.017 9.73779V7.95743L131.368 6.46916H133.255ZM49.2501 31.9644H45.8841V22.4692H49.2779C50.233 22.4692 51.0552 22.6593 51.7445 23.0394C52.4338 23.4165 52.9639 23.959 53.3348 24.6668C53.7088 25.3746 53.8958 26.2215 53.8958 27.2075C53.8958 28.1966 53.7088 29.0466 53.3348 29.7575C52.9639 30.4684 52.4307 31.014 51.7352 31.3941C51.0429 31.7743 50.2145 31.9644 49.2501 31.9644ZM47.8917 30.2443H49.1667C49.7601 30.2443 50.2593 30.1392 50.6642 29.9291C51.0722 29.7158 51.3782 29.3866 51.5822 28.9415C51.7893 28.4933 51.8929 27.9153 51.8929 27.2075C51.8929 26.5059 51.7893 25.9325 51.5822 25.4874C51.3782 25.0423 51.0738 24.7147 50.6689 24.5045C50.2639 24.2943 49.7648 24.1893 49.1713 24.1893H47.8917V30.2443ZM55.3829 31.9644V22.4692H61.781V24.1243H57.3904V26.3869H61.4519V28.0421H57.3904V30.3092H61.7996V31.9644H55.3829ZM71.3192 22.4692V31.9644H69.5852L65.4542 25.9882H65.3846V31.9644H63.3771V22.4692H65.1389L69.2375 28.4408H69.3209V22.4692H71.3192ZM72.9778 31.9644V22.4692H76.724C77.4442 22.4692 78.0577 22.6067 78.5646 22.8818C79.0715 23.1538 79.4579 23.5324 79.7237 24.0177C79.9926 24.4999 80.1271 25.0562 80.1271 25.6868C80.1271 26.3173 79.9911 26.8737 79.7191 27.3559C79.4471 27.8381 79.053 28.2136 78.5368 28.4825C78.0237 28.7514 77.4025 28.8859 76.673 28.8859H74.2853V27.2771H76.3485C76.7348 27.2771 77.0532 27.2106 77.3035 27.0777C77.557 26.9417 77.7455 26.7547 77.8692 26.5167C77.9959 26.2756 78.0593 25.999 78.0593 25.6868C78.0593 25.3715 77.9959 25.0964 77.8692 24.8615C77.7455 24.6235 77.557 24.4396 77.3035 24.3098C77.0501 24.1769 76.7286 24.1104 76.3392 24.1104H74.9854V31.9644H72.9778ZM81.9712 31.9644H79.8199L83.0978 22.4692H85.6849L88.9582 31.9644H86.8069L84.4285 24.639H84.3543L81.9712 31.9644ZM81.8367 28.2322H86.9182V29.7992H81.8367V28.2322ZM95.0353 25.2C94.9982 24.826 94.839 24.5354 94.5577 24.3283C94.2765 24.1213 93.8947 24.0177 93.4126 24.0177C93.0849 24.0177 92.8083 24.0641 92.5826 24.1568C92.357 24.2464 92.1839 24.3716 92.0634 24.5323C91.9459 24.6931 91.8872 24.8754 91.8872 25.0794C91.881 25.2494 91.9166 25.3978 91.9938 25.5245C92.0742 25.6512 92.1839 25.761 92.323 25.8537C92.4621 25.9433 92.6228 26.0222 92.8052 26.0902C92.9876 26.1551 93.1823 26.2107 93.3894 26.2571L94.2425 26.4611C94.6566 26.5538 95.0368 26.6774 95.383 26.832C95.7292 26.9865 96.029 27.1766 96.2825 27.4022C96.5359 27.6279 96.7322 27.8937 96.8713 28.1997C97.0135 28.5057 97.0861 28.8565 97.0892 29.2521C97.0861 29.8332 96.9377 30.3371 96.6441 30.7636C96.3536 31.1871 95.9332 31.5162 95.383 31.7511C94.8359 31.983 94.176 32.0989 93.4033 32.0989C92.6367 32.0989 91.9691 31.9814 91.4004 31.7465C90.8347 31.5116 90.3927 31.1639 90.0744 30.7033C89.7591 30.2397 89.5937 29.6663 89.5783 28.9832H91.5209C91.5426 29.3016 91.6337 29.5674 91.7945 29.7807C91.9583 29.9909 92.1762 30.1501 92.4482 30.2582C92.7233 30.3633 93.0339 30.4159 93.3801 30.4159C93.7201 30.4159 94.0153 30.3664 94.2656 30.2675C94.5191 30.1686 94.7154 30.0311 94.8545 29.8549C94.9936 29.6787 95.0631 29.4762 95.0631 29.2475C95.0631 29.0342 94.9997 28.855 94.873 28.7097C94.7494 28.5644 94.567 28.4408 94.3259 28.3388C94.0879 28.2368 93.7958 28.1441 93.4496 28.0606L92.4157 27.801C91.6152 27.6062 90.9831 27.3018 90.5195 26.8876C90.0558 26.4734 89.8256 25.9155 89.8287 25.2139C89.8256 24.639 89.9786 24.1367 90.2877 23.7071C90.5998 23.2774 91.0279 22.9421 91.5719 22.701C92.1159 22.4599 92.7341 22.3393 93.4265 22.3393C94.1312 22.3393 94.7463 22.4599 95.2717 22.701C95.8003 22.9421 96.2114 23.2774 96.505 23.7071C96.7986 24.1367 96.9501 24.6343 96.9594 25.2H95.0353ZM99.8594 31.9644H97.7081L100.986 22.4692H103.573L106.846 31.9644H104.695L102.317 24.639H102.242L99.8594 31.9644ZM99.725 28.2322H104.806V29.7992H99.725V28.2322ZM107.989 31.9644V22.4692H111.735C112.453 22.4692 113.065 22.5974 113.571 22.854C114.081 23.1074 114.469 23.4675 114.735 23.9343C115.004 24.3979 115.139 24.9434 115.139 25.5709C115.139 26.2014 115.003 26.7439 114.731 27.1982C114.459 27.6495 114.064 27.9957 113.548 28.2368C113.035 28.4779 112.414 28.5984 111.684 28.5984H109.176V26.985H111.36C111.743 26.985 112.062 26.9324 112.315 26.8273C112.568 26.7222 112.757 26.5646 112.881 26.3544C113.007 26.1442 113.071 25.8831 113.071 25.5709C113.071 25.2556 113.007 24.9898 112.881 24.7734C112.757 24.5571 112.567 24.3933 112.31 24.282C112.057 24.1676 111.737 24.1104 111.351 24.1104H109.997V31.9644H107.989ZM113.117 27.6433L115.477 31.9644H113.261L110.952 27.6433H113.117Z" fill="#3ABAC2"/>
<path d="M20.7196 15.4034C20.7196 15.4034 21.5698 9.61097 12.2118 7.25539C12.2118 7.25539 7.10678 6.0464 0.0183427 6.49197V23.296C0.0183427 23.296 -0.195055 24.3624 0.833885 24.3935C0.833885 24.3935 8.20685 24.2822 13.3119 26.908C18.4169 29.5339 19.9586 32.0633 19.9586 32.0633C19.9586 32.0633 20.3755 32.8267 20.8089 32.8193C21.2423 32.8119 21.6592 31.992 21.6592 31.992C21.6592 31.992 24.1587 27.8631 31.2306 25.5713C31.2306 25.5713 37.1594 23.9717 40.6152 24.2584C40.6152 24.2584 41.4125 24.3772 41.4654 23.3984C41.5184 22.4197 41.4654 6.97616 41.4654 6.97616C41.4654 6.97616 41.5002 6.3078 40.7128 6.22018C39.9253 6.13255 32.9577 6.02115 29.0768 7.21529C25.1959 8.40942 20.8966 10.7249 20.7196 15.4034Z" fill="#456CA2"/>
<path d="M20.7196 6.68357C22.7752 6.68357 24.4416 5.1874 24.4416 3.34178C24.4416 1.49617 22.7752 0 20.7196 0C18.6639 0 16.9975 1.49617 16.9975 3.34178C16.9975 5.1874 18.6639 6.68357 20.7196 6.68357Z" fill="#456CA2"/>
<path d="M1.0125 27.3091C1.5095 27.3091 1.91241 26.9473 1.91241 26.5011C1.91241 26.0549 1.5095 25.6931 1.0125 25.6931C0.51549 25.6931 0.112587 26.0549 0.112587 26.5011C0.112587 26.9473 0.51549 27.3091 1.0125 27.3091Z" fill="#3ABAC2"/>
<path d="M1.01251 30.3493C1.50952 30.3493 1.91242 29.9876 1.91242 29.5414C1.91242 29.0951 1.50952 28.7334 1.01251 28.7334C0.515505 28.7334 0.112602 29.0951 0.112602 29.5414C0.112602 29.9876 0.515505 30.3493 1.01251 30.3493Z" fill="#3ABAC2"/>
<path d="M2.44673 25.9382V27.211V27.2793C2.44673 27.2793 7.21426 26.862 11.4326 29.4077C15.6509 31.9534 16.6435 33.4178 16.6435 33.4178L17.818 32.65C17.818 32.65 15.0835 29.4716 11.0422 27.6566C7.00087 25.8431 2.44673 25.9382 2.44673 25.9382Z" fill="#3ABAC2"/>
<path d="M2.44673 28.9621V30.0211V30.287C2.44673 30.287 9.8197 30.1072 14.3341 35.108C14.703 34.9298 15.421 34.3105 15.421 34.3105C15.421 34.3105 13.0819 31.9029 9.68075 30.3939C6.27962 28.8849 2.44673 28.9621 2.44673 28.9621Z" fill="#3ABAC2"/>
<path d="M40.4779 27.214C40.9749 27.214 41.3778 26.8523 41.3778 26.4061C41.3778 25.9598 40.9749 25.5981 40.4779 25.5981C39.9809 25.5981 39.578 25.9598 39.578 26.4061C39.578 26.8523 39.9809 27.214 40.4779 27.214Z" fill="#3ABAC2"/>
<path d="M40.4779 30.2528C40.9749 30.2528 41.3778 29.8911 41.3778 29.4449C41.3778 28.9986 40.9749 28.6369 40.4779 28.6369C39.9809 28.6369 39.578 28.9986 39.578 29.4449C39.578 29.8911 39.9809 30.2528 40.4779 30.2528Z" fill="#3ABAC2"/>
<path d="M39.0437 25.8431V27.116V27.1843C39.0437 27.1843 34.2761 26.767 30.0578 29.3127C25.8395 31.8584 24.8469 33.3228 24.8469 33.3228L23.6724 32.5549C23.6724 32.5549 26.4069 29.3765 30.4482 27.5616C34.4895 25.7481 39.0437 25.8431 39.0437 25.8431Z" fill="#3ABAC2"/>
<path d="M39.0437 28.8671V29.9261V30.1919C39.0437 30.1919 31.6707 30.0122 27.1563 35.013C26.7874 34.8348 26.0695 34.2154 26.0695 34.2154C26.0695 34.2154 28.4086 31.8079 31.8097 30.2989C35.2108 28.7899 39.0437 28.8671 39.0437 28.8671Z" fill="#3ABAC2"/>
</svg>
