<svg width="36" height="36" viewBox="0 0 36 36" fill="none" xmlns="http://www.w3.org/2000/svg">
<rect width="36" height="36" rx="6" fill="#F3F6F9"/>
<path opacity="0.3" d="M18 19C14.6863 19 12 16.3137 12 13C12 9.68629 14.6863 7 18 7C21.3137 7 24 9.68629 24 13C24 16.3137 21.3137 19 18 19Z" fill="#464E5F"/>
<path d="M5.00094 34.6987C5.56082 26.9431 11.1561 23 17.9759 23C24.8918 23 30.5737 26.7264 30.997 34.7C31.0138 35.0176 30.997 36 29.9119 36C24.5594 36 16.6057 36 6.05084 36C5.68858 36 4.97044 35.1212 5.00094 34.6987Z" fill="#464E5F"/>
</svg>
